<?xml version="1.0" standalone="no"?>
<!DOCTYPE svg PUBLIC "-//W3C//DTD SVG 1.1//EN" "http://www.w3.org/Graphics/SVG/1.1/DTD/svg11.dtd" >
<svg xmlns="http://www.w3.org/2000/svg" xmlns:xlink="http://www.w3.org/1999/xlink" version="1.1">
<metadata>
Created by FontForge 20170731 at Tue Apr 18 14:43:54 2017
 By Aleksey,,,
Copyright (c) 2015 ParaType, Inc., ParaType Ltd. All rights reserved.
</metadata>
<defs>
<font id="KudryashevHeadline" horiz-adv-x="528" >
  <font-face 
    font-family="Kudryashev Headline"
    font-weight="400"
    font-stretch="normal"
    units-per-em="1000"
    panose-1="2 3 5 3 8 5 6 2 3 3"
    ascent="772"
    descent="-228"
    x-height="481"
    cap-height="723"
    bbox="-455 -353 1156 968"
    underline-thickness="50"
    underline-position="-250"
    unicode-range="U+0020-FEFF"
  />
<missing-glyph horiz-adv-x="224" 
 />
    <glyph glyph-name="afii10017.var.accented" unicode="&#x410;`" horiz-adv-x="712" 
d="M712 12v-12h-264v12h35q49 0 49 31q0 14 -82 250h-256l-35 -90q-44 -117 -44 -143q0 -37 35 -48h45v-12h-195v12h30q30 22 67 92q33 62 98 230l87 235l59 154h24l248 -646q13 -35 30.5 -50t50.5 -15h18zM198 305h247l-124 330zM516 905q0 -19 -42 -46l-149 -90h-24
l133 131q34 33 56 33q26 0 26 -28z" />
    <glyph glyph-name="afii10022.var.accented" unicode="&#x415;`" horiz-adv-x="663" 
d="M46 711v12h554l9 -151h-12l-11 83q-20 26 -90 41q-71 15 -154 15q-70 0 -90 -10q-21 -11 -21 -45v-271h57q56 0 95 4.5t58 10t29 16t11.5 16.5t1.5 17v23h12v-186h-12v25q0 11 -1.5 17t-11.5 16t-29.5 15.5t-58 9.5t-94.5 4h-57v-307q0 -31 15.5 -42.5t48.5 -11.5
q147 0 229 20q75 21 96 77l11 45h12l-29 -154h-568v12h35q39 0 52 11t13 43v591q0 31 -15.5 42.5t-49.5 11.5h-35zM528 905q0 -19 -42 -46l-149 -90h-24l133 131q34 33 56 33q26 0 26 -28z" />
    <glyph glyph-name="afii10026.var.accented" unicode="&#x418;`" horiz-adv-x="862" 
d="M816 12v-12h-286v12h36q38 0 51.5 11.5t13.5 42.5v566l-400 -566q1 -30 14 -42t49 -12h37v-12h-285v12h34q40 0 53 11.5t13 42.5v593q0 29 -13.5 40.5t-52.5 11.5h-34v12h285v-12h-37q-41 0 -52 -9.5t-11 -42.5v-567l400 565q-1 28 -15.5 41t-49.5 13h-36v12h286v-12h-35
q-38 0 -51.5 -11t-13.5 -41v-593q0 -32 13 -43t52 -11h35zM591 905q0 -19 -42 -46l-149 -90h-24l133 131q34 33 56 33q26 0 26 -28z" />
    <glyph glyph-name="afii10032.var.accented" unicode="&#x41e;`" horiz-adv-x="868" 
d="M809 363q0 -47 -11 -96t-38.5 -100.5t-69 -91t-108 -64.5t-149.5 -25q-121 1 -202.5 50.5t-121.5 129.5q-50 92 -50 197q0 78 30.5 155.5t92.5 134.5q94 86 251 86q98 0 174 -33t119 -91q83 -113 83 -252zM716 363q0 160 -74 263q-75 101 -209 101q-133 0 -207 -98
t-74 -266q0 -208 126 -311q64 -54 155 -54q69 0 124.5 30.5t89 82.5t51.5 116.5t18 135.5zM609 905q0 -19 -42 -46l-149 -90h-24l133 131q35 33 56 33q26 0 26 -28z" />
    <glyph glyph-name="afii10037.var.accented" unicode="&#x423;`" horiz-adv-x="751" 
d="M751 723v-12h-28q-37 -14 -66 -65q-33 -57 -113 -240q-40 -91 -58 -130q-75 -160 -120 -222q-50 -68 -117 -68q-117 0 -117 88q0 26 14.5 40.5t39.5 14.5q23 0 36.5 -12t13.5 -34q0 -6 -5.5 -21t-5.5 -20q0 -14 10.5 -23t25.5 -9q54 0 94 52q9 12 21.5 33t21 37t7.5 16
l-284 507q-35 56 -91 56h-15v12h273v-12h-38q-39 0 -39 -25q0 -12 6 -23l234 -430q15 29 81 177q43 97 70 167q31 81 31 101q0 33 -38 33h-40v12h196zM555 905q0 -19 -42 -46l-149 -90h-24l133 131q35 33 56 33q26 0 26 -28z" />
    <glyph glyph-name="afii10045.var.accented" unicode="&#x42b;`" horiz-adv-x="1025" 
d="M979 12v-12h-284v12h35q36 0 50.5 11.5t14.5 42.5v591q0 29 -14.5 41.5t-50.5 12.5h-35v12h284v-12h-36q-40 0 -51.5 -11t-11.5 -43v-591q0 -32 12.5 -43t50.5 -11h36zM231 657v-239q76 26 148 26q151 0 215 -60t64 -154q0 -89 -61 -156q-71 -79 -234 -79q-19 0 -74 3
q-60 3 -78 2h-165v12h34q66 0 66 54v591q0 29 -15 41.5t-51 12.5h-33v12h284v-12h-36q-36 0 -50 -12t-14 -42zM565 226q0 206 -203 206q-66 0 -131 -27v-370q52 -28 128 -28q90 0 148 60q58 58 58 159zM648 905q0 -19 -42 -46l-149 -90h-24l133 131q34 33 56 33q26 0 26 -28
z" />
    <glyph glyph-name="afii10047.var.accented" unicode="&#x42d;`" horiz-adv-x="741" 
d="M682 389q0 -196 -96 -299.5t-272 -103.5q-115 0 -188 43q-75 43 -75 102q0 31 16.5 46.5t42.5 15.5q23 0 36.5 -14t13.5 -33q0 -11 -10 -34.5t-10 -32.5q0 -37 57 -59q54 -22 117 -22q275 0 275 372h-113q-164 0 -267 -16v44q125 -16 267 -16h113v21q0 83 -28 158
q-15 43 -43 82q-29 37 -76 60.5t-104 23.5q-79 0 -147 -41q-67 -40 -93 -98l-3 -22q-3 -22 -3 -25h-12l12 182h12l-1 -37q54 26 121 40q64 13 114 13q108 0 189 -48.5t119 -128.5q36 -78 36 -173zM468 905q0 -19 -42 -46l-149 -90h-24l133 131q34 33 56 33q26 0 26 -28z" />
    <glyph glyph-name="afii10048.var.accented" unicode="&#x42e;`" horiz-adv-x="1199" 
d="M1140 363q2 -73 -28.5 -151t-90.5 -136q-95 -90 -259 -90q-120 1 -201.5 49t-122.5 128q-51 92 -53 206h-154v-303q0 -32 13 -43t49 -11h38v-12h-285v12h36q38 0 51 11t13 43v591q0 30 -14 42t-50 12h-36v12h285v-12h-38q-36 0 -49 -11t-13 -43v-276h155q6 137 94 243
q44 54 117.5 84.5t164.5 30.5q80 0 145.5 -23t108 -60t71 -87t41 -101t12.5 -105zM1047 363q0 161 -75 263q-77 101 -210 101q-135 0 -209 -98q-75 -97 -75 -266q0 -209 128 -312q67 -53 156 -53q69 0 124.5 30.5t90 82.5t52.5 116.5t18 135.5zM708 905q0 -19 -42 -46
l-149 -90h-24l133 131q34 33 56 33q26 0 26 -28z" />
    <glyph glyph-name="afii10049.var.accented" unicode="&#x42f;`" horiz-adv-x="752" 
d="M706 12v-12h-285v12h36q40 0 52 11t12 43v298q-94 1 -152.5 -47t-102.5 -151q-39 -92 -80.5 -136t-98.5 -44q-76 0 -82 85h12q6 -61 39 -61q20 0 36.5 20.5t40.5 77.5q25 56 37 77q64 114 199 163h-23q-107 2 -178 53q-72 51 -72 149q0 65 49 119q58 65 212 65
q31 0 108 -6q80 -6 110 -5h131v-12h-37q-37 0 -50 -11.5t-13 -42.5v-591q0 -30 13 -42t50 -12h37zM521 376v320q-60 26 -129 26q-86 0 -145 -45q-58 -45 -58 -130q0 -87 49.5 -134t144.5 -47q35 0 75 3q48 5 63 7zM536 905q0 -19 -42 -46l-149 -90h-24l133 131q34 33 56 33
q26 0 26 -28z" />
    <glyph glyph-name="afii10023.var.accented" unicode="&#x401;`" horiz-adv-x="663" 
d="M236 812q0 -21 -14.5 -35.5t-35.5 -14.5t-35.5 14.5t-14.5 35.5t14 35.5t36 14.5q23 0 36.5 -14t13.5 -36zM570 812q0 -21 -14.5 -35.5t-35.5 -14.5t-35.5 14.5t-14.5 35.5t14 35.5t36 14.5q23 0 36.5 -14t13.5 -36zM468 896q0 -19 -42 -46l-149 -90h-24l133 131
q34 33 56 33q26 0 26 -28zM46 711v12h554l9 -151h-12l-11 83q-20 26 -90 41q-71 15 -154 15q-70 0 -90 -10q-21 -11 -21 -45v-271h57q56 0 95 4.5t58 10t29 16t11.5 16.5t1.5 17v23h12v-186h-12v25q0 11 -1.5 17t-11.5 16t-29.5 15.5t-58 9.5t-94.5 4h-57v-307
q0 -31 15.5 -42.5t48.5 -11.5q147 0 229 20q75 21 96 77l11 45h12l-29 -154h-568v12h35q39 0 52 11t13 43v591q0 31 -15.5 42.5t-49.5 11.5h-35z" />
    <glyph glyph-name="afii10065.var.accented" unicode="&#x430;`" horiz-adv-x="484" 
d="M429 13q13 0 23.5 14t14.5 38h12q-10 -76 -74 -76q-76 0 -76 103q-99 -103 -190 -103q-56 0 -86.5 28t-30.5 74q0 95 138 150q67 26 143 37l26 4v51q0 78 -28 113t-97 35q-34 0 -58 -13t-24 -36q0 -6 4.5 -20t4.5 -20q0 -38 -42 -38q-17 0 -27.5 11.5t-10.5 30.5
q0 40 46 68q46 29 113 29q188 0 188 -160v-265q0 -55 31 -55zM329 108v162q-96 -17 -157 -52q-69 -38 -69 -114q0 -41 21 -62t58 -21q34 0 77 28q40 26 70 59zM393 698q0 -19 -42 -46l-149 -90h-24l133 131q35 33 56 33q26 0 26 -28z" />
    <glyph glyph-name="afii10070.var.accented" unicode="&#x435;`" horiz-adv-x="465" 
d="M248 493q92 0 141 -63t51 -149h-334q0 -166 53 -222q43 -46 104 -46q99 0 162 99l10 -7q-68 -116 -191 -116q-76 0 -142 52q-77 59 -77 197q0 118 59.5 186.5t163.5 68.5zM106 293h257q0 81 -31 134q-32 54 -91 54q-120 0 -135 -188zM403 698q0 -19 -42 -46l-149 -90h-24
l133 131q35 33 56 33q26 0 26 -28z" />
    <glyph glyph-name="afii10074.var.accented" unicode="&#x438;`" horiz-adv-x="578" 
d="M563 12v-12h-219v12h21q29 0 39 9.5t10 33.5v334l-250 -314v-20q0 -24 10 -33.5t37 -9.5h23v-12h-219v12h31q28 0 38.5 9.5t10.5 33.5v371q0 25 -10 34t-39 9h-31v12h219v-12h-23q-28 0 -37.5 -9t-9.5 -34v-328l250 314v14q0 25 -9.5 34t-38.5 9h-22v12h219v-12h-31
q-29 0 -39 -9.5t-10 -33.5v-371q0 -24 10.5 -33.5t37.5 -9.5h32zM453 698q0 -19 -42 -46l-149 -90h-24l133 131q35 33 56 33q26 0 26 -28z" />
    <glyph glyph-name="afii10080.var.accented" unicode="&#x43e;`" 
d="M503 240q0 -113 -67 -181q-67 -70 -172 -70q-104 0 -171 69q-68 70 -68 182q0 121 65 187t174 66q111 0 175 -64.5t64 -188.5zM422 240q0 123 -43 182t-115 59t-115 -59t-43 -182q0 -121 43 -180t115 -59t115 59t43 180zM431 698q0 -19 -42 -46l-149 -90h-24l133 131
q35 33 56 33q26 0 26 -28z" />
    <glyph glyph-name="afii10085.var.accented" unicode="&#x443;`" horiz-adv-x="535" 
d="M535 481v-12h-10q-33 0 -51 -34q-9 -16 -37 -87l-74 -200l-82 -205q-39 -96 -69 -132q-37 -43 -90 -43q-36 0 -58 17.5t-22 46.5q-1 33 31 41q30 8 45 -13q7 -9 6 -22l-1 -22q-1 -12 6.5 -18t22.5 -6q25 0 49 29q46 60 79 162l-200 444q-7 14 -12 21t-18 13t-36 8h-14v12
h219v-12h-32q-34 0 -34 -26q0 -8 6 -22l158 -358q121 327 121 363q0 43 -37 43h-28v12h162zM452 698q0 -19 -42 -46l-149 -90h-24l133 131q34 33 56 33q26 0 26 -28z" />
    <glyph glyph-name="afii10093.var.accented" unicode="&#x44b;`" horiz-adv-x="716" 
d="M701 12v-12h-229v12h33q29 0 38 8.5t9 33.5v372q0 25 -9.5 34t-37.5 9h-33v12h229v-12h-33q-27 0 -37 -9.5t-10 -33.5v-372q0 -24 9.5 -33t37.5 -9h33zM164 426v-131q43 13 106 13q96 0 143 -47q46 -47 46 -107q0 -67 -46 -114q-47 -48 -147 -48q-29 0 -73 4
q-49 4 -178 4v12h33q26 0 36.5 9t10.5 34v371q0 25 -10 34t-37 9h-33v12h229v-12h-32q-27 0 -37.5 -9.5t-10.5 -33.5zM378 154q0 142 -136 142q-42 0 -78 -13v-257q40 -22 85 -22q62 0 95.5 39.5t33.5 110.5zM508 698q0 -19 -42 -46l-149 -90h-24l133 131q34 33 56 33
q26 0 26 -28z" />
    <glyph glyph-name="afii10095.var.accented" unicode="&#x44d;`" horiz-adv-x="452" 
d="M427 256q0 -129 -65.5 -198t-176.5 -69q-73 0 -118.5 27.5t-45.5 71.5q0 20 11 31.5t29 11.5q38 0 38 -39q0 -4 -4.5 -20.5t-4.5 -22.5q0 -21 32 -35q30 -13 63 -13q111 0 144 113q17 61 17 144q-9 1 -55 1q-112 0 -182 -14v34q50 -10 155 -10q61 0 82 1q0 211 -142 211
q-69 0 -111 -42q-43 -43 -43 -72v-6h-12l6 120h12l-1 -27q26 16 68 27.5t79 11.5q104 0 164.5 -64.5t60.5 -172.5zM355 698q0 -19 -42 -46l-149 -90h-24l133 131q35 33 56 33q26 0 26 -28z" />
    <glyph glyph-name="afii10096.var.accented" unicode="&#x44e;`" horiz-adv-x="775" 
d="M684 425q66 -67 66 -185q0 -116 -66 -184q-67 -67 -172 -67q-63 0 -111 23t-74.5 61.5t-39.5 82t-13 91.5v14h-110v-206q0 -25 9.5 -34t39.5 -9h31v-12h-229v12h32q29 0 38.5 9t9.5 34v371q0 27 -9 35t-39 8h-32v12h229v-12h-31q-30 0 -39.5 -8t-9.5 -35v-153h111
q11 92 71 155q62 65 166 65t172 -68zM625 57q44 56 44 183t-44 185q-45 56 -113 56t-112 -56q-45 -57 -45 -185t45 -183q44 -56 112 -56t113 56zM520 698q0 -19 -42 -46l-149 -90h-24l133 131q34 33 56 33q26 0 26 -28z" />
    <glyph glyph-name="afii10097.var.accented" unicode="&#x44f;`" horiz-adv-x="546" 
d="M531 12v-12h-230v12h34q26 0 36 9.5t10 33.5v177h-24q-64 0 -93 -23t-65 -90q-39 -70 -64 -95q-27 -28 -71 -28q-59 0 -59 69h12q5 -45 26 -45q12 0 25 16.5t33 60.5q22 48 50 76q41 39 100 59q-88 4 -132.5 37.5t-44.5 89.5q0 54 47 89.5t138 35.5q27 0 55 -1
q54 -2 62 -2h155v-12h-31q-30 0 -39.5 -9t-9.5 -34v-371q0 -25 9.5 -34t39.5 -9h31zM381 250v194q-32 28 -91 28q-63 0 -99 -30.5t-36 -86.5q0 -17 4.5 -33.5t17.5 -36t42.5 -31.5t72.5 -12q62 0 89 8zM486 698q0 -19 -42 -46l-149 -90h-24l133 131q34 33 56 33q26 0 26 -28
z" />
    <glyph glyph-name="afii10071.var.accented" unicode="&#x451;`" horiz-adv-x="465" 
d="M136 637q0 -21 -14.5 -35.5t-35.5 -14.5t-35.5 14.5t-14.5 35.5t14 35.5t36 14.5q23 0 36.5 -14t13.5 -36zM437 637q0 -21 -14.5 -35.5t-35.5 -14.5t-35.5 14.5t-14.5 35.5t14 35.5t36 14.5q23 0 36.5 -14t13.5 -36zM335 701q0 -19 -42 -46l-149 -90h-24l133 131
q35 33 56 33q26 0 26 -28zM248 493q92 0 141 -63t51 -149h-334q0 -166 53 -222q43 -46 104 -46q99 0 162 99l10 -7q-68 -116 -191 -116q-76 0 -142 52q-77 59 -77 197q0 118 59.5 186.5t163.5 68.5zM106 293h257q0 81 -31 134q-32 54 -91 54q-120 0 -135 -188z" />
    <glyph glyph-name="fi" unicode="fi" horiz-adv-x="553" 
d="M538 12v-12h-225v12h27q29 0 39 9t10 34v351q0 35 -13 47q-14 12 -71 12h-141v-410q0 -25 9.5 -34t37.5 -9h27v-12h-223v12h33q29 0 38 8.5t9 34.5v410h-80v16h80q1 297 238 297q71 0 108.5 -32t37.5 -78q0 -28 -14.5 -44.5t-37.5 -16.5q-24 0 -37.5 13t-13.5 34
q0 26 22 45q12 11 12 15q0 52 -87 52q-80 0 -119.5 -67.5t-39.5 -217.5h140q112 0 154 9v-435q0 -24 10 -33.5t37 -9.5h33z" />
    <glyph glyph-name="fl" unicode="fl" horiz-adv-x="582" 
d="M311 769q-43 0 -67 -9t-43 -34q-37 -50 -37 -206v-39h140v-16h-140v-410q0 -25 9.5 -34t38.5 -9h32v-12h-229v12h32q29 0 38.5 9t9.5 34v410h-80v16h80q0 111 26 174q53 126 182 126q6 0 24.5 -0.5t22.5 -0.5q11 -1 49 -1q43 0 88 5v-729q0 -25 9.5 -34t36.5 -9h34v-12
h-229v12h32q26 0 37 10t11 33v642q0 38 -22.5 55t-84.5 17z" />
    <glyph glyph-name=".notdef" horiz-adv-x="224" 
 />
    <glyph glyph-name=".null" horiz-adv-x="0" 
 />
    <glyph glyph-name="nonmarkingreturn" horiz-adv-x="333" 
 />
    <glyph glyph-name="space" unicode=" " horiz-adv-x="224" 
 />
    <glyph glyph-name="exclam" unicode="!" horiz-adv-x="282" 
d="M88 709q6 27 53 27t53 -27q-21 -177 -33 -325l-14 -226h-12q-13 211 -14 226q-12 148 -33 325zM177 71q23 -23 10 -54.5t-46 -31.5q-21 0 -35.5 14.5t-14.5 35.5t15 35.5t35 14.5q22 0 36 -14z" />
    <glyph glyph-name="quotedbl" unicode="&#x22;" horiz-adv-x="299" 
d="M117 724l-33 -180h-12q-1 3 -32 179q19 13 38 13q20 0 39 -12zM259 724l-33 -180h-12q-1 5 -4.5 25.5t-11.5 64.5t-16 89q19 13 38 13q20 0 39 -12z" />
    <glyph glyph-name="numbersign" unicode="#" horiz-adv-x="712" 
d="M406 0h-17l40 214h-214l-41 -214h-17l41 214h-178l2 16h179l52 279h-178l2 16h179l37 195h16l-37 -195h216l36 195h18l-38 -195h188l-3 -16h-188l-51 -279h185l-2 -16h-186zM484 509h-215l-51 -279h214z" />
    <glyph glyph-name="dollar" unicode="$" 
d="M272 -14v-86h-12v86q-113 3 -218 55q0 -5 0.5 -21t0.5 -20h-12l-15 194h12l5 -43q29 -61 90 -104q61 -44 137 -49v339l-12 6q-58 32 -79 46q-32 19 -63 46q-64 54 -64 133t53 124.5t165 46.5v72h12v-72q94 -3 184 -51v35h12l10 -175h-12l-3 38q-17 61 -64.5 100
t-126.5 41v-296l26 -13q48 -26 78 -45q32 -21 65 -48q69 -59 69 -144q0 -83 -63 -138q-65 -57 -175 -57zM437 137q0 103 -165 193v-332q81 1 123 39t42 100zM114 616q0 -55 36 -96t110 -82v289q-146 -2 -146 -111z" />
    <glyph glyph-name="percent" unicode="%" horiz-adv-x="771" 
d="M332 588q0 -76 -44 -114q-43 -37 -97 -37q-73 0 -107 46q-35 47 -35 105q0 59 35 106q35 45 107 45q55 0 98 -37t43 -114zM269 588q0 36 -9 78q-15 61 -69 61q-79 0 -79 -139t79 -139q78 0 78 139zM722 137q0 -76 -44 -114q-43 -37 -97 -37q-73 0 -107 46q-35 47 -35 105
q0 59 35 106q34 45 107 45q55 0 98 -37t43 -114zM659 137q0 36 -9 78q-15 61 -69 61q-79 0 -79 -139t79 -139q78 0 78 139zM617 741l15 -11l-500 -743l-15 10z" />
    <glyph glyph-name="ampersand" unicode="&#x26;" horiz-adv-x="739" 
d="M721 330v-12h-29q-48 0 -66 -50q-31 -102 -103 -174q29 -47 48 -65t42 -18q35 0 86 56l10 -8q-35 -41 -65.5 -57t-70.5 -16q-69 0 -116 59q-89 -59 -187 -59q-111 0 -174 49.5t-63 140.5q0 73 47.5 124.5t147.5 98.5q-63 96 -63 182q0 61 44 108t116 47q63 0 97.5 -34.5
t34.5 -89.5q0 -93 -155 -188l215 -320q30 30 52 76.5t22 88.5q0 27 -15.5 38t-51.5 11h-27v12h224zM410 627q0 40 -23.5 68.5t-58.5 28.5q-42 0 -68.5 -34.5t-26.5 -85.5q0 -86 60 -169q62 47 89.5 92t27.5 100zM451 54l-216 333q-40 -25 -74 -72q-35 -50 -35 -112
q0 -81 44 -137t143 -56q65 0 138 44z" />
    <glyph glyph-name="quotesingle" unicode="'" horiz-adv-x="157" 
d="M117 724l-33 -180h-12q-1 3 -32 179q19 13 38 13q20 0 39 -12z" />
    <glyph glyph-name="parenleft" unicode="(" horiz-adv-x="359" 
d="M348 -92l-7 -10q-131 78 -215 204q-85 125 -85 271q0 145 84 266q83 120 216 200l7 -10q-63 -47 -110 -114.5t-69 -136.5q-37 -118 -37 -205t38 -210q21 -70 68 -138t110 -117z" />
    <glyph glyph-name="parenright" unicode=")" horiz-adv-x="359" 
d="M18 -102l-7 10q63 49 110 117t68 138q38 123 38 210t-37 205q-22 69 -69 136.5t-110 114.5l7 10q133 -80 216 -200q84 -121 84 -266t-84 -271q-86 -126 -216 -204z" />
    <glyph glyph-name="asterisk" unicode="*" horiz-adv-x="502" 
d="M219 544v6v6l-138 45q-1 18 12 39.5t30 27.5l103 -98q6 9 17 11l-31 144q10 10 39 10q26 0 39 -11l-31 -143q12 -5 17 -11l103 98q17 -6 30 -27.5t12 -39.5q-99 -33 -139 -45q2 -6 0 -12l139 -45q1 -18 -12 -39.5t-30 -27.5l-103 97q-9 -9 -17 -10l31 -143
q-13 -11 -39 -11q-29 0 -39 10l31 143q-11 3 -17 11l-103 -97q-17 6 -30 27.5t-12 39.5z" />
    <glyph glyph-name="plus" unicode="+" 
d="M519 354v-16h-247v-243h-16v243h-247v16h247v243h16v-243h247z" />
    <glyph glyph-name="comma" unicode="," horiz-adv-x="215" 
d="M162 33q0 -50 -26.5 -102t-69.5 -91l-9 9q62 64 62 117q-4 22 -9 28.5t-26 20.5q-31 19 -31 46q0 19 14 32t37 13q26 0 42 -19.5t16 -53.5z" />
    <glyph glyph-name="hyphen" unicode="-" horiz-adv-x="354" 
d="M304 272h-254v16h254v-16z" />
    <glyph glyph-name="period" unicode="." horiz-adv-x="206" 
d="M139 71q23 -23 10 -54.5t-46 -31.5q-21 0 -35.5 14.5t-14.5 35.5t15 35.5t35 14.5q22 0 36 -14z" />
    <glyph glyph-name="slash" unicode="/" horiz-adv-x="568" 
d="M573 800l15 -10l-593 -883l-15 10z" />
    <glyph glyph-name="zero" unicode="0" 
d="M480 489q41 -194 -39 -373q-27 -60 -73.5 -95t-104.5 -35t-104.5 35.5t-72.5 94.5q-51 115 -51 247q0 50 7.5 100.5t25 100.5t43 88.5t65 62.5t87.5 24q85 2 142 -72t75 -178zM409 363q0 124 -24 228q-15 63 -46.5 99.5t-75.5 36.5q-101 -5 -130 -184q-14 -83 -14 -180
q0 -190 42 -277q42 -88 102 -88q65 0 105.5 92.5t40.5 272.5z" />
    <glyph glyph-name="one" unicode="1" 
d="M381 12v-12h-247v12h22q63 0 63 55v534q-57 -58 -126 -106l-7 10q135 105 189 227h21v-665q0 -55 65 -55h20z" />
    <glyph glyph-name="two" unicode="2" 
d="M460 137h12l-14 -137h-431v14l184 192q92 96 134.5 168.5t42.5 152.5q0 102 -46 151t-111 49q-88 0 -88 -67q0 -3 3 -20t3 -24q0 -20 -13 -31.5t-35 -11.5q-19 0 -32 14t-13 39q0 42 49 78q49 35 133 35q112 0 173 -54.5t61 -152.5q0 -59 -40 -119.5t-120 -136.5
l-218 -211h233q62 0 91.5 12.5t37.5 40.5z" />
    <glyph glyph-name="three" unicode="3" 
d="M486 204q0 -101 -65 -159.5t-188 -58.5q-103 0 -159 42q-57 40 -57 92q0 23 14 35.5t34 12.5q19 0 32 -12.5t13 -34.5q0 -8 -5.5 -28t-5.5 -30q0 -28 38 -46q37 -19 84 -19q109 0 148 77q33 65 33 143q0 185 -186 185q-35 0 -69 -8v28q33 -9 81 -9q65 0 114 43
q48 44 48 112q0 72 -41 115t-110 43q-54 0 -79.5 -22.5t-18.5 -59.5q2 -16 2 -19q0 -28 -22.5 -39.5t-44.5 1.5t-22 45q0 38 44 73q44 33 141 33q66 0 113 -15t70.5 -40.5t33.5 -52.5t10 -59q0 -56 -44.5 -101.5t-118.5 -60.5q78 -13 131 -69q52 -55 52 -137z" />
    <glyph glyph-name="four" unicode="4" 
d="M431 696l-405 -522h302v283l77 62v-345h97v-12h-97v-95q0 -32 14.5 -43.5t49.5 -11.5h33v-12h-274v12h34q33 0 49.5 12t16.5 43v95h-316v12q147 217 279 442q59 105 67 121z" />
    <glyph glyph-name="five" unicode="5" 
d="M480 241q0 -113 -74 -184t-179 -71q-80 0 -134 33q-54 31 -54 82q0 26 13.5 39t34.5 13t32.5 -11.5t11.5 -29.5q0 -8 -5.5 -28.5t-5.5 -28.5q0 -57 101 -57q87 0 131 71t44 173q0 65 -26 115q-19 33 -48 55q-74 54 -221 54l33 257h219q84 0 91 31v4l1 2h13l-21 -102h-299
q-5 -37 -12 -94q-4 -34 -11 -82h38q76 0 134.5 -14t94.5 -37t58.5 -55.5t31 -65t8.5 -69.5z" />
    <glyph glyph-name="six" unicode="6" 
d="M495 229q0 -104 -60 -173q-61 -70 -163 -70q-239 0 -239 329q0 80 18 154.5t53 135.5t92.5 97.5t128.5 36.5q66 0 103.5 -24t37.5 -62q0 -49 -46 -49q-48 0 -48 47q0 4 2.5 20.5t2.5 18.5q0 17 -14.5 27t-37.5 10q-96 0 -151 -88.5t-59 -248.5q77 57 174 57
q93 0 149.5 -57.5t56.5 -160.5zM411 225q0 198 -159 198q-64 0 -137 -50q-2 -35 1 -81q1 -19 1 -40q7 -120 46.5 -187t108.5 -67q139 0 139 227z" />
    <glyph glyph-name="seven" unicode="7" 
d="M468 740h12l-89 -198q-35 -72 -81 -210q-42 -128 -66 -271q-13 -76 -61 -76q-19 0 -31.5 14t-12.5 40q0 43 76 198l124 249l88 172h-208q-67 0 -101 -11q-42 -14 -56 -67h-12l21 143h389z" />
    <glyph glyph-name="eight" unicode="8" 
d="M501 188q0 -78 -63 -140q-64 -62 -171 -62q-115 0 -177 53t-62 142q0 143 165 204q-129 70 -129 180q0 77 52.5 125.5t150.5 48.5q92 0 144 -44t52 -112q0 -59 -40.5 -104.5t-110.5 -65.5q47 -24 63 -34q21 -12 50 -34q28 -20 42 -41q34 -50 34 -116zM406 583
q0 69 -36.5 106.5t-105.5 37.5q-142 0 -142 -136q0 -51 54 -97q52 -46 115 -72q75 36 97 91q18 44 18 70zM434 163q0 49 -29 86q-23 27 -44 42q-40 28 -56 37q-15 7 -30 16q-4 1 -32.5 15.5t-31.5 15.5q-57 -34 -89 -86.5t-32 -109.5q0 -87 53 -134t127 -47q79 0 121.5 46
t42.5 119z" />
    <glyph glyph-name="nine" unicode="9" 
d="M33 496q0 104 61 174q60 69 162 69q239 0 239 -329q0 -80 -18 -154.5t-53 -135.5t-92.5 -97.5t-128.5 -36.5q-66 0 -103.5 24t-37.5 62q0 49 46 49q48 0 48 -47q0 -4 -2.5 -20.5t-2.5 -18.5q0 -17 14.5 -27t37.5 -10q96 0 151 88.5t59 248.5q-77 -57 -174 -57
q-93 0 -149.5 57.5t-56.5 160.5zM117 500q0 -198 159 -198q64 0 137 50q2 33 0 82q-2 36 -2 39q-7 120 -46.5 187t-108.5 67q-139 0 -139 -227z" />
    <glyph glyph-name="colon" unicode=":" horiz-adv-x="206" 
d="M139 71q23 -23 10 -54.5t-46 -31.5q-21 0 -35.5 14.5t-14.5 35.5t15 35.5t35 14.5q22 0 36 -14zM139 491q23 -23 10 -54.5t-46 -31.5q-21 0 -35.5 14.5t-14.5 35.5t15 35.5t35 14.5q22 0 36 -14z" />
    <glyph glyph-name="semicolon" unicode=";" horiz-adv-x="215" 
d="M143 491q23 -23 10 -54.5t-46 -31.5q-21 0 -35.5 14.5t-14.5 35.5t15 35.5t35 14.5q22 0 36 -14zM162 33q0 -50 -26.5 -102t-69.5 -91l-9 9q62 64 62 117q-4 22 -9 28.5t-26 20.5q-31 19 -31 46q0 19 14 32t37 13q26 0 42 -19.5t16 -53.5z" />
    <glyph glyph-name="less" unicode="&#x3c;" 
d="M45 340l478 -251l-9 -16l-508 267l508 265l8 -16z" />
    <glyph glyph-name="equal" unicode="=" 
d="M519 443v-16h-510v16h510zM519 256v-16h-510v16h510z" />
    <glyph glyph-name="greater" unicode="&#x3e;" 
d="M522 340l-508 -267l-9 16l478 251l-477 249l8 16z" />
    <glyph glyph-name="question" unicode="?" horiz-adv-x="474" 
d="M437 504q0 -77 -56 -140q-27 -33 -57 -58q-8 -7 -76 -62q-32 -25 -41 -41q-9 -14 -9 -29v-35h-12v125q0 20 9 32t37 33q56 43 92 84q51 59 51 136q0 73 -45 124q-46 51 -131 51q-26 0 -44 -7.5t-25 -19t-9 -19t-2 -14.5q0 -3 2 -15.5t2 -16.5q0 -20 -12.5 -32t-34.5 -12
q-20 0 -32.5 12t-12.5 34q0 42 45 72t121 30q106 0 173 -64t67 -168zM228 71q23 -23 10 -54.5t-46 -31.5q-21 0 -35.5 14.5t-14.5 35.5t15 35.5t35 14.5q22 0 36 -14z" />
    <glyph glyph-name="at" unicode="@" horiz-adv-x="907" 
d="M879 389q0 -89 -35.5 -160t-88.5 -111t-107 -60t-100 -20q-55 0 -58 48q-3 36 21 99q-43 -61 -88 -100q-55 -46 -110 -46q-43 0 -66 29t-23 82q0 51 22 110.5t60 110.5q54 69 107.5 100t125.5 31q43 0 68 -15l10 28h60l-102 -324q-22 -72 -22 -100q0 -32 30 -32
q31 0 66 13q37 12 75 40q62 40 102.5 111t40.5 162q0 73 -29 142.5t-90 117.5q-103 79 -270 79q-143 0 -259 -77q-85 -58 -133.5 -158.5t-48.5 -225.5q0 -83 31 -161.5t84 -133.5q59 -61 145 -96t175 -35q148 0 242 42q92 42 159 116l9 -8q-64 -76 -160 -120
q-97 -44 -248 -44q-172 0 -306 111q-66 55 -104.5 140.5t-38.5 186.5q0 263 183 394q117 81 271 81q170 0 280 -83q120 -95 120 -264zM547 294l50 159q-9 37 -62 37q-42 0 -91.5 -44t-93.5 -116q-31 -55 -51 -114t-20 -96q0 -69 42 -69q43 0 95 43q44 39 78 90q34 52 53 110
z" />
    <glyph glyph-name="A" unicode="A" horiz-adv-x="712" 
d="M712 12v-12h-264v12h35q49 0 49 31q0 14 -82 250h-256l-35 -90q-44 -117 -44 -143q0 -37 35 -48h45v-12h-195v12h30q30 22 67 92q33 62 98 230l87 235l59 154h24l248 -646q13 -35 30.5 -50t50.5 -15h18zM198 305h247l-124 330z" />
    <glyph glyph-name="B" unicode="B" horiz-adv-x="727" 
d="M554 557q0 40 -15.5 70.5t-36.5 46.5t-50 26t-49 13t-40 3q-71 0 -131 -26v-285h143q37 0 75 12q26 7 50 23q23 15 38.5 46.5t15.5 70.5zM579 214q0 22 -4 42.5t-18.5 46.5t-38 45t-66 32t-99.5 13h-121v-349q25 -17 66.5 -27t76.5 -10t66 10q56 13 98 63.5t40 133.5z
M146 66v591q0 54 -65 54h-35v12h167q21 0 84 3q82 2 95 2q127 0 188 -40.5t61 -113.5q0 -67 -48 -114t-132 -62q94 -14 152 -62q59 -50 59 -126q0 -101 -70.5 -158t-190.5 -57q-6 0 -114 3q-94 2 -107 2h-144v12h35q39 0 52 11t13 43z" />
    <glyph glyph-name="C" unicode="C" horiz-adv-x="743" 
d="M693 175l-24 -175h-12l2 38q-88 -52 -233 -52q-177 0 -272 101t-95 268q0 53 11 104.5t38.5 103t69 90t107.5 62.5t148 24q101 0 222 -53l-1 37h12l13 -182h-12l-6 46q-73 140 -243 140q-89 0 -150.5 -52.5t-88.5 -132.5t-27 -181q0 -179 79 -270q79 -93 195 -93
q80 0 148 34q68 35 93 83l13 60h13z" />
    <glyph glyph-name="D" unicode="D" horiz-adv-x="847" 
d="M698 379q0 156 -88 255q-75 82 -210 82q-100 0 -169 -29v-647q60 -33 166 -33q150 0 226 106q75 105 75 266zM146 66v591q0 30 -15 42t-51 12h-34v12h155q19 0 93 3q98 2 106 2q97 0 174 -26.5t120 -67.5q39 -37 63 -89q34 -76 34 -157q0 -31 -3.5 -63t-14.5 -71.5
t-28.5 -75t-48 -70t-70 -59t-98 -39.5t-128.5 -15q-29 0 -54 1q-10 0 -21 0.5t-16.5 1t-7.5 0.5q-15 0 -35 0.5t-30.5 1t-16.5 0.5h-173v12h34q40 0 53 11t13 43z" />
    <glyph glyph-name="E" unicode="E" horiz-adv-x="663" 
d="M46 711v12h554l9 -151h-12l-11 83q-20 26 -90 41q-71 15 -154 15q-70 0 -90 -10q-21 -11 -21 -45v-271h57q56 0 95 4.5t58 10t29 16t11.5 16.5t1.5 17v23h12v-186h-12v25q0 11 -1.5 17t-11.5 16t-29.5 15.5t-58 9.5t-94.5 4h-57v-307q0 -31 15.5 -42.5t48.5 -11.5
q147 0 229 20q75 21 96 77l11 45h12l-29 -154h-568v12h35q39 0 52 11t13 43v591q0 31 -15.5 42.5t-49.5 11.5h-35z" />
    <glyph glyph-name="F" unicode="F" horiz-adv-x="645" 
d="M343 711q-70 0 -90 -10q-22 -10 -22 -45v-271h58q56 0 95 4.5t58 10t29 15.5t11.5 16t1.5 17v24h12v-186h-12v25q0 11 -1.5 17t-11.5 16t-29.5 15.5t-58 9.5t-94.5 4h-58v-307q0 -32 12 -43t52 -11h38v-12h-287v12h35q39 0 52 11t13 43v591q0 32 -15 43t-50 11h-35v12
h554l10 -151h-12l-10 83q-20 26 -90 41t-155 15z" />
    <glyph glyph-name="G" unicode="G" horiz-adv-x="820" 
d="M815 347v-12h-28q-29 0 -44 -6q-21 -8 -21 -44v-192q-54 -49 -131 -77q-79 -30 -159 -30q-95 0 -170 31t-118 86q-85 106 -85 254q0 165 108 274q107 108 272 108q103 0 227 -53q0 5 -0.5 19t-0.5 18h12q13 -175 13 -182h-12l-6 46q-34 64 -95.5 102t-141.5 38
q-125 0 -204 -99q-79 -98 -79 -272q0 -95 25.5 -168t69.5 -113q81 -77 184 -77q120 0 168 57q38 45 38 84v146q0 29 -14.5 39.5t-49.5 10.5h-24v12h266z" />
    <glyph glyph-name="H" unicode="H" horiz-adv-x="862" 
d="M816 12v-12h-285v12h34q39 0 52.5 11t13.5 43v302h-400v-302q0 -32 13.5 -43t49.5 -11h37v-12h-285v12h34q39 0 52.5 11t13.5 43v591q0 30 -14 42t-52 12h-34v12h285v-12h-37q-36 0 -49.5 -11t-13.5 -43v-277h400v277q0 32 -13.5 43t-52.5 11h-34v12h285v-12h-37
q-36 0 -49.5 -11t-13.5 -43v-591q0 -32 13.5 -43t49.5 -11h37z" />
    <glyph glyph-name="I" unicode="I" horiz-adv-x="377" 
d="M331 12v-12h-285v12h34q38 0 52 11.5t14 42.5v591q0 32 -13.5 43t-52.5 11h-34v12h285v-12h-37q-37 0 -50 -11.5t-13 -42.5v-591q0 -31 13 -42.5t50 -11.5h37z" />
    <glyph glyph-name="J" unicode="J" horiz-adv-x="477" 
d="M447 723v-12h-34q-38 0 -52 -12t-14 -42v-352q0 -170 -58 -244q-59 -75 -147 -75q-63 0 -97.5 25.5t-34.5 63.5q0 22 12.5 36t35.5 14q48 0 48 -47q0 -5 -3.5 -20t-3.5 -19q0 -41 52 -41q38 0 60 22t36 64q12 35 14 127q1 20 1 76v370q0 31 -14 42.5t-52 11.5h-38v12h289
z" />
    <glyph glyph-name="K" unicode="K" horiz-adv-x="777" 
d="M772 10v-10h-173l-340 380l163 152q75 70 103.5 102.5t28.5 49.5q0 27 -44 27h-36v12h250v-12h-26q-52 0 -158 -89l-213 -197l322 -357q18 -20 28 -28t35 -18q26 -10 60 -12zM330 12v-12h-284v12h34q38 0 51.5 12t13.5 42v591q0 32 -13 43t-52 11h-34v12h284v-12h-37
q-36 0 -49.5 -12t-13.5 -42v-591q0 -30 14 -42t49 -12h37z" />
    <glyph glyph-name="L" unicode="L" horiz-adv-x="647" 
d="M342 12q109 0 180 20q72 21 96 79l16 60h13l-32 -171h-569v12h35q65 0 65 54v591q0 32 -14 43t-51 11h-34v12h285v-12h-38q-38 0 -50.5 -11t-12.5 -43v-591q0 -32 21 -42q20 -12 90 -12z" />
    <glyph glyph-name="M" unicode="M" horiz-adv-x="998" 
d="M952 12v-12h-285v12h34q39 0 52.5 11t13.5 43v599l-294 -547h-21l-297 551v-417q0 -188 33 -240h62v-12h-204v12h61q34 52 34 271v379q0 49 -43 49h-52v12h174l281 -520l279 520h172v-12h-35q-31 0 -45 -6q-20 -9 -20 -46v-593q0 -32 12.5 -43t51.5 -11h36z" />
    <glyph glyph-name="N" unicode="N" horiz-adv-x="797" 
d="M751 723v-12h-61q-34 -53 -34 -242v-483h-13l-488 606v-347q0 -181 34 -233h61v-12h-204v12h61q31 49 34 233v364l-42 54q-33 41 -48 60h106l485 -607v383q0 65 -9 128t-24 84h-62v12h204z" />
    <glyph glyph-name="O" unicode="O" horiz-adv-x="868" 
d="M809 363q0 -47 -11 -96t-38.5 -100.5t-69 -91t-108 -64.5t-149.5 -25q-121 1 -202.5 50.5t-121.5 129.5q-50 92 -50 197q0 78 30.5 155.5t92.5 134.5q94 86 251 86q98 0 174 -33t119 -91q83 -113 83 -252zM716 363q0 160 -74 263q-75 101 -209 101q-133 0 -207 -98
t-74 -266q0 -208 126 -311q64 -54 155 -54q69 0 124.5 30.5t89 82.5t51.5 116.5t18 135.5z" />
    <glyph glyph-name="P" unicode="P" horiz-adv-x="675" 
d="M635 520q0 -95 -76 -162q-77 -68 -208 -68q-71 0 -120 12v-236q0 -33 12 -43.5t51 -10.5h37v-12h-285v12h35q38 0 51.5 11.5t13.5 42.5v591q0 32 -13 43t-52 11h-35v12h109q30 0 102 6q80 5 104 5q76 0 131.5 -19t85.5 -51t43.5 -68t13.5 -76zM542 520q0 98 -51.5 150
t-145.5 52q-59 0 -114 -28v-381q49 -11 116 -11q90 0 142.5 57.5t52.5 160.5z" />
    <glyph glyph-name="Q" unicode="Q" horiz-adv-x="891" 
d="M809 363q0 -73 -28 -150t-86 -134q-41 -40 -106 -65.5t-141 -27.5q-72 -50 -135 -74h22q50 0 98 -21q45 -19 140 -74q53 -30 106 -30q77 0 144 85l9 -8q-52 -72 -118 -90q-50 -14 -99 -14q-114 0 -250 88q-74 49 -109 47h-39v12q65 8 107.5 24.5t99.5 54.5
q-117 1 -196 51.5t-120 130.5q-49 93 -49 195q0 50 12 100.5t41 100.5t70.5 88.5t106.5 62.5t144 24q98 0 174 -33t119 -91q83 -113 83 -252zM716 363q0 160 -74 263q-75 101 -209 101q-133 0 -207 -98t-74 -266q0 -208 126 -311q64 -54 155 -54q69 0 124.5 30.5t89 82.5
t51.5 116.5t18 135.5z" />
    <glyph glyph-name="R" unicode="R" horiz-adv-x="748" 
d="M692 10q17 0 27.5 18t11.5 43h12q-3 -85 -86 -85q-57 0 -98 48.5t-89 161.5q-37 85 -99.5 132.5t-140.5 43.5v-306q0 -54 63 -54h37v-12h-284v12h34q35 0 50 13t15 41v591q0 33 -13.5 43.5t-51.5 10.5h-34v12h113q31 -1 110 5q73 6 105 6q274 0 274 -182q0 -90 -79 -141
q-78 -51 -198 -53q140 -44 211 -173q15 -24 55 -114q15 -34 30 -49q12 -12 25 -12zM555 547q0 85 -50.5 130t-141.5 45q-75 0 -133 -27v-311l53 -5q54 -6 82 -6q86 0 138 49q52 48 52 125z" />
    <glyph glyph-name="S" unicode="S" horiz-adv-x="590" 
d="M538 181q0 -83 -63 -138q-65 -57 -175 -57q-119 0 -230 55q0 -5 0.5 -21t0.5 -20h-12l-15 194h12l5 -43q29 -62 95 -107q64 -46 143 -46q81 0 123.5 38.5t42.5 100.5q0 110 -189 206q-58 32 -79 46q-32 19 -63 46q-64 54 -64 133t54 125t165 46q103 0 195 -51v35h12
l10 -175h-12l-3 38q-17 57 -63 99q-48 42 -136 42q-150 0 -150 -111q0 -69 57 -117q49 -43 127 -81q48 -26 78 -45q32 -21 65 -48q69 -59 69 -144z" />
    <glyph glyph-name="T" unicode="T" horiz-adv-x="667" 
d="M10 562l9 161h627l11 -161h-12l-9 77q-42 72 -203 72q-58 0 -58 -33v-612q0 -32 13 -43t54 -11h33v-12h-285v12h35q38 0 51.5 11.5t13.5 42.5v611q0 17 -12 25.5t-45 8.5q-86 0 -132.5 -15.5t-68.5 -56.5v1l-10 -78h-12z" />
    <glyph glyph-name="U" unicode="U" horiz-adv-x="809" 
d="M779 723v-12h-59q-30 -53 -34 -222v-173q0 -74 -13 -130.5t-42.5 -102t-82.5 -69.5t-128 -24q-110 0 -186 40q-53 28 -82 91q-10 19 -15 51q-6 32 -6 45q-1 9 -1 35v405q0 54 -67 54h-33v12h285v-12h-37q-63 0 -63 -54v-422q0 -67 22 -115.5t56 -71.5t66 -33t62 -9
q59 0 103.5 16.5t72 43.5t45 67.5t24 84.5t6.5 98v182q0 78 -10.5 137t-22.5 76h-61v12h201z" />
    <glyph glyph-name="V" unicode="V" horiz-adv-x="759" 
d="M759 723v-12h-34q-33 -26 -80 -128q-8 -18 -31 -70q-39 -93 -78 -188q-60 -143 -144 -339h-14l-285 664q-9 23 -15 31t-25 18t-53 12v12h256v-12h-37q-43 0 -43 -34q0 -9 10 -33l234 -554q227 535 227 582q0 39 -37 39h-48v12h197z" />
    <glyph glyph-name="W" unicode="W" horiz-adv-x="1104" 
d="M1104 723v-12h-36q-29 -25 -60 -88q-27 -53 -80 -194l-166 -443h-13l-181 494l-192 -494h-14q-46 127 -132 343q-78 194 -128 325q-21 57 -85 57h-17v12h276v-12h-44q-47 0 -47 -30q0 -10 8 -31l212 -550l155 401l-52 153q-21 57 -81 57h-26v12h286v-12h-52
q-44 0 -44 -31q0 -12 9 -37l187 -542l130 345q69 182 69 231q0 34 -44 34h-37v12h199z" />
    <glyph glyph-name="X" unicode="X" horiz-adv-x="781" 
d="M766 12v-12h-296v12h39q47 0 47 24q0 9 -16 34l-175 262q-1 0 -50 -60q-159 -195 -159 -232q0 -28 33 -28h49v-12h-223v12h38q56 35 169 167l134 166l-185 276q-36 51 -59 69q-25 19 -73 21v12h283v-12h-56q-27 0 -27 -23q0 -14 18 -39l156 -238q28 35 80 108
q57 79 78 114q22 37 22 52t-11.5 20.5t-37.5 5.5h-40v12h228v-12h-30q-68 -26 -150 -136l-131 -176l193 -286q68 -101 140 -101h12z" />
    <glyph glyph-name="Y" unicode="Y" horiz-adv-x="726" 
d="M726 723v-12h-31q-47 -24 -87 -93l-96 -159l-97 -160v-233q0 -28 15.5 -41t50.5 -13h34v-12h-284v12h34q65 0 65 54v225l-213 351q-16 27 -34 43q-28 25 -83 26v12h277v-12h-40q-28 0 -35.5 -16t7.5 -39l200 -340l89 149q52 88 67 117q36 72 36 97q0 32 -47 32h-29v12
h201z" />
    <glyph glyph-name="Z" unicode="Z" horiz-adv-x="656" 
d="M584 705l-440 -693h83q172 0 256 21q69 18 98 77l17 61h12l-18 -101l-14 -70h-532v15l438 696h-119q-132 0 -183 -15q-53 -17 -79 -56l-9 -78h-12l9 161h493v-18z" />
    <glyph glyph-name="bracketleft" unicode="[" horiz-adv-x="388" 
d="M303 -152v-12h-225v919h225v-12h-84q-59 -1 -56 -50v-792q-2 -22 9 -36.5t47 -16.5h84z" />
    <glyph glyph-name="backslash" unicode="\" horiz-adv-x="568" 
d="M588 -83l-15 -10l-593 883l15 10z" />
    <glyph glyph-name="bracketright" unicode="]" horiz-adv-x="388" 
d="M310 755v-919h-225v12h84q36 2 47 16.5t9 36.5v792q3 49 -56 50h-84v12h225z" />
    <glyph glyph-name="asciicircum" unicode="^" 
d="M263 727l203 -160h-28l-175 136l-173 -136h-29z" />
    <glyph glyph-name="underscore" unicode="_" horiz-adv-x="585" 
d="M596 -185v-16h-607v16h607z" />
    <glyph glyph-name="grave" unicode="`" horiz-adv-x="328" 
d="M22 698q0 28 26 28q22 0 56 -33l133 -131h-24q-105 61 -149 90q-42 27 -42 46z" />
    <glyph glyph-name="a" unicode="a" horiz-adv-x="484" 
d="M429 13q13 0 23.5 14t14.5 38h12q-10 -76 -74 -76q-76 0 -76 103q-99 -103 -190 -103q-56 0 -86.5 28t-30.5 74q0 95 138 150q67 26 143 37l26 4v51q0 78 -28 113t-97 35q-34 0 -58 -13t-24 -36q0 -6 4.5 -20t4.5 -20q0 -38 -42 -38q-17 0 -27.5 11.5t-10.5 30.5
q0 40 46 68q46 29 113 29q188 0 188 -160v-265q0 -55 31 -55zM329 108v162q-96 -17 -157 -52q-69 -38 -69 -114q0 -41 21 -62t58 -21q34 0 77 28q40 26 70 59z" />
    <glyph glyph-name="b" unicode="b" horiz-adv-x="568" 
d="M543 256q0 -132 -74.5 -199.5t-177.5 -67.5q-89 0 -153 55l-33 -55h-10v706q0 25 -12 33q-12 6 -68 8v12q77 4 149 38v-342q64 49 145 49q101 0 168 -61q66 -62 66 -176zM462 246q0 94 -46 158q-47 65 -137 65q-68 0 -115 -37v-321q0 -52 37.5 -81t91.5 -29q70 0 119 64
q50 64 50 181z" />
    <glyph glyph-name="c" unicode="c" horiz-adv-x="450" 
d="M269 13q50 0 93 29.5t67 85.5l11 -5q-59 -134 -188 -134q-98 0 -162 67q-65 67 -65 180q0 106 62 182q62 75 179 75q68 0 109.5 -24t41.5 -61q0 -23 -11.5 -36t-30.5 -13q-42 0 -42 44q0 3 1.5 16.5t1.5 18.5q0 19 -20 31t-54 12q-72 0 -114 -59.5t-42 -185.5
q0 -108 44.5 -165.5t118.5 -57.5z" />
    <glyph glyph-name="d" unicode="d" horiz-adv-x="568" 
d="M553 12v-12h-149v52q-64 -63 -151 -63q-75 0 -144 49q-38 27 -61 79t-23 119q0 115 73 185q74 71 180 72q63 0 126 -22v225q0 25 -13 32q-12 6 -67 8v12q85 5 149 38v-731q0 -24 10.5 -33.5t37.5 -9.5h32zM404 68v351q-15 30 -48 46t-73 16q-86 0 -131.5 -61t-45.5 -176
q0 -137 61 -188q48 -43 115 -43t122 55z" />
    <glyph glyph-name="e" unicode="e" horiz-adv-x="465" 
d="M248 493q92 0 141 -63t51 -149h-334q0 -166 53 -222q43 -46 104 -46q99 0 162 99l10 -7q-68 -116 -191 -116q-76 0 -142 52q-77 59 -77 197q0 118 59.5 186.5t163.5 68.5zM106 293h257q0 81 -31 134q-32 54 -91 54q-120 0 -135 -188z" />
    <glyph glyph-name="f" unicode="f" horiz-adv-x="337" 
d="M347 726q0 -42 -39 -42q-40 0 -43 46q-3 24 -12 29q-5 3 -14 3q-37 0 -56 -76q-19 -75 -19 -165v-40h136v-16h-136v-410q0 -25 9.5 -34t38.5 -9h32v-12h-229v12h33q29 0 38 9t9 34v410h-80v16h80q0 110 29 185q24 54 64.5 83t89.5 29q30 0 49.5 -15t19.5 -37z" />
    <glyph glyph-name="g" unicode="g" horiz-adv-x="526" 
d="M526 534q0 -18 -11 -30t-28 -12q-29 0 -39 25q-6 15 -13 15q-17 0 -50 -65q97 -46 97 -133q0 -46 -21.5 -81t-57.5 -54q-67 -34 -142 -34h-19q-46 0 -67 -4q-41 -8 -41 -38q0 -17 16.5 -30.5t37.5 -19.5q24 -6 46 -10l87 -16q189 -35 189 -135q0 -61 -56 -103
q-56 -41 -193 -41q-151 0 -205 44q-46 39 -46 84q0 97 143 126q-66 22 -66 76q0 32 22.5 52.5t65.5 24.5q-61 19 -95.5 61.5t-34.5 97.5q0 74 59 116.5t159 42.5q59 0 109 -21q19 40 39 66q30 38 68 38q21 0 34 -12t13 -30zM401 332q0 149 -142 149q-49 0 -81.5 -25
t-42.5 -60q-9 -32 -9 -72t22 -85q28 -62 112 -62q67 0 104 43.5t37 111.5zM454 -111q0 33 -34 60.5t-100 39.5q-112 21 -146 26q-49 -12 -80.5 -42t-31.5 -70q0 -123 203 -123q91 0 140 29.5t49 79.5z" />
    <glyph glyph-name="h" unicode="h" horiz-adv-x="567" 
d="M552 12v-12h-229v12h32q29 0 38.5 9t9.5 34v269q0 99 -40 125q-31 20 -75 20q-52 0 -124 -45v-369q0 -26 9 -34.5t38 -8.5h33v-12h-229v12h31q29 0 39 8.5t10 34.5v642q0 24 -13 31q-12 6 -67 8v12q83 6 149 38v-348q79 55 153 55q115 0 143 -85q12 -40 12 -100v-253
q0 -24 10 -33.5t37 -9.5h33z" />
    <glyph glyph-name="i" unicode="i" horiz-adv-x="259" 
d="M244 12v-12h-229v12h32q29 0 38.5 9t9.5 34v349q0 26 -13 33q-12 5 -67 7v12q77 5 149 39v-440q0 -24 10 -33.5t37 -9.5h33zM179 637q0 -21 -14.5 -35.5t-35.5 -14.5t-35.5 14.5t-14.5 35.5t14 35.5t36 14.5q23 0 36.5 -14t13.5 -36z" />
    <glyph glyph-name="j" unicode="j" horiz-adv-x="280" 
d="M109 -48v452q0 26 -13 33q-12 5 -67 7v12q88 8 149 39v-502q0 -115 -52 -170t-124 -55q-36 0 -59 19t-23 46q0 18 11.5 30t29.5 12t28 -9.5t10 -25.5q0 -3 -2 -14.5t-2 -13.5q0 -32 27 -32q87 0 87 172zM192 637q0 -21 -14.5 -35.5t-35.5 -14.5t-35.5 14.5t-14.5 35.5
t14 35.5t36 14.5q23 0 36.5 -14t13.5 -36z" />
    <glyph glyph-name="k" unicode="k" horiz-adv-x="553" 
d="M95 55v642q0 24 -14 31t-66 8v12q83 4 149 38v-611q156 174 175 203q38 53 38 66q0 25 -53 25h-15v12h188v-12h-17q-34 0 -80 -51l-115 -126l185 -240q33 -40 76 -40h7v-12h-235v12h32q43 0 43 23q0 12 -10 25l-140 185l-79 -86v-104q0 -26 9 -34.5t38 -8.5h33v-12h-229
v12h32q30 0 39 8.5t9 34.5z" />
    <glyph glyph-name="l" unicode="l" horiz-adv-x="259" 
d="M95 55v642q0 24 -14 31t-66 8v12q76 4 149 38v-731q0 -25 9.5 -34t36.5 -9h34v-12h-229v12h32q26 0 37 10t11 33z" />
    <glyph glyph-name="m" unicode="m" horiz-adv-x="836" 
d="M305 493q88 0 125 -58q85 58 160 58q76 0 115 -41q16 -16 26 -44t11 -46v-45v-262q0 -25 9.5 -34t38.5 -9h32v-12h-219v12h23q27 0 37 9.5t10 33.5v264q3 75 -22.5 112.5t-91.5 37.5q-56 0 -123 -46q17 -36 17 -88v-280q0 -25 9.5 -34t37.5 -9h23v-12h-209v12h22
q27 0 37.5 9.5t10.5 33.5v280q0 73 -27.5 103.5t-82.5 30.5q-54 0 -110 -38v-376q0 -25 9 -34t38 -9h23v-12h-219v12h32q27 0 37.5 9.5t10.5 33.5v349q0 26 -13 33q-12 5 -67 7v12q80 8 149 39v-50q64 48 141 48z" />
    <glyph glyph-name="n" unicode="n" horiz-adv-x="567" 
d="M552 12v-12h-229v12h32q29 0 38.5 9t9.5 34v269q0 99 -40 125q-31 20 -75 20q-52 0 -124 -45v-369q0 -26 9 -34.5t38 -8.5h33v-12h-229v12h31q29 0 39 8.5t10 34.5v349q0 26 -13 33q-12 5 -67 7v12q75 4 149 39v-57q79 55 153 55q115 0 143 -85q12 -40 12 -100v-253
q0 -24 10 -33.5t37 -9.5h33z" />
    <glyph glyph-name="o" unicode="o" 
d="M503 240q0 -113 -67 -181q-67 -70 -172 -70q-104 0 -171 69q-68 70 -68 182q0 121 65 187t174 66q111 0 175 -64.5t64 -188.5zM422 240q0 123 -43 182t-115 59t-115 -59t-43 -182q0 -121 43 -180t115 -59t115 59t43 180z" />
    <glyph glyph-name="p" unicode="p" horiz-adv-x="560" 
d="M454 239q0 230 -166 230q-54 0 -124 -53v-378q41 -25 112 -25q80 0 129 60.5t49 165.5zM95 -167v571q0 26 -13 33q-12 5 -67 7v12q70 5 149 39v-65q70 63 148 63q40 0 77 -12.5t71 -40t54.5 -78.5t20.5 -120q0 -108 -63 -180q-63 -71 -173 -73q-78 0 -135 36v-192
q0 -27 8.5 -35t38.5 -8h33v-12h-229v12h31q30 0 39.5 8.5t9.5 34.5z" />
    <glyph glyph-name="q" unicode="q" horiz-adv-x="560" 
d="M545 -210v-12h-229v12h32q29 0 38.5 8.5t9.5 34.5v191q-65 -35 -136 -35q-32 0 -62.5 6t-62.5 23t-55.5 43t-39 70t-15.5 100q0 124 70 193q69 69 174 69q52 0 84.5 -12t66.5 -44q4 6 34 56h11v-660q0 -27 8.5 -35t38.5 -8h33zM396 38v332q0 111 -127 111q-81 0 -122 -68
t-41 -175q0 -115 53 -170q52 -55 132 -55q62 0 105 25z" />
    <glyph glyph-name="r" unicode="r" horiz-adv-x="387" 
d="M95 55v349q0 26 -13 33q-12 5 -67 7v12q75 6 149 39v-101q39 99 128 99q35 0 55 -17.5t20 -42.5q0 -21 -11.5 -33.5t-29.5 -12.5q-15 0 -26 8.5t-11 22.5q0 3 1 12t1 11q0 28 -35 28q-34 0 -63 -47q-29 -49 -29 -95v-272q0 -25 9.5 -34t39.5 -9h31v-12h-229v12h32
q29 0 38.5 9t9.5 34z" />
    <glyph glyph-name="s" unicode="s" horiz-adv-x="415" 
d="M375 127q0 -62 -43 -100t-122 -38q-72 0 -153 39v-28h-12l-5 130h12q15 -54 63 -92q47 -37 100 -37q43 0 71 28.5t28 68.5q0 33 -21.5 56t-64.5 46l-70 39q-56 31 -79 59.5t-23 69.5q0 63 44 95q44 30 99 30q62 0 135 -38v26h12l5 -131h-12l-1 22q-45 109 -137 109
q-37 0 -59 -22.5t-22 -54.5q0 -50 45 -78q25 -15 71 -37q72 -36 105.5 -72.5t33.5 -89.5z" />
    <glyph glyph-name="t" unicode="t" horiz-adv-x="382" 
d="M263 13q33 0 64.5 23.5t53.5 73.5l11 -5q-18 -51 -56.5 -83.5t-90.5 -32.5q-68 0 -104 38t-36 108v334h-100v12h30q43 8 73.5 43t41.5 82q9 39 11 94h13v-219h27q95 0 138 10l5 -22h-170v-349q0 -107 89 -107z" />
    <glyph glyph-name="u" unicode="u" horiz-adv-x="564" 
d="M549 12v-12h-149v54q-82 -65 -163 -65q-41 0 -70.5 13.5t-44 36.5t-21 47t-6.5 52v266q0 26 -12 33q-12 5 -68 7v12q80 5 149 39v-359q0 -81 40 -105q30 -18 70 -18q58 0 126 55v336q0 26 -12 33q-12 5 -68 7v12q74 6 149 39v-440q0 -24 10.5 -33.5t37.5 -9.5h32z" />
    <glyph glyph-name="v" unicode="v" horiz-adv-x="524" 
d="M524 481v-12h-33q-24 -22 -43 -59q-19 -34 -61 -138q0 -2 -115 -283h-10q-3 8 -93 217l-92 216q-20 47 -59 47h-18v12h225v-12h-30q-44 0 -44 -32q0 -7 12 -39l133 -318q21 54 34 86q12 31 39 100q51 127 51 166q0 21 -10.5 29t-36.5 8h-18v12h169z" />
    <glyph glyph-name="w" unicode="w" horiz-adv-x="777" 
d="M777 481v-12h-32q-39 -34 -109 -212l-96 -268h-15l-129 330l-129 -330h-14l-184 441q-15 39 -59 39h-10v12h191v-12h-9q-43 0 -43 -27q0 -6 4 -18l144 -349q28 78 70 181q27 69 32 83l-35 90q-9 24 -23 32t-39 8h-11v12h192v-12h-10q-26 0 -35 -5t-9 -17q0 -11 139 -371
l70 198q46 128 46 168q0 27 -37 27h-26v12h166z" />
    <glyph glyph-name="x" unicode="x" horiz-adv-x="550" 
d="M545 12v-12h-246v12h38q38 0 38 26q0 11 -11 28l-109 154q-3 -4 -20 -24.5t-21 -27.5l-53 -70q-26 -38 -26 -55q0 -31 53 -31h15v-12h-198v12h23q35 0 94 66l35 41q7 7 91 111l-137 184q-20 28 -37 39.5t-55 15.5v12h226v-12h-40q-27 0 -27 -18q0 -7 11 -26l102 -145
q111 135 111 165q0 24 -32 24h-30v12h176v-12h-13q-23 0 -47 -19.5t-67 -68.5l-91 -110l155 -214q29 -42 92 -45z" />
    <glyph glyph-name="y" unicode="y" horiz-adv-x="535" 
d="M535 481v-12h-10q-33 0 -51 -34q-9 -16 -37 -87l-74 -200l-82 -205q-39 -96 -69 -132q-37 -43 -90 -43q-36 0 -58 17.5t-22 46.5q-1 33 31 41q30 8 45 -13q7 -9 6 -22l-1 -22q-1 -12 6.5 -18t22.5 -6q25 0 49 29q46 60 79 162l-200 444q-7 14 -12 21t-18 13t-36 8h-14v12
h219v-12h-32q-34 0 -34 -26q0 -8 6 -22l158 -358q121 327 121 363q0 43 -37 43h-28v12h162z" />
    <glyph glyph-name="z" unicode="z" horiz-adv-x="407" 
d="M385 118h12l-9 -118h-378v15l307 454q-124 0 -184.5 -12.5t-79.5 -46.5q0 -2 -2.5 -22.5t-2.5 -25.5h-12l8 119h352v-13l-304 -456h63q82 0 150 17q66 16 76 55z" />
    <glyph glyph-name="braceleft" unicode="{" horiz-adv-x="349" 
d="M45 275v11q103 7 103 195q0 16 -3 61q-4 39 -4 59q0 141 157 166l3 -11q-36 -11 -57 -28q-27 -22 -27 -75q0 -29 6 -83q5 -60 5 -82q0 -155 -145 -207q145 -52 145 -208q0 -23 -5 -83q-6 -54 -6 -82q0 -48 19.5 -69t64.5 -34l-3 -11q-157 25 -157 166q0 20 4 60
q3 44 3 60q0 188 -103 195z" />
    <glyph glyph-name="bar" unicode="|" horiz-adv-x="216" 
d="M116 720v-812h-16v812h16z" />
    <glyph glyph-name="braceright" unicode="}" horiz-adv-x="349" 
d="M304 286v-11q-103 -7 -103 -195q0 -21 4 -60q3 -45 3 -60q0 -141 -157 -166l-3 11q38 11 58 28q26 22 26 75q0 22 -5 82q-6 54 -6 83q0 156 145 208q-145 52 -145 207q0 28 6 82q5 60 5 83q0 48 -19.5 69t-64.5 34l3 11q157 -25 157 -166q0 -15 -3 -59q-4 -40 -4 -61
q0 -188 103 -195z" />
    <glyph glyph-name="asciitilde" unicode="~" 
d="M392 332q58 0 95 55h13q-21 -46 -59.5 -76t-82.5 -30q-40 0 -106 26q-91 35 -117 35q-56 0 -94 -56h-13q19 46 57.5 76t82.5 30q39 0 90 -20q113 -40 134 -40z" />
    <glyph glyph-name="uni00A0" unicode="&#xa0;" horiz-adv-x="224" 
 />
    <glyph glyph-name="exclamdown" unicode="&#xa1;" horiz-adv-x="282" 
d="M194 -204q-6 -27 -53 -27t-53 27q21 177 33 325l14 226h12q13 -211 14 -226q12 -148 33 -325zM177 506q23 -23 10 -54.5t-46 -31.5q-20 0 -35 14.5t-15 35.5t14.5 35.5t35.5 14.5q22 0 36 -14z" />
    <glyph glyph-name="cent" unicode="&#xa2;" 
d="M289 -11v-86h-12v86q-94 4 -155 70q-62 67 -62 177q0 100 56 174q55 73 161 82v97h12v-96h12q68 0 109.5 -24t41.5 -61q0 -23 -11.5 -36t-30.5 -13q-42 0 -42 44q0 3 1.5 16.5t1.5 18.5q0 19 -20 31t-54 12h-8v-468h15q50 0 93 29.5t67 85.5l11 -5q-58 -132 -186 -134z
M141 236q0 -97 36.5 -154t99.5 -67v464q-136 -16 -136 -243z" />
    <glyph glyph-name="sterling" unicode="&#xa3;" 
d="M31 376v12h110q0 84 1 118q2 112 52.5 172.5t146.5 60.5q56 0 89.5 -28t33.5 -70q0 -23 -13 -39t-33 -16q-18 0 -28.5 10t-10.5 25q0 22 25 38q16 12 16 23q0 17 -20.5 31t-54.5 14q-84 0 -115 -88q-21 -57 -12 -168q3 -78 3 -83h158v-12h-158q0 -44 -2 -86
q-9 -164 -149 -253q99 37 155 37q49 0 111 -24q60 -24 96 -24q30 0 53 29.5t22 85.5h12q1 -97 -51 -132q-35 -23 -101 -23q-27 0 -94 18q-88 25 -139 25q-58 0 -124 -25v15q34 12 56 34q34 34 56 102q17 50 19 128v93h-110z" />
    <glyph glyph-name="currency" unicode="&#xa4;" horiz-adv-x="542" 
d="M538 70l-12 -12l-92 91q-68 -60 -163 -60q-94 0 -162 61l-93 -92l-12 12l93 92q-66 68 -66 163q0 94 65 162l-92 92l12 12l92 -92q69 63 163 63q92 0 163 -62l92 91l12 -12l-91 -91q67 -68 67 -163q0 -96 -68 -164zM113 481q-66 -65 -66 -156t66 -155q67 -65 158 -65
q93 0 161 65q66 64 66 155t-66 156q-68 65 -161 65q-91 0 -158 -65z" />
    <glyph glyph-name="yen" unicode="&#xa5;" 
d="M99 198v12h130v77h-130v12h125l-156 345q-30 65 -116 67v12h276v-12h-41q-38 0 -38 -24q0 -11 10 -32l150 -337l1 2q2 3 5 9t6.5 13.5t9.5 20.5q37 83 50 112q17 40 44 108q27 71 27 97q0 31 -47 31h-29v12h200v-12h-31q-56 -23 -86 -92q-4 -11 -79 -180
q-63 -140 -64 -140h132v-12h-134v-77h134v-12h-134v-132q0 -54 65 -54h35v-12h-284v12h35q34 0 49 13t15 41v132h-130z" />
    <glyph glyph-name="brokenbar" unicode="&#xa6;" horiz-adv-x="216" 
d="M116 720v-337h-16v337h16zM116 245v-337h-16v337h16z" />
    <glyph glyph-name="section" unicode="&#xa7;" horiz-adv-x="538" 
d="M496 240q0 -100 -119 -186q41 -41 41 -94q0 -58 -48 -106q-49 -47 -130 -47q-61 0 -101 24.5t-40 60.5q0 23 12.5 36t33.5 13q24 0 35.5 -12.5t10.5 -28.5l-2 -27q-3 -24 15 -39t63 -15q39 0 68 29.5t29 73.5q0 55 -50 93l-182 139q-90 69 -90 152q0 103 119 187
q-41 49 -41 97q0 57 49 103q47 46 131 46q60 0 100 -25t40 -63q0 -49 -45 -49q-25 0 -36 11.5t-10 28.5l1 29q2 56 -76 56q-38 0 -69 -30q-31 -31 -31 -76q0 -57 71 -107l160 -120q91 -69 91 -154zM444 198q0 78 -82 139l-193 146q-75 -63 -75 -138q0 -42 18.5 -73t70.5 -71
l185 -139q76 60 76 136z" />
    <glyph glyph-name="dieresis" unicode="&#xa8;" horiz-adv-x="349" 
d="M128 637q0 -21 -14.5 -35.5t-35.5 -14.5t-35.5 14.5t-14.5 35.5t14 35.5t36 14.5q23 0 36.5 -14t13.5 -36zM321 637q0 -21 -14.5 -35.5t-35.5 -14.5t-35.5 14.5t-14.5 35.5t14 35.5t36 14.5q23 0 36.5 -14t13.5 -36z" />
    <glyph glyph-name="copyright" unicode="&#xa9;" horiz-adv-x="760" 
d="M538 257l-13 -103h-12l1 19q-46 -27 -125 -27q-97 0 -150.5 55.5t-53.5 150.5q0 59 26 111t83 79q97 45 218 -9v19h12l7 -108h-12l-4 27q-41 78 -130 78q-70 0 -105.5 -53t-35.5 -143q0 -94 40 -144.5t105 -50.5q41 0 79 23.5t54 55.5l4 20h12zM10 349q0 151 108 257
q107 106 262 106q153 0 262 -106q108 -107 108 -257q0 -151 -108 -257q-109 -106 -262 -106q-155 0 -262 106q-108 106 -108 257zM26 349q0 -144 104 -245q103 -102 250 -102q146 0 250 102q104 101 104 245q0 143 -104 245q-103 102 -250 102t-250 -102
q-104 -102 -104 -245z" />
    <glyph glyph-name="ordfeminine" unicode="&#xaa;" horiz-adv-x="347" 
d="M147 727q-14 0 -26 -6t-12 -15q0 -3 2.5 -12t2.5 -11q0 -26 -26 -26q-12 0 -19.5 8t-7.5 19q0 23 27.5 39t61.5 16q125 0 125 -96v-166q0 -32 20 -32q16 0 21 32h12q-6 -47 -50 -47q-47 0 -50 55q-49 -55 -117 -55q-66 0 -66 62q0 32 29 58t71 39q37 12 83 18v40
q0 59 -38 74q-13 6 -43 6zM228 500v95q-127 -19 -127 -95q0 -23 12 -35.5t31 -12.5t43.5 14.5t40.5 33.5z" />
    <glyph glyph-name="guillemotleft" unicode="&#xab;" horiz-adv-x="522" 
d="M308 238q11 -11 49 -53q60 -69 85 -103l-9 -8q-47 45 -97 87q-13 11 -99 77q86 66 99 77q50 42 97 87l9 -8q-25 -34 -85 -103q-38 -42 -49 -53zM33 238q89 57 173 122q85 67 150 128l10 -8q-46 -63 -135 -153q-35 -37 -93 -89q58 -52 93 -89q89 -90 135 -153l-10 -8
q-65 61 -150 128q-84 65 -173 122z" />
    <glyph glyph-name="logicalnot" unicode="&#xac;" 
d="M519 345v-129h-16v113h-494v16h510z" />
    <glyph glyph-name="uni00AD" unicode="&#xad;" horiz-adv-x="354" 
d="M304 272h-254v16h254v-16z" />
    <glyph glyph-name="registered" unicode="&#xae;" horiz-adv-x="612" 
d="M110 249q-80 80 -80 192t80 192q79 79 195 79t196 -79q81 -79 81 -192t-81 -192q-80 -79 -196 -79t-195 79zM122 622q-76 -75 -76 -181q0 -107 76 -180q75 -75 183 -75q109 0 185 75q76 73 76 180q0 106 -76 181q-77 74 -185 74q-107 0 -183 -74zM428 323q12 0 12 16h12
q0 -14 -9.5 -25t-28.5 -11q-20 0 -34.5 16.5t-33.5 55.5q-10 23 -23 39q-25 28 -67 30v-105q0 -19 21 -19h17v-12h-111v12h14q22 0 22 19v214q0 12 -4.5 15t-17.5 3h-14v12h44q8 0 39.5 2t41.5 2q105 0 105 -70q0 -34 -28.5 -54.5t-71.5 -20.5q46 -13 75 -61q1 -1 4.5 -9
t7.5 -16t9 -16.5t10 -13t9 -3.5zM371 516q0 59 -68 59q-25 0 -47 -9v-110q19 -3 46 -3q32 0 50.5 17t18.5 46z" />
    <glyph glyph-name="overscore" unicode="&#xaf;" horiz-adv-x="417" 
d="M354 591v-16h-291v16h291z" />
    <glyph glyph-name="degree" unicode="&#xb0;" horiz-adv-x="315" 
d="M80 552q-32 31 -32 76.5t32 76.5q31 31 77 31q47 0 78 -31q32 -31 32 -76.5t-32 -76.5q-31 -31 -78 -31q-46 0 -77 31zM64 628q0 -37 27.5 -64t65.5 -27t66 27t28 64q0 38 -28 65t-66 27t-65.5 -27t-27.5 -65z" />
    <glyph glyph-name="plusminus" unicode="&#xb1;" 
d="M519 349v-16h-247v-221h-16v221h-247v16h247v213h16v-213h247zM519 58v-16h-510v16h510z" />
    <glyph glyph-name="twosuperior" unicode="&#xb2;" horiz-adv-x="347" 
d="M289 378h12l-8 -86h-264v10l110 118q57 61 81.5 103t24.5 88q0 58 -26 87t-67 29q-53 0 -53 -38l3 -11q4 -18 -4 -29t-25 -11q-28 0 -28 33q0 27 31 47.5t80 20.5q69 0 105.5 -32.5t36.5 -92.5q0 -64 -96 -155l-129 -125h138q72 0 77 29v7q1 6 1 8z" />
    <glyph glyph-name="threesuperior" unicode="&#xb3;" horiz-adv-x="348" 
d="M326 424q0 -61 -41.5 -98t-117.5 -37q-58 0 -93.5 24.5t-35.5 56.5q0 15 8.5 23t20.5 8q29 0 29 -28q0 -4 -3.5 -17t-3.5 -19q0 -15 22 -26t51 -11q101 0 101 131q0 79 -50 97q-22 7 -53 7q-20 0 -43 -5v23q24 -6 50 -6q38 0 63.5 25.5t25.5 65.5q0 43 -21 66.5t-62 22.5
q-48 -1 -56 -24q-1 -3 -1 -8.5t1 -13t1 -8.5q0 -14 -8.5 -21.5t-20.5 -7.5q-29 0 -29 33q0 24 29.5 43t83.5 19q73 0 106.5 -27t33.5 -72q0 -33 -26.5 -60.5t-68.5 -37.5q49 -9 78.5 -40t29.5 -78z" />
    <glyph glyph-name="acute" unicode="&#xb4;" horiz-adv-x="328" 
d="M306 698q0 -19 -42 -46l-149 -90h-24l133 131q34 33 56 33q26 0 26 -28z" />
    <glyph glyph-name="mu" unicode="&#xb5;" horiz-adv-x="564" 
d="M549 12v-12h-149v54q-82 -65 -163 -65q-97 0 -130 87q4 -77 23 -153q12 -52 12 -70q0 -55 -41 -55q-8 0 -16 3t-16 16.5t-8 35.5q0 17 12 70q22 92 22 205v276q0 26 -12 33q-12 5 -68 7v12q80 5 149 39v-359q0 -81 40 -105q30 -18 70 -18q58 0 126 55v336q0 26 -12 33
q-12 5 -68 7v12q74 6 149 39v-440q0 -24 10.5 -33.5t37.5 -9.5h32z" />
    <glyph glyph-name="mu" unicode="&#x3bc;" horiz-adv-x="564" 
d="M549 12v-12h-149v54q-82 -65 -163 -65q-97 0 -130 87q4 -77 23 -153q12 -52 12 -70q0 -55 -41 -55q-8 0 -16 3t-16 16.5t-8 35.5q0 17 12 70q22 92 22 205v276q0 26 -12 33q-12 5 -68 7v12q80 5 149 39v-359q0 -81 40 -105q30 -18 70 -18q58 0 126 55v336q0 26 -12 33
q-12 5 -68 7v12q74 6 149 39v-440q0 -24 10.5 -33.5t37.5 -9.5h32z" />
    <glyph glyph-name="paragraph" unicode="&#xb6;" horiz-adv-x="457" 
d="M348 720v-812h-16v812h16zM214 720v-812h-16v562h-6q-67 0 -106 33t-39 93q0 59 39 91.5t106 32.5h22z" />
    <glyph glyph-name="middot" unicode="&#xb7;" horiz-adv-x="222" 
d="M147 320q23 -23 10 -54.5t-46 -31.5q-21 0 -35.5 14.5t-14.5 35.5t15 35.5t35 14.5q22 0 36 -14z" />
    <glyph glyph-name="cedilla" unicode="&#xb8;" horiz-adv-x="309" 
d="M135 -201q-50 0 -87 19l5 11q34 -18 76 -18q37 0 55 17.5t18 46.5q0 50 -54 50q-12 0 -32 -6l-8 7l38 90h14l-34 -79q20 7 52 7q35 0 58 -16.5t23 -45.5q0 -37 -35.5 -60t-88.5 -23z" />
    <glyph glyph-name="onesuperior" unicode="&#xb9;" horiz-adv-x="352" 
d="M257 303v-11h-162v11h18q37 0 37 33v310q-27 -31 -70 -60h-14q93 90 121 147h15v-397q0 -33 36 -33h19z" />
    <glyph glyph-name="ordmasculine" unicode="&#xba;" horiz-adv-x="350" 
d="M339 584q0 -51 -27 -88t-65 -52q-36 -14 -72 -14q-79 0 -121 48q-43 46 -43 106t42 108q42 47 122 47q60 0 112 -39t52 -116zM276 584q0 36 -13 80q-9 29 -32 46t-56 17q-32 0 -55 -16.5t-32 -44.5q-14 -42 -14 -82t14 -82q20 -60 87 -60q71 0 93 81q8 30 8 61z" />
    <glyph glyph-name="guillemotright" unicode="&#xbb;" horiz-adv-x="522" 
d="M214 238q-11 11 -49 53q-60 69 -85 103l9 8q47 -45 97 -87q13 -11 99 -77q-86 -66 -99 -77q-50 -42 -97 -87l-9 8q25 34 85 103q38 42 49 53zM489 238q-89 -57 -173 -122q-85 -67 -150 -128l-10 8q46 63 135 153q35 37 93 89q-58 52 -93 89q-89 90 -135 153l10 8
q65 -61 150 -128q84 -65 173 -122z" />
    <glyph glyph-name="onequarter" unicode="&#xbc;" horiz-adv-x="842" 
d="M731 425l-233 -319h167v171l52 37v-208h50v-12h-50v-49q0 -18 8.5 -25.5t29.5 -7.5h12v-12h-157v12h17q24 0 31 6t7 27v49h-182v13q17 7 189 327l10 19zM657 741l15 -11l-500 -743l-15 10zM257 303v-11h-162v11h18q37 0 37 33v310q-27 -31 -70 -60h-14q93 90 121 147h15
v-397q0 -33 36 -33h19z" />
    <glyph glyph-name="onehalf" unicode="&#xbd;" horiz-adv-x="849" 
d="M663 738l15 -11l-500 -743l-15 10zM791 85h12l-8 -86h-264v10l110 118q57 61 81.5 103t24.5 88q0 58 -26 87t-67 29q-53 0 -53 -38l3 -11q4 -18 -4 -29t-25 -11q-28 0 -28 33q0 27 31 47.5t80 20.5q69 0 105.5 -32.5t36.5 -92.5q0 -63 -96 -155l-129 -125h138q72 0 77 29
v6q1 7 1 9zM257 303v-11h-162v11h18q37 0 37 33v310q-27 -31 -70 -60h-14q93 90 121 147h15v-397q0 -33 36 -33h19z" />
    <glyph glyph-name="threequarters" unicode="&#xbe;" horiz-adv-x="837" 
d="M726 425l-234 -319h168v171q2 1 6.5 4t12.5 8.5t15 10.5l18 14v-208h50v-12h-50v-49q0 -18 8.5 -25.5t29.5 -7.5h12v-12h-157v12h17q24 0 31 6.5t7 26.5v49h-182v14q6 9 26 43l118 200l20 33l34 64l3 4zM668 741l15 -11l-500 -743l-15 10zM326 424q0 -61 -41.5 -98
t-117.5 -37q-58 0 -93.5 24.5t-35.5 56.5q0 15 8.5 23t20.5 8q29 0 29 -28q0 -4 -3.5 -17t-3.5 -19q0 -15 22 -26t51 -11q101 0 101 131q0 79 -50 97q-22 7 -53 7q-20 0 -43 -5v23q24 -6 50 -6q38 0 63.5 25.5t25.5 65.5q0 43 -21 66.5t-62 22.5q-48 -1 -56 -24
q-1 -3 -1 -8.5t1 -13t1 -8.5q0 -14 -8.5 -21.5t-20.5 -7.5q-29 0 -29 33q0 24 29.5 43t83.5 19q73 0 106.5 -27t33.5 -72q0 -33 -26.5 -60.5t-68.5 -37.5q49 -9 78.5 -40t29.5 -78z" />
    <glyph glyph-name="questiondown" unicode="&#xbf;" horiz-adv-x="474" 
d="M37 1q0 76 56 141q23 27 58 58q14 12 75 61q32 25 42 41q8 14 8 29v35h12v-125q0 -20 -9 -32t-37 -33q-56 -43 -91 -84q-52 -60 -52 -136q0 -72 46 -124q45 -51 130 -51q26 0 44 7.5t25 19t9 19t2 14.5q0 3 -2 15.5t-2 16.5q0 20 12.5 32t34.5 12q20 0 32.5 -12t12.5 -34
q0 -42 -45 -72t-121 -30q-105 0 -172 64q-68 65 -68 168zM246 435q-23 23 -10 54t46 31q21 0 35.5 -14.5t14.5 -35.5t-15 -35.5t-35 -14.5q-22 0 -36 15z" />
    <glyph glyph-name="Agrave" unicode="&#xc0;" horiz-adv-x="712" 
d="M712 12v-12h-264v12h35q49 0 49 31q0 14 -82 250h-256l-35 -90q-44 -117 -44 -143q0 -37 35 -48h45v-12h-195v12h30q30 22 67 92q33 62 98 230l87 235l59 154h24l248 -646q13 -35 30.5 -50t50.5 -15h18zM198 305h247l-124 330zM197 905q0 28 26 28q21 0 56 -33l133 -131
h-24q-105 61 -149 90q-42 27 -42 46z" />
    <glyph glyph-name="Aacute" unicode="&#xc1;" horiz-adv-x="712" 
d="M712 12v-12h-264v12h35q49 0 49 31q0 14 -82 250h-256l-35 -90q-44 -117 -44 -143q0 -37 35 -48h45v-12h-195v12h30q30 22 67 92q33 62 98 230l87 235l59 154h24l248 -646q13 -35 30.5 -50t50.5 -15h18zM198 305h247l-124 330zM525 905q0 -19 -42 -46l-149 -90h-24
l133 131q35 33 56 33q26 0 26 -28z" />
    <glyph glyph-name="Acircumflex" unicode="&#xc2;" horiz-adv-x="712" 
d="M712 12v-12h-264v12h35q49 0 49 31q0 14 -82 250h-256l-35 -90q-44 -117 -44 -143q0 -37 35 -48h45v-12h-195v12h30q30 22 67 92q33 62 98 230l87 235l59 154h24l248 -646q13 -35 30.5 -50t50.5 -15h18zM198 305h247l-124 330zM483 753l-61 46q-25 19 -69 56l-69 -56
l-61 -46h-15q14 13 61 66q8 9 19 23t23 30t17 22l10 15h30q38 -54 69 -90q35 -41 60 -66h-14z" />
    <glyph glyph-name="Atilde" unicode="&#xc3;" horiz-adv-x="712" 
d="M712 12v-12h-264v12h35q49 0 49 31q0 14 -82 250h-256l-35 -90q-44 -117 -44 -143q0 -37 35 -48h45v-12h-195v12h30q30 22 67 92q33 62 98 230l87 235l59 154h24l248 -646q13 -35 30.5 -50t50.5 -15h18zM198 305h247l-124 330zM377 840q51 -30 76 -30q52 0 93 50l10 -8
q-50 -86 -120 -86q-32 0 -85 33q-49 30 -76 30q-54 0 -93 -50l-10 8q53 86 120 86q30 0 85 -33z" />
    <glyph glyph-name="Adieresis" unicode="&#xc4;" horiz-adv-x="712" 
d="M712 12v-12h-264v12h35q49 0 49 31q0 14 -82 250h-256l-35 -90q-44 -117 -44 -143q0 -37 35 -48h45v-12h-195v12h30q30 22 67 92q33 62 98 230l87 235l59 154h24l248 -646q13 -35 30.5 -50t50.5 -15h18zM198 305h247l-124 330zM307 812q0 -21 -14.5 -35.5t-35.5 -14.5
t-35.5 14.5t-14.5 35.5t14 35.5t36 14.5q23 0 36.5 -14t13.5 -36zM500 812q0 -21 -14.5 -35.5t-35.5 -14.5t-35.5 14.5t-14.5 35.5t14 35.5t36 14.5q23 0 36.5 -14t13.5 -36z" />
    <glyph glyph-name="Aring" unicode="&#xc5;" horiz-adv-x="712" 
d="M266 795q0 36 25 61.5t61 25.5t61.5 -25.5t25.5 -61.5q0 -31 -20 -54.5t-50 -29.5l244 -634q13 -35 30.5 -50t50.5 -15h18v-12h-264v12h35q49 0 49 31q0 14 -82 250h-256l-35 -90q-44 -117 -44 -143q0 -37 35 -48h45v-12h-195v12h30q30 22 67 92q33 62 98 230l87 235
q10 29 54 141q-30 6 -50 30t-20 55zM198 305h247l-124 330zM303 845q-34 -31 -15 -77t64 -43q30 0 50.5 20.5t20.5 49.5t-20.5 50t-50.5 21t-49 -21z" />
    <glyph glyph-name="AE" unicode="&#xc6;" horiz-adv-x="990" 
d="M386 711v12h541l10 -151h-12l-12 83q-20 26 -89 41q-70 15 -154 15q-70 0 -90 -10q-22 -10 -22 -45v-271h56q56 0 95 4.5t58.5 10t29.5 16t11.5 16.5t1.5 17v23h12v-186h-12v25q0 11 -1.5 17t-11.5 16t-29.5 15.5t-58.5 9.5t-95 4h-56v-307q0 -30 16.5 -42t48.5 -12
q143 0 228 20q72 19 96 77l11 45h12l-29 -154h-568v12h35q39 0 52 11t13 43v225h-223l-47 -81q-80 -139 -80 -169q0 -19 9.5 -24t25.5 -5h39v-12h-197v12h31q55 38 156 201l251 428q23 41 23 50q0 20 -35 20h-40zM257 303h216v372l-151 -262z" />
    <glyph glyph-name="Ccedilla" unicode="&#xc7;" horiz-adv-x="743" 
d="M693 175l-24 -175h-12l2 38q-85 -49 -229 -52l-24 -58q24 10 55 10q38 0 65 -19t27 -53q0 -42 -38.5 -69t-98.5 -27q-50 0 -91 22l5 11q38 -21 79 -21q36 0 57.5 22.5t21.5 52.5q0 28 -15.5 43t-43.5 15q-17 0 -33 -6l-9 7l28 71q-172 3 -264 104t-92 264q0 53 11 104.5
t38.5 103t69 90t107.5 62.5t148 24q101 0 222 -53l-1 37h12l13 -182h-12l-6 46q-73 140 -243 140q-89 0 -150.5 -52.5t-88.5 -132.5t-27 -181q0 -179 79 -270q79 -93 195 -93q80 0 148 34q68 35 93 83l13 60h13z" />
    <glyph glyph-name="Egrave" unicode="&#xc8;" horiz-adv-x="663" 
d="M46 711v12h554l9 -151h-12l-11 83q-20 26 -90 41q-71 15 -154 15q-70 0 -90 -10q-21 -11 -21 -45v-271h57q56 0 95 4.5t58 10t29 16t11.5 16.5t1.5 17v23h12v-186h-12v25q0 11 -1.5 17t-11.5 16t-29.5 15.5t-58 9.5t-94.5 4h-57v-307q0 -31 15.5 -42.5t48.5 -11.5
q147 0 229 20q75 21 96 77l11 45h12l-29 -154h-568v12h35q39 0 52 11t13 43v591q0 31 -15.5 42.5t-49.5 11.5h-35zM239 905q0 28 26 28q21 0 56 -33l133 -131h-24q-105 61 -149 90q-42 27 -42 46z" />
    <glyph glyph-name="Eacute" unicode="&#xc9;" horiz-adv-x="663" 
d="M46 711v12h554l9 -151h-12l-11 83q-20 26 -90 41q-71 15 -154 15q-70 0 -90 -10q-21 -11 -21 -45v-271h57q56 0 95 4.5t58 10t29 16t11.5 16.5t1.5 17v23h12v-186h-12v25q0 11 -1.5 17t-11.5 16t-29.5 15.5t-58 9.5t-94.5 4h-57v-307q0 -31 15.5 -42.5t48.5 -11.5
q147 0 229 20q75 21 96 77l11 45h12l-29 -154h-568v12h35q39 0 52 11t13 43v591q0 31 -15.5 42.5t-49.5 11.5h-35zM528 905q0 -19 -42 -46l-149 -90h-24l133 131q34 33 56 33q26 0 26 -28z" />
    <glyph glyph-name="Ecircumflex" unicode="&#xca;" horiz-adv-x="663" 
d="M46 711v12h554l9 -151h-12l-11 83q-20 26 -90 41q-71 15 -154 15q-70 0 -90 -10q-21 -11 -21 -45v-271h57q56 0 95 4.5t58 10t29 16t11.5 16.5t1.5 17v23h12v-186h-12v25q0 11 -1.5 17t-11.5 16t-29.5 15.5t-58 9.5t-94.5 4h-57v-307q0 -31 15.5 -42.5t48.5 -11.5
q147 0 229 20q75 21 96 77l11 45h12l-29 -154h-568v12h35q39 0 52 11t13 43v591q0 31 -15.5 42.5t-49.5 11.5h-35zM497 753l-61 46q-25 19 -69 56l-69 -56l-61 -46h-15q14 13 61 66q8 9 19 23t23 30t17 22l10 15h30q38 -54 69 -90q35 -41 60 -66h-14z" />
    <glyph glyph-name="Edieresis" unicode="&#xcb;" horiz-adv-x="663" 
d="M46 711v12h554l9 -151h-12l-11 83q-20 26 -90 41q-71 15 -154 15q-70 0 -90 -10q-21 -11 -21 -45v-271h57q56 0 95 4.5t58 10t29 16t11.5 16.5t1.5 17v23h12v-186h-12v25q0 11 -1.5 17t-11.5 16t-29.5 15.5t-58 9.5t-94.5 4h-57v-307q0 -31 15.5 -42.5t48.5 -11.5
q147 0 229 20q75 21 96 77l11 45h12l-29 -154h-568v12h35q39 0 52 11t13 43v591q0 31 -15.5 42.5t-49.5 11.5h-35zM316 812q0 -21 -14.5 -35.5t-35.5 -14.5t-35.5 14.5t-14.5 35.5t14 35.5t36 14.5q23 0 36.5 -14t13.5 -36zM509 812q0 -21 -14.5 -35.5t-35.5 -14.5
t-35.5 14.5t-14.5 35.5t14 35.5t36 14.5q23 0 36.5 -14t13.5 -36z" />
    <glyph glyph-name="Igrave" unicode="&#xcc;" horiz-adv-x="377" 
d="M331 12v-12h-285v12h34q38 0 52 11.5t14 42.5v591q0 32 -13.5 43t-52.5 11h-34v12h285v-12h-37q-37 0 -50 -11.5t-13 -42.5v-591q0 -31 13 -42.5t50 -11.5h37zM73 905q0 28 26 28q22 0 56 -33l133 -131h-24q-105 61 -149 90q-42 27 -42 46z" />
    <glyph glyph-name="Iacute" unicode="&#xcd;" horiz-adv-x="377" 
d="M331 12v-12h-285v12h34q38 0 52 11.5t14 42.5v591q0 32 -13.5 43t-52.5 11h-34v12h285v-12h-37q-37 0 -50 -11.5t-13 -42.5v-591q0 -31 13 -42.5t50 -11.5h37zM352 905q0 -19 -42 -46l-149 -90h-24l133 131q34 33 56 33q26 0 26 -28z" />
    <glyph glyph-name="Icircumflex" unicode="&#xce;" horiz-adv-x="377" 
d="M331 12v-12h-285v12h34q38 0 52 11.5t14 42.5v591q0 32 -13.5 43t-52.5 11h-34v12h285v-12h-37q-37 0 -50 -11.5t-13 -42.5v-591q0 -31 13 -42.5t50 -11.5h37zM318 753l-61 46q-25 19 -69 56l-69 -56l-61 -46h-15q14 13 61 66q27 30 58 75l11 15h30q37 -54 69 -90
q34 -41 60 -66h-14z" />
    <glyph glyph-name="Idieresis" unicode="&#xcf;" horiz-adv-x="377" 
d="M331 12v-12h-285v12h34q38 0 52 11.5t14 42.5v591q0 32 -13.5 43t-52.5 11h-34v12h285v-12h-37q-37 0 -50 -11.5t-13 -42.5v-591q0 -31 13 -42.5t50 -11.5h37zM142 812q0 -21 -14.5 -35.5t-35.5 -14.5t-35.5 14.5t-14.5 35.5t14 35.5t36 14.5q23 0 36.5 -14t13.5 -36z
M335 812q0 -21 -14.5 -35.5t-35.5 -14.5t-35.5 14.5t-14.5 35.5t14 35.5t36 14.5q23 0 36.5 -14t13.5 -36z" />
    <glyph glyph-name="Eth" unicode="&#xd0;" horiz-adv-x="850" 
d="M149 387v270q0 30 -15 42t-51 12h-34v12h155q20 0 93 3q98 2 106 2q97 0 174 -26.5t120 -67.5q39 -37 63 -89q34 -76 34 -157q0 -31 -3.5 -63t-14.5 -71.5t-28.5 -75t-48 -70t-70 -59t-98 -39.5t-128.5 -15q-29 0 -54 1q-10 0 -21 0.5t-16.5 1t-7.5 0.5q-15 0 -35 0.5
t-30.5 1t-16.5 0.5h-173v12h34q40 0 53 11t13 43v305h-119v16h119zM701 379q0 156 -88 255q-75 82 -210 82q-100 0 -169 -29v-300h172v-16h-172v-331q60 -33 166 -33q150 0 226 106q75 105 75 266z" />
    <glyph glyph-name="Ntilde" unicode="&#xd1;" horiz-adv-x="797" 
d="M751 723v-12h-61q-34 -53 -34 -242v-483h-13l-488 606v-347q0 -181 34 -233h61v-12h-204v12h61q31 49 34 233v364l-42 54q-33 41 -48 60h106l485 -607v383q0 65 -9 128t-24 84h-62v12h204zM408 840q51 -30 76 -30q52 0 93 50l10 -8q-50 -86 -120 -86q-33 0 -85 33
q-50 30 -76 30q-54 0 -93 -50l-10 8q53 86 120 86q29 0 85 -33z" />
    <glyph glyph-name="Ograve" unicode="&#xd2;" horiz-adv-x="868" 
d="M809 363q0 -47 -11 -96t-38.5 -100.5t-69 -91t-108 -64.5t-149.5 -25q-121 1 -202.5 50.5t-121.5 129.5q-50 92 -50 197q0 78 30.5 155.5t92.5 134.5q94 86 251 86q98 0 174 -33t119 -91q83 -113 83 -252zM716 363q0 160 -74 263q-75 101 -209 101q-133 0 -207 -98
t-74 -266q0 -208 126 -311q64 -54 155 -54q69 0 124.5 30.5t89 82.5t51.5 116.5t18 135.5zM320 905q0 28 26 28q22 0 56 -33l133 -131h-24q-105 61 -149 90q-42 27 -42 46z" />
    <glyph glyph-name="Oacute" unicode="&#xd3;" horiz-adv-x="868" 
d="M809 363q0 -47 -11 -96t-38.5 -100.5t-69 -91t-108 -64.5t-149.5 -25q-121 1 -202.5 50.5t-121.5 129.5q-50 92 -50 197q0 78 30.5 155.5t92.5 134.5q94 86 251 86q98 0 174 -33t119 -91q83 -113 83 -252zM716 363q0 160 -74 263q-75 101 -209 101q-133 0 -207 -98
t-74 -266q0 -208 126 -311q64 -54 155 -54q69 0 124.5 30.5t89 82.5t51.5 116.5t18 135.5zM609 905q0 -19 -42 -46l-149 -90h-24l133 131q35 33 56 33q26 0 26 -28z" />
    <glyph glyph-name="Ocircumflex" unicode="&#xd4;" horiz-adv-x="868" 
d="M809 363q0 -47 -11 -96t-38.5 -100.5t-69 -91t-108 -64.5t-149.5 -25q-121 1 -202.5 50.5t-121.5 129.5q-50 92 -50 197q0 78 30.5 155.5t92.5 134.5q94 86 251 86q98 0 174 -33t119 -91q83 -113 83 -252zM716 363q0 160 -74 263q-75 101 -209 101q-133 0 -207 -98
t-74 -266q0 -208 126 -311q64 -54 155 -54q69 0 124.5 30.5t89 82.5t51.5 116.5t18 135.5zM564 753l-61 46q-25 19 -69 56l-69 -56l-61 -46h-15q14 13 61 66q27 30 58 75l11 15h30q37 -54 69 -90q34 -41 60 -66h-14z" />
    <glyph glyph-name="Otilde" unicode="&#xd5;" horiz-adv-x="868" 
d="M809 363q0 -47 -11 -96t-38.5 -100.5t-69 -91t-108 -64.5t-149.5 -25q-121 1 -202.5 50.5t-121.5 129.5q-50 92 -50 197q0 78 30.5 155.5t92.5 134.5q94 86 251 86q98 0 174 -33t119 -91q83 -113 83 -252zM716 363q0 160 -74 263q-75 101 -209 101q-133 0 -207 -98
t-74 -266q0 -208 126 -311q64 -54 155 -54q69 0 124.5 30.5t89 82.5t51.5 116.5t18 135.5zM455 840q51 -30 76 -30q52 0 93 50l10 -8q-50 -86 -120 -86q-32 0 -85 33q-49 30 -76 30q-54 0 -93 -50l-10 8q53 86 120 86q30 0 85 -33z" />
    <glyph glyph-name="Odieresis" unicode="&#xd6;" horiz-adv-x="868" 
d="M809 363q0 -47 -11 -96t-38.5 -100.5t-69 -91t-108 -64.5t-149.5 -25q-121 1 -202.5 50.5t-121.5 129.5q-50 92 -50 197q0 78 30.5 155.5t92.5 134.5q94 86 251 86q98 0 174 -33t119 -91q83 -113 83 -252zM716 363q0 160 -74 263q-75 101 -209 101q-133 0 -207 -98
t-74 -266q0 -208 126 -311q64 -54 155 -54q69 0 124.5 30.5t89 82.5t51.5 116.5t18 135.5zM389 812q0 -21 -14.5 -35.5t-35.5 -14.5t-35.5 14.5t-14.5 35.5t14 35.5t36 14.5q23 0 36.5 -14t13.5 -36zM582 812q0 -21 -14.5 -35.5t-35.5 -14.5t-35.5 14.5t-14.5 35.5t14 35.5
t36 14.5q23 0 36.5 -14t13.5 -36z" />
    <glyph glyph-name="multiply" unicode="&#xd7;" 
d="M466 129l-12 -11l-189 184l-189 -184l-12 12l189 185l-190 185l13 13l189 -186l189 186l12 -13l-189 -185z" />
    <glyph glyph-name="Oslash" unicode="&#xd8;" horiz-adv-x="868" 
d="M809 363q0 -47 -11 -96t-38.5 -100.5t-69 -91t-108 -64.5t-149.5 -25q-150 0 -248 83l-74 -85l-13 13l74 84q-56 54 -84.5 129t-28.5 153t30.5 155.5t92.5 134.5q94 86 251 86q147 0 245 -77l67 77l13 -12l-67 -76q58 -52 88 -128t30 -160zM716 363q0 149 -62 244
l-432 -496q78 -113 211 -113q69 0 124.5 30.5t89 82.5t51.5 116.5t18 135.5zM152 363q0 -137 60 -236l431 495q-78 105 -210 105q-133 0 -207 -98t-74 -266z" />
    <glyph glyph-name="Ugrave" unicode="&#xd9;" horiz-adv-x="809" 
d="M779 723v-12h-59q-30 -53 -34 -222v-173q0 -74 -13 -130.5t-42.5 -102t-82.5 -69.5t-128 -24q-110 0 -186 40q-53 28 -82 91q-10 19 -15 51q-6 32 -6 45q-1 9 -1 35v405q0 54 -67 54h-33v12h285v-12h-37q-63 0 -63 -54v-422q0 -67 22 -115.5t56 -71.5t66 -33t62 -9
q59 0 103.5 16.5t72 43.5t45 67.5t24 84.5t6.5 98v182q0 78 -10.5 137t-22.5 76h-61v12h201zM296 905q0 28 26 28q22 0 56 -33l133 -131h-24q-105 61 -149 90q-42 27 -42 46z" />
    <glyph glyph-name="Uacute" unicode="&#xda;" horiz-adv-x="809" 
d="M779 723v-12h-59q-30 -53 -34 -222v-173q0 -74 -13 -130.5t-42.5 -102t-82.5 -69.5t-128 -24q-110 0 -186 40q-53 28 -82 91q-10 19 -15 51q-6 32 -6 45q-1 9 -1 35v405q0 54 -67 54h-33v12h285v-12h-37q-63 0 -63 -54v-422q0 -67 22 -115.5t56 -71.5t66 -33t62 -9
q59 0 103.5 16.5t72 43.5t45 67.5t24 84.5t6.5 98v182q0 78 -10.5 137t-22.5 76h-61v12h201zM615 905q0 -19 -42 -46l-149 -90h-24l133 131q35 33 56 33q26 0 26 -28z" />
    <glyph glyph-name="Ucircumflex" unicode="&#xdb;" horiz-adv-x="809" 
d="M779 723v-12h-59q-30 -53 -34 -222v-173q0 -74 -13 -130.5t-42.5 -102t-82.5 -69.5t-128 -24q-110 0 -186 40q-53 28 -82 91q-10 19 -15 51q-6 32 -6 45q-1 9 -1 35v405q0 54 -67 54h-33v12h285v-12h-37q-63 0 -63 -54v-422q0 -67 22 -115.5t56 -71.5t66 -33t62 -9
q59 0 103.5 16.5t72 43.5t45 67.5t24 84.5t6.5 98v182q0 78 -10.5 137t-22.5 76h-61v12h201zM572 753l-61 46q-25 19 -69 56l-69 -56l-61 -46h-15q14 13 61 66q27 30 58 75l11 15h30q37 -54 69 -90q34 -41 60 -66h-14z" />
    <glyph glyph-name="Udieresis" unicode="&#xdc;" horiz-adv-x="809" 
d="M779 723v-12h-59q-30 -53 -34 -222v-173q0 -74 -13 -130.5t-42.5 -102t-82.5 -69.5t-128 -24q-110 0 -186 40q-53 28 -82 91q-10 19 -15 51q-6 32 -6 45q-1 9 -1 35v405q0 54 -67 54h-33v12h285v-12h-37q-63 0 -63 -54v-422q0 -67 22 -115.5t56 -71.5t66 -33t62 -9
q59 0 103.5 16.5t72 43.5t45 67.5t24 84.5t6.5 98v182q0 78 -10.5 137t-22.5 76h-61v12h201zM391 812q0 -21 -14.5 -35.5t-35.5 -14.5t-35.5 14.5t-14.5 35.5t14 35.5t36 14.5q23 0 36.5 -14t13.5 -36zM584 812q0 -21 -14.5 -35.5t-35.5 -14.5t-35.5 14.5t-14.5 35.5
t14 35.5t36 14.5q23 0 36.5 -14t13.5 -36z" />
    <glyph glyph-name="Yacute" unicode="&#xdd;" horiz-adv-x="726" 
d="M726 723v-12h-31q-47 -24 -87 -93l-96 -159l-97 -160v-233q0 -28 15.5 -41t50.5 -13h34v-12h-284v12h34q65 0 65 54v225l-213 351q-16 27 -34 43q-28 25 -83 26v12h277v-12h-40q-28 0 -35.5 -16t7.5 -39l200 -340l89 149q52 88 67 117q36 72 36 97q0 32 -47 32h-29v12
h201zM562 905q0 -19 -42 -46l-149 -90h-24l133 131q34 33 56 33q26 0 26 -28z" />
    <glyph glyph-name="Thorn" unicode="&#xde;" horiz-adv-x="665" 
d="M330 12v-12h-284v12h34q38 0 51.5 11.5t13.5 42.5v591q0 32 -14 43t-51 11h-34v12h284v-12h-36q-38 0 -51 -11.5t-13 -42.5v-66q60 15 124 15q145 0 208 -57.5t63 -143.5q0 -95 -73 -156q-74 -63 -206 -63q-71 0 -116 8v-128q0 -31 13 -42.5t51 -11.5h36zM532 405
q0 90 -50 139.5t-137 49.5q-68 0 -115 -14v-373q56 -8 111 -8q88 0 139.5 53t51.5 153z" />
    <glyph glyph-name="germandbls" unicode="&#xdf;" horiz-adv-x="568" 
d="M543 154q0 -65 -51 -115q-52 -50 -124 -50q-50 0 -77.5 17.5t-27.5 46.5q0 20 11 31.5t27 11.5q41 0 41 -36l-1 -10q-1 -10 -1 -19q0 -13 12.5 -21.5t33.5 -8.5q44 0 70.5 32t26.5 86q0 96 -94 154l-50 31q-87 53 -87 96q0 30 24 62q3 3 13 15.5l18 22.5q38 45 55 87
q12 30 12 61q0 61 -23 89.5t-75 28.5q-111 0 -111 -231v-480q0 -24 10 -33.5t37 -9.5h14v-12h-211v12h34q26 0 36.5 10t10.5 33v414h-81v11l81 14v7q0 89 19 148q12 41 33.5 67.5t60.5 43.5q36 20 94 18.5t104 -29.5q48 -30 48 -92q0 -37 -23 -69q-24 -32 -83 -86
q-43 -39 -43 -63q0 -27 73 -73l76 -49q51 -32 69.5 -70t18.5 -93z" />
    <glyph glyph-name="agrave" unicode="&#xe0;" horiz-adv-x="484" 
d="M429 13q13 0 23.5 14t14.5 38h12q-10 -76 -74 -76q-76 0 -76 103q-99 -103 -190 -103q-56 0 -86.5 28t-30.5 74q0 95 138 150q67 26 143 37l26 4v51q0 78 -28 113t-97 35q-34 0 -58 -13t-24 -36q0 -6 4.5 -20t4.5 -20q0 -38 -42 -38q-17 0 -27.5 11.5t-10.5 30.5
q0 40 46 68q46 29 113 29q188 0 188 -160v-265q0 -55 31 -55zM329 108v162q-96 -17 -157 -52q-69 -38 -69 -114q0 -41 21 -62t58 -21q34 0 77 28q40 26 70 59zM99 698q0 28 26 28q21 0 56 -33l133 -131h-24q-105 61 -149 90q-42 27 -42 46z" />
    <glyph glyph-name="aacute" unicode="&#xe1;" horiz-adv-x="484" 
d="M429 13q13 0 23.5 14t14.5 38h12q-10 -76 -74 -76q-76 0 -76 103q-99 -103 -190 -103q-56 0 -86.5 28t-30.5 74q0 95 138 150q67 26 143 37l26 4v51q0 78 -28 113t-97 35q-34 0 -58 -13t-24 -36q0 -6 4.5 -20t4.5 -20q0 -38 -42 -38q-17 0 -27.5 11.5t-10.5 30.5
q0 40 46 68q46 29 113 29q188 0 188 -160v-265q0 -55 31 -55zM329 108v162q-96 -17 -157 -52q-69 -38 -69 -114q0 -41 21 -62t58 -21q34 0 77 28q40 26 70 59zM393 698q0 -19 -42 -46l-149 -90h-24l133 131q35 33 56 33q26 0 26 -28z" />
    <glyph glyph-name="acircumflex" unicode="&#xe2;" horiz-adv-x="484" 
d="M429 13q13 0 23.5 14t14.5 38h12q-10 -76 -74 -76q-76 0 -76 103q-99 -103 -190 -103q-56 0 -86.5 28t-30.5 74q0 95 138 150q67 26 143 37l26 4v51q0 78 -28 113t-97 35q-34 0 -58 -13t-24 -36q0 -6 4.5 -20t4.5 -20q0 -38 -42 -38q-17 0 -27.5 11.5t-10.5 30.5
q0 40 46 68q46 29 113 29q188 0 188 -160v-265q0 -55 31 -55zM329 108v162q-96 -17 -157 -52q-69 -38 -69 -114q0 -41 21 -62t58 -21q34 0 77 28q40 26 70 59zM365 555l-61 46q-25 19 -69 56l-69 -56l-61 -46h-15q14 13 61 66q8 9 19 23t23 30t17 22l10 15h30q38 -54 69 -90
q35 -41 60 -66h-14z" />
    <glyph glyph-name="atilde" unicode="&#xe3;" horiz-adv-x="484" 
d="M429 13q13 0 23.5 14t14.5 38h12q-10 -76 -74 -76q-76 0 -76 103q-99 -103 -190 -103q-56 0 -86.5 28t-30.5 74q0 95 138 150q67 26 143 37l26 4v51q0 78 -28 113t-97 35q-34 0 -58 -13t-24 -36q0 -6 4.5 -20t4.5 -20q0 -38 -42 -38q-17 0 -27.5 11.5t-10.5 30.5
q0 40 46 68q46 29 113 29q188 0 188 -160v-265q0 -55 31 -55zM329 108v162q-96 -17 -157 -52q-69 -38 -69 -114q0 -41 21 -62t58 -21q34 0 77 28q40 26 70 59zM247 640q51 -30 76 -30q52 0 93 50l10 -8q-50 -86 -120 -86q-32 0 -85 33q-49 30 -76 30q-54 0 -93 -50l-10 8
q53 86 120 86q30 0 85 -33z" />
    <glyph glyph-name="adieresis" unicode="&#xe4;" horiz-adv-x="484" 
d="M429 13q13 0 23.5 14t14.5 38h12q-10 -76 -74 -76q-76 0 -76 103q-99 -103 -190 -103q-56 0 -86.5 28t-30.5 74q0 95 138 150q67 26 143 37l26 4v51q0 78 -28 113t-97 35q-34 0 -58 -13t-24 -36q0 -6 4.5 -20t4.5 -20q0 -38 -42 -38q-17 0 -27.5 11.5t-10.5 30.5
q0 40 46 68q46 29 113 29q188 0 188 -160v-265q0 -55 31 -55zM329 108v162q-96 -17 -157 -52q-69 -38 -69 -114q0 -41 21 -62t58 -21q34 0 77 28q40 26 70 59zM180 637q0 -21 -14.5 -35.5t-35.5 -14.5t-35.5 14.5t-14.5 35.5t14 35.5t36 14.5q23 0 36.5 -14t13.5 -36z
M373 637q0 -21 -14.5 -35.5t-35.5 -14.5t-35.5 14.5t-14.5 35.5t14 35.5t36 14.5q23 0 36.5 -14t13.5 -36z" />
    <glyph glyph-name="aring" unicode="&#xe5;" horiz-adv-x="484" 
d="M429 13q13 0 23.5 14t14.5 38h12q-10 -76 -74 -76q-76 0 -76 103q-99 -103 -190 -103q-56 0 -86.5 28t-30.5 74q0 95 138 150q67 26 143 37l26 4v51q0 78 -28 113t-97 35q-34 0 -58 -13t-24 -36q0 -6 4.5 -20t4.5 -20q0 -38 -42 -38q-17 0 -27.5 11.5t-10.5 30.5
q0 40 46 68q46 29 113 29q188 0 188 -160v-265q0 -55 31 -55zM329 108v162q-96 -17 -157 -52q-69 -38 -69 -114q0 -41 21 -62t58 -21q34 0 77 28q40 26 70 59zM139 630q0 36 25 61.5t61 25.5t61.5 -25.5t25.5 -61.5q0 -35 -25.5 -60.5t-61.5 -25.5t-61 25.5t-25 60.5z
M176 680q-34 -31 -15 -77t64 -43q30 0 50.5 20.5t20.5 49.5t-20.5 50t-50.5 21q-29 0 -49 -21z" />
    <glyph glyph-name="ae" unicode="&#xe6;" horiz-adv-x="761" 
d="M548 493q91 0 139 -63q48 -64 49 -149h-330q0 -166 53 -222q42 -46 103 -46q96 0 160 99l10 -7q-68 -116 -188 -116q-62 0 -115.5 29.5t-81.5 87.5q-40 -61 -98 -89q-57 -28 -105 -28q-59 0 -90.5 28t-31.5 74q0 41 27.5 76t74.5 57q86 42 179 54l26 4v51q0 79 -27 113.5
t-97 34.5q-35 0 -59 -13t-24 -36q0 -6 4.5 -19.5t4.5 -19.5q0 -39 -41 -39q-17 0 -28 11.5t-11 30.5q0 40 46 68q47 29 114 29q125 0 167 -78q52 78 170 78zM329 147v123q-97 -17 -157 -50q-69 -38 -69 -114q0 -85 84 -85q51 0 97 37q45 38 45 89zM406 293h254q0 84 -31 136
t-89 52q-119 0 -134 -188z" />
    <glyph glyph-name="ccedilla" unicode="&#xe7;" horiz-adv-x="450" 
d="M269 13q50 0 93 29.5t67 85.5l11 -5q-57 -132 -185 -134l-22 -52q20 7 52 7q35 0 58 -16.5t23 -45.5q0 -37 -35.5 -60t-88.5 -23q-50 0 -87 19l5 11q34 -18 76 -18q37 0 55 17.5t18 46.5q0 50 -54 50q-13 0 -32 -6l-8 7l26 63q-93 4 -154 70q-62 67 -62 177q0 106 62 182
q62 75 179 75q68 0 109.5 -24t41.5 -61q0 -23 -11.5 -36t-30.5 -13q-42 0 -42 44q0 3 1.5 16.5t1.5 18.5q0 19 -20 31t-54 12q-72 0 -114 -59.5t-42 -185.5q0 -108 44.5 -165.5t118.5 -57.5z" />
    <glyph glyph-name="egrave" unicode="&#xe8;" horiz-adv-x="465" 
d="M248 493q92 0 141 -63t51 -149h-334q0 -166 53 -222q43 -46 104 -46q99 0 162 99l10 -7q-68 -116 -191 -116q-76 0 -142 52q-77 59 -77 197q0 118 59.5 186.5t163.5 68.5zM106 293h257q0 81 -31 134q-32 54 -91 54q-120 0 -135 -188zM94 698q0 28 26 28q22 0 56 -33
l133 -131h-24q-105 61 -149 90q-42 27 -42 46z" />
    <glyph glyph-name="eacute" unicode="&#xe9;" horiz-adv-x="465" 
d="M248 493q92 0 141 -63t51 -149h-334q0 -166 53 -222q43 -46 104 -46q99 0 162 99l10 -7q-68 -116 -191 -116q-76 0 -142 52q-77 59 -77 197q0 118 59.5 186.5t163.5 68.5zM106 293h257q0 81 -31 134q-32 54 -91 54q-120 0 -135 -188zM394 698q0 -19 -42 -46l-149 -90h-24
l133 131q34 33 56 33q26 0 26 -28z" />
    <glyph glyph-name="ecircumflex" unicode="&#xea;" horiz-adv-x="465" 
d="M248 493q92 0 141 -63t51 -149h-334q0 -166 53 -222q43 -46 104 -46q99 0 162 99l10 -7q-68 -116 -191 -116q-76 0 -142 52q-77 59 -77 197q0 118 59.5 186.5t163.5 68.5zM106 293h257q0 81 -31 134q-32 54 -91 54q-120 0 -135 -188zM367 555l-61 46q-25 19 -69 56
l-69 -56l-61 -46h-15q14 13 61 66q8 9 19 23t23 30t17 22l10 15h30q38 -54 69 -90q35 -41 60 -66h-14z" />
    <glyph glyph-name="edieresis" unicode="&#xeb;" horiz-adv-x="465" 
d="M248 493q92 0 141 -63t51 -149h-334q0 -166 53 -222q43 -46 104 -46q99 0 162 99l10 -7q-68 -116 -191 -116q-76 0 -142 52q-77 59 -77 197q0 118 59.5 186.5t163.5 68.5zM106 293h257q0 81 -31 134q-32 54 -91 54q-120 0 -135 -188zM191 637q0 -21 -14.5 -35.5
t-35.5 -14.5t-35.5 14.5t-14.5 35.5t14 35.5t36 14.5q23 0 36.5 -14t13.5 -36zM384 637q0 -21 -14.5 -35.5t-35.5 -14.5t-35.5 14.5t-14.5 35.5t14 35.5t36 14.5q23 0 36.5 -14t13.5 -36z" />
    <glyph glyph-name="igrave" unicode="&#xec;" horiz-adv-x="259" 
d="M244 12v-12h-229v12h32q29 0 38.5 9t9.5 34v349q0 26 -13 33q-12 5 -67 7v12q77 5 149 39v-440q0 -24 10 -33.5t37 -9.5h33zM-27 698q0 28 26 28q21 0 56 -33l133 -131h-24q-105 61 -149 90q-42 27 -42 46z" />
    <glyph glyph-name="iacute" unicode="&#xed;" horiz-adv-x="259" 
d="M244 12v-12h-229v12h32q29 0 38.5 9t9.5 34v349q0 26 -13 33q-12 5 -67 7v12q77 5 149 39v-440q0 -24 10 -33.5t37 -9.5h33zM274 698q0 -19 -42 -46l-149 -90h-24l133 131q34 33 56 33q26 0 26 -28z" />
    <glyph glyph-name="icircumflex" unicode="&#xee;" horiz-adv-x="259" 
d="M244 12v-12h-229v12h32q29 0 38.5 9t9.5 34v349q0 26 -13 33q-12 5 -67 7v12q77 5 149 39v-440q0 -24 10 -33.5t37 -9.5h33zM244 555l-61 46q-25 19 -69 56l-69 -56l-61 -46h-15q14 13 61 66q27 30 58 75l11 15h30q37 -54 69 -90q34 -41 60 -66h-14z" />
    <glyph glyph-name="idieresis" unicode="&#xef;" horiz-adv-x="259" 
d="M244 12v-12h-229v12h32q29 0 38.5 9t9.5 34v349q0 26 -13 33q-12 5 -67 7v12q77 5 149 39v-440q0 -24 10 -33.5t37 -9.5h33zM76 637q0 -21 -14.5 -35.5t-35.5 -14.5t-35.5 14.5t-14.5 35.5t14 35.5t36 14.5q23 0 36.5 -14t13.5 -36zM269 637q0 -21 -14.5 -35.5
t-35.5 -14.5t-35.5 14.5t-14.5 35.5t14 35.5t36 14.5q23 0 36.5 -14t13.5 -36z" />
    <glyph glyph-name="eth" unicode="&#xf0;" 
d="M312 653l64 52l9 -11l-61 -51q179 -119 179 -370q0 -121 -68 -203q-67 -81 -171 -81t-171 69q-68 70 -68 182q0 121 64 187t173 66q76 0 143 -46q-24 99 -111 172l-61 -49l-9 11l57 48q-72 60 -182 75v12q43 -2 102 -16q63 -17 111 -47zM422 252q0 116 -43.5 172.5
t-116.5 56.5q-72 0 -114 -59t-42 -182q0 -121 43 -180t115 -59q69 0 113.5 66t44.5 185z" />
    <glyph glyph-name="ntilde" unicode="&#xf1;" horiz-adv-x="567" 
d="M552 12v-12h-229v12h32q29 0 38.5 9t9.5 34v269q0 99 -40 125q-31 20 -75 20q-52 0 -124 -45v-369q0 -26 9 -34.5t38 -8.5h33v-12h-229v12h31q29 0 39 8.5t10 34.5v349q0 26 -13 33q-12 5 -67 7v12q75 4 149 39v-57q79 55 153 55q115 0 143 -85q12 -40 12 -100v-253
q0 -24 10 -33.5t37 -9.5h33zM301 640q51 -30 76 -30q52 0 93 50l10 -8q-50 -86 -120 -86q-32 0 -85 33q-50 30 -76 30q-54 0 -93 -50l-10 8q53 86 120 86q30 0 85 -33z" />
    <glyph glyph-name="ograve" unicode="&#xf2;" 
d="M503 240q0 -113 -67 -181q-67 -70 -172 -70q-104 0 -171 69q-68 70 -68 182q0 121 65 187t174 66q111 0 175 -64.5t64 -188.5zM422 240q0 123 -43 182t-115 59t-115 -59t-43 -182q0 -121 43 -180t115 -59t115 59t43 180zM119 698q0 28 26 28q21 0 56 -33l133 -131h-24
q-105 61 -149 90q-42 27 -42 46z" />
    <glyph glyph-name="oacute" unicode="&#xf3;" 
d="M503 240q0 -113 -67 -181q-67 -70 -172 -70q-104 0 -171 69q-68 70 -68 182q0 121 65 187t174 66q111 0 175 -64.5t64 -188.5zM422 240q0 123 -43 182t-115 59t-115 -59t-43 -182q0 -121 43 -180t115 -59t115 59t43 180zM395 698q0 -19 -42 -46l-149 -90h-24l133 131
q35 33 56 33q26 0 26 -28z" />
    <glyph glyph-name="ocircumflex" unicode="&#xf4;" 
d="M503 240q0 -113 -67 -181q-67 -70 -172 -70q-104 0 -171 69q-68 70 -68 182q0 121 65 187t174 66q111 0 175 -64.5t64 -188.5zM422 240q0 123 -43 182t-115 59t-115 -59t-43 -182q0 -121 43 -180t115 -59t115 59t43 180zM395 555l-61 46q-25 19 -69 56l-69 -56l-61 -46
h-15q14 13 61 66q8 9 19 23t23 30t17 22l10 15h30q38 -54 69 -90q35 -41 60 -66h-14z" />
    <glyph glyph-name="otilde" unicode="&#xf5;" 
d="M503 240q0 -113 -67 -181q-67 -70 -172 -70q-104 0 -171 69q-68 70 -68 182q0 121 65 187t174 66q111 0 175 -64.5t64 -188.5zM422 240q0 123 -43 182t-115 59t-115 -59t-43 -182q0 -121 43 -180t115 -59t115 59t43 180zM284 640q51 -30 76 -30q52 0 93 50l10 -8
q-50 -86 -120 -86q-33 0 -85 33q-50 30 -76 30q-54 0 -93 -50l-10 8q53 86 120 86q29 0 85 -33z" />
    <glyph glyph-name="odieresis" unicode="&#xf6;" 
d="M503 240q0 -113 -67 -181q-67 -70 -172 -70q-104 0 -171 69q-68 70 -68 182q0 121 65 187t174 66q111 0 175 -64.5t64 -188.5zM422 240q0 123 -43 182t-115 59t-115 -59t-43 -182q0 -121 43 -180t115 -59t115 59t43 180zM220 637q0 -21 -14.5 -35.5t-35.5 -14.5
t-35.5 14.5t-14.5 35.5t14 35.5t36 14.5q23 0 36.5 -14t13.5 -36zM413 637q0 -21 -14.5 -35.5t-35.5 -14.5t-35.5 14.5t-14.5 35.5t14 35.5t36 14.5q23 0 36.5 -14t13.5 -36z" />
    <glyph glyph-name="divide" unicode="&#xf7;" 
d="M519 345v-16h-510v16h510zM300 229q23 -23 10 -54.5t-46 -31.5q-21 0 -35.5 14.5t-14.5 35.5t15 35.5t35 14.5q22 0 36 -14zM300 517q23 -23 10 -54.5t-46 -31.5q-21 0 -35.5 14.5t-14.5 35.5t15 35.5t35 14.5q22 0 36 -14z" />
    <glyph glyph-name="oslash" unicode="&#xf8;" 
d="M503 240q0 -113 -67 -181q-67 -70 -172 -70q-101 0 -166 62l-57 -63l-10 10l57 64q-63 68 -63 178q0 121 65 187t174 66q102 0 163 -54l50 56l11 -10l-50 -56q65 -65 65 -189zM422 240q0 87 -24 145l-266 -296q40 -88 132 -88q72 0 115 59t43 180zM106 240q0 -82 20 -136
l266 296q-40 81 -128 81q-72 0 -115 -59t-43 -182z" />
    <glyph glyph-name="ugrave" unicode="&#xf9;" horiz-adv-x="564" 
d="M549 12v-12h-149v54q-82 -65 -163 -65q-41 0 -70.5 13.5t-44 36.5t-21 47t-6.5 52v266q0 26 -12 33q-12 5 -68 7v12q80 5 149 39v-359q0 -81 40 -105q30 -18 70 -18q58 0 126 55v336q0 26 -12 33q-12 5 -68 7v12q74 6 149 39v-440q0 -24 10.5 -33.5t37.5 -9.5h32z
M127 698q0 28 26 28q21 0 56 -33l133 -131h-24q-105 61 -149 90q-42 27 -42 46z" />
    <glyph glyph-name="uacute" unicode="&#xfa;" horiz-adv-x="564" 
d="M549 12v-12h-149v54q-82 -65 -163 -65q-41 0 -70.5 13.5t-44 36.5t-21 47t-6.5 52v266q0 26 -12 33q-12 5 -68 7v12q80 5 149 39v-359q0 -81 40 -105q30 -18 70 -18q58 0 126 55v336q0 26 -12 33q-12 5 -68 7v12q74 6 149 39v-440q0 -24 10.5 -33.5t37.5 -9.5h32z
M445 698q0 -19 -42 -46l-149 -90h-24l133 131q35 33 56 33q26 0 26 -28z" />
    <glyph glyph-name="ucircumflex" unicode="&#xfb;" horiz-adv-x="564" 
d="M549 12v-12h-149v54q-82 -65 -163 -65q-41 0 -70.5 13.5t-44 36.5t-21 47t-6.5 52v266q0 26 -12 33q-12 5 -68 7v12q80 5 149 39v-359q0 -81 40 -105q30 -18 70 -18q58 0 126 55v336q0 26 -12 33q-12 5 -68 7v12q74 6 149 39v-440q0 -24 10.5 -33.5t37.5 -9.5h32z
M408 555l-61 46q-25 19 -69 56l-69 -56l-61 -46h-15q14 13 61 66q27 30 58 75l11 15h30q37 -54 69 -90q34 -41 60 -66h-14z" />
    <glyph glyph-name="udieresis" unicode="&#xfc;" horiz-adv-x="564" 
d="M549 12v-12h-149v54q-82 -65 -163 -65q-41 0 -70.5 13.5t-44 36.5t-21 47t-6.5 52v266q0 26 -12 33q-12 5 -68 7v12q80 5 149 39v-359q0 -81 40 -105q30 -18 70 -18q58 0 126 55v336q0 26 -12 33q-12 5 -68 7v12q74 6 149 39v-440q0 -24 10.5 -33.5t37.5 -9.5h32z
M237 637q0 -21 -14.5 -35.5t-35.5 -14.5t-35.5 14.5t-14.5 35.5t14 35.5t36 14.5q23 0 36.5 -14t13.5 -36zM430 637q0 -21 -14.5 -35.5t-35.5 -14.5t-35.5 14.5t-14.5 35.5t14 35.5t36 14.5q23 0 36.5 -14t13.5 -36z" />
    <glyph glyph-name="yacute" unicode="&#xfd;" horiz-adv-x="535" 
d="M535 481v-12h-10q-33 0 -51 -34q-9 -16 -37 -87l-74 -200l-82 -205q-39 -96 -69 -132q-37 -43 -90 -43q-36 0 -58 17.5t-22 46.5q-1 33 31 41q30 8 45 -13q7 -9 6 -22l-1 -22q-1 -12 6.5 -18t22.5 -6q25 0 49 29q46 60 79 162l-200 444q-7 14 -12 21t-18 13t-36 8h-14v12
h219v-12h-32q-34 0 -34 -26q0 -8 6 -22l158 -358q121 327 121 363q0 43 -37 43h-28v12h162zM452 698q0 -19 -42 -46l-149 -90h-24l133 131q34 33 56 33q26 0 26 -28z" />
    <glyph glyph-name="thorn" unicode="&#xfe;" horiz-adv-x="560" 
d="M454 239q0 230 -166 230q-54 0 -124 -53v-378q41 -25 112 -25q80 0 129 60.5t49 165.5zM95 -167v862q0 26 -13 33q-12 5 -67 7v12q70 5 149 39v-356q70 63 148 63q40 0 77 -12.5t71 -40t54.5 -78.5t20.5 -120q0 -108 -63 -180q-63 -71 -173 -73q-78 0 -135 36v-192
q0 -27 8.5 -35t38.5 -8h33v-12h-229v12h31q30 0 39.5 8.5t9.5 34.5z" />
    <glyph glyph-name="ydieresis" unicode="&#xff;" horiz-adv-x="535" 
d="M535 481v-12h-10q-33 0 -51 -34q-9 -16 -37 -87l-74 -200l-82 -205q-39 -96 -69 -132q-37 -43 -90 -43q-36 0 -58 17.5t-22 46.5q-1 33 31 41q30 8 45 -13q7 -9 6 -22l-1 -22q-1 -12 6.5 -18t22.5 -6q25 0 49 29q46 60 79 162l-200 444q-7 14 -12 21t-18 13t-36 8h-14v12
h219v-12h-32q-34 0 -34 -26q0 -8 6 -22l158 -358q121 327 121 363q0 43 -37 43h-28v12h162zM240 637q0 -21 -14.5 -35.5t-35.5 -14.5t-35.5 14.5t-14.5 35.5t14 35.5t36 14.5q23 0 36.5 -14t13.5 -36zM433 637q0 -21 -14.5 -35.5t-35.5 -14.5t-35.5 14.5t-14.5 35.5t14 35.5
t36 14.5q23 0 36.5 -14t13.5 -36z" />
    <glyph glyph-name="Amacron" unicode="&#x100;" horiz-adv-x="712" 
d="M712 12v-12h-264v12h35q49 0 49 31q0 14 -82 250h-256l-35 -90q-44 -117 -44 -143q0 -37 35 -48h45v-12h-195v12h30q30 22 67 92q33 62 98 230l87 235l59 154h24l248 -646q13 -35 30.5 -50t50.5 -15h18zM198 305h247l-124 330zM499 799v-16h-291v16h291z" />
    <glyph glyph-name="amacron" unicode="&#x101;" horiz-adv-x="484" 
d="M429 13q13 0 23.5 14t14.5 38h12q-10 -76 -74 -76q-76 0 -76 103q-99 -103 -190 -103q-56 0 -86.5 28t-30.5 74q0 95 138 150q67 26 143 37l26 4v51q0 78 -28 113t-97 35q-34 0 -58 -13t-24 -36q0 -6 4.5 -20t4.5 -20q0 -38 -42 -38q-17 0 -27.5 11.5t-10.5 30.5
q0 40 46 68q46 29 113 29q188 0 188 -160v-265q0 -55 31 -55zM329 108v162q-96 -17 -157 -52q-69 -38 -69 -114q0 -41 21 -62t58 -21q34 0 77 28q40 26 70 59zM367 591v-16h-291v16h291z" />
    <glyph glyph-name="Abreve" unicode="&#x102;" horiz-adv-x="712" 
d="M712 12v-12h-264v12h35q49 0 49 31q0 14 -82 250h-256l-35 -90q-44 -117 -44 -143q0 -37 35 -48h45v-12h-195v12h30q30 22 67 92q33 62 98 230l87 235l59 154h24l248 -646q13 -35 30.5 -50t50.5 -15h18zM198 305h247l-124 330zM455 810q-44 -32 -102 -32t-102 32
q-43 32 -51 90h14q24 -76 139 -76q116 0 140 76h13q-8 -58 -51 -90z" />
    <glyph glyph-name="abreve" unicode="&#x103;" horiz-adv-x="484" 
d="M429 13q13 0 23.5 14t14.5 38h12q-10 -76 -74 -76q-76 0 -76 103q-99 -103 -190 -103q-56 0 -86.5 28t-30.5 74q0 95 138 150q67 26 143 37l26 4v51q0 78 -28 113t-97 35q-34 0 -58 -13t-24 -36q0 -6 4.5 -20t4.5 -20q0 -38 -42 -38q-17 0 -27.5 11.5t-10.5 30.5
q0 40 46 68q46 29 113 29q188 0 188 -160v-265q0 -55 31 -55zM329 108v162q-96 -17 -157 -52q-69 -38 -69 -114q0 -41 21 -62t58 -21q34 0 77 28q40 26 70 59zM335 598q-43 -43 -107 -43t-106 43q-44 44 -48 105h12q13 -46 51.5 -74t90.5 -28q53 0 91 28t50 74h13
q-4 -61 -47 -105z" />
    <glyph glyph-name="Aogonek" unicode="&#x104;" horiz-adv-x="712" 
d="M673 -147q39 0 86 40l8 -9q-63 -60 -127 -60q-33 0 -53 18.5t-20 48.5q0 52 57 109h-176v12h35q49 0 49 31q0 14 -82 250h-256l-35 -90q-44 -117 -44 -143q0 -37 35 -48h45v-12h-195v12h30q30 22 67 92q33 62 98 230l87 235l59 154h24l248 -646q13 -35 30.5 -50t50.5 -15
h18v-12h-68q-29 -46 -29 -90q0 -26 15.5 -41.5t42.5 -15.5zM198 305h247l-124 330z" />
    <glyph glyph-name="aogonek" unicode="&#x105;" horiz-adv-x="484" 
d="M476 -123q35 0 73 35l8 -9q-52 -52 -106 -52q-30 0 -46.5 15.5t-16.5 42.5q0 38 36 82q-8 -2 -19 -2q-76 0 -76 103q-99 -103 -190 -103q-56 0 -86.5 28t-30.5 74q0 95 138 150q67 26 143 37l26 4v51q0 78 -28 113t-97 35q-34 0 -58 -13t-24 -36q0 -6 4.5 -20t4.5 -20
q0 -38 -42 -38q-17 0 -27.5 11.5t-10.5 30.5q0 40 46 68q46 29 113 29q188 0 188 -160v-265q0 -55 31 -55q13 0 23.5 14t14.5 38h12q-4 -34 -22 -55q-30 -42 -30 -86q0 -47 49 -47zM329 108v162q-96 -17 -157 -52q-69 -38 -69 -114q0 -41 21 -62t58 -21q34 0 77 28
q40 26 70 59z" />
    <glyph glyph-name="Cacute" unicode="&#x106;" horiz-adv-x="743" 
d="M693 175l-24 -175h-12l2 38q-88 -52 -233 -52q-177 0 -272 101t-95 268q0 53 11 104.5t38.5 103t69 90t107.5 62.5t148 24q101 0 222 -53l-1 37h12l13 -182h-12l-6 46q-73 140 -243 140q-89 0 -150.5 -52.5t-88.5 -132.5t-27 -181q0 -179 79 -270q79 -93 195 -93
q80 0 148 34q68 35 93 83l13 60h13zM576 905q0 -19 -42 -46l-149 -90h-24l133 131q34 33 56 33q26 0 26 -28z" />
    <glyph glyph-name="cacute" unicode="&#x107;" horiz-adv-x="450" 
d="M269 13q50 0 93 29.5t67 85.5l11 -5q-59 -134 -188 -134q-98 0 -162 67q-65 67 -65 180q0 106 62 182q62 75 179 75q68 0 109.5 -24t41.5 -61q0 -23 -11.5 -36t-30.5 -13q-42 0 -42 44q0 3 1.5 16.5t1.5 18.5q0 19 -20 31t-54 12q-72 0 -114 -59.5t-42 -185.5
q0 -108 44.5 -165.5t118.5 -57.5zM397 698q0 -19 -42 -46l-149 -90h-24l133 131q34 33 56 33q26 0 26 -28z" />
    <glyph glyph-name="Cdotaccent" unicode="&#x10a;" horiz-adv-x="743" 
d="M693 175l-24 -175h-12l2 38q-88 -52 -233 -52q-177 0 -272 101t-95 268q0 53 11 104.5t38.5 103t69 90t107.5 62.5t148 24q101 0 222 -53l-1 37h12l13 -182h-12l-6 46q-73 140 -243 140q-89 0 -150.5 -52.5t-88.5 -132.5t-27 -181q0 -179 79 -270q79 -93 195 -93
q80 0 148 34q68 35 93 83l13 60h13zM486 834q0 -21 -14.5 -35.5t-35.5 -14.5t-35.5 14.5t-14.5 35.5t14 35.5t36 14.5q23 0 36.5 -14t13.5 -36z" />
    <glyph glyph-name="cdotaccent" unicode="&#x10b;" horiz-adv-x="450" 
d="M269 13q50 0 93 29.5t67 85.5l11 -5q-59 -134 -188 -134q-98 0 -162 67q-65 67 -65 180q0 106 62 182q62 75 179 75q68 0 109.5 -24t41.5 -61q0 -23 -11.5 -36t-30.5 -13q-42 0 -42 44q0 3 1.5 16.5t1.5 18.5q0 19 -20 31t-54 12q-72 0 -114 -59.5t-42 -185.5
q0 -108 44.5 -165.5t118.5 -57.5zM310 637q0 -21 -14.5 -35.5t-35.5 -14.5t-35.5 14.5t-14.5 35.5t14 35.5t36 14.5q23 0 36.5 -14t13.5 -36z" />
    <glyph glyph-name="Ccaron" unicode="&#x10c;" horiz-adv-x="743" 
d="M693 175l-24 -175h-12l2 38q-88 -52 -233 -52q-177 0 -272 101t-95 268q0 53 11 104.5t38.5 103t69 90t107.5 62.5t148 24q101 0 222 -53l-1 37h12l13 -182h-12l-6 46q-73 140 -243 140q-89 0 -150.5 -52.5t-88.5 -132.5t-27 -181q0 -179 79 -270q79 -93 195 -93
q80 0 148 34q68 35 93 83l13 60h13zM506 872l61 46h14q-25 -26 -60 -66q-34 -38 -59 -76l-10 -14h-30q-38 54 -69 90q-47 53 -61 66h15q27 -18 61 -46l69 -56q44 37 69 56z" />
    <glyph glyph-name="ccaron" unicode="&#x10d;" horiz-adv-x="450" 
d="M269 13q50 0 93 29.5t67 85.5l11 -5q-59 -134 -188 -134q-98 0 -162 67q-65 67 -65 180q0 106 62 182q62 75 179 75q68 0 109.5 -24t41.5 -61q0 -23 -11.5 -36t-30.5 -13q-42 0 -42 44q0 3 1.5 16.5t1.5 18.5q0 19 -20 31t-54 12q-72 0 -114 -59.5t-42 -185.5
q0 -108 44.5 -165.5t118.5 -57.5zM317 675l61 46h14q-26 -25 -60 -66q-32 -35 -59 -75l-10 -15h-30q-37 54 -69 90q-47 53 -61 66h15q27 -18 61 -46l69 -56q44 37 69 56z" />
    <glyph glyph-name="Dcaron" unicode="&#x10e;" horiz-adv-x="847" 
d="M698 379q0 156 -88 255q-75 82 -210 82q-100 0 -169 -29v-647q60 -33 166 -33q150 0 226 106q75 105 75 266zM146 66v591q0 30 -15 42t-51 12h-34v12h155q19 0 93 3q98 2 106 2q97 0 174 -26.5t120 -67.5q39 -37 63 -89q34 -76 34 -157q0 -31 -3.5 -63t-14.5 -71.5
t-28.5 -75t-48 -70t-70 -59t-98 -39.5t-128.5 -15q-29 0 -54 1q-10 0 -21 0.5t-16.5 1t-7.5 0.5q-15 0 -35 0.5t-30.5 1t-16.5 0.5h-173v12h34q40 0 53 11t13 43zM468 872l61 46h14q-25 -26 -60 -66q-34 -38 -59 -76l-10 -14h-30q-38 54 -69 90q-47 53 -61 66h15
q27 -18 61 -46l69 -56q44 37 69 56z" />
    <glyph glyph-name="dcaron" unicode="&#x10f;" horiz-adv-x="572" 
d="M553 12v-12h-149v52q-64 -63 -151 -63q-75 0 -144 49q-38 27 -61 79t-23 119q0 115 73 185q74 71 180 72q63 0 126 -22v225q0 25 -13 32q-12 6 -67 8v12q85 5 149 38v-731q0 -24 10.5 -33.5t37.5 -9.5h32zM404 68v351q-15 30 -48 46t-73 16q-86 0 -131.5 -61t-45.5 -176
q0 -137 61 -188q48 -43 115 -43t122 55zM538 518l-10 7q38 62 38 122q0 48 -29 86l5 12h62q8 -30 8 -53q0 -82 -74 -174z" />
    <glyph glyph-name="Dcroat" unicode="&#x110;" horiz-adv-x="850" 
d="M149 387v270q0 30 -15 42t-51 12h-34v12h155q20 0 93 3q98 2 106 2q97 0 174 -26.5t120 -67.5q39 -37 63 -89q34 -76 34 -157q0 -31 -3.5 -63t-14.5 -71.5t-28.5 -75t-48 -70t-70 -59t-98 -39.5t-128.5 -15q-29 0 -54 1q-10 0 -21 0.5t-16.5 1t-7.5 0.5q-15 0 -35 0.5
t-30.5 1t-16.5 0.5h-173v12h34q40 0 53 11t13 43v305h-119v16h119zM701 379q0 156 -88 255q-75 82 -210 82q-100 0 -169 -29v-300h172v-16h-172v-331q60 -33 166 -33q150 0 226 106q75 105 75 266z" />
    <glyph glyph-name="dslash" unicode="&#x111;" horiz-adv-x="568" 
d="M553 12v-12h-149v52q-64 -63 -151 -63q-75 0 -144 49q-38 27 -61 79t-23 119q0 115 73 185q74 71 180 72q63 0 126 -22v163h-186v16h186v46q0 25 -13 32q-12 6 -67 8v12q85 5 149 38v-136h63v-16h-63v-579q0 -24 10.5 -33.5t37.5 -9.5h32zM404 68v351q-15 30 -48 46
t-73 16q-86 0 -131.5 -61t-45.5 -176q0 -137 61 -188q48 -43 115 -43t122 55z" />
    <glyph glyph-name="Emacron" unicode="&#x112;" horiz-adv-x="663" 
d="M46 711v12h554l9 -151h-12l-11 83q-20 26 -90 41q-71 15 -154 15q-70 0 -90 -10q-21 -11 -21 -45v-271h57q56 0 95 4.5t58 10t29 16t11.5 16.5t1.5 17v23h12v-186h-12v25q0 11 -1.5 17t-11.5 16t-29.5 15.5t-58 9.5t-94.5 4h-57v-307q0 -31 15.5 -42.5t48.5 -11.5
q147 0 229 20q75 21 96 77l11 45h12l-29 -154h-568v12h35q39 0 52 11t13 43v591q0 31 -15.5 42.5t-49.5 11.5h-35zM504 799v-16h-291v16h291z" />
    <glyph glyph-name="emacron" unicode="&#x113;" horiz-adv-x="465" 
d="M248 493q92 0 141 -63t51 -149h-334q0 -166 53 -222q43 -46 104 -46q99 0 162 99l10 -7q-68 -116 -191 -116q-76 0 -142 52q-77 59 -77 197q0 118 59.5 186.5t163.5 68.5zM106 293h257q0 81 -31 134q-32 54 -91 54q-120 0 -135 -188zM385 591v-16h-291v16h291z" />
    <glyph glyph-name="Edotaccent" unicode="&#x116;" horiz-adv-x="663" 
d="M46 711v12h554l9 -151h-12l-11 83q-20 26 -90 41q-71 15 -154 15q-70 0 -90 -10q-21 -11 -21 -45v-271h57q56 0 95 4.5t58 10t29 16t11.5 16.5t1.5 17v23h12v-186h-12v25q0 11 -1.5 17t-11.5 16t-29.5 15.5t-58 9.5t-94.5 4h-57v-307q0 -31 15.5 -42.5t48.5 -11.5
q147 0 229 20q75 21 96 77l11 45h12l-29 -154h-568v12h35q39 0 52 11t13 43v591q0 31 -15.5 42.5t-49.5 11.5h-35zM409 834q0 -21 -14.5 -35.5t-35.5 -14.5t-35.5 14.5t-14.5 35.5t14 35.5t36 14.5q23 0 36.5 -14t13.5 -36z" />
    <glyph glyph-name="edotaccent" unicode="&#x117;" horiz-adv-x="465" 
d="M248 493q92 0 141 -63t51 -149h-334q0 -166 53 -222q43 -46 104 -46q99 0 162 99l10 -7q-68 -116 -191 -116q-76 0 -142 52q-77 59 -77 197q0 118 59.5 186.5t163.5 68.5zM106 293h257q0 81 -31 134q-32 54 -91 54q-120 0 -135 -188zM291 637q0 -21 -14.5 -35.5
t-35.5 -14.5t-35.5 14.5t-14.5 35.5t14 35.5t36 14.5q23 0 36.5 -14t13.5 -36z" />
    <glyph glyph-name="Eogonek" unicode="&#x118;" horiz-adv-x="663" 
d="M598 -147q39 0 86 40l8 -9q-63 -60 -127 -60q-33 0 -53 18.5t-20 48.5q0 52 57 109h-503v12h35q39 0 52 11t13 43v591q0 31 -15.5 42.5t-49.5 11.5h-35v12h554l9 -151h-12l-11 83q-20 26 -90 41q-71 15 -154 15q-70 0 -90 -10q-21 -11 -21 -45v-271h57q56 0 95 4.5t58 10
t29 16t11.5 16.5t1.5 17v23h12v-186h-12v25q0 11 -1.5 17t-11.5 16t-29.5 15.5t-58 9.5t-94.5 4h-57v-307q0 -31 15.5 -42.5t48.5 -11.5q147 0 229 20q75 21 96 77l11 45h12l-29 -154h-45q-29 -46 -29 -90q0 -26 15 -41.5t43 -15.5z" />
    <glyph glyph-name="eogonek" unicode="&#x119;" horiz-adv-x="465" 
d="M357 -123q35 0 73 35l8 -9q-52 -52 -106 -52q-30 0 -46.5 15.5t-16.5 42.5q0 44 43 90q-27 -10 -68 -10q-76 0 -142 52q-77 59 -77 197q0 118 59.5 186.5t163.5 68.5q92 0 141 -63t51 -149h-334q0 -166 53 -222q43 -46 104 -46q99 0 162 99l10 -7q-40 -69 -98 -96
q-29 -44 -29 -85q0 -47 49 -47zM106 293h257q0 81 -31 134q-32 54 -91 54q-120 0 -135 -188z" />
    <glyph glyph-name="Ecaron" unicode="&#x11a;" horiz-adv-x="663" 
d="M46 711v12h554l9 -151h-12l-11 83q-20 26 -90 41q-71 15 -154 15q-70 0 -90 -10q-21 -11 -21 -45v-271h57q56 0 95 4.5t58 10t29 16t11.5 16.5t1.5 17v23h12v-186h-12v25q0 11 -1.5 17t-11.5 16t-29.5 15.5t-58 9.5t-94.5 4h-57v-307q0 -31 15.5 -42.5t48.5 -11.5
q147 0 229 20q75 21 96 77l11 45h12l-29 -154h-568v12h35q39 0 52 11t13 43v591q0 31 -15.5 42.5t-49.5 11.5h-35zM429 872l61 46h14q-26 -26 -60 -66q-34 -38 -59 -76l-10 -14h-30q-37 54 -69 90q-47 53 -61 66h15q27 -18 61 -46l69 -56q44 37 69 56z" />
    <glyph glyph-name="ecaron" unicode="&#x11b;" horiz-adv-x="465" 
d="M248 493q92 0 141 -63t51 -149h-334q0 -166 53 -222q43 -46 104 -46q99 0 162 99l10 -7q-68 -116 -191 -116q-76 0 -142 52q-77 59 -77 197q0 118 59.5 186.5t163.5 68.5zM106 293h257q0 81 -31 134q-32 54 -91 54q-120 0 -135 -188zM292 675l61 46h14q-25 -25 -60 -66
q-32 -35 -59 -75l-10 -15h-30q-38 54 -69 90q-47 53 -61 66h15q27 -18 61 -46l69 -56q44 37 69 56z" />
    <glyph glyph-name="Gbreve" unicode="&#x11e;" horiz-adv-x="820" 
d="M815 347v-12h-28q-29 0 -44 -6q-21 -8 -21 -44v-192q-54 -49 -131 -77q-79 -30 -159 -30q-95 0 -170 31t-118 86q-85 106 -85 254q0 165 108 274q107 108 272 108q103 0 227 -53q0 5 -0.5 19t-0.5 18h12q13 -175 13 -182h-12l-6 46q-34 64 -95.5 102t-141.5 38
q-125 0 -204 -99q-79 -98 -79 -272q0 -95 25.5 -168t69.5 -113q81 -77 184 -77q120 0 168 57q38 45 38 84v146q0 29 -14.5 39.5t-49.5 10.5h-24v12h266zM537 810q-44 -32 -102 -32t-102 32q-43 32 -51 90h14q24 -76 139 -76q116 0 140 76h13q-8 -58 -51 -90z" />
    <glyph glyph-name="gbreve" unicode="&#x11f;" horiz-adv-x="526" 
d="M526 534q0 -18 -11 -30t-28 -12q-29 0 -39 25q-6 15 -13 15q-17 0 -50 -65q97 -46 97 -133q0 -46 -21.5 -81t-57.5 -54q-67 -34 -142 -34h-19q-46 0 -67 -4q-41 -8 -41 -38q0 -17 16.5 -30.5t37.5 -19.5q24 -6 46 -10l87 -16q189 -35 189 -135q0 -61 -56 -103
q-56 -41 -193 -41q-151 0 -205 44q-46 39 -46 84q0 97 143 126q-66 22 -66 76q0 32 22.5 52.5t65.5 24.5q-61 19 -95.5 61.5t-34.5 97.5q0 74 59 116.5t159 42.5q59 0 109 -21q19 40 39 66q30 38 68 38q21 0 34 -12t13 -30zM401 332q0 149 -142 149q-49 0 -81.5 -25
t-42.5 -60q-9 -32 -9 -72t22 -85q28 -62 112 -62q67 0 104 43.5t37 111.5zM454 -111q0 33 -34 60.5t-100 39.5q-112 21 -146 26q-49 -12 -80.5 -42t-31.5 -70q0 -123 203 -123q91 0 140 29.5t49 79.5zM366 598q-43 -43 -107 -43t-106 43q-43 44 -48 105h12q13 -46 51.5 -74
t90.5 -28q53 0 91 28t50 74h13q-4 -61 -47 -105z" />
    <glyph glyph-name="Gdotaccent" unicode="&#x120;" horiz-adv-x="820" 
d="M815 347v-12h-28q-29 0 -44 -6q-21 -8 -21 -44v-192q-54 -49 -131 -77q-79 -30 -159 -30q-95 0 -170 31t-118 86q-85 106 -85 254q0 165 108 274q107 108 272 108q103 0 227 -53q0 5 -0.5 19t-0.5 18h12q13 -175 13 -182h-12l-6 46q-34 64 -95.5 102t-141.5 38
q-125 0 -204 -99q-79 -98 -79 -272q0 -95 25.5 -168t69.5 -113q81 -77 184 -77q120 0 168 57q38 45 38 84v146q0 29 -14.5 39.5t-49.5 10.5h-24v12h266zM489 834q0 -21 -14.5 -35.5t-35.5 -14.5t-35.5 14.5t-14.5 35.5t14 35.5t36 14.5q23 0 36.5 -14t13.5 -36z" />
    <glyph glyph-name="gdotaccent" unicode="&#x121;" horiz-adv-x="526" 
d="M526 534q0 -18 -11 -30t-28 -12q-29 0 -39 25q-6 15 -13 15q-17 0 -50 -65q97 -46 97 -133q0 -46 -21.5 -81t-57.5 -54q-67 -34 -142 -34h-19q-46 0 -67 -4q-41 -8 -41 -38q0 -17 16.5 -30.5t37.5 -19.5q24 -6 46 -10l87 -16q189 -35 189 -135q0 -61 -56 -103
q-56 -41 -193 -41q-151 0 -205 44q-46 39 -46 84q0 97 143 126q-66 22 -66 76q0 32 22.5 52.5t65.5 24.5q-61 19 -95.5 61.5t-34.5 97.5q0 74 59 116.5t159 42.5q59 0 109 -21q19 40 39 66q30 38 68 38q21 0 34 -12t13 -30zM401 332q0 149 -142 149q-49 0 -81.5 -25
t-42.5 -60q-9 -32 -9 -72t22 -85q28 -62 112 -62q67 0 104 43.5t37 111.5zM454 -111q0 33 -34 60.5t-100 39.5q-112 21 -146 26q-49 -12 -80.5 -42t-31.5 -70q0 -123 203 -123q91 0 140 29.5t49 79.5zM313 637q0 -21 -14.5 -35.5t-35.5 -14.5t-35.5 14.5t-14.5 35.5t14 35.5
t36 14.5q23 0 36.5 -14t13.5 -36z" />
    <glyph glyph-name="Gcommaaccent" unicode="&#x122;" horiz-adv-x="820" 
d="M815 347v-12h-28q-29 0 -44 -6q-21 -8 -21 -44v-192q-54 -49 -131 -77q-79 -30 -159 -30q-95 0 -170 31t-118 86q-85 106 -85 254q0 165 108 274q107 108 272 108q103 0 227 -53q0 5 -0.5 19t-0.5 18h12q13 -175 13 -182h-12l-6 46q-34 64 -95.5 102t-141.5 38
q-125 0 -204 -99q-79 -98 -79 -272q0 -95 25.5 -168t69.5 -113q81 -77 184 -77q120 0 168 57q38 45 38 84v146q0 29 -14.5 39.5t-49.5 10.5h-24v12h266zM485 -160q0 -50 -26.5 -102t-69.5 -91l-9 9q62 64 62 117q-4 22 -9 28.5t-26 20.5q-31 19 -31 46q0 19 14 32t37 13
q26 0 42 -19.5t16 -53.5z" />
    <glyph glyph-name="gcommaaccent" unicode="&#x123;" horiz-adv-x="526" 
d="M526 534q0 -18 -11 -30t-28 -12q-29 0 -39 25q-6 15 -13 15q-17 0 -50 -65q97 -46 97 -133q0 -46 -21.5 -81t-57.5 -54q-67 -34 -142 -34h-19q-46 0 -67 -4q-41 -8 -41 -38q0 -17 16.5 -30.5t37.5 -19.5q24 -6 46 -10l87 -16q189 -35 189 -135q0 -61 -56 -103
q-56 -41 -193 -41q-151 0 -205 44q-46 39 -46 84q0 97 143 126q-66 22 -66 76q0 32 22.5 52.5t65.5 24.5q-61 19 -95.5 61.5t-34.5 97.5q0 74 59 116.5t159 42.5q59 0 109 -21q19 40 39 66q30 38 68 38q21 0 34 -12t13 -30zM401 332q0 149 -142 149q-49 0 -81.5 -25
t-42.5 -60q-9 -32 -9 -72t22 -85q28 -62 112 -62q67 0 104 43.5t37 111.5zM454 -111q0 33 -34 60.5t-100 39.5q-112 21 -146 26q-49 -12 -80.5 -42t-31.5 -70q0 -123 203 -123q91 0 140 29.5t49 79.5zM219 641q0 76 71 155l9 -8q-42 -48 -42 -94q0 -9 5 -15t17 -13t17 -10
q22 -13 22 -40q0 -18 -12.5 -29.5t-32.5 -11.5q-25 0 -39.5 17t-14.5 49z" />
    <glyph glyph-name="Hbar" unicode="&#x126;" horiz-adv-x="862" 
d="M816 12v-12h-285v12h34q39 0 52.5 11t13.5 43v302h-400v-302q0 -32 13.5 -43t49.5 -11h37v-12h-285v12h34q39 0 52.5 11t13.5 43v479h-100v12h100v100q0 30 -14 42t-52 12h-34v12h285v-12h-37q-36 0 -49.5 -11t-13.5 -43v-100h400v100q0 32 -13.5 43t-52.5 11h-34v12h285
v-12h-37q-36 0 -49.5 -11t-13.5 -43v-100h98v-12h-98v-479q0 -32 13.5 -43t49.5 -11h37zM231 545v-165h400v165h-400z" />
    <glyph glyph-name="hbar" unicode="&#x127;" horiz-adv-x="567" 
d="M552 12v-12h-229v12h32q29 0 38.5 9t9.5 34v269q0 99 -40 125q-31 20 -75 20q-52 0 -124 -45v-369q0 -26 9 -34.5t38 -8.5h33v-12h-229v12h31q29 0 39 8.5t10 34.5v544h-73v16h73v82q0 24 -13 31q-12 6 -67 8v12q83 6 149 38v-171h239v-16h-239v-161q79 55 153 55
q115 0 143 -85q12 -40 12 -100v-253q0 -24 10 -33.5t37 -9.5h33z" />
    <glyph glyph-name="Imacron" unicode="&#x12a;" horiz-adv-x="377" 
d="M331 12v-12h-285v12h34q38 0 52 11.5t14 42.5v591q0 32 -13.5 43t-52.5 11h-34v12h285v-12h-37q-37 0 -50 -11.5t-13 -42.5v-591q0 -31 13 -42.5t50 -11.5h37zM335 799v-16h-291v16h291z" />
    <glyph glyph-name="imacron" unicode="&#x12b;" horiz-adv-x="259" 
d="M244 12v-12h-229v12h32q29 0 38.5 9t9.5 34v349q0 26 -13 33q-12 5 -67 7v12q77 5 149 39v-440q0 -24 10 -33.5t37 -9.5h33zM274 591v-16h-291v16h291z" />
    <glyph glyph-name="Iogonek" unicode="&#x12e;" horiz-adv-x="377" 
d="M331 12v-12h-84q-29 -46 -29 -90q0 -26 15 -41.5t43 -15.5q39 0 86 40l8 -9q-63 -60 -127 -60q-33 0 -53 18.5t-20 48.5q0 52 57 109h-181v12h34q38 0 52 11.5t14 42.5v591q0 32 -13.5 43t-52.5 11h-34v12h285v-12h-37q-37 0 -50 -11.5t-13 -42.5v-591q0 -31 13 -42.5
t50 -11.5h37z" />
    <glyph glyph-name="iogonek" unicode="&#x12f;" horiz-adv-x="259" 
d="M244 12v-12h-68q-24 -39 -24 -76q0 -47 49 -47q35 0 73 35l8 -9q-52 -52 -106 -52q-30 0 -46.5 15.5t-16.5 42.5q0 44 44 91h-142v12h32q29 0 38.5 9t9.5 34v349q0 26 -13 33q-12 5 -67 7v12q77 5 149 39v-440q0 -24 10 -33.5t37 -9.5h33zM179 637q0 -21 -14.5 -35.5
t-35.5 -14.5t-35.5 14.5t-14.5 35.5t14 35.5t36 14.5q23 0 36.5 -14t13.5 -36z" />
    <glyph glyph-name="Idot" unicode="&#x130;" horiz-adv-x="377" 
d="M331 12v-12h-285v12h34q38 0 52 11.5t14 42.5v591q0 32 -13.5 43t-52.5 11h-34v12h285v-12h-37q-37 0 -50 -11.5t-13 -42.5v-591q0 -31 13 -42.5t50 -11.5h37zM238 834q0 -21 -14.5 -35.5t-35.5 -14.5t-35.5 14.5t-14.5 35.5t14 35.5t36 14.5q23 0 36.5 -14t13.5 -36z
" />
    <glyph glyph-name="dotlessi" unicode="&#x131;" horiz-adv-x="259" 
d="M244 12v-12h-229v12h32q29 0 38.5 9t9.5 34v349q0 26 -13 33q-12 5 -67 7v12q77 5 149 39v-440q0 -24 10 -33.5t37 -9.5h33z" />
    <glyph glyph-name="Kcommaaccent" unicode="&#x136;" horiz-adv-x="777" 
d="M772 10v-10h-173l-340 380l163 152q75 70 103.5 102.5t28.5 49.5q0 27 -44 27h-36v12h250v-12h-26q-52 0 -158 -89l-213 -197l322 -357q18 -20 28 -28t35 -18q26 -10 60 -12zM330 12v-12h-284v12h34q38 0 51.5 12t13.5 42v591q0 32 -13 43t-52 11h-34v12h284v-12h-37
q-36 0 -49.5 -12t-13.5 -42v-591q0 -30 14 -42t49 -12h37zM447 -160q0 -50 -26.5 -102t-69.5 -91l-9 9q62 64 62 117q-4 22 -9 28.5t-26 20.5q-31 19 -31 46q0 19 14 32t37 13q26 0 42 -19.5t16 -53.5z" />
    <glyph glyph-name="kcommaaccent" unicode="&#x137;" horiz-adv-x="553" 
d="M95 55v642q0 24 -14 31t-66 8v12q83 4 149 38v-611q156 174 175 203q38 53 38 66q0 25 -53 25h-15v12h188v-12h-17q-34 0 -80 -51l-115 -126l185 -240q33 -40 76 -40h7v-12h-235v12h32q43 0 43 23q0 12 -10 25l-140 185l-79 -86v-104q0 -26 9 -34.5t38 -8.5h33v-12h-229
v12h32q30 0 39 8.5t9 34.5zM306 -153q0 -76 -71 -155l-9 8q42 48 42 94q0 9 -5 15t-17 13t-17 10q-22 13 -22 40q0 18 12.5 29.5t32.5 11.5q25 0 39.5 -17t14.5 -49z" />
    <glyph glyph-name="Lacute" unicode="&#x139;" horiz-adv-x="647" 
d="M342 12q109 0 180 20q72 21 96 79l16 60h13l-32 -171h-569v12h35q65 0 65 54v591q0 32 -14 43t-51 11h-34v12h285v-12h-38q-38 0 -50.5 -11t-12.5 -43v-591q0 -32 21 -42q20 -12 90 -12zM379 905q0 -19 -42 -46l-149 -90h-24l133 131q35 33 56 33q26 0 26 -28z" />
    <glyph glyph-name="lacute" unicode="&#x13a;" horiz-adv-x="259" 
d="M95 55v642q0 24 -14 31t-66 8v12q76 4 149 38v-731q0 -25 9.5 -34t36.5 -9h34v-12h-229v12h32q26 0 37 10t11 33zM302 940q0 -19 -42 -46l-149 -90h-24l133 131q34 33 56 33q26 0 26 -28z" />
    <glyph glyph-name="Lcommaaccent" unicode="&#x13b;" horiz-adv-x="647" 
d="M342 12q109 0 180 20q72 21 96 79l16 60h13l-32 -171h-569v12h35q65 0 65 54v591q0 32 -14 43t-51 11h-34v12h285v-12h-38q-38 0 -50.5 -11t-12.5 -43v-591q0 -32 21 -42q20 -12 90 -12zM411 -160q0 -50 -26.5 -102t-69.5 -91l-9 9q62 64 62 117q-4 22 -9 28.5t-26 20.5
q-31 19 -31 46q0 19 14 32t37 13q26 0 42 -19.5t16 -53.5z" />
    <glyph glyph-name="lcommaaccent" unicode="&#x13c;" horiz-adv-x="259" 
d="M95 55v642q0 24 -14 31t-66 8v12q76 4 149 38v-731q0 -25 9.5 -34t36.5 -9h34v-12h-229v12h32q26 0 37 10t11 33zM180 -153q0 -76 -71 -155l-9 8q42 48 42 94q0 9 -5 15t-17 13t-17 10q-22 13 -22 40q0 18 12.5 29.5t32.5 11.5q25 0 39.5 -17t14.5 -49z" />
    <glyph glyph-name="Lcaron" unicode="&#x13d;" horiz-adv-x="647" 
d="M342 12q109 0 180 20q72 21 96 79l16 60h13l-32 -171h-569v12h35q65 0 65 54v591q0 32 -14 43t-51 11h-34v12h285v-12h-38q-38 0 -50.5 -11t-12.5 -43v-591q0 -32 21 -42q20 -12 90 -12zM539 670q0 -76 -71 -155l-9 8q42 48 42 94q0 9 -5 15t-17 13t-17 10q-22 13 -22 40
q0 18 12.5 29.5t32.5 11.5q25 0 39.5 -17t14.5 -49z" />
    <glyph glyph-name="lcaron" unicode="&#x13e;" horiz-adv-x="321" 
d="M95 55v642q0 24 -14 31t-66 8v12q76 4 149 38v-731q0 -25 9.5 -34t36.5 -9h34v-12h-229v12h32q26 0 37 10t11 33zM249 518l-10 7q38 62 38 122q0 48 -29 86l5 12h62q8 -30 8 -53q0 -82 -74 -174z" />
    <glyph glyph-name="Ldot" unicode="&#x13f;" horiz-adv-x="647" 
d="M342 12q109 0 180 20q72 21 96 79l16 60h13l-32 -171h-569v12h35q65 0 65 54v591q0 32 -14 43t-51 11h-34v12h285v-12h-38q-38 0 -50.5 -11t-12.5 -43v-591q0 -32 21 -42q20 -12 90 -12zM511 367q0 -21 -14.5 -35.5t-35.5 -14.5t-35.5 14.5t-14.5 35.5t14 35.5t36 14.5
q23 0 36.5 -14t13.5 -36z" />
    <glyph glyph-name="ldot" unicode="&#x140;" horiz-adv-x="307" 
d="M95 55v642q0 24 -14 31t-66 8v12q76 4 149 38v-731q0 -25 9.5 -34t36.5 -9h34v-12h-229v12h32q26 0 37 10t11 33zM343 382q0 -21 -14.5 -35.5t-35.5 -14.5t-35.5 14.5t-14.5 35.5t14 35.5t36 14.5q23 0 36.5 -14t13.5 -36z" />
    <glyph glyph-name="Lslash" unicode="&#x141;" horiz-adv-x="660" 
d="M355 12q109 0 180 20q72 21 96 79l16 60h13l-32 -171h-569v12h35q65 0 65 54v232l-93 -78l-11 14l104 87v336q0 32 -14 43t-51 11h-34v12h285v-12h-38q-38 0 -50.5 -11t-12.5 -43v-265l154 129l11 -14l-165 -138v-303q0 -32 21 -42q19 -12 90 -12z" />
    <glyph glyph-name="lslash" unicode="&#x142;" horiz-adv-x="299" 
d="M115 316v381q0 24 -14 31t-66 8v12q76 4 149 38v-413l90 75l10 -12l-100 -84v-297q0 -25 9.5 -34t36.5 -9h34v-12h-229v12h32q26 0 37 10t11 33v240l-90 -75l-10 13z" />
    <glyph glyph-name="Nacute" unicode="&#x143;" horiz-adv-x="797" 
d="M751 723v-12h-61q-34 -53 -34 -242v-483h-13l-488 606v-347q0 -181 34 -233h61v-12h-204v12h61q31 49 34 233v364l-42 54q-33 41 -48 60h106l485 -607v383q0 65 -9 128t-24 84h-62v12h204zM539 905q0 -19 -42 -46l-149 -90h-24l133 131q35 33 56 33q26 0 26 -28z" />
    <glyph glyph-name="nacute" unicode="&#x144;" horiz-adv-x="567" 
d="M552 12v-12h-229v12h32q29 0 38.5 9t9.5 34v269q0 99 -40 125q-31 20 -75 20q-52 0 -124 -45v-369q0 -26 9 -34.5t38 -8.5h33v-12h-229v12h31q29 0 39 8.5t10 34.5v349q0 26 -13 33q-12 5 -67 7v12q75 4 149 39v-57q79 55 153 55q115 0 143 -85q12 -40 12 -100v-253
q0 -24 10 -33.5t37 -9.5h33zM444 698q0 -19 -42 -46l-149 -90h-24l133 131q34 33 56 33q26 0 26 -28z" />
    <glyph glyph-name="Ncommaaccent" unicode="&#x145;" horiz-adv-x="797" 
d="M751 723v-12h-61q-34 -53 -34 -242v-483h-13l-488 606v-347q0 -181 34 -233h61v-12h-204v12h61q31 49 34 233v364l-42 54q-33 41 -48 60h106l485 -607v383q0 65 -9 128t-24 84h-62v12h204zM438 -160q0 -50 -26.5 -102t-69.5 -91l-9 9q62 64 62 117q-4 22 -9 28.5
t-26 20.5q-31 19 -31 46q0 19 14 32t37 13q26 0 42 -19.5t16 -53.5z" />
    <glyph glyph-name="ncommaaccent" unicode="&#x146;" horiz-adv-x="567" 
d="M552 12v-12h-229v12h32q29 0 38.5 9t9.5 34v269q0 99 -40 125q-31 20 -75 20q-52 0 -124 -45v-369q0 -26 9 -34.5t38 -8.5h33v-12h-229v12h31q29 0 39 8.5t10 34.5v349q0 26 -13 33q-12 5 -67 7v12q75 4 149 39v-57q79 55 153 55q115 0 143 -85q12 -40 12 -100v-253
q0 -24 10 -33.5t37 -9.5h33zM326 -153q0 -76 -71 -155l-9 8q42 48 42 94q0 9 -5 15t-17 13t-17 10q-22 13 -22 40q0 18 12.5 29.5t32.5 11.5q25 0 39.5 -17t14.5 -49z" />
    <glyph glyph-name="Ncaron" unicode="&#x147;" horiz-adv-x="797" 
d="M751 723v-12h-61q-34 -53 -34 -242v-483h-13l-488 606v-347q0 -181 34 -233h61v-12h-204v12h61q31 49 34 233v364l-42 54q-33 41 -48 60h106l485 -607v383q0 65 -9 128t-24 84h-62v12h204zM458 872l61 46h14q-25 -26 -60 -66q-34 -38 -59 -76l-10 -14h-30q-38 54 -69 90
q-47 53 -61 66h15q27 -18 61 -46l69 -56q44 37 69 56z" />
    <glyph glyph-name="ncaron" unicode="&#x148;" horiz-adv-x="567" 
d="M552 12v-12h-229v12h32q29 0 38.5 9t9.5 34v269q0 99 -40 125q-31 20 -75 20q-52 0 -124 -45v-369q0 -26 9 -34.5t38 -8.5h33v-12h-229v12h31q29 0 39 8.5t10 34.5v349q0 26 -13 33q-12 5 -67 7v12q75 4 149 39v-57q79 55 153 55q115 0 143 -85q12 -40 12 -100v-253
q0 -24 10 -33.5t37 -9.5h33zM330 675l61 46h14q-25 -25 -60 -66q-32 -35 -59 -75l-10 -15h-30q-38 54 -69 90q-47 53 -61 66h15q27 -18 61 -46l69 -56q44 37 69 56z" />
    <glyph glyph-name="Omacron" unicode="&#x14c;" horiz-adv-x="868" 
d="M809 363q0 -47 -11 -96t-38.5 -100.5t-69 -91t-108 -64.5t-149.5 -25q-121 1 -202.5 50.5t-121.5 129.5q-50 92 -50 197q0 78 30.5 155.5t92.5 134.5q94 86 251 86q98 0 174 -33t119 -91q83 -113 83 -252zM716 363q0 160 -74 263q-75 101 -209 101q-133 0 -207 -98
t-74 -266q0 -208 126 -311q64 -54 155 -54q69 0 124.5 30.5t89 82.5t51.5 116.5t18 135.5zM580 799v-16h-291v16h291z" />
    <glyph glyph-name="omacron" unicode="&#x14d;" 
d="M503 240q0 -113 -67 -181q-67 -70 -172 -70q-104 0 -171 69q-68 70 -68 182q0 121 65 187t174 66q111 0 175 -64.5t64 -188.5zM422 240q0 123 -43 182t-115 59t-115 -59t-43 -182q0 -121 43 -180t115 -59t115 59t43 180zM411 591v-16h-291v16h291z" />
    <glyph glyph-name="Ohungarumlaut" unicode="&#x150;" horiz-adv-x="868" 
d="M809 363q0 -47 -11 -96t-38.5 -100.5t-69 -91t-108 -64.5t-149.5 -25q-121 1 -202.5 50.5t-121.5 129.5q-50 92 -50 197q0 78 30.5 155.5t92.5 134.5q94 86 251 86q98 0 174 -33t119 -91q83 -113 83 -252zM716 363q0 160 -74 263q-75 101 -209 101q-133 0 -207 -98
t-74 -266q0 -208 126 -311q64 -54 155 -54q69 0 124.5 30.5t89 82.5t51.5 116.5t18 135.5zM503 905q0 -19 -42 -46l-149 -90h-24l133 131q35 33 56 33q26 0 26 -28zM674 905q0 -19 -42 -46l-149 -90h-24l133 131q34 33 56 33q26 0 26 -28z" />
    <glyph glyph-name="ohungarumlaut" unicode="&#x151;" 
d="M503 240q0 -113 -67 -181q-67 -70 -172 -70q-104 0 -171 69q-68 70 -68 182q0 121 65 187t174 66q111 0 175 -64.5t64 -188.5zM422 240q0 123 -43 182t-115 59t-115 -59t-43 -182q0 -121 43 -180t115 -59t115 59t43 180zM343 698q0 -19 -42 -46l-149 -90h-24l133 131
q35 33 56 33q26 0 26 -28zM517 698q0 -19 -42 -46l-149 -90h-24l133 131q35 33 56 33q26 0 26 -28z" />
    <glyph glyph-name="OE" unicode="&#x152;" horiz-adv-x="1147" 
d="M630 42v644q-87 41 -198 41q-136 0 -213 -98q-77 -100 -77 -266q0 -150 74 -257q74 -108 207 -108q148 0 207 44zM1127 154l-29 -154h-432q-41 0 -124 -7q-105 -7 -119 -7q-83 0 -149 23t-107.5 60.5t-68.5 88t-38 101t-11 104.5q0 79 29 156t89 134q91 86 248 86
q51 0 155 -8q101 -8 145 -8h369l9 -151h-12l-11 83q-20 26 -89 41q-71 15 -155 15q-70 0 -90 -10q-21 -11 -21 -45v-271h56q56 0 95.5 4.5t58.5 10.5t29 16.5t11.5 16.5t1.5 17v22h12v-186h-12v24q0 11 -1.5 17t-11.5 16.5t-29 15.5t-58.5 9.5t-95.5 4.5h-56v-307
q0 -31 16 -42.5t48 -11.5q152 0 230 20q69 19 94 77l12 45h12z" />
    <glyph glyph-name="oe" unicode="&#x153;" horiz-adv-x="858" 
d="M645 493q91 0 139 -63q48 -64 49 -149h-330q0 -83 14 -139.5t38.5 -82.5t49 -36t55.5 -10q94 0 159 99l10 -7q-68 -116 -188 -116q-128 0 -181 110q-30 -52 -81.5 -81t-114.5 -29q-104 0 -171 69q-68 70 -68 182q0 121 65 187t174 66q142 0 200 -109q60 109 181 109z
M422 240q0 123 -43 182t-115 59t-115 -59t-43 -182q0 -121 43 -180t115 -59t115 59t43 180zM503 293h254q0 84 -31.5 136t-89.5 52q-119 0 -133 -188z" />
    <glyph glyph-name="Racute" unicode="&#x154;" horiz-adv-x="748" 
d="M692 10q17 0 27.5 18t11.5 43h12q-3 -85 -86 -85q-57 0 -98 48.5t-89 161.5q-37 85 -99.5 132.5t-140.5 43.5v-306q0 -54 63 -54h37v-12h-284v12h34q35 0 50 13t15 41v591q0 33 -13.5 43.5t-51.5 10.5h-34v12h113q31 -1 110 5q73 6 105 6q274 0 274 -182q0 -90 -79 -141
q-78 -51 -198 -53q140 -44 211 -173q15 -24 55 -114q15 -34 30 -49q12 -12 25 -12zM555 547q0 85 -50.5 130t-141.5 45q-75 0 -133 -27v-311l53 -5q54 -6 82 -6q86 0 138 49q52 48 52 125zM539 905q0 -19 -42 -46l-149 -90h-24l133 131q35 33 56 33q26 0 26 -28z" />
    <glyph glyph-name="racute" unicode="&#x155;" horiz-adv-x="387" 
d="M95 55v349q0 26 -13 33q-12 5 -67 7v12q75 6 149 39v-101q39 99 128 99q35 0 55 -17.5t20 -42.5q0 -21 -11.5 -33.5t-29.5 -12.5q-15 0 -26 8.5t-11 22.5q0 3 1 12t1 11q0 28 -35 28q-34 0 -63 -47q-29 -49 -29 -95v-272q0 -25 9.5 -34t39.5 -9h31v-12h-229v12h32
q29 0 38.5 9t9.5 34zM373 698q0 -19 -42 -46l-149 -90h-24l133 131q34 33 56 33q26 0 26 -28z" />
    <glyph glyph-name="Rcommaaccent" unicode="&#x156;" horiz-adv-x="748" 
d="M692 10q17 0 27.5 18t11.5 43h12q-3 -85 -86 -85q-57 0 -98 48.5t-89 161.5q-37 85 -99.5 132.5t-140.5 43.5v-306q0 -54 63 -54h37v-12h-284v12h34q35 0 50 13t15 41v591q0 33 -13.5 43.5t-51.5 10.5h-34v12h113q31 -1 110 5q73 6 105 6q274 0 274 -182q0 -90 -79 -141
q-78 -51 -198 -53q140 -44 211 -173q15 -24 55 -114q15 -34 30 -49q12 -12 25 -12zM555 547q0 85 -50.5 130t-141.5 45q-75 0 -133 -27v-311l53 -5q54 -6 82 -6q86 0 138 49q52 48 52 125zM462 -160q0 -50 -26.5 -102t-69.5 -91l-9 9q62 64 62 117q-4 22 -9 28.5t-26 20.5
q-31 19 -31 46q0 19 14 32t37 13q26 0 42 -19.5t16 -53.5z" />
    <glyph glyph-name="rcommaaccent" unicode="&#x157;" horiz-adv-x="387" 
d="M95 55v349q0 26 -13 33q-12 5 -67 7v12q75 6 149 39v-101q39 99 128 99q35 0 55 -17.5t20 -42.5q0 -21 -11.5 -33.5t-29.5 -12.5q-15 0 -26 8.5t-11 22.5q0 3 1 12t1 11q0 28 -35 28q-34 0 -63 -47q-29 -49 -29 -95v-272q0 -25 9.5 -34t39.5 -9h31v-12h-229v12h32
q29 0 38.5 9t9.5 34zM180 -153q0 -76 -71 -155l-9 8q42 48 42 94q0 9 -5 15t-17 13t-17 10q-22 13 -22 40q0 18 12.5 29.5t32.5 11.5q25 0 39.5 -17t14.5 -49z" />
    <glyph glyph-name="Rcaron" unicode="&#x158;" horiz-adv-x="748" 
d="M692 10q17 0 27.5 18t11.5 43h12q-3 -85 -86 -85q-57 0 -98 48.5t-89 161.5q-37 85 -99.5 132.5t-140.5 43.5v-306q0 -54 63 -54h37v-12h-284v12h34q35 0 50 13t15 41v591q0 33 -13.5 43.5t-51.5 10.5h-34v12h113q31 -1 110 5q73 6 105 6q274 0 274 -182q0 -90 -79 -141
q-78 -51 -198 -53q140 -44 211 -173q15 -24 55 -114q15 -34 30 -49q12 -12 25 -12zM555 547q0 85 -50.5 130t-141.5 45q-75 0 -133 -27v-311l53 -5q54 -6 82 -6q86 0 138 49q52 48 52 125zM413 872l61 46h14q-26 -26 -60 -66q-34 -38 -59 -76l-10 -14h-30q-37 54 -69 90
q-47 53 -61 66h15q27 -18 61 -46l69 -56q44 37 69 56z" />
    <glyph glyph-name="rcaron" unicode="&#x159;" horiz-adv-x="387" 
d="M95 55v349q0 26 -13 33q-12 5 -67 7v12q75 6 149 39v-101q39 99 128 99q35 0 55 -17.5t20 -42.5q0 -21 -11.5 -33.5t-29.5 -12.5q-15 0 -26 8.5t-11 22.5q0 3 1 12t1 11q0 28 -35 28q-34 0 -63 -47q-29 -49 -29 -95v-272q0 -25 9.5 -34t39.5 -9h31v-12h-229v12h32
q29 0 38.5 9t9.5 34zM247 675l61 46h14q-26 -25 -60 -66q-32 -35 -59 -75l-10 -15h-30q-37 54 -69 90q-47 53 -61 66h15q27 -18 61 -46l69 -56q44 37 69 56z" />
    <glyph glyph-name="Sacute" unicode="&#x15a;" horiz-adv-x="590" 
d="M538 181q0 -83 -63 -138q-65 -57 -175 -57q-119 0 -230 55q0 -5 0.5 -21t0.5 -20h-12l-15 194h12l5 -43q29 -62 95 -107q64 -46 143 -46q81 0 123.5 38.5t42.5 100.5q0 110 -189 206q-58 32 -79 46q-32 19 -63 46q-64 54 -64 133t54 125t165 46q103 0 195 -51v35h12
l10 -175h-12l-3 38q-17 57 -63 99q-48 42 -136 42q-150 0 -150 -111q0 -69 57 -117q49 -43 127 -81q48 -26 78 -45q32 -21 65 -48q69 -59 69 -144zM455 905q0 -19 -42 -46l-149 -90h-24l133 131q35 33 56 33q26 0 26 -28z" />
    <glyph glyph-name="sacute" unicode="&#x15b;" horiz-adv-x="415" 
d="M375 127q0 -62 -43 -100t-122 -38q-72 0 -153 39v-28h-12l-5 130h12q15 -54 63 -92q47 -37 100 -37q43 0 71 28.5t28 68.5q0 33 -21.5 56t-64.5 46l-70 39q-56 31 -79 59.5t-23 69.5q0 63 44 95q44 30 99 30q62 0 135 -38v26h12l5 -131h-12l-1 22q-45 109 -137 109
q-37 0 -59 -22.5t-22 -54.5q0 -50 45 -78q25 -15 71 -37q72 -36 105.5 -72.5t33.5 -89.5zM373 698q0 -19 -42 -46l-149 -90h-24l133 131q34 33 56 33q26 0 26 -28z" />
    <glyph glyph-name="Scedilla" unicode="&#x15e;" horiz-adv-x="590" 
d="M538 181q0 -83 -63 -138q-65 -57 -175 -57h-4l-24 -58q24 10 55 10q38 0 65 -19t27 -53q0 -42 -38.5 -69t-98.5 -27q-50 0 -91 22l5 11q37 -21 79 -21q36 0 57.5 22.5t21.5 52.5q0 28 -15.5 43t-43.5 15q-17 0 -33 -6l-9 7l28 70q-106 3 -211 55q0 -5 0.5 -21t0.5 -20
h-12l-15 194h12l5 -43q29 -62 95 -107q64 -46 143 -46q81 0 123.5 38.5t42.5 100.5q0 110 -189 206q-58 32 -79 46q-32 19 -63 46q-64 54 -64 133t54 125t165 46q103 0 195 -51v35h12l10 -175h-12l-3 38q-17 57 -63 99q-48 42 -136 42q-150 0 -150 -111q0 -69 57 -117
q49 -43 127 -81q48 -26 78 -45q32 -21 65 -48q69 -59 69 -144z" />
    <glyph glyph-name="scedilla" unicode="&#x15f;" horiz-adv-x="415" 
d="M375 127q0 -62 -43 -100t-122 -38h-5l-22 -52q20 7 52 7q35 0 58 -16.5t23 -45.5q0 -37 -35.5 -60t-88.5 -23q-50 0 -87 19l5 11q35 -18 76 -18q37 0 55 17.5t18 46.5q0 50 -54 50q-13 0 -32 -6l-8 7l26 64q-67 4 -134 38v-28h-12l-5 130h12q15 -54 63 -92
q47 -37 100 -37q43 0 71 28.5t28 68.5q0 33 -21.5 56t-64.5 46l-70 39q-56 31 -79 59.5t-23 69.5q0 63 44 95q44 30 99 30q62 0 135 -38v26h12l5 -131h-12l-1 22q-45 109 -137 109q-37 0 -59 -22.5t-22 -54.5q0 -50 45 -78q25 -15 71 -37q72 -36 105.5 -72.5t33.5 -89.5z
" />
    <glyph glyph-name="Scaron" unicode="&#x160;" horiz-adv-x="590" 
d="M538 181q0 -83 -63 -138q-65 -57 -175 -57q-119 0 -230 55q0 -5 0.5 -21t0.5 -20h-12l-15 194h12l5 -43q29 -62 95 -107q64 -46 143 -46q81 0 123.5 38.5t42.5 100.5q0 110 -189 206q-58 32 -79 46q-32 19 -63 46q-64 54 -64 133t54 125t165 46q103 0 195 -51v35h12
l10 -175h-12l-3 38q-17 57 -63 99q-48 42 -136 42q-150 0 -150 -111q0 -69 57 -117q49 -43 127 -81q48 -26 78 -45q32 -21 65 -48q69 -59 69 -144zM360 872l61 46h14q-25 -26 -60 -66q-34 -38 -59 -76l-10 -14h-30q-38 54 -69 90q-47 53 -61 66h15q27 -18 61 -46l69 -56
q44 37 69 56z" />
    <glyph glyph-name="scaron" unicode="&#x161;" horiz-adv-x="415" 
d="M375 127q0 -62 -43 -100t-122 -38q-72 0 -153 39v-28h-12l-5 130h12q15 -54 63 -92q47 -37 100 -37q43 0 71 28.5t28 68.5q0 33 -21.5 56t-64.5 46l-70 39q-56 31 -79 59.5t-23 69.5q0 63 44 95q44 30 99 30q62 0 135 -38v26h12l5 -131h-12l-1 22q-45 109 -137 109
q-37 0 -59 -22.5t-22 -54.5q0 -50 45 -78q25 -15 71 -37q72 -36 105.5 -72.5t33.5 -89.5zM279 675l61 46h14q-26 -25 -60 -66q-32 -35 -59 -75l-10 -15h-30q-37 54 -69 90q-47 53 -61 66h15q27 -18 61 -46l69 -56q44 37 69 56z" />
    <glyph glyph-name="Tcedilla" unicode="&#x162;" horiz-adv-x="667" 
d="M319 -230q-50 0 -91 22l5 11q37 -21 79 -21q36 0 57.5 22.5t21.5 52.5q0 28 -15.5 43t-43.5 15q-16 0 -33 -6l-9 7l33 84h-133v12h35q38 0 51.5 11.5t13.5 42.5v611q0 17 -12 25.5t-45 8.5q-86 0 -132.5 -15.5t-68.5 -56.5v1l-10 -78h-12l9 161h627l11 -161h-12l-9 77
q-42 72 -203 72q-58 0 -58 -33v-612q0 -32 13 -43t54 -11h33v-12h-137l-29 -72q24 10 55 10q38 0 65 -19t27 -53q0 -42 -38.5 -69t-98.5 -27z" />
    <glyph glyph-name="tcedilla" unicode="&#x163;" horiz-adv-x="382" 
d="M222 -201q-50 0 -87 19l5 11q34 -18 76 -18q37 0 55 17.5t18 46.5q0 50 -54 50q-13 0 -32 -6l-8 7l27 64q-117 14 -117 145v334h-100v12h30q43 8 73.5 43t41.5 82q9 39 11 94h13v-219h27q95 0 138 10l5 -22h-170v-349q0 -87 62 -104h11l-1 -2q3 -1 17 -1q33 0 64.5 23.5
t53.5 73.5l11 -5q-18 -51 -56.5 -83.5t-90.5 -32.5h-10l-22 -52q20 7 52 7q35 0 58 -16.5t23 -45.5q0 -37 -35.5 -60t-88.5 -23z" />
    <glyph glyph-name="Tcaron" unicode="&#x164;" horiz-adv-x="667" 
d="M10 562l9 161h627l11 -161h-12l-9 77q-42 72 -203 72q-58 0 -58 -33v-612q0 -32 13 -43t54 -11h33v-12h-285v12h35q38 0 51.5 11.5t13.5 42.5v611q0 17 -12 25.5t-45 8.5q-86 0 -132.5 -15.5t-68.5 -56.5v1l-10 -78h-12zM401 872l61 46h14q-26 -26 -60 -66
q-34 -38 -59 -76l-10 -14h-30q-37 54 -69 90q-47 53 -61 66h15q27 -18 61 -46l69 -56q44 37 69 56z" />
    <glyph glyph-name="tcaron" unicode="&#x165;" horiz-adv-x="382" 
d="M263 13q33 0 64.5 23.5t53.5 73.5l11 -5q-18 -51 -56.5 -83.5t-90.5 -32.5q-68 0 -104 38t-36 108v334h-100v12h30q43 8 73.5 43t41.5 82q9 39 11 94h13v-219h27q95 0 138 10l5 -22h-170v-349q0 -107 89 -107zM260 518l-10 7q38 62 38 122q0 48 -29 86l5 12h62
q8 -30 8 -53q0 -82 -74 -174z" />
    <glyph glyph-name="Umacron" unicode="&#x16a;" horiz-adv-x="809" 
d="M779 723v-12h-59q-30 -53 -34 -222v-173q0 -74 -13 -130.5t-42.5 -102t-82.5 -69.5t-128 -24q-110 0 -186 40q-53 28 -82 91q-10 19 -15 51q-6 32 -6 45q-1 9 -1 35v405q0 54 -67 54h-33v12h285v-12h-37q-63 0 -63 -54v-422q0 -67 22 -115.5t56 -71.5t66 -33t62 -9
q59 0 103.5 16.5t72 43.5t45 67.5t24 84.5t6.5 98v182q0 78 -10.5 137t-22.5 76h-61v12h201zM589 799v-16h-291v16h291z" />
    <glyph glyph-name="umacron" unicode="&#x16b;" horiz-adv-x="564" 
d="M549 12v-12h-149v54q-82 -65 -163 -65q-41 0 -70.5 13.5t-44 36.5t-21 47t-6.5 52v266q0 26 -12 33q-12 5 -68 7v12q80 5 149 39v-359q0 -81 40 -105q30 -18 70 -18q58 0 126 55v336q0 26 -12 33q-12 5 -68 7v12q74 6 149 39v-440q0 -24 10.5 -33.5t37.5 -9.5h32z
M421 591v-16h-291v16h291z" />
    <glyph glyph-name="Uring" unicode="&#x16e;" horiz-adv-x="809" 
d="M779 723v-12h-59q-30 -53 -34 -222v-173q0 -74 -13 -130.5t-42.5 -102t-82.5 -69.5t-128 -24q-110 0 -186 40q-53 28 -82 91q-10 19 -15 51q-6 32 -6 45q-1 9 -1 35v405q0 54 -67 54h-33v12h285v-12h-37q-63 0 -63 -54v-422q0 -67 22 -115.5t56 -71.5t66 -33t62 -9
q59 0 103.5 16.5t72 43.5t45 67.5t24 84.5t6.5 98v182q0 78 -10.5 137t-22.5 76h-61v12h201zM355 831q0 36 25 61.5t61 25.5t61.5 -25.5t25.5 -61.5q0 -35 -25.5 -60.5t-61.5 -25.5t-61 25.5t-25 60.5zM392 881q-34 -31 -15 -77t64 -43q30 0 50.5 20.5t20.5 49.5t-20.5 50
t-50.5 21q-29 0 -49 -21z" />
    <glyph glyph-name="uring" unicode="&#x16f;" horiz-adv-x="564" 
d="M549 12v-12h-149v54q-82 -65 -163 -65q-41 0 -70.5 13.5t-44 36.5t-21 47t-6.5 52v266q0 26 -12 33q-12 5 -68 7v12q80 5 149 39v-359q0 -81 40 -105q30 -18 70 -18q58 0 126 55v336q0 26 -12 33q-12 5 -68 7v12q74 6 149 39v-440q0 -24 10.5 -33.5t37.5 -9.5h32z
M190 630q0 36 25 61.5t61 25.5t61.5 -25.5t25.5 -61.5q0 -35 -25.5 -60.5t-61.5 -25.5t-61 25.5t-25 60.5zM227 680q-34 -31 -15 -77t64 -43q30 0 50.5 20.5t20.5 49.5t-20.5 50t-50.5 21t-49 -21z" />
    <glyph glyph-name="Uhungarumlaut" unicode="&#x170;" horiz-adv-x="809" 
d="M779 723v-12h-59q-30 -53 -34 -222v-173q0 -74 -13 -130.5t-42.5 -102t-82.5 -69.5t-128 -24q-110 0 -186 40q-53 28 -82 91q-10 19 -15 51q-6 32 -6 45q-1 9 -1 35v405q0 54 -67 54h-33v12h285v-12h-37q-63 0 -63 -54v-422q0 -67 22 -115.5t56 -71.5t66 -33t62 -9
q59 0 103.5 16.5t72 43.5t45 67.5t24 84.5t6.5 98v182q0 78 -10.5 137t-22.5 76h-61v12h201zM514 905q0 -19 -42 -46l-149 -90h-24l133 131q34 33 56 33q26 0 26 -28zM685 905q0 -19 -42 -46l-149 -90h-24l133 131q35 33 56 33q26 0 26 -28z" />
    <glyph glyph-name="uhungarumlaut" unicode="&#x171;" horiz-adv-x="564" 
d="M549 12v-12h-149v54q-82 -65 -163 -65q-41 0 -70.5 13.5t-44 36.5t-21 47t-6.5 52v266q0 26 -12 33q-12 5 -68 7v12q80 5 149 39v-359q0 -81 40 -105q30 -18 70 -18q58 0 126 55v336q0 26 -12 33q-12 5 -68 7v12q74 6 149 39v-440q0 -24 10.5 -33.5t37.5 -9.5h32z
M342 698q0 -19 -42 -46l-149 -90h-24l133 131q34 33 56 33q26 0 26 -28zM516 698q0 -19 -42 -46l-149 -90h-24l133 131q34 33 56 33q26 0 26 -28z" />
    <glyph glyph-name="Uogonek" unicode="&#x172;" horiz-adv-x="809" 
d="M779 723v-12h-59q-30 -53 -34 -222v-173q0 -149 -57 -234t-193 -91q-23 -44 -23 -81q0 -26 15.5 -41.5t42.5 -15.5q39 0 86 40l8 -9q-63 -60 -127 -60q-33 0 -53 18.5t-20 48.5q0 47 48 99q-109 1 -181 42q-53 30 -81 90q-20 42 -20 95q-1 9 -1 35v405q0 54 -67 54h-33
v12h285v-12h-37q-63 0 -63 -54v-422q0 -67 22 -115.5t56 -71.5t66 -33t62 -9q59 0 103.5 16.5t72 43.5t45 67.5t24 84.5t6.5 98v182q0 78 -10.5 137t-22.5 76h-61v12h201z" />
    <glyph glyph-name="uogonek" unicode="&#x173;" horiz-adv-x="564" 
d="M503 -123q35 0 73 35l8 -9q-52 -52 -106 -52q-30 0 -46.5 15.5t-16.5 42.5q0 44 44 91h-59v54q-82 -65 -163 -65q-41 0 -70.5 13.5t-44 36.5t-21 47t-6.5 52v266q0 26 -12 33q-12 5 -68 7v12q80 5 149 39v-359q0 -81 40 -105q30 -18 70 -18q58 0 126 55v336q0 26 -12 33
q-12 5 -68 7v12q74 6 149 39v-440q0 -24 10.5 -33.5t37.5 -9.5h32v-12h-71q-24 -38 -24 -76q0 -47 49 -47z" />
    <glyph glyph-name="Ydieresis" unicode="&#x178;" horiz-adv-x="726" 
d="M726 723v-12h-31q-47 -24 -87 -93l-96 -159l-97 -160v-233q0 -28 15.5 -41t50.5 -13h34v-12h-284v12h34q65 0 65 54v225l-213 351q-16 27 -34 43q-28 25 -83 26v12h277v-12h-40q-28 0 -35.5 -16t7.5 -39l200 -340l89 149q52 88 67 117q36 72 36 97q0 32 -47 32h-29v12
h201zM349 812q0 -21 -14.5 -35.5t-35.5 -14.5t-35.5 14.5t-14.5 35.5t14 35.5t36 14.5q23 0 36.5 -14t13.5 -36zM542 812q0 -21 -14.5 -35.5t-35.5 -14.5t-35.5 14.5t-14.5 35.5t14 35.5t36 14.5q23 0 36.5 -14t13.5 -36z" />
    <glyph glyph-name="Zacute" unicode="&#x179;" horiz-adv-x="656" 
d="M584 705l-440 -693h83q172 0 256 21q69 18 98 77l17 61h12l-18 -101l-14 -70h-532v15l438 696h-119q-132 0 -183 -15q-53 -17 -79 -56l-9 -78h-12l9 161h493v-18zM514 905q0 -19 -42 -46l-149 -90h-24l133 131q34 33 56 33q26 0 26 -28z" />
    <glyph glyph-name="zacute" unicode="&#x17a;" horiz-adv-x="407" 
d="M385 118h12l-9 -118h-378v15l307 454q-124 0 -184.5 -12.5t-79.5 -46.5q0 -2 -2.5 -22.5t-2.5 -25.5h-12l8 119h352v-13l-304 -456h63q82 0 150 17q66 16 76 55zM373 698q0 -19 -42 -46l-149 -90h-24l133 131q34 33 56 33q26 0 26 -28z" />
    <glyph glyph-name="Zdotaccent" unicode="&#x17b;" horiz-adv-x="656" 
d="M584 705l-440 -693h83q172 0 256 21q69 18 98 77l17 61h12l-18 -101l-14 -70h-532v15l438 696h-119q-132 0 -183 -15q-53 -17 -79 -56l-9 -78h-12l9 161h493v-18zM385 834q0 -21 -14.5 -35.5t-35.5 -14.5t-35.5 14.5t-14.5 35.5t14 35.5t36 14.5q23 0 36.5 -14t13.5 -36z
" />
    <glyph glyph-name="zdotaccent" unicode="&#x17c;" horiz-adv-x="407" 
d="M385 118h12l-9 -118h-378v15l307 454q-124 0 -184.5 -12.5t-79.5 -46.5q0 -2 -2.5 -22.5t-2.5 -25.5h-12l8 119h352v-13l-304 -456h63q82 0 150 17q66 16 76 55zM262 637q0 -21 -14.5 -35.5t-35.5 -14.5t-35.5 14.5t-14.5 35.5t14 35.5t36 14.5q23 0 36.5 -14t13.5 -36z
" />
    <glyph glyph-name="Zcaron" unicode="&#x17d;" horiz-adv-x="656" 
d="M584 705l-440 -693h83q172 0 256 21q69 18 98 77l17 61h12l-18 -101l-14 -70h-532v15l438 696h-119q-132 0 -183 -15q-53 -17 -79 -56l-9 -78h-12l9 161h493v-18zM399 872l61 46h14q-26 -26 -60 -66q-34 -38 -59 -76l-10 -14h-30q-37 54 -69 90q-47 53 -61 66h15
q27 -18 61 -46l69 -56q44 37 69 56z" />
    <glyph glyph-name="zcaron" unicode="&#x17e;" horiz-adv-x="407" 
d="M385 118h12l-9 -118h-378v15l307 454q-124 0 -184.5 -12.5t-79.5 -46.5q0 -2 -2.5 -22.5t-2.5 -25.5h-12l8 119h352v-13l-304 -456h63q82 0 150 17q66 16 76 55zM279 675l61 46h14q-26 -25 -60 -66q-32 -35 -59 -75l-10 -15h-30q-37 54 -69 90q-47 53 -61 66h15
q27 -18 61 -46l69 -56q44 37 69 56z" />
    <glyph glyph-name="uni018F" unicode="&#x18f;" horiz-adv-x="804" 
d="M59 355v19h593q-2 159 -71 255q-71 98 -201 98q-84 0 -150.5 -36t-102.5 -104v1l-6 -47h-12l13 182h12v-37q101 53 266 53q96 0 166.5 -32t107.5 -86t54 -113.5t17 -127.5q0 -119 -41 -211q-26 -54 -63 -93q-88 -90 -248 -90q-223 0 -297 176q-37 87 -37 193zM394 -2
q88 0 148 54q59 52 85 133q25 78 25 177h-500q0 -148 52 -251q56 -113 190 -113z" />
    <glyph glyph-name="florin" unicode="&#x192;" 
d="M514 740q0 -19 -12 -31t-32 -12q-17 0 -28.5 9.5t-11.5 24.5q0 2 1 10t1.5 13t-0.5 7q-3 8 -17 8q-71 0 -112 -153l-33 -126h105l-2 -12h-106l-195 -700h-60l196 700h-102l2 12h103q50 166 110 235q58 67 130 67q30 0 46.5 -14t16.5 -38z" />
    <glyph glyph-name="uni01DD" unicode="&#x1dd;" horiz-adv-x="467" 
d="M218 493q42 0 79 -12t71 -38.5t54 -77t20 -119.5q0 -118 -60 -187.5t-163 -69.5q-95 0 -144.5 65.5t-49.5 182.5h336q1 150 -54 211q-32 31 -90 33q-57 0 -103 -35q-45 -36 -56 -80v-5h-12l5 119h12v-26q70 39 155 39zM361 225h-257v-10q0 -99 31.5 -156.5t90.5 -57.5
q58 0 96 65q38 64 39 159z" />
    <glyph glyph-name="Scommaaccent" unicode="&#x218;" horiz-adv-x="590" 
d="M538 181q0 -83 -63 -138q-65 -57 -175 -57q-119 0 -230 55q0 -5 0.5 -21t0.5 -20h-12l-15 194h12l5 -43q29 -62 95 -107q64 -46 143 -46q81 0 123.5 38.5t42.5 100.5q0 110 -189 206q-58 32 -79 46q-32 19 -63 46q-64 54 -64 133t54 125t165 46q103 0 195 -51v35h12
l10 -175h-12l-3 38q-17 57 -63 99q-48 42 -136 42q-150 0 -150 -111q0 -69 57 -117q49 -43 127 -81q48 -26 78 -45q32 -21 65 -48q69 -59 69 -144zM347 -160q0 -50 -26.5 -102t-69.5 -91l-9 9q62 64 62 117q-4 22 -9 28.5t-26 20.5q-31 19 -31 46q0 19 14 32t37 13
q26 0 42 -19.5t16 -53.5z" />
    <glyph glyph-name="scommaaccent" unicode="&#x219;" horiz-adv-x="415" 
d="M375 127q0 -62 -43 -100t-122 -38q-72 0 -153 39v-28h-12l-5 130h12q15 -54 63 -92q47 -37 100 -37q43 0 71 28.5t28 68.5q0 33 -21.5 56t-64.5 46l-70 39q-56 31 -79 59.5t-23 69.5q0 63 44 95q44 30 99 30q62 0 135 -38v26h12l5 -131h-12l-1 22q-45 109 -137 109
q-37 0 -59 -22.5t-22 -54.5q0 -50 45 -78q25 -15 71 -37q72 -36 105.5 -72.5t33.5 -89.5zM249 -153q0 -76 -71 -155l-9 8q42 48 42 94q0 9 -5 15t-17 13t-17 10q-22 13 -22 40q0 18 12.5 29.5t32.5 11.5q25 0 39.5 -17t14.5 -49z" />
    <glyph glyph-name="Tcommaaccent" unicode="&#x21a;" horiz-adv-x="667" 
d="M10 562l9 161h627l11 -161h-12l-9 77q-42 72 -203 72q-58 0 -58 -33v-612q0 -32 13 -43t54 -11h33v-12h-285v12h35q38 0 51.5 11.5t13.5 42.5v611q0 17 -12 25.5t-45 8.5q-86 0 -132.5 -15.5t-68.5 -56.5v1l-10 -78h-12zM387 -160q0 -50 -26.5 -102t-69.5 -91l-9 9
q62 64 62 117q-4 22 -9 28.5t-26 20.5q-31 19 -31 46q0 19 14 32t37 13q26 0 42 -19.5t16 -53.5z" />
    <glyph glyph-name="tcommaaccent" unicode="&#x21b;" horiz-adv-x="382" 
d="M263 13q33 0 64.5 23.5t53.5 73.5l11 -5q-18 -51 -56.5 -83.5t-90.5 -32.5q-68 0 -104 38t-36 108v334h-100v12h30q43 8 73.5 43t41.5 82q9 39 11 94h13v-219h27q95 0 138 10l5 -22h-170v-349q0 -107 89 -107zM271 -153q0 -76 -71 -155l-9 8q42 48 42 94q0 9 -5 15
t-17 13t-17 10q-22 13 -22 40q0 18 12.5 29.5t32.5 11.5q25 0 39.5 -17t14.5 -49z" />
    <glyph glyph-name="uni0259" unicode="&#x259;" horiz-adv-x="467" 
d="M218 493q42 0 79 -12t71 -38.5t54 -77t20 -119.5q0 -118 -60 -187.5t-163 -69.5q-95 0 -144.5 65.5t-49.5 182.5h336q1 150 -54 211q-32 31 -90 33q-57 0 -103 -35q-45 -36 -56 -80v-5h-12l5 119h12v-26q70 39 155 39zM361 225h-257v-10q0 -99 31.5 -156.5t90.5 -57.5
q58 0 96 65q38 64 39 159z" />
    <glyph glyph-name="afii57929" unicode="&#x2bc;" horiz-adv-x="224" 
d="M79 518l-10 7q38 62 38 122q0 48 -29 86l5 12h62q8 -30 8 -53q0 -82 -74 -174z" />
    <glyph glyph-name="circumflex" unicode="&#x2c6;" horiz-adv-x="419" 
d="M340 555l-61 46q-25 19 -69 56l-69 -56l-61 -46h-15q14 13 61 66q27 30 58 75l11 15h30q37 -54 69 -90q34 -41 60 -66h-14z" />
    <glyph glyph-name="caron" unicode="&#x2c7;" horiz-adv-x="419" 
d="M279 675l61 46h14q-26 -25 -60 -66q-32 -35 -59 -75l-10 -15h-30q-37 54 -69 90q-47 53 -61 66h15q27 -18 61 -46l69 -56q44 37 69 56z" />
    <glyph glyph-name="breve" unicode="&#x2d8;" horiz-adv-x="416" 
d="M315 598q-43 -43 -107 -43t-106 43q-44 44 -48 105h12q13 -46 51.5 -74t90.5 -28q53 0 91 28t50 74h13q-4 -61 -47 -105z" />
    <glyph glyph-name="dotaccent" unicode="&#x2d9;" horiz-adv-x="194" 
d="M147 637q0 -21 -14.5 -35.5t-35.5 -14.5t-35.5 14.5t-14.5 35.5t14 35.5t36 14.5q23 0 36.5 -14t13.5 -36z" />
    <glyph glyph-name="ring" unicode="&#x2da;" horiz-adv-x="307" 
d="M67 630q0 36 25 61.5t61 25.5t61.5 -25.5t25.5 -61.5q0 -35 -25.5 -60.5t-61.5 -25.5t-61 25.5t-25 60.5zM104 680q-34 -31 -15 -77t64 -43q30 0 50.5 20.5t20.5 49.5t-20.5 50t-50.5 21q-29 0 -49 -21z" />
    <glyph glyph-name="ogonek" unicode="&#x2db;" horiz-adv-x="266" 
d="M136 -123q35 0 73 35l8 -9q-52 -52 -106 -52q-30 0 -46.5 15.5t-16.5 42.5q0 53 61 107h13q-35 -47 -35 -92q0 -47 49 -47z" />
    <glyph glyph-name="tilde" unicode="&#x2dc;" horiz-adv-x="404" 
d="M215 538q51 -30 76 -30q52 0 93 50l10 -8q-50 -86 -120 -86q-32 0 -85 33q-50 30 -76 30q-54 0 -93 -50l-10 8q53 86 120 86q30 0 85 -33z" />
    <glyph glyph-name="hungarumlaut" unicode="&#x2dd;" horiz-adv-x="497" 
d="M269 698q0 -19 -42 -46l-149 -90h-24l133 131q34 33 56 33q26 0 26 -28zM443 698q0 -19 -42 -46l-149 -90h-24l133 131q34 33 56 33q26 0 26 -28z" />
    <glyph glyph-name="acutecomb" unicode="&#x301;" horiz-adv-x="0" 
d="M-108 698q0 -19 -42 -46l-149 -90h-24l133 131q34 33 56 33q26 0 26 -28z" />
    <glyph glyph-name="uni0394" unicode="&#x394;" horiz-adv-x="623" 
d="M33 12h492l-254 608zM607 9v-9h-591v8l279 712h10z" />
    <glyph glyph-name="uni0394" unicode="&#x2206;" horiz-adv-x="623" 
d="M33 12h492l-254 608zM607 9v-9h-591v8l279 712h10z" />
    <glyph glyph-name="uni03A9" unicode="&#x3a9;" horiz-adv-x="756" 
d="M145 652q96 87 233 87t233 -87t96 -230q0 -99 -49 -181q-50 -83 -154 -120l-3 -50h62q58 0 96.5 21.5t41.5 50.5l3 29h12l-10 -172h-222l9 137q48 25 77.5 73t36.5 101q7 46 7 121q0 58 -13 108.5t-40 93.5t-74 68t-109 25t-109 -25t-74 -68t-40 -93.5t-13 -108.5
q0 -79 8 -126t34 -93q30 -51 79 -76l9 -137h-222l-10 172h12l3 -29q3 -29 41.5 -50.5t96.5 -21.5h62l-3 50q-104 37 -154 120q-49 82 -49 181q0 143 96 230z" />
    <glyph glyph-name="uni03A9" unicode="&#x2126;" horiz-adv-x="756" 
d="M145 652q96 87 233 87t233 -87t96 -230q0 -99 -49 -181q-50 -83 -154 -120l-3 -50h62q58 0 96.5 21.5t41.5 50.5l3 29h12l-10 -172h-222l9 137q48 25 77.5 73t36.5 101q7 46 7 121q0 58 -13 108.5t-40 93.5t-74 68t-109 25t-109 -25t-74 -68t-40 -93.5t-13 -108.5
q0 -79 8 -126t34 -93q30 -51 79 -76l9 -137h-222l-10 172h12l3 -29q3 -29 41.5 -50.5t96.5 -21.5h62l-3 50q-104 37 -154 120q-49 82 -49 181q0 143 96 230z" />
    <glyph glyph-name="pi" unicode="&#x3c0;" horiz-adv-x="533" 
d="M516 12v-12h-149v419h-188q0 -210 -27 -297q-40 -133 -112 -133q-50 0 -50 44q0 34 35 42q75 16 100 55q39 62 41 161q1 23 1 111v17h-6q-87 0 -135 -94l-11 4q21 76 61 112q43 40 126 40h315v-62h-81v-364q0 -24 10 -33.5t39 -9.5h31z" />
    <glyph glyph-name="afii10023" unicode="&#x401;" horiz-adv-x="663" 
d="M46 711v12h554l9 -151h-12l-11 83q-20 26 -90 41q-71 15 -154 15q-70 0 -90 -10q-21 -11 -21 -45v-271h57q56 0 95 4.5t58 10t29 16t11.5 16.5t1.5 17v23h12v-186h-12v25q0 11 -1.5 17t-11.5 16t-29.5 15.5t-58 9.5t-94.5 4h-57v-307q0 -31 15.5 -42.5t48.5 -11.5
q147 0 229 20q75 21 96 77l11 45h12l-29 -154h-568v12h35q39 0 52 11t13 43v591q0 31 -15.5 42.5t-49.5 11.5h-35zM316 812q0 -21 -14.5 -35.5t-35.5 -14.5t-35.5 14.5t-14.5 35.5t14 35.5t36 14.5q23 0 36.5 -14t13.5 -36zM509 812q0 -21 -14.5 -35.5t-35.5 -14.5
t-35.5 14.5t-14.5 35.5t14 35.5t36 14.5q23 0 36.5 -14t13.5 -36z" />
    <glyph glyph-name="afii10051" unicode="&#x402;" horiz-adv-x="783" 
d="M341 412l-15 -5v-341q0 -33 8.5 -43.5t35.5 -10.5h9v-12h-238v12h34q39 0 52.5 11.5t13.5 42.5v601q0 44 -48 44q-70 0 -107.5 -17t-53.5 -55v1l-10 -78h-12l9 161h614l9 -161h-12l-10 77q-46 72 -238 72q-56 0 -56 -43v-249q65 17 129 17q115 0 198 -45q95 -52 95 -183
q3 -79 -55 -146t-152 -67q-52 0 -79.5 18.5t-27.5 47.5q0 42 44 42q20 0 31.5 -11t11.5 -27q0 -4 -3 -16.5t-3 -16.5q-1 -13 7 -19t25 -6q108 0 108 195q0 53 -14 94t-35.5 64.5t-51 39t-57 20.5t-57.5 5q-47 0 -99 -13z" />
    <glyph glyph-name="afii10052" unicode="&#x403;" horiz-adv-x="570" 
d="M46 723h503l11 -161h-12l-8 77q-20 44 -98 63q-20 6 -96 9h-54q-61 0 -61 -33v-612q0 -32 13.5 -43t50.5 -11h42v-12h-291v12h36q38 0 51 11t13 43v591q0 30 -14 42t-50 12h-36v12zM494 905q0 -19 -42 -46l-149 -90h-24l133 131q34 33 56 33q26 0 26 -28z" />
    <glyph glyph-name="afii10053" unicode="&#x404;" horiz-adv-x="743" 
d="M693 175l-24 -175h-12l2 38q-88 -52 -233 -52q-177 0 -272 101t-95 268q0 53 11 104.5t38.5 103t69 90t107.5 62.5t148 24q101 0 222 -53l-1 37h12l13 -182h-12l-6 46q-73 140 -243 140q-84 0 -145.5 -47.5t-89.5 -125.5q-28 -75 -31 -172h114q126 0 267 17v-43
q-106 14 -241 14h-140v-9q0 -179 79 -270q79 -93 195 -93q80 0 148 34q68 35 93 83l13 60h13z" />
    <glyph glyph-name="afii10054" unicode="&#x405;" horiz-adv-x="590" 
d="M538 181q0 -83 -63 -138q-65 -57 -175 -57q-119 0 -230 55q0 -5 0.5 -21t0.5 -20h-12l-15 194h12l5 -43q29 -62 95 -107q64 -46 143 -46q81 0 123.5 38.5t42.5 100.5q0 110 -189 206q-58 32 -79 46q-32 19 -63 46q-64 54 -64 133t54 125t165 46q103 0 195 -51v35h12
l10 -175h-12l-3 38q-17 57 -63 99q-48 42 -136 42q-150 0 -150 -111q0 -69 57 -117q49 -43 127 -81q48 -26 78 -45q32 -21 65 -48q69 -59 69 -144z" />
    <glyph glyph-name="afii10055" unicode="&#x406;" horiz-adv-x="377" 
d="M331 12v-12h-285v12h34q38 0 52 11.5t14 42.5v591q0 32 -13.5 43t-52.5 11h-34v12h285v-12h-37q-37 0 -50 -11.5t-13 -42.5v-591q0 -31 13 -42.5t50 -11.5h37z" />
    <glyph glyph-name="afii10056" unicode="&#x407;" horiz-adv-x="377" 
d="M331 12v-12h-285v12h34q38 0 52 11.5t14 42.5v591q0 32 -13.5 43t-52.5 11h-34v12h285v-12h-37q-37 0 -50 -11.5t-13 -42.5v-591q0 -31 13 -42.5t50 -11.5h37zM142 812q0 -21 -14.5 -35.5t-35.5 -14.5t-35.5 14.5t-14.5 35.5t14 35.5t36 14.5q23 0 36.5 -14t13.5 -36z
M335 812q0 -21 -14.5 -35.5t-35.5 -14.5t-35.5 14.5t-14.5 35.5t14 35.5t36 14.5q23 0 36.5 -14t13.5 -36z" />
    <glyph glyph-name="afii10057" unicode="&#x408;" horiz-adv-x="477" 
d="M447 723v-12h-34q-38 0 -52 -12t-14 -42v-352q0 -170 -58 -244q-59 -75 -147 -75q-63 0 -97.5 25.5t-34.5 63.5q0 22 12.5 36t35.5 14q48 0 48 -47q0 -5 -3.5 -20t-3.5 -19q0 -41 52 -41q38 0 60 22t36 64q12 35 14 127q1 20 1 76v370q0 31 -14 42.5t-52 11.5h-38v12h289
z" />
    <glyph glyph-name="afii10058" unicode="&#x409;" horiz-adv-x="1089" 
d="M614 657v-239q76 26 155 26q151 0 216 -60q64 -60 64 -154q0 -88 -62 -156q-71 -79 -235 -79q-18 0 -74 3q-61 3 -80 2h-169v12h37q63 0 63 54v596q0 32 -12.5 40.5t-52.5 8.5h-73q-59 0 -75 -15q-18 -18 -19 -57q0 -6 -2 -33.5t-3 -48.5q-1 -20 -3 -47.5t-2 -35.5
q-9 -145 -25 -223q-30 -157 -83 -221q-35 -44 -99 -44q-40 0 -65 22.5t-25 55.5q0 25 13 41.5t39 16.5q24 0 38 -13t14 -35l-4 -15q-3 -15 -3 -22q0 -11 7.5 -19t20.5 -8q32 0 56 32q50 66 75 208q12 68 25 223q6 72 6 157q0 81 -67 81h-48v12h552v-12h-37q-36 0 -49.5 -12
t-13.5 -42zM614 405v-370q52 -28 134 -28q92 0 150 60q58 58 58 159q0 206 -204 206q-74 0 -138 -27z" />
    <glyph glyph-name="afii10059" unicode="&#x40a;" horiz-adv-x="1191" 
d="M716 657v-239q76 26 155 26q151 0 216 -60q64 -60 64 -154q0 -88 -62 -156q-71 -79 -235 -79q-19 0 -74 3q-61 3 -80 2h-169v12h34q39 0 52.5 11t13.5 43v302h-400v-302q0 -32 13.5 -43t49.5 -11h37v-12h-285v12h34q39 0 52.5 11t13.5 43v591q0 30 -14 42t-52 12h-34v12
h285v-12h-37q-36 0 -49.5 -11t-13.5 -43v-277h400v277q0 32 -13.5 43t-52.5 11h-34v12h285v-12h-37q-36 0 -49.5 -12t-13.5 -42zM716 405v-370q52 -28 134 -28q92 0 150 60q58 58 58 159q0 206 -204 206q-74 0 -138 -27z" />
    <glyph glyph-name="afii10060" unicode="&#x40b;" horiz-adv-x="843" 
d="M10 562l9 161h614l9 -161h-12l-10 77q-46 72 -237 72q-57 0 -57 -43v-296q116 73 243 73q90 0 126.5 -47.5t36.5 -117.5v-214q0 -32 13 -43t53 -11h35v-12h-281v12h30q38 0 51.5 11.5t13.5 42.5v227q0 129 -116 129q-93 0 -205 -66v-290q0 -31 14 -42.5t52 -11.5h29v-12
h-281v12h35q39 0 52.5 11.5t13.5 42.5v601q0 44 -48 44q-131 0 -161 -71l-10 -78h-12z" />
    <glyph glyph-name="afii10061" unicode="&#x40c;" horiz-adv-x="777" 
d="M510 505q-50 -97 -129 -111q103 -19 170 -97q50 -60 106 -204q32 -83 63 -83q36 0 40 61h12q-4 -85 -78 -85q-65 0 -108 62q-38 56 -72 134q-27 63 -45 97q-33 61 -61 85.5t-66 24.5h-112v-323q0 -30 13.5 -42t49.5 -12h37v-12h-284v12h34q38 0 51.5 11.5t13.5 42.5v591
q0 32 -14 43t-51 11h-34v12h284v-12h-37q-36 0 -49.5 -12.5t-13.5 -41.5v-256h110q52 -1 94 32t67 87l45 108q27 62 52.5 86.5t67.5 24.5q32 0 51 -17.5t19 -42.5q0 -22 -12.5 -35.5t-35.5 -13.5q-21 0 -33.5 11.5t-12.5 29.5q0 2 3.5 15.5t3.5 15.5q0 17 -13 17
q-18 0 -37 -27q-22 -29 -32 -52q-14 -29 -20 -48q-18 -50 -37 -87zM602 905q0 -19 -42 -46l-149 -90h-24l133 131q34 33 56 33q26 0 26 -28z" />
    <glyph glyph-name="afii10062" unicode="&#x40e;" horiz-adv-x="751" 
d="M751 723v-12h-28q-37 -14 -66 -65q-33 -57 -113 -240q-40 -91 -58 -130q-75 -160 -120 -222q-50 -68 -117 -68q-117 0 -117 88q0 26 14.5 40.5t39.5 14.5q23 0 36.5 -12t13.5 -34q0 -6 -5.5 -21t-5.5 -20q0 -14 10.5 -23t25.5 -9q54 0 94 52q9 12 21.5 33t21 37t7.5 16
l-284 507q-35 56 -91 56h-15v12h273v-12h-38q-39 0 -39 -25q0 -12 6 -23l234 -430q15 29 81 177q43 97 70 167q31 81 31 101q0 33 -38 33h-40v12h196zM588 873q0 -39 -47 -75t-135 -36t-135 36t-47 75q1 28 23 40t43 2.5t21 -33.5q0 -6 -12 -29t-12 -30q-1 -5 2 -11.5
t11.5 -13t22 -12t35 -9t48.5 -3.5q45 0 73.5 9.5t36.5 19.5t8 20q0 7 -11.5 29t-11.5 30q-2 28 28 36q32 7 50 -16q9 -13 9 -29z" />
    <glyph glyph-name="afii10145" unicode="&#x40f;" horiz-adv-x="822" 
d="M491 711v12h285v-12h-34q-36 0 -51 -12.5t-15 -41.5v-593q0 -31 14.5 -41.5t51.5 -10.5h34v-12h-287q-33 -15 -55 -65t-22 -117h-12q0 67 -21.5 116.5t-54.5 65.5h-278v12h34q41 0 53 11t12 43v591q0 30 -14 42t-51 12h-34v12h284v-12h-37q-37 0 -50 -11.5t-13 -42.5
v-592q0 -32 13.5 -42.5t50.5 -10.5h231q38 0 52 10.5t14 42.5v592q0 30 -14 42t-52 12h-34z" />
    <glyph glyph-name="afii10017" unicode="&#x410;" horiz-adv-x="712" 
d="M712 12v-12h-264v12h35q49 0 49 31q0 14 -82 250h-256l-35 -90q-44 -117 -44 -143q0 -37 35 -48h45v-12h-195v12h30q30 22 67 92q33 62 98 230l87 235l59 154h24l248 -646q13 -35 30.5 -50t50.5 -15h18zM198 305h247l-124 330z" />
    <glyph glyph-name="afii10018" unicode="&#x411;" horiz-adv-x="721" 
d="M146 66v591q0 31 -15.5 42.5t-49.5 11.5h-35v12h560l9 -151h-12l-11 82q-20 27 -87 42t-159 15q-71 0 -92 -10q-23 -11 -23 -45v-238q76 26 155 26q152 0 216 -60t64 -154q0 -88 -62 -156q-71 -79 -235 -79q-22 0 -42 1q-8 0 -16.5 0.5t-13 1t-6.5 0.5q-74 2 -76 2h-169
v12h35q65 0 65 54zM573 226q0 204 -208 204q-74 0 -134 -25v-370q52 -28 134 -28q91 0 150 60q58 58 58 159z" />
    <glyph glyph-name="afii10019" unicode="&#x412;" horiz-adv-x="727" 
d="M554 557q0 40 -15.5 70.5t-36.5 46.5t-50 26t-49 13t-40 3q-71 0 -131 -26v-285h143q37 0 75 12q26 7 50 23q23 15 38.5 46.5t15.5 70.5zM579 214q0 22 -4 42.5t-18.5 46.5t-38 45t-66 32t-99.5 13h-121v-349q25 -17 66.5 -27t76.5 -10t66 10q56 13 98 63.5t40 133.5z
M146 66v591q0 54 -65 54h-35v12h167q21 0 84 3q82 2 95 2q127 0 188 -40.5t61 -113.5q0 -67 -48 -114t-132 -62q94 -14 152 -62q59 -50 59 -126q0 -101 -70.5 -158t-190.5 -57q-6 0 -114 3q-94 2 -107 2h-144v12h35q39 0 52 11t13 43z" />
    <glyph glyph-name="afii10020" unicode="&#x413;" horiz-adv-x="570" 
d="M46 723h503l11 -161h-12l-8 77q-20 44 -98 63q-20 6 -96 9h-54q-61 0 -61 -33v-612q0 -32 13.5 -43t50.5 -11h42v-12h-291v12h36q38 0 51 11t13 43v591q0 30 -14 42t-50 12h-36v12z" />
    <glyph glyph-name="afii10021" unicode="&#x414;" horiz-adv-x="735" 
d="M725 12v-176h-12v46q0 118 -204 118h-282q-118 0 -161.5 -32.5t-43.5 -85.5v-46h-12v176h64q28 0 75 71q64 106 94 284q25 147 25 264q0 80 -75 80h-32v12h545v-12h-49q-30 0 -41 -11t-11 -41v-583q0 -27 7 -40q5 -11 17 -14q32 -10 96 -10zM520 75v583q0 28 -12 40.5
t-43 12.5h-108q-72 0 -72 -62q0 -118 -20 -246q-36 -229 -111 -342q-21 -31 -43 -49h356q30 0 41.5 13.5t11.5 49.5z" />
    <glyph glyph-name="afii10022" unicode="&#x415;" horiz-adv-x="663" 
d="M46 711v12h554l9 -151h-12l-11 83q-20 26 -90 41q-71 15 -154 15q-70 0 -90 -10q-21 -11 -21 -45v-271h57q56 0 95 4.5t58 10t29 16t11.5 16.5t1.5 17v23h12v-186h-12v25q0 11 -1.5 17t-11.5 16t-29.5 15.5t-58 9.5t-94.5 4h-57v-307q0 -31 15.5 -42.5t48.5 -11.5
q147 0 229 20q75 21 96 77l11 45h12l-29 -154h-568v12h35q39 0 52 11t13 43v591q0 31 -15.5 42.5t-49.5 11.5h-35z" />
    <glyph glyph-name="afii10024" unicode="&#x416;" horiz-adv-x="1077" 
d="M272 505q-19 37 -37 87q-25 65 -51 100q-21 27 -38 27q-13 0 -13 -17q0 -2 3.5 -15.5t3.5 -15.5q0 -18 -12.5 -29.5t-33.5 -11.5q-23 0 -35.5 13.5t-12.5 35.5q0 25 19 42.5t51 17.5q42 0 67.5 -24.5t52.5 -86.5l45 -108q25 -54 67 -87t94 -32h54v256q0 32 -14 43t-51 11
h-34v12h284v-12h-37q-36 0 -49.5 -12.5t-13.5 -41.5v-256h54q52 -1 94 32t67 87l45 108q27 62 52.5 86.5t67.5 24.5q32 0 51 -17.5t19 -42.5q0 -22 -12.5 -35.5t-35.5 -13.5q-21 0 -33.5 11.5t-12.5 29.5q0 2 3.5 15.5t3.5 15.5q0 17 -13 17q-17 0 -37 -27q-23 -29 -32 -52
q-14 -29 -20 -48q-18 -50 -37 -87q-49 -97 -129 -111q103 -19 170 -97q50 -60 106 -204q32 -83 63 -83q36 0 40 61h12q-4 -85 -78 -85q-65 0 -108 62q-38 56 -72 134q-27 63 -45 97q-33 61 -61 85.5t-66 24.5h-56v-323q0 -30 13.5 -42t49.5 -12h37v-12h-284v12h34
q38 0 51.5 11.5t13.5 42.5v323h-56q-38 0 -66 -24.5t-61 -85.5q-18 -34 -45 -97q-34 -78 -72 -134q-43 -62 -108 -62q-74 0 -78 85h12q4 -61 40 -61q31 0 63 83q56 144 106 204q67 78 170 97q-79 14 -129 111z" />
    <glyph glyph-name="afii10025" unicode="&#x417;" horiz-adv-x="667" 
d="M99 548l11 175h12v-34q102 50 214 50q129 0 190 -52q60 -53 60 -123q0 -60 -48.5 -106t-131.5 -60q91 -14 149 -60t58 -133q0 -100 -78.5 -159.5t-215.5 -59.5q-142 0 -209 46q-27 19 -41 43q-19 30 -19 61q0 26 16 41.5t41 15.5t38.5 -13.5t13.5 -37.5q0 -10 -10.5 -34
t-10.5 -34q0 -31 49 -53.5t126 -22.5q93 0 150 56.5t57 152.5q0 84 -57 135t-150 51q-41 0 -85 -11v29q38 -6 87 -6q89 0 137.5 42.5t48.5 116.5t-46.5 118.5t-119.5 44.5q-71 0 -130 -35t-88 -97l-6 -47h-12z" />
    <glyph glyph-name="afii10026" unicode="&#x418;" horiz-adv-x="862" 
d="M816 12v-12h-286v12h36q38 0 51.5 11.5t13.5 42.5v566l-400 -566q1 -30 14 -42t49 -12h37v-12h-285v12h34q40 0 53 11.5t13 42.5v593q0 29 -13.5 40.5t-52.5 11.5h-34v12h285v-12h-37q-41 0 -52 -9.5t-11 -42.5v-567l400 565q-1 28 -15.5 41t-49.5 13h-36v12h286v-12h-35
q-38 0 -51.5 -11t-13.5 -41v-593q0 -32 13 -43t52 -11h35z" />
    <glyph glyph-name="afii10027" unicode="&#x419;" horiz-adv-x="862" 
d="M816 12v-12h-286v12h36q38 0 51.5 11.5t13.5 42.5v566l-400 -566q1 -30 14 -42t49 -12h37v-12h-285v12h34q40 0 53 11.5t13 42.5v593q0 29 -13.5 40.5t-52.5 11.5h-34v12h285v-12h-37q-41 0 -52 -9.5t-11 -42.5v-567l400 565q-1 28 -15.5 41t-49.5 13h-36v12h286v-12h-35
q-38 0 -51.5 -11t-13.5 -41v-593q0 -32 13 -43t52 -11h35zM614 873q0 -39 -47 -75t-135 -36t-135 36t-47 75q1 28 23 40t43 2.5t21 -33.5q0 -6 -12 -29t-12 -30q-1 -5 2 -11.5t11.5 -13t22 -12t35 -9t48.5 -3.5q45 0 73.5 9.5t36.5 19.5t8 20q0 7 -11.5 29t-11.5 30
q-2 28 28 36q32 7 50 -16q9 -13 9 -29z" />
    <glyph glyph-name="afii10028" unicode="&#x41a;" horiz-adv-x="777" 
d="M510 505q-50 -97 -129 -111q103 -19 170 -97q50 -60 106 -204q32 -83 63 -83q36 0 40 61h12q-4 -85 -78 -85q-65 0 -108 62q-38 56 -72 134q-27 63 -45 97q-33 61 -61 85.5t-66 24.5h-112v-323q0 -30 13.5 -42t49.5 -12h37v-12h-284v12h34q38 0 51.5 11.5t13.5 42.5v591
q0 32 -14 43t-51 11h-34v12h284v-12h-37q-36 0 -49.5 -12.5t-13.5 -41.5v-256h110q52 -1 94 32t67 87l45 108q27 62 52.5 86.5t67.5 24.5q32 0 51 -17.5t19 -42.5q0 -22 -12.5 -35.5t-35.5 -13.5q-21 0 -33.5 11.5t-12.5 29.5q0 2 3.5 15.5t3.5 15.5q0 17 -13 17
q-18 0 -37 -27q-22 -29 -32 -52q-14 -29 -20 -48q-18 -50 -37 -87z" />
    <glyph glyph-name="afii10029" unicode="&#x41b;" horiz-adv-x="760" 
d="M714 12v-12h-285v12h37q63 0 63 54v596q0 32 -12.5 40.5t-52.5 8.5h-73q-59 0 -75 -15q-18 -18 -19 -57q0 -6 -2 -33.5t-3 -48.5q-1 -20 -3 -47.5t-2 -35.5q-9 -145 -25 -223q-30 -157 -83 -221q-35 -44 -99 -44q-40 0 -65 22.5t-25 55.5q0 25 13 41.5t39 16.5
q24 0 38 -13t14 -35l-4 -15q-3 -15 -3 -22q0 -11 7.5 -19t20.5 -8q32 0 56 32q50 66 75 208q12 68 25 223q6 72 6 157q0 81 -67 81h-48v12h552v-12h-38q-34 0 -48 -11.5t-14 -40.5v-593q0 -31 12 -42.5t50 -11.5h38z" />
    <glyph glyph-name="afii10030" unicode="&#x41c;" horiz-adv-x="998" 
d="M952 12v-12h-285v12h34q39 0 52.5 11t13.5 43v599l-294 -547h-21l-297 551v-417q0 -188 33 -240h62v-12h-204v12h61q34 52 34 271v379q0 49 -43 49h-52v12h174l281 -520l279 520h172v-12h-35q-31 0 -45 -6q-20 -9 -20 -46v-593q0 -32 12.5 -43t51.5 -11h36z" />
    <glyph glyph-name="afii10031" unicode="&#x41d;" horiz-adv-x="862" 
d="M816 12v-12h-285v12h34q39 0 52.5 11t13.5 43v302h-400v-302q0 -32 13.5 -43t49.5 -11h37v-12h-285v12h34q39 0 52.5 11t13.5 43v591q0 30 -14 42t-52 12h-34v12h285v-12h-37q-36 0 -49.5 -11t-13.5 -43v-277h400v277q0 32 -13.5 43t-52.5 11h-34v12h285v-12h-37
q-36 0 -49.5 -11t-13.5 -43v-591q0 -32 13.5 -43t49.5 -11h37z" />
    <glyph glyph-name="afii10032" unicode="&#x41e;" horiz-adv-x="868" 
d="M809 363q0 -47 -11 -96t-38.5 -100.5t-69 -91t-108 -64.5t-149.5 -25q-121 1 -202.5 50.5t-121.5 129.5q-50 92 -50 197q0 78 30.5 155.5t92.5 134.5q94 86 251 86q98 0 174 -33t119 -91q83 -113 83 -252zM716 363q0 160 -74 263q-75 101 -209 101q-133 0 -207 -98
t-74 -266q0 -208 126 -311q64 -54 155 -54q69 0 124.5 30.5t89 82.5t51.5 116.5t18 135.5z" />
    <glyph glyph-name="afii10033" unicode="&#x41f;" horiz-adv-x="822" 
d="M776 12v-12h-285v12h34q38 0 52 12t14 42v592q0 32 -14 42.5t-52 10.5h-231q-37 0 -50.5 -10.5t-13.5 -42.5v-592q0 -31 13 -42.5t50 -11.5h37v-12h-284v12h34q37 0 51 12t14 42v591q0 32 -12 43t-53 11h-34v12h730v-12h-34q-37 0 -51.5 -10.5t-14.5 -41.5v-593
q0 -29 15 -41.5t51 -12.5h34z" />
    <glyph glyph-name="afii10034" unicode="&#x420;" horiz-adv-x="675" 
d="M635 520q0 -95 -76 -162q-77 -68 -208 -68q-71 0 -120 12v-236q0 -33 12 -43.5t51 -10.5h37v-12h-285v12h35q38 0 51.5 11.5t13.5 42.5v591q0 32 -13 43t-52 11h-35v12h109q30 0 102 6q80 5 104 5q76 0 131.5 -19t85.5 -51t43.5 -68t13.5 -76zM542 520q0 98 -51.5 150
t-145.5 52q-59 0 -114 -28v-381q49 -11 116 -11q90 0 142.5 57.5t52.5 160.5z" />
    <glyph glyph-name="afii10035" unicode="&#x421;" horiz-adv-x="743" 
d="M693 175l-24 -175h-12l2 38q-88 -52 -233 -52q-177 0 -272 101t-95 268q0 53 11 104.5t38.5 103t69 90t107.5 62.5t148 24q101 0 222 -53l-1 37h12l13 -182h-12l-6 46q-73 140 -243 140q-89 0 -150.5 -52.5t-88.5 -132.5t-27 -181q0 -179 79 -270q79 -93 195 -93
q80 0 148 34q68 35 93 83l13 60h13z" />
    <glyph glyph-name="afii10036" unicode="&#x422;" horiz-adv-x="667" 
d="M10 562l9 161h627l11 -161h-12l-9 77q-42 72 -203 72q-58 0 -58 -33v-612q0 -32 13 -43t54 -11h33v-12h-285v12h35q38 0 51.5 11.5t13.5 42.5v611q0 17 -12 25.5t-45 8.5q-86 0 -132.5 -15.5t-68.5 -56.5v1l-10 -78h-12z" />
    <glyph glyph-name="afii10037" unicode="&#x423;" horiz-adv-x="751" 
d="M751 723v-12h-28q-37 -14 -66 -65q-33 -57 -113 -240q-40 -91 -58 -130q-75 -160 -120 -222q-50 -68 -117 -68q-117 0 -117 88q0 26 14.5 40.5t39.5 14.5q23 0 36.5 -12t13.5 -34q0 -6 -5.5 -21t-5.5 -20q0 -14 10.5 -23t25.5 -9q54 0 94 52q9 12 21.5 33t21 37t7.5 16
l-284 507q-35 56 -91 56h-15v12h273v-12h-38q-39 0 -39 -25q0 -12 6 -23l234 -430q15 29 81 177q43 97 70 167q31 81 31 101q0 33 -38 33h-40v12h196z" />
    <glyph glyph-name="afii10038" unicode="&#x424;" horiz-adv-x="975" 
d="M935 358q0 -99 -64 -174q-75 -88 -255 -88q-56 0 -86 3v-31q0 -36 12 -46t54 -10h34v-12h-285v12h34q40 0 53 11.5t13 44.5v31q-31 -3 -85 -3q-88 0 -154.5 23.5t-101.5 64.5q-64 75 -64 174q0 40 9 76t32 72t58.5 62t92 42t129.5 16q49 0 84 -5v38q0 31 -13 41.5
t-53 10.5h-34v12h285v-12h-34q-36 0 -51 -12t-15 -40v-38q37 5 92 5q176 0 248 -87q65 -78 65 -181zM842 360q0 130 -60.5 192t-190.5 62q-31 0 -61 -6v-496q31 -4 52 -4q53 0 97.5 12.5t82 40.5t59 78.5t21.5 120.5zM445 112v496q-27 6 -66 6q-126 0 -186 -62.5t-60 -191.5
q0 -134 74 -193t187 -59q31 0 51 4z" />
    <glyph glyph-name="afii10039" unicode="&#x425;" horiz-adv-x="781" 
d="M766 12v-12h-296v12h39q47 0 47 24q0 9 -16 34l-175 262q-1 0 -50 -60q-159 -195 -159 -232q0 -28 33 -28h49v-12h-223v12h38q56 35 169 167l134 166l-185 276q-36 51 -59 69q-25 19 -73 21v12h283v-12h-56q-27 0 -27 -23q0 -14 18 -39l156 -238q28 35 80 108
q57 79 78 114q22 37 22 52t-11.5 20.5t-37.5 5.5h-40v12h228v-12h-30q-68 -26 -150 -136l-131 -176l193 -286q68 -101 140 -101h12z" />
    <glyph glyph-name="afii10040" unicode="&#x426;" horiz-adv-x="815" 
d="M805 12v-176h-12v46q0 118 -214 118h-533v12h34q66 0 66 54v591q0 28 -14 41t-52 13h-34v12h285v-12h-37q-38 0 -50.5 -11.5t-12.5 -42.5v-591q0 -32 12.5 -43t51.5 -11h230q38 0 52 12.5t14 41.5v591q0 31 -14.5 42.5t-51.5 11.5h-34v12h285v-12h-34q-39 0 -52.5 -11.5
t-13.5 -42.5v-581q1 -28 8.5 -39t33.5 -17t87 -8z" />
    <glyph glyph-name="afii10041" unicode="&#x427;" horiz-adv-x="748" 
d="M702 12v-12h-291v12h42q37 0 50.5 12.5t13.5 41.5v285q-113 -73 -243 -73q-90 0 -126 48q-37 47 -37 117v214q0 33 -13 43.5t-53 10.5h-35v12h281v-12h-31q-38 0 -51 -11.5t-13 -42.5v-227q0 -128 116 -128q98 0 205 65v290q0 31 -13.5 42.5t-50.5 11.5h-31v12h280v-12
h-36q-39 0 -51.5 -11t-12.5 -43v-591q0 -30 13 -42t51 -12h36z" />
    <glyph glyph-name="afii10042" unicode="&#x428;" horiz-adv-x="1173" 
d="M1127 12v-12h-1081v12h35q37 0 51 12t14 44v589q0 32 -14 43t-51 11h-35v12h280v-12h-31q-39 0 -51.5 -11t-12.5 -43v-591q0 -30 15 -42t49 -12h183q38 0 52 12t14 42v591q0 30 -14.5 42t-50.5 12h-30v12h275v-12h-29q-39 0 -52.5 -11.5t-13.5 -42.5v-591
q0 -31 13.5 -42.5t52.5 -11.5h182q65 0 65 54v591q0 54 -66 54h-29v12h280v-12h-34q-36 0 -51 -12.5t-15 -41.5v-591q0 -33 13 -43.5t53 -10.5h34z" />
    <glyph glyph-name="afii10043" unicode="&#x429;" horiz-adv-x="1166" 
d="M1156 12v-176h-12v46q0 118 -214 118h-884v12h35q37 0 51 12t14 44v589q0 32 -14 43t-51 11h-35v12h280v-12h-31q-39 0 -51.5 -11t-12.5 -43v-591q0 -30 15 -42t49 -12h183q38 0 52 12t14 42v591q0 30 -14.5 42t-50.5 12h-30v12h275v-12h-29q-39 0 -52.5 -11.5
t-13.5 -42.5v-591q0 -31 13.5 -42.5t52.5 -11.5h182q65 0 65 54v591q0 54 -66 54h-29v12h280v-12h-34q-36 0 -51 -12.5t-15 -41.5v-581q1 -28 8.5 -39t33.5 -17t87 -8z" />
    <glyph glyph-name="afii10044" unicode="&#x42a;" horiz-adv-x="836" 
d="M10 562l8 161h443v-12h-36q-36 0 -49.5 -12t-13.5 -42v-239q78 26 155 26q151 0 215 -60t64 -154q0 -89 -61 -156q-71 -79 -233 -79q-20 0 -75 3q-61 3 -80 2h-172v12h36q34 0 49.5 12.5t15.5 41.5v601q0 44 -57 44q-81 0 -122.5 -15t-64.5 -57v1l-10 -78h-12zM703 226
q0 206 -201 206q-76 0 -140 -27v-370q52 -28 136 -28q90 0 148 60q57 59 57 159z" />
    <glyph glyph-name="afii10045" unicode="&#x42b;" horiz-adv-x="1025" 
d="M979 12v-12h-284v12h35q36 0 50.5 11.5t14.5 42.5v591q0 29 -14.5 41.5t-50.5 12.5h-35v12h284v-12h-36q-40 0 -51.5 -11t-11.5 -43v-591q0 -32 12.5 -43t50.5 -11h36zM231 657v-239q76 26 148 26q151 0 215 -60t64 -154q0 -89 -61 -156q-71 -79 -234 -79q-19 0 -74 3
q-60 3 -78 2h-165v12h34q66 0 66 54v591q0 29 -15 41.5t-51 12.5h-33v12h284v-12h-36q-36 0 -50 -12t-14 -42zM565 226q0 206 -203 206q-66 0 -131 -27v-370q52 -28 128 -28q90 0 148 60q58 58 58 159z" />
    <glyph glyph-name="afii10046" unicode="&#x42c;" horiz-adv-x="706" 
d="M231 657v-239q76 26 155 26q152 0 216 -60t64 -154q0 -88 -62 -156q-71 -79 -235 -79q-19 0 -74 3q-61 3 -80 2h-169v12h35q65 0 65 54v591q0 30 -14.5 42t-50.5 12h-35v12h285v-12h-37q-36 0 -49.5 -12t-13.5 -42zM573 226q0 206 -204 206q-73 0 -138 -27v-370
q52 -28 134 -28q91 0 150 60q58 58 58 159z" />
    <glyph glyph-name="afii10047" unicode="&#x42d;" horiz-adv-x="741" 
d="M682 389q0 -196 -96 -299.5t-272 -103.5q-115 0 -188 43q-75 43 -75 102q0 31 16.5 46.5t42.5 15.5q23 0 36.5 -14t13.5 -33q0 -11 -10 -34.5t-10 -32.5q0 -37 57 -59q54 -22 117 -22q275 0 275 372h-113q-164 0 -267 -16v44q125 -16 267 -16h113v21q0 83 -28 158
q-15 43 -43 82q-29 37 -76 60.5t-104 23.5q-79 0 -147 -41q-67 -40 -93 -98l-3 -22q-3 -22 -3 -25h-12l12 182h12l-1 -37q54 26 121 40q64 13 114 13q108 0 189 -48.5t119 -128.5q36 -78 36 -173z" />
    <glyph glyph-name="afii10048" unicode="&#x42e;" horiz-adv-x="1199" 
d="M1140 363q2 -73 -28.5 -151t-90.5 -136q-95 -90 -259 -90q-120 1 -201.5 49t-122.5 128q-51 92 -53 206h-154v-303q0 -32 13 -43t49 -11h38v-12h-285v12h36q38 0 51 11t13 43v591q0 30 -14 42t-50 12h-36v12h285v-12h-38q-36 0 -49 -11t-13 -43v-276h155q6 137 94 243
q44 54 117.5 84.5t164.5 30.5q80 0 145.5 -23t108 -60t71 -87t41 -101t12.5 -105zM1047 363q0 161 -75 263q-77 101 -210 101q-135 0 -209 -98q-75 -97 -75 -266q0 -209 128 -312q67 -53 156 -53q69 0 124.5 30.5t90 82.5t52.5 116.5t18 135.5z" />
    <glyph glyph-name="afii10049" unicode="&#x42f;" horiz-adv-x="752" 
d="M706 12v-12h-285v12h36q40 0 52 11t12 43v298q-94 1 -152.5 -47t-102.5 -151q-39 -92 -80.5 -136t-98.5 -44q-76 0 -82 85h12q6 -61 39 -61q20 0 36.5 20.5t40.5 77.5q25 56 37 77q64 114 199 163h-23q-107 2 -178 53q-72 51 -72 149q0 65 49 119q58 65 212 65
q31 0 108 -6q80 -6 110 -5h131v-12h-37q-37 0 -50 -11.5t-13 -42.5v-591q0 -30 13 -42t50 -12h37zM521 376v320q-60 26 -129 26q-86 0 -145 -45q-58 -45 -58 -130q0 -87 49.5 -134t144.5 -47q35 0 75 3q48 5 63 7z" />
    <glyph glyph-name="afii10065" unicode="&#x430;" horiz-adv-x="484" 
d="M429 13q13 0 23.5 14t14.5 38h12q-10 -76 -74 -76q-76 0 -76 103q-99 -103 -190 -103q-56 0 -86.5 28t-30.5 74q0 95 138 150q67 26 143 37l26 4v51q0 78 -28 113t-97 35q-34 0 -58 -13t-24 -36q0 -6 4.5 -20t4.5 -20q0 -38 -42 -38q-17 0 -27.5 11.5t-10.5 30.5
q0 40 46 68q46 29 113 29q188 0 188 -160v-265q0 -55 31 -55zM329 108v162q-96 -17 -157 -52q-69 -38 -69 -114q0 -41 21 -62t58 -21q34 0 77 28q40 26 70 59z" />
    <glyph glyph-name="afii10066" unicode="&#x431;" horiz-adv-x="527" 
d="M502 252q0 -65 -23 -117t-60 -83t-79 -47t-83 -16q-83 0 -154 68q-36 34 -57 92.5t-21 131.5q0 113 16 176q15 65 54 113q35 42 88 72.5t145 65.5q63 26 81.5 40.5t20.5 31.5h13q5 -65 -32 -97q-15 -14 -36 -24q-34 -16 -48 -21q-13 -5 -28 -10q-7 -3 -34 -13
q-9 -4 -21.5 -8.5t-15.5 -5.5q-110 -40 -151 -120q-29 -59 -33 -151h3q17 49 48.5 85t66.5 52q58 26 99 26q118 0 179 -67q62 -68 62 -174zM421 252q0 166 -88 212q-33 17 -71 17q-44 0 -77 -23.5t-49 -63.5q-30 -74 -30 -154q0 -28 6 -80q5 -32 15 -56q16 -44 50.5 -75
t86.5 -28q157 0 157 251z" />
    <glyph glyph-name="afii10067" unicode="&#x432;" horiz-adv-x="502" 
d="M454 378q0 -46 -34.5 -77t-86.5 -40q64 -7 102.5 -41t38.5 -88t-49 -93t-130 -39h-280v12h32q31 0 39.5 7t8.5 36v371q0 25 -9.5 34t-38.5 9h-32v12h263q176 0 176 -103zM379 376q0 61 -52 79q-39 14 -77 14q-86 0 -86 -45v-158h93q64 0 93 26t29 84zM393 133
q0 121 -140 121h-89v-200q0 -25 15.5 -33.5t55.5 -8.5q41 0 75 9q24 6 41 18q42 30 42 94z" />
    <glyph glyph-name="afii10068" unicode="&#x433;" horiz-adv-x="414" 
d="M208 469q-44 0 -44 -37v-377q0 -25 10 -34t39 -9h31v-12h-229v12h33q29 0 38 9t9 34v371q0 26 -9 34.5t-38 8.5h-33v12h387l7 -117h-12l-4 51q-46 54 -185 54z" />
    <glyph glyph-name="afii10069" unicode="&#x434;" horiz-adv-x="532" 
d="M522 12v-143h-12v34q0 97 -145 97h-198q-145 0 -145 -97v-34h-12v143h36q52 0 92 105q18 48 30 127q15 106 15 158q1 31 -10 47.5t-47 19.5h-22v12h413v-12h-31q-29 0 -39 -9t-10 -33v-373q0 -22 10 -32t35 -10h40zM368 48v386q0 35 -49 35h-44q-39 0 -55 -17t-21 -67
q-10 -110 -16 -146q-17 -89 -34 -134q-24 -65 -57 -93h234q12 0 18 0.5t12.5 4t9 11t2.5 20.5z" />
    <glyph glyph-name="afii10070" unicode="&#x435;" horiz-adv-x="465" 
d="M248 493q92 0 141 -63t51 -149h-334q0 -166 53 -222q43 -46 104 -46q99 0 162 99l10 -7q-68 -116 -191 -116q-76 0 -142 52q-77 59 -77 197q0 118 59.5 186.5t163.5 68.5zM106 293h257q0 81 -31 134q-32 54 -91 54q-120 0 -135 -188z" />
    <glyph glyph-name="afii10072" unicode="&#x436;" horiz-adv-x="783" 
d="M114 476q-10 0 -10 -11q0 -2 2.5 -11t2.5 -13q0 -14 -10 -22.5t-25 -8.5q-17 0 -27 12t-10 28q0 19 14 31t37 12q22 0 36 -6q30 -12 49 -56q8 -19 15 -40q44 -125 115 -125h54v161q0 29 -8 36t-41 7h-31v11h229v-11h-32q-31 0 -39.5 -7t-8.5 -36v-161h54q71 0 115 125
q18 49 35 72q14 19 29 24q21 14 55.5 2.5t31.5 -39.5q0 -16 -10 -28t-27 -12q-15 0 -25 8.5t-10 22.5q0 4 2.5 13t2.5 11q0 11 -10 11q-27 0 -59 -86q-23 -62 -50 -96q-19 -24 -43 -35q38 -9 73 -35q54 -40 91 -138q15 -39 27 -56t27 -17q27 0 31 52h12q-6 -76 -66 -76
q-70 0 -123 117l-31 72q-19 47 -58 69q-13 7 -43 7h-31v-199q0 -24 10.5 -33.5t37.5 -9.5h32v-12h-229v12h31q29 0 39 9.5t10 33.5v199h-31q-30 0 -43 -7q-39 -22 -58 -69l-31 -72q-52 -117 -123 -117q-60 0 -66 76h12q4 -52 31 -52q15 0 27 17t27 56q37 98 91 138
q35 26 73 35q-42 17 -71 78q-8 18 -22 53q-32 86 -59 86z" />
    <glyph glyph-name="afii10073" unicode="&#x437;" horiz-adv-x="440" 
d="M394 380q0 -47 -30.5 -76.5t-84.5 -38.5q58 -10 95.5 -43t37.5 -84q0 -46 -24.5 -79t-65.5 -47q-63 -23 -112 -23q-94 0 -143.5 27.5t-49.5 68.5q-2 37 31 44q28 7 43 -13q8 -10 6 -24q0 -6 -4.5 -22t-4.5 -22q0 -20 28.5 -33.5t78.5 -13.5q66 0 101 39.5t35 100.5
q0 116 -126 116q-28 0 -53 -4v19q22 -3 61 -3q33 0 48 9q52 24 52 98q0 54 -27.5 79.5t-72.5 25.5q-55 0 -99 -36q-45 -39 -52 -77v-7h-12l6 120h12l-1 -23q84 35 146 35q86 0 133.5 -30.5t47.5 -82.5z" />
    <glyph glyph-name="afii10074" unicode="&#x438;" horiz-adv-x="578" 
d="M563 12v-12h-219v12h21q29 0 39 9.5t10 33.5v334l-250 -314v-20q0 -24 10 -33.5t37 -9.5h23v-12h-219v12h31q28 0 38.5 9.5t10.5 33.5v371q0 25 -10 34t-39 9h-31v12h219v-12h-23q-28 0 -37.5 -9t-9.5 -34v-328l250 314v14q0 25 -9.5 34t-38.5 9h-22v12h219v-12h-31
q-29 0 -39 -9.5t-10 -33.5v-371q0 -24 10.5 -33.5t37.5 -9.5h32z" />
    <glyph glyph-name="afii10075" unicode="&#x439;" horiz-adv-x="578" 
d="M563 12v-12h-219v12h21q29 0 39 9.5t10 33.5v334l-250 -314v-20q0 -24 10 -33.5t37 -9.5h23v-12h-219v12h31q28 0 38.5 9.5t10.5 33.5v371q0 25 -10 34t-39 9h-31v12h219v-12h-23q-28 0 -37.5 -9t-9.5 -34v-328l250 314v14q0 25 -9.5 34t-38.5 9h-22v12h219v-12h-31
q-29 0 -39 -9.5t-10 -33.5v-371q0 -24 10.5 -33.5t37.5 -9.5h32zM444 667q0 -44 -42 -80q-41 -37 -113 -37t-113 37q-42 36 -42 80q0 20 13.5 33t32.5 13q16 0 26 -10t10 -24q0 -17 -12 -32q-15 -19 -15 -30q0 -25 26.5 -40t73.5 -15t73.5 15t26.5 40q0 11 -9 24
q-23 34 -15 51.5t35 20.5q19 0 31.5 -12.5t12.5 -33.5z" />
    <glyph glyph-name="afii10076" unicode="&#x43a;" horiz-adv-x="535" 
d="M421 476q-27 0 -59 -86q-23 -62 -50 -96q-19 -24 -43 -35q38 -9 73 -35q54 -40 91 -138q15 -39 27 -56t27 -17q27 0 31 52h12q-6 -76 -66 -76q-70 0 -123 117q-12 26 -17 40q-9 23 -14 32q-19 47 -58 69q-13 7 -43 7h-45v-199q0 -24 10.5 -33.5t37.5 -9.5h32v-12h-229v12
h31q29 0 39 9.5t10 33.5v372q0 29 -8 36t-41 7h-31v11h229v-11h-32q-31 0 -39.5 -7t-8.5 -36v-161h68q71 0 115 125q18 49 35 72q14 19 29 24q21 14 55.5 2.5t31.5 -39.5q0 -16 -10 -28t-27 -12q-15 0 -25 8.5t-10 22.5q0 4 2.5 13t2.5 11q0 11 -10 11z" />
    <glyph glyph-name="afii10077" unicode="&#x43b;" horiz-adv-x="529" 
d="M514 12v-12h-230v12h32q30 0 39 8.5t9 33.5v377q0 22 -8.5 30t-26.5 8h-65q-27 0 -38.5 -16t-15.5 -55q-2 -10 -6 -66q-5 -58 -9 -88q-12 -87 -20 -120q-17 -71 -45 -102t-70 -31q-34 0 -52 17t-18 42q0 21 12 33t30 12q24 0 32 -21q2 -10 2 -33q0 -27 24 -27
q22 0 43 35.5t33 93.5q6 35 14 95q11 83 11 170q0 61 -58 61h-22v12h403v-12h-34q-29 0 -38 -8.5t-9 -33.5v-372q0 -24 10.5 -33.5t37.5 -9.5h33z" />
    <glyph glyph-name="afii10078" unicode="&#x43c;" horiz-adv-x="650" 
d="M635 12v-12h-229v12h32q29 0 38.5 8.5t9.5 34.5v382l-182 -353h-12l-181 353v-132q-1 -59 -1 -134q0 -114 35 -159h38v-12h-166v12h37q39 51 40 159q0 13 2 127q1 83 3 128q0 24 -9.5 33.5t-36.5 9.5h-38v12h150l162 -320q113 212 165 320h143v-12h-33q-29 0 -38 -9
t-9 -34v-371q0 -26 9 -34.5t38 -8.5h33z" />
    <glyph glyph-name="afii10079" unicode="&#x43d;" horiz-adv-x="573" 
d="M558 12v-12h-219v12h23q29 0 38 8.5t9 34.5v199h-245v-199q0 -26 9 -34.5t38 -8.5h23v-12h-219v12h31q30 0 39.5 9t9.5 34v371q0 26 -9.5 34.5t-39.5 8.5h-31v12h219v-12h-23q-29 0 -38 -8.5t-9 -34.5v-160h245v160q0 27 -8.5 35t-38.5 8h-23v12h219v-12h-32
q-29 0 -38.5 -8.5t-9.5 -34.5v-371q0 -25 10 -34t38 -9h32z" />
    <glyph glyph-name="afii10080" unicode="&#x43e;" 
d="M503 240q0 -113 -67 -181q-67 -70 -172 -70q-104 0 -171 69q-68 70 -68 182q0 121 65 187t174 66q111 0 175 -64.5t64 -188.5zM422 240q0 123 -43 182t-115 59t-115 -59t-43 -182q0 -121 43 -180t115 -59t115 59t43 180z" />
    <glyph glyph-name="afii10081" unicode="&#x43f;" horiz-adv-x="568" 
d="M553 12v-12h-219v12h22q31 0 39.5 7t8.5 36v371q0 29 -8.5 36t-40.5 7h-144q-31 0 -39 -7t-8 -36v-371q0 -29 8 -36t39 -7h23v-12h-219v12h31q33 0 41 7t8 36v371q0 29 -8 36t-41 7h-31v12h538v-12h-33q-31 0 -39 -7t-8 -36v-371q0 -29 8 -36t39 -7h33z" />
    <glyph glyph-name="afii10082" unicode="&#x440;" horiz-adv-x="560" 
d="M454 239q0 230 -166 230q-54 0 -124 -53v-378q41 -25 112 -25q80 0 129 60.5t49 165.5zM95 -167v571q0 26 -13 33q-12 5 -67 7v12q70 5 149 39v-65q70 63 148 63q40 0 77 -12.5t71 -40t54.5 -78.5t20.5 -120q0 -108 -63 -180q-63 -71 -173 -73q-78 0 -135 36v-192
q0 -27 8.5 -35t38.5 -8h33v-12h-229v12h31q30 0 39.5 8.5t9.5 34.5z" />
    <glyph glyph-name="afii10083" unicode="&#x441;" horiz-adv-x="450" 
d="M269 13q50 0 93 29.5t67 85.5l11 -5q-59 -134 -188 -134q-98 0 -162 67q-65 67 -65 180q0 106 62 182q62 75 179 75q68 0 109.5 -24t41.5 -61q0 -23 -11.5 -36t-30.5 -13q-42 0 -42 44q0 3 1.5 16.5t1.5 18.5q0 19 -20 31t-54 12q-72 0 -114 -59.5t-42 -185.5
q0 -108 44.5 -165.5t118.5 -57.5z" />
    <glyph glyph-name="afii10084" unicode="&#x442;" horiz-adv-x="449" 
d="M259 437v-382q0 -29 8.5 -36t39.5 -7h32v-12h-230v12h35q31 0 38.5 7t7.5 36v382q0 32 -34 32q-94 0 -134 -51l-5 -54h-12l5 117h429l5 -117h-12l-6 54q-38 51 -133 51q-34 0 -34 -32z" />
    <glyph glyph-name="afii10085" unicode="&#x443;" horiz-adv-x="535" 
d="M535 481v-12h-10q-33 0 -51 -34q-9 -16 -37 -87l-74 -200l-82 -205q-39 -96 -69 -132q-37 -43 -90 -43q-36 0 -58 17.5t-22 46.5q-1 33 31 41q30 8 45 -13q7 -9 6 -22l-1 -22q-1 -12 6.5 -18t22.5 -6q25 0 49 29q46 60 79 162l-200 444q-7 14 -12 21t-18 13t-36 8h-14v12
h219v-12h-32q-34 0 -34 -26q0 -8 6 -22l158 -358q121 327 121 363q0 43 -37 43h-28v12h162z" />
    <glyph glyph-name="afii10086" unicode="&#x444;" horiz-adv-x="771" 
d="M420 786v-333q47 40 107 40q100 0 159.5 -68.5t59.5 -190.5q0 -104 -54 -174q-56 -71 -145 -71q-75 0 -127 39v-196q0 -23 10 -32.5t39 -9.5h31v-12h-229v12h32q30 0 39 8.5t9 32.5v197q-53 -39 -126 -39q-89 0 -145 71q-55 70 -55 174q0 122 59.5 190.5t159.5 68.5
q64 0 107 -40v244q0 24 -14 31t-66 8v12q94 8 149 38zM351 40v399q-47 38 -107 38q-39 0 -68 -22t-44 -60q-26 -68 -26 -156q0 -226 156 -226q47 0 89 27zM420 439v-399q42 -27 89 -27q156 0 156 226q0 84 -25 155q-14 39 -43 61t-70 22q-60 0 -107 -38z" />
    <glyph glyph-name="afii10087" unicode="&#x445;" horiz-adv-x="550" 
d="M545 12v-12h-246v12h38q38 0 38 26q0 11 -11 28l-109 154q-3 -4 -20 -24.5t-21 -27.5l-53 -70q-26 -38 -26 -55q0 -31 53 -31h15v-12h-198v12h23q35 0 94 66l35 41q7 7 91 111l-137 184q-20 28 -37 39.5t-55 15.5v12h226v-12h-40q-27 0 -27 -18q0 -7 11 -26l102 -145
q111 135 111 165q0 24 -32 24h-30v12h176v-12h-13q-23 0 -47 -19.5t-67 -68.5l-91 -110l155 -214q29 -42 92 -45z" />
    <glyph glyph-name="afii10088" unicode="&#x446;" horiz-adv-x="568" 
d="M402 0h-387v12h31q30 0 39.5 8.5t9.5 34.5v371q0 26 -9.5 34.5t-39.5 8.5h-31v12h219v-12h-22q-30 0 -39 -8t-9 -35v-371q0 -29 8 -36t39 -7h145q30 0 39 8.5t9 34.5v371q0 27 -8.5 35t-38.5 8h-23v12h219v-12h-33q-29 0 -38 -9t-9 -34v-371q0 -25 10.5 -34t40.5 -9h34
v-143h-12v34q0 47 -33 72t-111 25z" />
    <glyph glyph-name="afii10089" unicode="&#x447;" horiz-adv-x="532" 
d="M517 12v-12h-229v12h32q29 0 38.5 9t9.5 34v189q-82 -45 -172 -45q-77 0 -99 49q-17 38 -17 71v107q0 26 -10 34.5t-39 8.5h-31v12h214v-12h-18q-29 0 -38 -9t-9 -34v-107q0 -96 80 -96q71 0 139 33v170q0 27 -8.5 35t-38.5 8h-18v12h214v-12h-31q-34 0 -41.5 -6.5
t-7.5 -36.5v-371q0 -24 10 -33.5t39 -9.5h31z" />
    <glyph glyph-name="afii10090" unicode="&#x448;" horiz-adv-x="823" 
d="M808 12v-12h-793v12h32q29 0 38.5 9t9.5 34v371q0 26 -9 34.5t-39 8.5h-32v12h219v-12h-22q-30 0 -39 -8.5t-9 -34.5v-371q0 -26 9 -34.5t38 -8.5h118q29 0 38.5 9t9.5 34v371q0 25 -9.5 34t-38.5 9h-22v12h209v-12h-24q-28 0 -37 -8.5t-9 -34.5v-371q0 -25 9.5 -34
t36.5 -9h120q29 0 38 8.5t9 34.5v371q0 27 -8.5 35t-38.5 8h-23v12h219v-12h-33q-28 0 -37.5 -9t-9.5 -34v-371q0 -26 9 -34.5t37 -8.5h34z" />
    <glyph glyph-name="afii10091" unicode="&#x449;" horiz-adv-x="823" 
d="M728 426v-371q0 -25 10.5 -34t40.5 -9h34v-143h-12v34q0 48 -33 72.5t-111 24.5h-642v12h32q29 0 38.5 9t9.5 34v371q0 26 -9 34.5t-39 8.5h-32v12h219v-12h-22q-30 0 -39 -8.5t-9 -34.5v-371q0 -26 9 -34.5t38 -8.5h120q27 0 36.5 9t9.5 34v371q0 25 -9.5 34t-36.5 9
h-24v12h209v-12h-23q-29 0 -38 -8.5t-9 -34.5v-371q0 -26 9 -34.5t38 -8.5h119q29 0 38 8.5t9 34.5v371q0 27 -8.5 35t-38.5 8h-23v12h219v-12h-33q-28 0 -37.5 -9t-9.5 -34z" />
    <glyph glyph-name="afii10092" unicode="&#x44a;" horiz-adv-x="565" 
d="M238 426v-131q48 13 110 13q97 0 146 -47q48 -48 48 -107q0 -65 -48 -113q-48 -49 -149 -49q-23 0 -64 3q-83 5 -192 5v12h33q26 0 36.5 9t10.5 34v386q0 28 -33 28q-76 0 -114 -50q0 -4 -1.5 -16.5t-2.5 -23t-1 -15.5h-12l5 117h308v-12h-32q-27 0 -37.5 -9.5
t-10.5 -33.5zM461 154q0 47 -23 90q-28 52 -116 52q-46 0 -84 -13v-257q41 -22 90 -22q63 0 98 40t35 110z" />
    <glyph glyph-name="afii10093" unicode="&#x44b;" horiz-adv-x="716" 
d="M701 12v-12h-229v12h33q29 0 38 8.5t9 33.5v372q0 25 -9.5 34t-37.5 9h-33v12h229v-12h-33q-27 0 -37 -9.5t-10 -33.5v-372q0 -24 9.5 -33t37.5 -9h33zM164 426v-131q43 13 106 13q96 0 143 -47q46 -47 46 -107q0 -67 -46 -114q-47 -48 -147 -48q-29 0 -73 4
q-49 4 -178 4v12h33q26 0 36.5 9t10.5 34v371q0 25 -10 34t-37 9h-33v12h229v-12h-32q-27 0 -37.5 -9.5t-10.5 -33.5zM378 154q0 142 -136 142q-42 0 -78 -13v-257q40 -22 85 -22q62 0 95.5 39.5t33.5 110.5z" />
    <glyph glyph-name="afii10094" unicode="&#x44c;" horiz-adv-x="491" 
d="M164 426v-131q48 13 110 13q97 0 146 -47q48 -48 48 -107q0 -65 -48 -113q-48 -49 -149 -49q-23 0 -64 3q-83 5 -192 5v12h33q26 0 36.5 9t10.5 34v371q0 25 -10 34t-37 9h-33v12h229v-12h-32q-27 0 -37.5 -9.5t-10.5 -33.5zM387 154q0 47 -23 90q-28 52 -116 52
q-46 0 -84 -13v-257q41 -22 90 -22q63 0 98 40t35 110z" />
    <glyph glyph-name="afii10095" unicode="&#x44d;" horiz-adv-x="452" 
d="M427 256q0 -129 -65.5 -198t-176.5 -69q-73 0 -118.5 27.5t-45.5 71.5q0 20 11 31.5t29 11.5q38 0 38 -39q0 -4 -4.5 -20.5t-4.5 -22.5q0 -21 32 -35q30 -13 63 -13q111 0 144 113q17 61 17 144q-9 1 -55 1q-112 0 -182 -14v34q50 -10 155 -10q61 0 82 1q0 211 -142 211
q-69 0 -111 -42q-43 -43 -43 -72v-6h-12l6 120h12l-1 -27q26 16 68 27.5t79 11.5q104 0 164.5 -64.5t60.5 -172.5z" />
    <glyph glyph-name="afii10096" unicode="&#x44e;" horiz-adv-x="775" 
d="M684 425q66 -67 66 -185q0 -116 -66 -184q-67 -67 -172 -67q-63 0 -111 23t-74.5 61.5t-39.5 82t-13 91.5v14h-110v-206q0 -25 9.5 -34t39.5 -9h31v-12h-229v12h32q29 0 38.5 9t9.5 34v371q0 27 -9 35t-39 8h-32v12h229v-12h-31q-30 0 -39.5 -8t-9.5 -35v-153h111
q11 92 71 155q62 65 166 65t172 -68zM625 57q44 56 44 183t-44 185q-45 56 -113 56t-112 -56q-45 -57 -45 -185t45 -183q44 -56 112 -56t113 56z" />
    <glyph glyph-name="afii10097" unicode="&#x44f;" horiz-adv-x="546" 
d="M531 12v-12h-230v12h34q26 0 36 9.5t10 33.5v177h-24q-64 0 -93 -23t-65 -90q-39 -70 -64 -95q-27 -28 -71 -28q-59 0 -59 69h12q5 -45 26 -45q12 0 25 16.5t33 60.5q22 48 50 76q41 39 100 59q-88 4 -132.5 37.5t-44.5 89.5q0 54 47 89.5t138 35.5q27 0 55 -1
q54 -2 62 -2h155v-12h-31q-30 0 -39.5 -9t-9.5 -34v-371q0 -25 9.5 -34t39.5 -9h31zM381 250v194q-32 28 -91 28q-63 0 -99 -30.5t-36 -86.5q0 -17 4.5 -33.5t17.5 -36t42.5 -31.5t72.5 -12q62 0 89 8z" />
    <glyph glyph-name="afii10071" unicode="&#x451;" horiz-adv-x="465" 
d="M248 493q92 0 141 -63t51 -149h-334q0 -166 53 -222q43 -46 104 -46q99 0 162 99l10 -7q-68 -116 -191 -116q-76 0 -142 52q-77 59 -77 197q0 118 59.5 186.5t163.5 68.5zM106 293h257q0 81 -31 134q-32 54 -91 54q-120 0 -135 -188zM195 637q0 -21 -14.5 -35.5
t-35.5 -14.5t-35.5 14.5t-14.5 35.5t14 35.5t36 14.5q23 0 36.5 -14t13.5 -36zM388 637q0 -21 -14.5 -35.5t-35.5 -14.5t-35.5 14.5t-14.5 35.5t14 35.5t36 14.5q23 0 36.5 -14t13.5 -36z" />
    <glyph glyph-name="afii10099" unicode="&#x452;" horiz-adv-x="484" 
d="M405 599h-241v-177q28 26 58.5 42.5t45.5 17.5q8 1 34 1q85 0 126 -74q41 -76 41 -194q0 -155 -48 -293q-26 -71 -70.5 -112.5t-102.5 -41.5q-35 0 -58.5 18t-23.5 44q0 45 42 45q28 0 37 -17q7 -9 5 -42q-1 -13 8 -18.5t24 -5.5q60 0 86 86q32 102 32 352
q0 122 -31.5 175.5t-94.5 53.5q-48 0 -110 -52v-352q0 -29 8 -36t41 -7h31v-12h-229v12h32q31 0 39.5 7t8.5 36v544h-71v16h71v81q0 25 -13 32q-12 6 -67 8v12q71 3 149 38v-171h241v-16z" />
    <glyph glyph-name="afii10100" unicode="&#x453;" horiz-adv-x="414" 
d="M208 469q-44 0 -44 -37v-377q0 -25 10 -34t39 -9h31v-12h-229v12h33q29 0 38 9t9 34v371q0 26 -9 34.5t-38 8.5h-33v12h387l7 -117h-12l-4 51q-46 54 -185 54zM398 698q0 -19 -42 -46l-149 -90h-24l133 131q34 33 56 33q26 0 26 -28z" />
    <glyph glyph-name="afii10101" unicode="&#x454;" horiz-adv-x="450" 
d="M253 481q-55 0 -98 -54q-45 -55 -49 -168h43q106 0 156 10v-34q-70 14 -183 14h-16v-14q0 -108 44.5 -165t118.5 -57q52 0 94 29t66 87l11 -5q-52 -135 -188 -135q-98 0 -162 66q-65 67 -65 180q0 107 62 183q61 75 168 75q79 0 148 -39l-1 27h12l5 -120h-12v6
q0 27 -45 71q-46 43 -109 43z" />
    <glyph glyph-name="afii10102" unicode="&#x455;" horiz-adv-x="415" 
d="M375 127q0 -62 -43 -100t-122 -38q-72 0 -153 39v-28h-12l-5 130h12q15 -54 63 -92q47 -37 100 -37q43 0 71 28.5t28 68.5q0 33 -21.5 56t-64.5 46l-70 39q-56 31 -79 59.5t-23 69.5q0 63 44 95q44 30 99 30q62 0 135 -38v26h12l5 -131h-12l-1 22q-45 109 -137 109
q-37 0 -59 -22.5t-22 -54.5q0 -50 45 -78q25 -15 71 -37q72 -36 105.5 -72.5t33.5 -89.5z" />
    <glyph glyph-name="afii10103" unicode="&#x456;" horiz-adv-x="259" 
d="M244 12v-12h-229v12h32q29 0 38.5 9t9.5 34v349q0 26 -13 33q-12 5 -67 7v12q77 5 149 39v-440q0 -24 10 -33.5t37 -9.5h33zM179 637q0 -21 -14.5 -35.5t-35.5 -14.5t-35.5 14.5t-14.5 35.5t14 35.5t36 14.5q23 0 36.5 -14t13.5 -36z" />
    <glyph glyph-name="afii10104" unicode="&#x457;" horiz-adv-x="259" 
d="M244 12v-12h-229v12h32q29 0 38.5 9t9.5 34v349q0 26 -13 33q-12 5 -67 7v12q77 5 149 39v-440q0 -24 10 -33.5t37 -9.5h33zM76 637q0 -21 -14.5 -35.5t-35.5 -14.5t-35.5 14.5t-14.5 35.5t14 35.5t36 14.5q23 0 36.5 -14t13.5 -36zM269 637q0 -21 -14.5 -35.5
t-35.5 -14.5t-35.5 14.5t-14.5 35.5t14 35.5t36 14.5q23 0 36.5 -14t13.5 -36z" />
    <glyph glyph-name="afii10105" unicode="&#x458;" horiz-adv-x="280" 
d="M109 -48v452q0 26 -13 33q-12 5 -67 7v12q88 8 149 39v-502q0 -115 -52 -170t-124 -55q-36 0 -59 19t-23 46q0 18 11.5 30t29.5 12t28 -9.5t10 -25.5q0 -3 -2 -14.5t-2 -13.5q0 -32 27 -32q87 0 87 172zM192 637q0 -21 -14.5 -35.5t-35.5 -14.5t-35.5 14.5t-14.5 35.5
t14 35.5t36 14.5q23 0 36.5 -14t13.5 -36z" />
    <glyph glyph-name="afii10106" unicode="&#x459;" horiz-adv-x="763" 
d="M433 426v-131q48 13 110 13q97 0 146 -47q48 -48 48 -107q0 -65 -48 -113q-48 -49 -149 -49q-24 0 -64 3q-83 5 -192 5v12h33q26 0 36.5 9t10.5 34v376q0 22 -8.5 30t-26.5 8h-65q-27 0 -38.5 -16t-15.5 -55q-2 -10 -6 -66q-5 -58 -9 -88q-12 -87 -20 -120
q-17 -71 -45 -102t-70 -31q-34 0 -52 17t-18 42q0 21 12 33t30 12q24 0 32 -21q2 -10 2 -33q0 -27 24 -27q22 0 43 35.5t33 93.5q6 35 14 95q11 83 11 170q0 61 -58 61h-22v12h299v-1l1 1h102v-12h-32q-27 0 -37.5 -9.5t-10.5 -33.5zM656 154q0 47 -23 90q-28 52 -116 52
q-46 0 -84 -13v-257q41 -22 90 -22q63 0 98 40t35 110z" />
    <glyph glyph-name="afii10107" unicode="&#x45a;" horiz-adv-x="808" 
d="M478 426v-131q48 13 110 13q97 0 146 -47q48 -48 48 -107q0 -65 -48 -113q-48 -49 -149 -49q-23 0 -64 3q-83 5 -182 5v12h23q26 0 36.5 9t10.5 34v199h-245v-199q0 -26 9 -34.5t38 -8.5h23v-12h-219v12h31q30 0 39.5 9t9.5 34v371q0 26 -9.5 34.5t-39.5 8.5h-31v12h219
v-12h-23q-29 0 -38 -8.5t-9 -34.5v-160h245v160q0 25 -10 34t-37 9h-23v12h219v-12h-32q-27 0 -37.5 -9.5t-10.5 -33.5zM478 283v-257q41 -22 90 -22q63 0 98 40t35 110q0 47 -23 90q-28 52 -116 52q-46 0 -84 -13z" />
    <glyph glyph-name="afii10108" unicode="&#x45b;" horiz-adv-x="567" 
d="M552 12v-12h-229v12h32q29 0 38.5 9t9.5 34v269q0 99 -40 125q-31 20 -75 20q-52 0 -124 -45v-369q0 -26 9 -34.5t38 -8.5h33v-12h-229v12h31q29 0 39 8.5t10 34.5v544h-73v16h73v82q0 24 -13 31q-12 6 -67 8v12q83 6 149 38v-171h239v-16h-239v-161q79 55 153 55
q115 0 143 -85q12 -40 12 -100v-253q0 -24 10 -33.5t37 -9.5h33z" />
    <glyph glyph-name="afii10109" unicode="&#x45c;" horiz-adv-x="535" 
d="M421 476q-27 0 -59 -86q-23 -62 -50 -96q-19 -24 -43 -35q38 -9 73 -35q54 -40 91 -138q15 -39 27 -56t27 -17q27 0 31 52h12q-6 -76 -66 -76q-70 0 -123 117q-12 26 -17 40q-9 23 -14 32q-19 47 -58 69q-13 7 -43 7h-45v-199q0 -24 10.5 -33.5t37.5 -9.5h32v-12h-229v12
h31q29 0 39 9.5t10 33.5v372q0 29 -8 36t-41 7h-31v11h229v-11h-32q-31 0 -39.5 -7t-8.5 -36v-161h68q71 0 115 125q18 49 35 72q14 19 29 24q21 14 55.5 2.5t31.5 -39.5q0 -16 -10 -28t-27 -12q-15 0 -25 8.5t-10 22.5q0 4 2.5 13t2.5 11q0 11 -10 11zM462 698
q0 -19 -42 -46l-149 -90h-24l133 131q34 33 56 33q26 0 26 -28z" />
    <glyph glyph-name="afii10110" unicode="&#x45e;" horiz-adv-x="535" 
d="M535 481v-12h-10q-33 0 -51 -34q-9 -16 -37 -87l-74 -200l-82 -205q-39 -96 -69 -132q-37 -43 -90 -43q-36 0 -58 17.5t-22 46.5q-1 33 31 41q30 8 45 -13q7 -9 6 -22l-1 -22q-1 -12 6.5 -18t22.5 -6q25 0 49 29q46 60 79 162l-200 444q-7 14 -12 21t-18 13t-36 8h-14v12
h219v-12h-32q-34 0 -34 -26q0 -8 6 -22l158 -358q121 327 121 363q0 43 -37 43h-28v12h162zM441 667q0 -44 -42 -80q-41 -37 -113 -37t-113 37q-42 36 -42 80q0 20 13.5 33t32.5 13q16 0 26 -10t10 -24q0 -17 -12 -32q-15 -19 -15 -30q0 -25 26.5 -40t73.5 -15t73.5 15
t26.5 40q0 11 -9 24q-23 34 -15 51.5t35 20.5q19 0 31.5 -12.5t12.5 -33.5z" />
    <glyph glyph-name="afii10193" unicode="&#x45f;" horiz-adv-x="568" 
d="M15 469v12h219v-12h-22q-31 0 -39.5 -7t-8.5 -36v-371q0 -29 8.5 -36t40.5 -7h144q31 0 39 7t8 36v371q0 29 -8 36t-39 7h-23v12h219v-12h-31q-33 0 -41 -7t-8 -36v-371q0 -29 8 -36t41 -7h31v-12h-198q-65 -20 -65 -148h-13q0 128 -65 148h-197v12h33q31 0 39 7t8 36
v371q0 29 -8 36t-39 7h-33z" />
    <glyph glyph-name="afii10146" unicode="&#x462;" horiz-adv-x="802" 
d="M242 66v545q0 44 -48 44q-70 0 -108 -17t-54 -55l-10 -77h-12l8 161h224v75q0 32 -14 43t-53 11h-33v12h285v-12h-36q-37 0 -50.5 -11t-13.5 -43v-75h307l8 -161h-12l-10 76q-46 73 -237 73q-56 0 -56 -43v-194q80 26 156 26q151 0 216 -60q64 -60 64 -154
q0 -88 -62 -156q-71 -79 -234 -79q-19 0 -75 3q-61 3 -80 2h-170v12h33q67 0 67 54zM670 226q0 206 -203 206q-75 0 -140 -27v-370q55 -28 136 -28q91 0 149 60q58 58 58 159z" />
    <glyph glyph-name="afii10194" unicode="&#x463;" horiz-adv-x="560" 
d="M161 481v216q0 24 -14 31t-66 8v12q77 4 149 38v-305h209l5 -117h-12l-5 54q-19 28 -70 40q-52 11 -91 11q-36 0 -36 -32v-132q51 13 111 13q97 0 145 -50t48 -109q0 -67 -48 -116q-48 -51 -148 -51q-26 0 -66 3q-78 5 -191 5v12h32q27 0 37.5 9.5t10.5 33.5v382
q0 32 -34 32q-67 0 -105 -50q0 -4 -1.5 -16.5t-2.5 -23t-1 -15.5h-12l5 117h151zM453 159q0 51 -23 93q-30 54 -116 54q-41 0 -84 -13v-267q41 -22 90 -22q63 0 98 41.5t35 113.5z" />
    <glyph glyph-name="afii10147" unicode="&#x472;" horiz-adv-x="868" 
d="M567 378q71 0 107 55h14q-19 -42 -63 -74t-91 -32q-49 0 -118 26q-90 35 -127 35q-69 0 -107 -56h-14q20 43 64 74q44 32 90 32q50 0 101 -19q115 -41 144 -41zM809 363q0 -47 -11 -96t-38.5 -100.5t-69 -91t-108 -64.5t-149.5 -25q-121 1 -202.5 50.5t-121.5 129.5
q-50 92 -50 197q0 78 30.5 155.5t92.5 134.5q94 86 251 86q98 0 174 -33t119 -91q83 -113 83 -252zM716 363q0 160 -74 263q-75 101 -209 101q-133 0 -207 -98t-74 -266q0 -208 126 -311q64 -54 155 -54q69 0 124.5 30.5t89 82.5t51.5 116.5t18 135.5z" />
    <glyph glyph-name="afii10195" unicode="&#x473;" 
d="M344 258q38 0 57 28h11q-13 -29 -37.5 -48.5t-52.5 -19.5q-30 0 -67 15q-45 17 -75 17q-33 0 -56 -29h-10q13 30 37.5 49t51.5 19q30 0 57 -10q58 -21 84 -21zM503 240q0 -113 -67 -181q-67 -70 -172 -70q-104 0 -171 69q-68 70 -68 182q0 121 65 187t174 66
q111 0 175 -64.5t64 -188.5zM422 240q0 123 -43 182t-115 59t-115 -59t-43 -182q0 -121 43 -180t115 -59t115 59t43 180z" />
    <glyph glyph-name="afii10148" unicode="&#x474;" horiz-adv-x="753" 
d="M592 610l-210 -624h-12l-277 664q-9 23 -15 31t-25 18t-53 12v12h254v-12h-37q-43 0 -43 -34q0 -10 10 -36l221 -545l176 531q27 73 47 93q22 19 61 19q32 0 50.5 -17.5t18.5 -42.5q0 -22 -12.5 -36.5t-35.5 -14.5q-21 0 -33.5 12t-12.5 31q0 2 2 13t2 13q0 17 -14 17
q-17 0 -28 -19t-31 -77l-2 -4t-1 -4z" />
    <glyph glyph-name="afii10196" unicode="&#x475;" horiz-adv-x="545" 
d="M493 493q24 0 40.5 -13.5t16.5 -39.5q0 -18 -10.5 -29.5t-27.5 -11.5t-26.5 8.5t-9.5 20.5q0 4 1.5 13t1.5 11q0 15 -11 15q-15 0 -31 -34l-161 -444h-10l-189 433q-20 47 -59 47h-18v12h221v-12h-30q-44 0 -44 -32q0 -12 11 -39l137 -321l116 327q14 36 26 58
q18 31 56 31z" />
    <glyph glyph-name="afii10050" unicode="&#x490;" horiz-adv-x="550" 
d="M528 872h12l-12 -161h-244q-53 0 -53 -33v-612q0 -32 14 -43t51 -11h40v-12h-290v12h35q38 0 51.5 11t13.5 43v591q0 30 -14 42t-50 12h-36v12h254q88 0 140.5 15.5t78.5 56.5z" />
    <glyph glyph-name="afii10098" unicode="&#x491;" horiz-adv-x="390" 
d="M15 481h185q124 0 168 54l5 51h12l-6 -117h-171q-44 0 -44 -37v-377q0 -25 10.5 -34t38.5 -9h31v-12h-229v12h33q29 0 38 9t9 34v371q0 26 -9 34.5t-38 8.5h-33v12z" />
    <glyph glyph-name="uni1E9E" unicode="&#x1e9e;" horiz-adv-x="666" 
d="M90 66v451q0 104 86 172q67 50 170 50q89 0 144 -34q66 -40 84 -131l-223 -169q97 -7 164 -44q101 -56 101 -151q0 -115 -86 -178q-62 -46 -141 -46q-49 0 -76 24q-28 24 -28 60q0 20 6 35h14q-6 -23 -6 -35q0 -31 24 -52q19 -18 66 -18q61 0 98 51q36 49 36 147
q0 86 -49 140q-21 22 -59.5 37.5t-84.5 16.5v13l174 135q0 85 -53 143q-41 44 -105 44q-75 0 -122 -50q-49 -53 -49 -154v-457q0 -32 13.5 -43t49.5 -11h37v-12h-285v12h34q39 0 52.5 11t13.5 43z" />
    <glyph glyph-name="uni2010" unicode="&#x2010;" horiz-adv-x="354" 
d="M304 272h-254v16h254v-16z" />
    <glyph glyph-name="uni2011" unicode="&#x2011;" horiz-adv-x="354" 
d="M304 272h-254v16h254v-16z" />
    <glyph glyph-name="figuredash" unicode="&#x2012;" 
d="M488 377v-16h-448v16h448z" />
    <glyph glyph-name="endash" unicode="&#x2013;" horiz-adv-x="656" 
d="M606 288v-16h-556v16h556z" />
    <glyph glyph-name="emdash" unicode="&#x2014;" horiz-adv-x="855" 
d="M805 288v-16h-755v16h755z" />
    <glyph glyph-name="quoteleft" unicode="&#x2018;" horiz-adv-x="215" 
d="M49 545q0 50 26.5 102t69.5 91l9 -9q-62 -64 -62 -117q4 -22 9 -28.5t26 -20.5q31 -19 31 -46q0 -19 -14 -32t-37 -13q-26 0 -42 19.5t-16 53.5z" />
    <glyph glyph-name="quoteright" unicode="&#x2019;" horiz-adv-x="215" 
d="M162 663q0 -50 -26.5 -102t-69.5 -91l-9 9q62 64 62 117q-4 22 -9 28.5t-26 20.5q-31 19 -31 46q0 19 14 32t37 13q26 0 42 -19.5t16 -53.5z" />
    <glyph glyph-name="quotesinglbase" unicode="&#x201a;" horiz-adv-x="215" 
d="M162 33q0 -50 -26.5 -102t-69.5 -91l-9 9q62 64 62 117q-4 22 -9 28.5t-26 20.5q-31 19 -31 46q0 19 14 32t37 13q26 0 42 -19.5t16 -53.5z" />
    <glyph glyph-name="quotedblleft" unicode="&#x201c;" horiz-adv-x="393" 
d="M49 545q0 50 26.5 102t69.5 91l9 -9q-62 -64 -62 -117q4 -22 9 -28.5t26 -20.5q31 -19 31 -46q0 -19 -14 -32t-37 -13q-26 0 -42 19.5t-16 53.5zM227 545q0 50 26.5 102t69.5 91l9 -9q-62 -64 -62 -117q4 -22 9 -28.5t26 -20.5q31 -19 31 -46q0 -19 -14 -32t-37 -13
q-26 0 -42 19.5t-16 53.5z" />
    <glyph glyph-name="quotedblright" unicode="&#x201d;" horiz-adv-x="393" 
d="M162 663q0 -50 -26.5 -102t-69.5 -91l-9 9q62 64 62 117q-4 22 -9 28.5t-26 20.5q-31 19 -31 46q0 19 14 32t37 13q26 0 42 -19.5t16 -53.5zM340 663q0 -50 -26.5 -102t-69.5 -91l-9 9q62 64 62 117q-4 22 -9 28.5t-26 20.5q-31 19 -31 46q0 19 14 32t37 13
q26 0 42 -19.5t16 -53.5z" />
    <glyph glyph-name="quotedblbase" unicode="&#x201e;" horiz-adv-x="393" 
d="M162 33q0 -50 -26.5 -102t-69.5 -91l-9 9q62 64 62 117q-4 22 -9 28.5t-26 20.5q-31 19 -31 46q0 19 14 32t37 13q26 0 42 -19.5t16 -53.5zM340 33q0 -50 -26.5 -102t-69.5 -91l-9 9q62 64 62 117q-4 22 -9 28.5t-26 20.5q-31 19 -31 46q0 19 14 32t37 13q26 0 42 -19.5
t16 -53.5z" />
    <glyph glyph-name="dagger" unicode="&#x2020;" horiz-adv-x="502" 
d="M215 693q16 13 36 14.5t36.5 -15t17.5 -50.5q2 -16 -5 -38t-18.5 -48t-14.5 -35q-8 -24 -10 -60l26 2q18 1 56 21q37 20 57 20q24 0 37.5 -13t13.5 -37q0 -23 -15.5 -36t-35.5 -13q-23 0 -58 19q-38 20 -55 21l-26 3q0 -47 28 -82l9 -11q-34 -58 -35 -290l-2 -214h-12
l-2 214q-1 232 -35 290q35 37 37 93l-26 -3q-18 -1 -54 -21q-37 -19 -59 -19q-20 0 -35.5 13t-15.5 36q0 24 13.5 37t37.5 13q20 0 58 -20q36 -20 55 -21l26 -2q-2 36 -10 60q-3 9 -14.5 35t-18.5 48t-5 38q0 38 18 51z" />
    <glyph glyph-name="daggerdbl" unicode="&#x2021;" horiz-adv-x="502" 
d="M245 411v37l-26 -3q-18 -1 -54 -21q-37 -19 -59 -19q-20 0 -35.5 13t-15.5 36q0 24 13.5 37t37.5 13q20 0 58 -20q36 -20 55 -21l26 -2q-2 36 -10 60q-3 9 -14.5 35t-18.5 48t-5 38q0 34 16 49.5t38 15.5t38 -15.5t16 -49.5q2 -16 -5 -38t-18.5 -48t-14.5 -35
q-8 -24 -10 -60l26 2q18 1 56 21q37 20 57 20q24 0 37.5 -13t13.5 -37q0 -23 -15.5 -36t-35.5 -13q-23 0 -58 19q-38 20 -55 21l-26 3v-37q0 -59 43 -124q-25 -36 -34 -64t-9 -69v-29l26 3q17 1 55 21q35 19 58 19q20 0 35.5 -13t15.5 -36q0 -24 -13.5 -37t-37.5 -13
q-20 0 -57 20q-38 20 -56 21l-26 2q2 -36 10 -60q3 -9 14.5 -35t18.5 -48t5 -38q0 -34 -16 -49.5t-38 -15.5t-38 15.5t-16 49.5q-2 16 5 38t18.5 48t14.5 35q8 24 10 60l-26 -2q-19 -1 -55 -21q-38 -20 -58 -20q-24 0 -37.5 13t-13.5 37q0 23 15.5 36t35.5 13q22 0 59 -19
q36 -19 54 -21l26 -3v29q0 41 -9 69t-34 64q43 65 43 124z" />
    <glyph glyph-name="bullet" unicode="&#x2022;" horiz-adv-x="412" 
d="M148 234q-25 24 -25 59t25 59q24 24 58 24t59 -24q24 -24 24 -59t-24 -59q-25 -24 -59 -24t-58 24z" />
    <glyph glyph-name="ellipsis" unicode="&#x2026;" horiz-adv-x="660" 
d="M139 71q23 -23 10 -54.5t-46 -31.5q-21 0 -35.5 14.5t-14.5 35.5t15 35.5t35 14.5q22 0 36 -14zM366 71q23 -23 10 -54.5t-46 -31.5q-21 0 -35.5 14.5t-14.5 35.5t15 35.5t35 14.5q22 0 36 -14zM593 71q23 -23 10 -54.5t-46 -31.5q-21 0 -35.5 14.5t-14.5 35.5t15 35.5
t35 14.5q22 0 36 -14z" />
    <glyph glyph-name="perthousand" unicode="&#x2030;" horiz-adv-x="1137" 
d="M332 588q0 -76 -44 -114q-43 -37 -97 -37q-73 0 -107 46q-35 47 -35 105q0 59 35 106q35 45 107 45q55 0 98 -37t43 -114zM269 588q0 36 -9 78q-15 61 -69 61q-79 0 -79 -139t79 -139q78 0 78 139zM722 137q0 -76 -44 -114q-43 -37 -97 -37q-73 0 -107 46q-35 47 -35 105
q0 59 35 106q34 45 107 45q55 0 98 -37t43 -114zM659 137q0 36 -9 78q-15 61 -69 61q-79 0 -79 -139t79 -139q78 0 78 139zM1088 137q0 -76 -44 -114q-43 -37 -97 -37q-73 0 -107 46q-35 47 -35 105q0 59 35 106q34 45 107 45q55 0 98 -37t43 -114zM1025 137q0 36 -9 78
q-15 61 -69 61q-79 0 -79 -139t79 -139q78 0 78 139zM619 741l15 -11l-500 -743l-15 10z" />
    <glyph glyph-name="guilsinglleft" unicode="&#x2039;" horiz-adv-x="399" 
d="M33 238q89 57 173 122q85 67 150 128l10 -8q-46 -63 -135 -153q-35 -37 -93 -89q58 -52 93 -89q89 -90 135 -153l-10 -8q-65 61 -150 128q-84 65 -173 122z" />
    <glyph glyph-name="guilsinglright" unicode="&#x203a;" horiz-adv-x="399" 
d="M366 238q-89 -57 -173 -122q-85 -67 -150 -128l-10 8q47 63 135 153q35 37 93 89q-58 52 -93 89q-88 90 -135 153l10 8q65 -61 150 -128q84 -65 173 -122z" />
    <glyph glyph-name="fraction" unicode="&#x2044;" horiz-adv-x="135" 
d="M310 738l15 -11l-500 -743l-15 10z" />
    <glyph glyph-name="Euro" unicode="&#x20ac;" 
d="M332 326l-4 -12h-191q5 -150 49.5 -233t122.5 -83q58 0 110 40q53 41 75 101l7 36h13l-24 -175h-12l2 39q-86 -53 -171 -53q-248 0 -264 328h-57l5 12h51v31q0 35 1 47h-57l5 12h53q8 99 41 172q19 43 49 76q65 73 179 73q75 0 162 -54v40h12l13 -182h-12l-6 44
q-56 140 -179 140q-155 0 -167 -309h245l-5 -12h-240q-1 -12 -1 -45v-33h195z" />
    <glyph glyph-name="uni20B4" unicode="&#x20b4;" 
d="M480 414v-12h-166q-67 -50 -115 -109h281v-12h-290q-20 -29 -34 -71t-14 -71q0 -129 117 -129q112 0 220 135l10 -8q-59 -72 -89 -94q-74 -57 -168 -57q-84 0 -133.5 36t-49.5 109q0 80 67 150h-86v12h98q65 61 128 109h-226v12h242q62 47 86.5 87.5t24.5 95.5
q0 56 -28 87t-76 31q-108 0 -187 -133l-11 6q45 80 99 115.5t129 35.5q74 0 120.5 -34t46.5 -97q0 -51 -36 -96.5t-110 -97.5h150z" />
    <glyph glyph-name="uni20BD" unicode="&#x20bd;" 
d="M418 216v-16h-241v-134q0 -32 13 -43t52 -11h35v-12h-285v12h33q39 0 53 11.5t14 42.5v134h-77v16h77v78h-75v16h75v347q0 32 -13.5 43t-53.5 11h-33v12h108q32 0 97 6q58 5 93 5q254 0 254 -216q0 -96 -72 -160q-73 -64 -211 -64h-84v-78h241zM451 518q0 204 -173 204
q-49 0 -101 -28v-384h85q91 0 140 52.5t49 155.5z" />
    <glyph glyph-name="afii61352" unicode="&#x2116;" horiz-adv-x="1097" 
d="M198 177v426l-90 117h106l460 -610v483q0 143 118 143q40 0 62.5 -19t22.5 -45q0 -48 -43 -51q-20 -1 -33 10.5t-13 27.5q0 4 1 14t1 13q0 25 -33 25q-10 0 -20.5 -4.5t-22 -15.5t-19 -36.5t-7.5 -61.5v-607h-13l-463 599v-432q0 -74 -16 -109q-32 -59 -96 -59
q-46 0 -73 21t-27 55q0 19 11.5 31.5t32.5 13.5q19 0 31.5 -13t12.5 -36v-17q1 -31 37 -31q38 0 58 44q15 36 15 124zM1086 355q0 -77 -49 -114q-50 -38 -103 -38q-73 0 -112 47q-39 46 -39 105t39 105t112 46q53 0 103 -38q49 -37 49 -113zM1023 355q0 35 -12 78
q-17 61 -77 61q-58 0 -75 -59q-13 -47 -13 -80q0 -35 13 -81q16 -59 75 -59q60 0 77 61q12 43 12 79zM1060 160v-14h-252v14h252z" />
    <glyph glyph-name="trademark" unicode="&#x2122;" horiz-adv-x="595" 
d="M585 481v-12h-124v12h23q17 0 17 29v176l-83 -197h-20l-90 195v-155q0 -48 16 -48h24v-12h-91v12h21q18 0 18 48v150q0 16 -3.5 22.5t-14.5 6.5h-21v12h86l82 -182l77 182h83v-12h-24q-9 0 -12 -5.5t-3 -23.5v-169q0 -29 15 -29h24zM245 720v-81h-12q0 49 -23 61
q-18 8 -45 8h-15v-198q0 -29 15 -29h25v-12h-125v12h24q8 0 11.5 4.5t4 9t0.5 15.5v198h-16q-27 0 -44 -9q-23 -11 -23 -60h-12v81h235z" />
    <glyph glyph-name="partialdiff" unicode="&#x2202;" horiz-adv-x="502" 
d="M294 493q61 0 102.5 -33.5t53.5 -102.5q11 85 11 135q0 231 -162 231q-101 0 -162 -91q-6 6 -11 6q34 65 87.5 105t114.5 40q90 0 127 -79q31 -66 31 -164q0 -109 -37 -250q-23 -81 -54 -147q-34 -70 -88.5 -114.5t-117.5 -44.5q-76 0 -120 47t-44 133q0 183 118 279
q64 50 151 50zM132 53q26 -45 75 -45q50 0 91 31q40 30 69 80q53 96 77 203q-20 159 -148 159q-55 0 -100 -51q-44 -50 -67 -123q-23 -74 -23 -145q0 -63 26 -109z" />
    <glyph glyph-name="product" unicode="&#x220f;" horiz-adv-x="871" 
d="M825 -88v-12h-286v12h35q37 0 51 12t14 42v692q0 32 -13.5 42.5t-51.5 10.5h-279q-37 0 -50.5 -10.5t-13.5 -42.5v-692q0 -31 13 -42.5t50 -11.5h38v-12h-286v12h35q37 0 51 12t14 42v691q0 32 -12.5 43t-52.5 11h-35v12h779v-12h-37q-35 0 -49.5 -10.5t-14.5 -41.5v-693
q0 -30 14 -42t50 -12h37z" />
    <glyph glyph-name="summation" unicode="&#x2211;" horiz-adv-x="648" 
d="M52 723h543l6 -148h-12l-7 75q-79 61 -260 61h-161l251 -352l-299 -385h199q145 0 221 20q27 7 47 24q6 5 10 9.5t6.5 7.5t5 8t3 7t3 9.5l3.5 10.5l5 41h12l-16 -211h-566v10l303 390l-297 413v10z" />
    <glyph glyph-name="minus" unicode="&#x2212;" 
d="M519 345v-16h-510v16h510z" />
    <glyph glyph-name="uni2215" unicode="&#x2215;" horiz-adv-x="568" 
d="M573 800l15 -10l-593 -883l-15 10z" />
    <glyph glyph-name="radical" unicode="&#x221a;" horiz-adv-x="576" 
d="M574 890h12l-231 -925h-11l-221 524l-109 -68l-6 11l174 108l190 -458q1 11 102 409q100 396 100 399z" />
    <glyph glyph-name="infinity" unicode="&#x221e;" horiz-adv-x="806" 
d="M199 510q76 0 130 -44q19 -15 44 -40q6 -6 44 -50q92 134 204 134q74 0 125 -48q50 -50 50 -130q0 -70 -51 -126q-52 -55 -128 -55q-77 0 -126 34q-50 34 -102 100q-50 -72 -97.5 -103t-105.5 -31q-76 0 -126 51q-50 50 -50 127q0 72 52 127q51 54 137 54zM185 167
q109 3 192 135q-121 169 -216 169q-60 0 -97.5 -40t-37.5 -103q0 -64 47 -113q47 -48 112 -48zM622 494q-102 0 -193 -132q118 -172 217 -172q54 0 95 44q39 44 39 102q0 64 -43 111q-44 47 -115 47z" />
    <glyph glyph-name="integral" unicode="&#x222b;" horiz-adv-x="353" 
d="M183 585l51 -410q2 -16 6 -47q1 -12 3.5 -30t3.5 -24q0 -2 1.5 -18t2.5 -28q4 -48 -5 -103q-12 -79 -52.5 -121.5t-105.5 -42.5q-31 0 -50 12.5t-19 35.5q0 20 11 32t29 12q41 0 41 -40q0 -3 -3 -10.5t-5 -13.5t1 -11t12 -5q37 0 55 56q18 57 18 124q0 48 -38 358
q-31 240 -36 301q-6 72 8 130q16 66 57 103t103 37q30 0 46.5 -14t16.5 -39q0 -39 -41 -39q-16 0 -28 10.5t-12 25.5q0 3 2 9.5t4 12t2.5 11t-2.5 8.5t-11 3q-37 0 -57 -57q-20 -60 -17 -125q1 -52 8 -103z" />
    <glyph glyph-name="approxequal" unicode="&#x2248;" 
d="M508 308l11 -7q-51 -105 -156 -105q-26 0 -49 9q-19 6 -80 34q-60 28 -96 28q-60 0 -119 -72l-10 8q64 97 154 97q29 0 54 -9q29 -10 78 -34q59 -28 97 -28q62 0 116 79zM508 495l11 -7q-51 -105 -156 -105q-26 0 -49 9q-19 6 -80 34q-60 28 -96 28q-60 0 -119 -72l-10 8
q64 97 154 97q29 0 54 -9q29 -10 78 -34q59 -28 97 -28q62 0 116 79z" />
    <glyph glyph-name="notequal" unicode="&#x2260;" 
d="M519 256v-16h-305l-117 -210l-14 8l112 202h-186v16h195l95 171h-290v16h299l114 204l15 -8l-110 -196h192v-16h-201l-95 -171h296z" />
    <glyph glyph-name="lessequal" unicode="&#x2264;" 
d="M513 -32l-507 266l9 16q504 -267 507 -267zM45 375l477 -251l-9 -15l-507 266l506 266l9 -15z" />
    <glyph glyph-name="greaterequal" unicode="&#x2265;" 
d="M6 -17l507 267l9 -16l-507 -266zM522 375l-507 -266l-9 15l477 251l-476 251l9 15z" />
    <glyph glyph-name="lozenge" unicode="&#x25ca;" horiz-adv-x="616" 
d="M33 356l275 -356l275 356l-275 355zM308 739l296 -383l-296 -384l-296 384z" />
    <glyph glyph-name="uniF400" unicode="&#xf400;" horiz-adv-x="0" 
d="M-108 698q0 -19 -42 -46l-149 -90h-24l133 131q34 33 56 33q26 0 26 -28z" />
    <glyph glyph-name="uniF401" unicode="&#xf401;" horiz-adv-x="0" 
d="M-240 905q0 -19 -42 -46l-149 -90h-24l133 131q34 33 56 33q26 0 26 -28z" />
    <glyph glyph-name="uniF406" unicode="&#xf406;" horiz-adv-x="332" 
d="M268 810q-44 -32 -102 -32t-102 32t-51 90h14q24 -76 139 -76q116 0 140 76h13q-7 -58 -51 -90z" />
    <glyph glyph-name="uniF407" unicode="&#xf407;" horiz-adv-x="326" 
d="M139 -230q-50 0 -91 22l5 11q37 -21 79 -21q36 0 57.5 22.5t21.5 52.5q0 28 -15.5 43t-43.5 15q-16 0 -33 -6l-9 7l40 100h15l-36 -88q24 10 55 10q38 0 65 -19t27 -53q0 -42 -38.5 -69t-98.5 -27z" />
    <glyph glyph-name="uniF408" unicode="&#xf408;" horiz-adv-x="419" 
d="M340 753l-61 46q-25 19 -69 56l-69 -56l-61 -46h-15q14 13 61 66q27 30 58 75l11 15h30q37 -54 69 -90q34 -41 60 -66h-14z" />
    <glyph glyph-name="uniF409" unicode="&#xf409;" horiz-adv-x="212" 
d="M160 -160q0 -50 -26.5 -102t-69.5 -91l-9 9q62 64 62 117q-4 22 -9 28.5t-26 20.5q-31 19 -31 46q0 19 14 32t37 13q26 0 42 -19.5t16 -53.5z" />
    <glyph glyph-name="uniF40A" unicode="&#xf40a;" horiz-adv-x="202" 
d="M150 670q0 -76 -71 -155l-9 8q42 48 42 94q0 9 -5 15t-17 13t-17 10q-22 13 -22 40q0 18 12.5 29.5t32.5 11.5q25 0 39.5 -17t14.5 -49z" />
    <glyph glyph-name="uniF40B" unicode="&#xf40b;" horiz-adv-x="194" 
d="M147 834q0 -21 -14.5 -35.5t-35.5 -14.5t-35.5 14.5t-14.5 35.5t14 35.5t36 14.5q23 0 36.5 -14t13.5 -36z" />
    <glyph glyph-name="uniF40C" unicode="&#xf40c;" horiz-adv-x="307" 
d="M67 831q0 36 25 61.5t61 25.5t61.5 -25.5t25.5 -61.5q0 -35 -25.5 -60.5t-61.5 -25.5t-61 25.5t-25 60.5zM104 881q-34 -31 -15 -77t64 -43q30 0 50.5 20.5t20.5 49.5t-20.5 50t-50.5 21q-29 0 -49 -21z" />
    <glyph glyph-name="uniF40D" unicode="&#xf40d;" horiz-adv-x="404" 
d="M215 840q51 -30 76 -30q52 0 93 50l10 -8q-50 -86 -120 -86q-32 0 -85 33q-50 30 -76 30q-54 0 -93 -50l-10 8q53 86 120 86q30 0 85 -33z" />
    <glyph glyph-name="uniF40E" unicode="&#xf40e;" horiz-adv-x="297" 
d="M154 -147q39 0 86 40l8 -9q-63 -60 -127 -60q-33 0 -53 18.5t-20 48.5q0 61 75 125h14q-41 -53 -41 -106q0 -26 15 -41.5t43 -15.5z" />
    <glyph glyph-name="dollar.fitted" unicode="&#xf5f5;" horiz-adv-x="590" 
d="M300 -14v-86h-12v86q-113 3 -218 55q0 -5 0.5 -21t0.5 -20h-12l-15 194h12l5 -43q29 -61 90 -104q61 -44 137 -49v339l-12 6q-58 32 -79 46q-32 19 -63 46q-64 54 -64 133t53 124.5t165 46.5v72h12v-72q94 -3 184 -51v35h12l10 -175h-12l-3 38q-17 61 -64.5 100
t-126.5 41v-296l26 -13q48 -26 78 -45q32 -21 65 -48q69 -59 69 -144q0 -83 -63 -138q-65 -57 -175 -57zM465 137q0 103 -165 193v-332q81 1 123 39t42 100zM142 616q0 -55 36 -96t110 -82v289q-146 -2 -146 -111z" />
    <glyph glyph-name="Euro.fitted" unicode="&#xf5f6;" horiz-adv-x="609" 
d="M364 326l-4 -12h-191q5 -150 49.5 -233t122.5 -83q58 0 110 40q53 41 75 101l7 36h13l-24 -175h-12l2 39q-86 -53 -171 -53q-248 0 -264 328h-57l5 12h51v31q0 35 1 47h-57l5 12h53q8 99 41 172q19 43 49 76q65 73 179 73q75 0 162 -54v40h12l13 -182h-12l-6 44
q-56 140 -179 140q-155 0 -167 -309h245l-5 -12h-240q-1 -12 -1 -45v-33h195z" />
    <glyph glyph-name="cent.fitted" unicode="&#xf5f7;" horiz-adv-x="450" 
d="M254 -11v-86h-12v86q-94 4 -155 70q-62 67 -62 177q0 100 56 174q55 73 161 82v97h12v-96h12q68 0 109.5 -24t41.5 -61q0 -23 -11.5 -36t-30.5 -13q-42 0 -42 44q0 3 1.5 16.5t1.5 18.5q0 19 -20 31t-54 12h-8v-468h15q50 0 93 29.5t67 85.5l11 -5q-58 -132 -186 -134z
M106 236q0 -97 36.5 -154t99.5 -67v464q-136 -16 -136 -243z" />
    <glyph glyph-name="sterling.fitted" unicode="&#xf5f8;" horiz-adv-x="565" 
d="M56 376v12h110q0 84 1 118q2 112 52.5 172.5t146.5 60.5q56 0 89.5 -28t33.5 -70q0 -23 -13 -39t-33 -16q-18 0 -28.5 10t-10.5 25q0 22 25 38q16 12 16 23q0 17 -20.5 31t-54.5 14q-84 0 -115 -88q-21 -57 -12 -168q3 -78 3 -83h158v-12h-158q0 -44 -2 -86
q-9 -164 -149 -253q99 37 155 37q50 0 111 -24q60 -24 96 -24q30 0 53 29.5t22 85.5h12q2 -97 -51 -132q-35 -23 -101 -23q-26 0 -94 18q-88 25 -139 25q-58 0 -124 -25v15q34 12 56 34q34 34 56 102q17 50 19 128v93h-110z" />
    <glyph glyph-name="yen.fitted" unicode="&#xf5f9;" horiz-adv-x="624" 
d="M147 198v12h130v77h-130v12h125l-156 345q-30 65 -116 67v12h276v-12h-41q-38 0 -38 -24q0 -11 10 -32l150 -337l1 2q2 3 5 9t6.5 13.5t9.5 20.5q37 83 50 112q17 40 44 108q27 71 27 97q0 31 -47 31h-29v12h200v-12h-31q-56 -23 -86 -92q-4 -11 -79 -180
q-63 -140 -64 -140h132v-12h-134v-77h134v-12h-134v-132q0 -54 65 -54h35v-12h-284v12h35q34 0 49 13t15 41v132h-130z" />
    <glyph glyph-name="florin.fitted" unicode="&#xf5fa;" horiz-adv-x="486" 
d="M501 740q0 -19 -12 -31t-32 -12q-17 0 -28.5 9.5t-11.5 24.5q0 2 1 10t1.5 13t-0.5 7q-3 8 -17 8q-72 0 -112 -153l-33 -126h105l-2 -12h-106l-195 -700h-60l196 700h-102l2 12h103q50 166 110 235q58 67 130 67q30 0 46.5 -14t16.5 -38z" />
    <glyph glyph-name="uni20B4.fitted" unicode="&#xf5fb;" horiz-adv-x="477" 
d="M460 414v-12h-166q-67 -50 -115 -109h281v-12h-290q-20 -29 -34 -71t-14 -71q0 -129 117 -129q112 0 220 135l10 -8q-59 -72 -89 -94q-74 -57 -168 -57q-84 0 -133.5 36t-49.5 109q0 80 67 150h-86v12h98q65 61 128 109h-226v12h242q62 47 86.5 87.5t24.5 95.5
q0 56 -28 87t-76 31q-108 0 -187 -133l-11 6q45 80 99 115.5t129 35.5q74 0 120.5 -34t46.5 -97q0 -51 -36 -96.5t-110 -97.5h150z" />
    <glyph glyph-name="uni20BD.fitted" unicode="&#xf5fc;" horiz-adv-x="632" 
d="M466 216v-16h-241v-134q0 -32 13 -43t52 -11h35v-12h-285v12h33q39 0 53 11.5t14 42.5v134h-77v16h77v78h-75v16h75v347q0 32 -13.5 43t-53.5 11h-33v12h108q33 0 97 6q58 5 93 5q254 0 254 -216q0 -96 -72 -160q-73 -64 -211 -64h-84v-78h241zM499 518q0 204 -173 204
q-49 0 -101 -28v-384h85q91 0 140 52.5t49 155.5z" />
    <glyph glyph-name="uniF639" unicode="&#xf639;" horiz-adv-x="538" 
d="M485 489q41 -194 -39 -373q-27 -60 -73.5 -95t-104.5 -35t-104.5 35.5t-72.5 94.5q-51 115 -51 247q0 50 7.5 100.5t25 100.5t43 88.5t65 62.5t87.5 24q85 2 142 -72t75 -178zM414 363q0 124 -24 228q-15 63 -46.5 99.5t-75.5 36.5q-101 -5 -130 -184q-14 -83 -14 -180
q0 -190 42 -277q42 -88 102 -88q65 0 105.5 92.5t40.5 272.5z" />
    <glyph glyph-name="uniF63A" unicode="&#xf63a;" horiz-adv-x="515" 
d="M453 137h12l-14 -137h-431v14l184 192q92 96 134.5 168.5t42.5 152.5q0 102 -46 151t-111 49q-88 0 -88 -67q0 -3 3 -20t3 -24q0 -20 -13 -31.5t-35 -11.5q-19 0 -32 14t-13 39q0 42 49 78q49 35 133 35q112 0 173 -54.5t61 -152.5q0 -59 -40 -119.5t-120 -136.5
l-218 -211h233q62 0 91.5 12.5t37.5 40.5z" />
    <glyph glyph-name="uniF63B" unicode="&#xf63b;" horiz-adv-x="544" 
d="M494 204q0 -101 -65 -159.5t-188 -58.5q-103 0 -159 42q-57 40 -57 92q0 23 14 35.5t34 12.5q19 0 32 -12.5t13 -34.5q0 -8 -5.5 -28t-5.5 -30q0 -28 38 -46q37 -19 84 -19q109 0 148 77q33 65 33 143q0 185 -186 185q-35 0 -69 -8v28q33 -9 81 -9q65 0 114 43
q48 44 48 112q0 72 -41 115t-110 43q-54 0 -79.5 -22.5t-18.5 -59.5q2 -16 2 -19q0 -28 -22.5 -39.5t-44.5 1.5t-22 45q0 38 44 73q44 33 141 33q66 0 113 -15t70.5 -40.5t33.5 -52.5t10 -59q0 -56 -44.5 -101.5t-118.5 -60.5q78 -13 131 -69q52 -55 52 -137z" />
    <glyph glyph-name="uniF63C" unicode="&#xf63c;" horiz-adv-x="500" 
d="M404 696l-405 -522h302v283l77 62v-345h97v-12h-97v-95q0 -32 14.5 -43.5t49.5 -11.5h33v-12h-274v12h34q33 0 49.5 12t16.5 43v95h-316v12q147 217 279 442q59 105 67 121z" />
    <glyph glyph-name="uniF63D" unicode="&#xf63d;" horiz-adv-x="511" 
d="M471 241q0 -113 -74 -184t-179 -71q-80 0 -134 33q-54 31 -54 82q0 26 13.5 39t34.5 13t32.5 -11.5t11.5 -29.5q0 -8 -5.5 -28.5t-5.5 -28.5q0 -57 101 -57q86 1 131.5 72.5t43.5 171.5q0 65 -26 115q-19 33 -48 55q-74 54 -221 54l33 257h219q84 0 91 31q0 2 1 4v2h13
l-21 -102h-299q-5 -37 -12 -94q-4 -34 -11 -82h38q76 0 134.5 -14t94.5 -37t58.5 -55.5t31 -65t8.5 -69.5z" />
    <glyph glyph-name="uniF63E" unicode="&#xf63e;" horiz-adv-x="542" 
d="M502 229q0 -104 -60 -173q-61 -70 -163 -70q-239 0 -239 329q0 80 18 154.5t53 135.5t92.5 97.5t128.5 36.5q66 0 103.5 -24t37.5 -62q0 -49 -46 -49q-48 0 -48 47q0 4 2.5 20.5t2.5 18.5q0 17 -14.5 27t-37.5 10q-96 0 -151 -88.5t-59 -248.5q76 57 174 57
q93 0 149.5 -57.5t56.5 -160.5zM418 225q0 198 -159 198q-64 0 -137 -50q-2 -35 1 -81q1 -19 1 -40q7 -120 46.5 -187t108.5 -67q139 0 139 227z" />
    <glyph glyph-name="uniF63F" unicode="&#xf63f;" horiz-adv-x="465" 
d="M453 740h12l-89 -198q-34 -72 -81 -210q-42 -128 -66 -271q-13 -76 -61 -76q-19 0 -31.5 14t-12.5 40q0 43 76 198l124 249l88 172h-208q-67 0 -101 -11q-42 -14 -56 -67h-12l21 143h389z" />
    <glyph glyph-name="uniF640" unicode="&#xf640;" horiz-adv-x="543" 
d="M508 188q0 -78 -63 -140q-64 -62 -171 -62q-115 0 -177 53t-62 142q0 143 165 204q-129 70 -129 180q0 77 52.5 125.5t150.5 48.5q92 0 144 -44t52 -112q0 -59 -40.5 -104.5t-110.5 -65.5q47 -24 63 -34q21 -12 50 -34q28 -20 42 -41q34 -50 34 -116zM413 583
q0 69 -36.5 106.5t-105.5 37.5q-142 0 -142 -136q0 -51 54 -97q52 -46 115 -72q75 36 97 91q18 44 18 70zM441 163q0 49 -29 86q-23 27 -44 42q-40 28 -56 37q-15 7 -30 16q-4 1 -32.5 15.5t-31.5 15.5q-57 -34 -89 -86.5t-32 -109.5q0 -87 53 -134t127 -47q79 0 121.5 46
t42.5 119z" />
    <glyph glyph-name="uniF641" unicode="&#xf641;" horiz-adv-x="542" 
d="M40 496q0 104 61 174q60 69 162 69q239 0 239 -329q0 -80 -18 -154.5t-53 -135.5t-92.5 -97.5t-128.5 -36.5q-66 0 -103.5 24t-37.5 62q0 49 46 49q48 0 48 -47q0 -4 -2.5 -20.5t-2.5 -18.5q0 -17 14.5 -27t37.5 -10q96 0 151 88.5t59 248.5q-76 -57 -174 -57
q-93 0 -149.5 57.5t-56.5 160.5zM124 500q0 -198 159 -198q64 0 137 50q2 33 0 82q-2 36 -2 39q-7 120 -46.5 187t-108.5 67q-139 0 -139 -227z" />
    <glyph glyph-name="uniF6BA" unicode="&#xf6ba;" horiz-adv-x="354" 
d="M304 353h-254v16h254v-16z" />
    <glyph glyph-name="uniF6BB" unicode="&#xf6bb;" horiz-adv-x="656" 
d="M606 369v-16h-556v16h556z" />
    <glyph glyph-name="uniF6BC" unicode="&#xf6bc;" horiz-adv-x="855" 
d="M805 369v-16h-755v16h755z" />
    <glyph glyph-name="uniF6C3" unicode="&#xf6c3;" horiz-adv-x="202" 
d="M150 -153q0 -76 -71 -155l-9 8q42 48 42 94q0 9 -5 15t-17 13t-17 10q-22 13 -22 40q0 18 12.5 29.5t32.5 11.5q25 0 39.5 -17t14.5 -49z" />
    <glyph glyph-name="uniF6C9" unicode="&#xf6c9;" horiz-adv-x="328" 
d="M306 905q0 -19 -42 -46l-149 -90h-24l133 131q34 33 56 33q26 0 26 -28z" />
    <glyph glyph-name="uniF6CA" unicode="&#xf6ca;" horiz-adv-x="419" 
d="M279 872l61 46h14q-26 -26 -60 -66q-34 -38 -59 -76l-10 -14h-30q-37 54 -69 90q-47 53 -61 66h15q27 -18 61 -46l69 -56q44 37 69 56z" />
    <glyph glyph-name="uniF6CB" unicode="&#xf6cb;" horiz-adv-x="349" 
d="M128 812q0 -21 -14.5 -35.5t-35.5 -14.5t-35.5 14.5t-14.5 35.5t14 35.5t36 14.5q23 0 36.5 -14t13.5 -36zM321 812q0 -21 -14.5 -35.5t-35.5 -14.5t-35.5 14.5t-14.5 35.5t14 35.5t36 14.5q23 0 36.5 -14t13.5 -36z" />
    <glyph glyph-name="uniF6CE" unicode="&#xf6ce;" horiz-adv-x="328" 
d="M21 905q0 28 26 28q21 0 56 -33l133 -131h-24q-105 61 -149 90q-42 27 -42 46z" />
    <glyph glyph-name="uniF6CF" unicode="&#xf6cf;" horiz-adv-x="494" 
d="M269 905q0 -19 -42 -46l-149 -90h-24l133 131q34 33 56 33q26 0 26 -28zM440 905q0 -19 -42 -46l-149 -90h-24l133 131q35 33 56 33q26 0 26 -28z" />
    <glyph glyph-name="uniF6D0" unicode="&#xf6d0;" horiz-adv-x="417" 
d="M354 799v-16h-291v16h291z" />
    <glyph glyph-name="uniF6D1" unicode="&#xf6d1;" horiz-adv-x="374" 
d="M369 873q0 -39 -47 -75q-46 -36 -135 -36t-135 36q-47 36 -47 75q1 28 23 40t43 2.5t21 -33.5q0 -6 -12 -29t-12 -30q-1 -5 2 -11.5t11.5 -13t22 -12t35 -9t48.5 -3.5q45 0 73.5 9.5t36.5 19.5t8 20q0 7 -11.5 29t-11.5 30q-2 28 28 36q32 7 50 -16q9 -13 9 -29z" />
    <glyph glyph-name="uniF6D4" unicode="&#xf6d4;" horiz-adv-x="346" 
d="M328 667q0 -44 -42 -80q-41 -37 -113 -37t-113 37q-42 36 -42 80q0 20 13.5 33t32.5 13q16 0 26 -10t10 -24q0 -17 -12 -32q-15 -19 -15 -30q0 -25 26.5 -40t73.5 -15t73.5 15t26.5 40q0 11 -9 24q-23 34 -15 51.5t35 20.5q19 0 31.5 -12.5t12.5 -33.5z" />
    <glyph glyph-name="uniF6DC" unicode="&#xf6dc;" horiz-adv-x="340" 
d="M315 12v-12h-247v12h22q63 0 63 55v534q-57 -58 -126 -106l-7 10q135 105 189 227h21v-665q0 -55 65 -55h20z" />
    <glyph glyph-name="uniFEFF" unicode="&#xfeff;" horiz-adv-x="0" 
 />
    <glyph glyph-name="NULL" horiz-adv-x="0" 
 />
    </font>
</defs>
</svg>
