<svg xmlns="http://www.w3.org/2000/svg" viewBox="0 0 559.15 549.95"><defs><style>.cls-1{fill:#ddc84e;}.cls-2{fill:#2a3335;}</style></defs><g id="Layer_2" data-name="Layer 2"><g id="Your_design" data-name="Your design"><path class="cls-1" d="M396.64,320h0c0-.05,0-.09,0-.08h0Z"/><path class="cls-1" d="M403.87,150.07c0,1.46,0,2.93-.06,4.41a56.45,56.45,0,0,1-1.05,8.11,45.81,45.81,0,0,1-1.64,5.79l9.06,18.4A55.5,55.5,0,0,0,393,182.92c-1.77,2.47-3.63,4.88-5.59,7.2-.31.37-.63.72-.94,1.08-4.64,7.77-8.5,18.09-8.19,27.29.41,12.34,4.76,23.95,5.84,36.1l.3,4.19a15.67,15.67,0,0,0,1.74,6.73,19.82,19.82,0,0,0,5,5.12l6.69,5.1,3.36,2.6,1.69,1.32c.58.46,1.22,1,1.87,1.58a13.27,13.27,0,0,1,1.87,2.23,9.81,9.81,0,0,1,1.27,3,10.86,10.86,0,0,1-.33,6,13.47,13.47,0,0,1-2.84,4.78,16.8,16.8,0,0,1-4.1,3l-1.74,1c-.21.13-.41.26-.57.38l0,0,.51.91,2,3.68.52,1a6.9,6.9,0,0,1,.64,1.49,5.88,5.88,0,0,1,0,3.5,7.15,7.15,0,0,1-1.49,2.72,12.35,12.35,0,0,1-1.9,1.81c.39-.31,1.34,1.76,1.4,2a4.77,4.77,0,0,1,0,2.75,4.83,4.83,0,0,1-3.12,3.15,9.92,9.92,0,0,0-1.24.38c-.93.4-1,1.25-1,2.16a8.5,8.5,0,0,0,.51,2.48c.59,1.67,1.55,3.41,2.4,5.52a15.17,15.17,0,0,1,1,7.2,16,16,0,0,1-.87,3.6,11.68,11.68,0,0,1-.82,1.78,12.43,12.43,0,0,1-1.13,1.63,16.06,16.06,0,0,1-6,4.35A23.61,23.61,0,0,1,383,355.3c-1.1.11-2.17.18-3.21.22-4.93.22-9.85.6-14.77,1-3.7.27-8-.51-11.37,1.45a10.33,10.33,0,0,0-.87.6l-.4.36-.49.45c-.67.64-1.33,1.32-2,2-1.32,1.42-2.6,2.94-3.93,4.49-.66.77-1.31,1.57-2,2.36s-1.3,1.5-1.93,2.27a95.73,95.73,0,0,0-12.87,19.84,26.94,26.94,0,0,0-2.87,10.46,24.77,24.77,0,0,0,1.92,10.68,53.81,53.81,0,0,0,5.8,10.18c5.63,8.08,12.58,15.88,14.9,25,3.58-1.5,7.09-3.12,10.54-4.83A72.66,72.66,0,0,0,350,430.05c-5.88-6.24-13.06-13.09-15.11-21.75-.93-3.91,0-7.41,1-11.18,3.21,12.46,17.13,19.49,21.63,31.54-.52-7.33-5.07-13.69-9.71-19.4s-9.68-11.48-11.5-18.6c5.4,10.22,16.12,13.53,23.57,21.77,6,6.6,6.48,15,5.65,23.48a17.94,17.94,0,0,1-.87,3.19,180.25,180.25,0,0,0,39.25-289Z"/><path class="cls-1" d="M398,301a.64.64,0,0,0,0,.11,0,0,0,0,1,0,0C398,300.93,398,300.92,398,301Z"/><path class="cls-1" d="M279.29,100.08A180.29,180.29,0,0,0,118.52,361.87l.85-1.43c4-6.68,9-13.2,15.94-16.74,3.58-1.83,15.16-2.17,16.44-7-1.83,6.89-7,11.58-11.64,16.67q-8.09,8.89-16.93,17l0,.06c8.92-3.4,16.39-9.91,22.31-17.4s10.49-16.08,15-24.57c.73,3.28.22,8.52,0,12a34.55,34.55,0,0,1-3.35,12.43c-3.66,7.83-9.59,14.54-16.17,20.06a64,64,0,0,1-11.47,7.61c1.2,1.8,2.45,3.55,3.72,5.3.95,0,1.9.07,2.84.15l.3-.07c1-.32,2-.6,2.93-.93a1.23,1.23,0,0,1,.63,0,25.61,25.61,0,0,0,2.8-1.07,32.53,32.53,0,0,0,6.11-3.56,16.18,16.18,0,0,0,1.4-1.07c.45-.37.91-.72,1.34-1.11.85-.8,1.72-1.57,2.5-2.43a42.36,42.36,0,0,0,4.37-5.37,48.3,48.3,0,0,0,3.53-5.89,56.3,56.3,0,0,0,2.68-6.29,85.15,85.15,0,0,0,3.46-13.46c1.71-9.22,2.35-18.84,3.82-28.8A122.87,122.87,0,0,1,175,300.92,73.22,73.22,0,0,1,180.89,286c.62-1.22,1.37-2.39,2.07-3.58a36.64,36.64,0,0,1,5.87-7.32c1.21-1.21,5.2-5.39,7.06-5-6.51-1.26-12.55-3.53-18.81-5.54a185.75,185.75,0,0,1-26.18-10.3,102.55,102.55,0,0,1-36.37-30.68l7.26-.35c6.69-.35,13.36-.77,20-1.41,7.93-.76,16.39-1.4,24-3.66,1.25-.37,2.49-.77,3.73-1.18a55.62,55.62,0,0,1-30-19.74l-9.67-12.51,16.08,2.43a156.29,156.29,0,0,0,23.67,1.64,200.62,200.62,0,0,0,23.95-1.56C203,186,211.21,183,220.28,181a72.36,72.36,0,0,0,20.13-7.71c6.27-3.57,10.83-8.93,16.81-13a59,59,0,0,1,18.25-8.71,46.52,46.52,0,0,1,10.4-1.49c3.38-.12,6.56.06,9.51.13,1.48,0,2.91.05,4.28,0a31.21,31.21,0,0,0,3.81-.33,32,32,0,0,0,7.31-2c4.78-2,9.37-5.17,14-8.82,2.29-1.83,4.58-3.79,6.94-5.75s4.54-3.87,6.75-5.87c4.4-4,8.85-8,13.41-11.93l.14-.12A179.78,179.78,0,0,0,279.29,100.08Z"/><path class="cls-2" d="M134.38,386.58l1.42-.1.36,0q-2.79-3.75-5.39-7.63c-1.26.47-2.52.92-3.79,1.36,1.49,2.27,3,4.49,4.64,6.68C132.53,386.71,133.46,386.64,134.38,386.58Z"/><path class="cls-2" d="M371.53,125.7a20.93,20.93,0,0,1,0-2.38,180.94,180.94,0,0,0-92.28-25.2c-100.46,0-182.2,81.73-182.2,182.2a181.19,181.19,0,0,0,28.31,97.43l3.77-1.36A177.19,177.19,0,0,1,101,280.32C101,182,181,102,279.29,102a177.17,177.17,0,0,1,92.08,25.68C371.43,127,371.48,126.37,371.53,125.7Z"/><path class="cls-2" d="M395.09,139.76h0a2.9,2.9,0,0,1-.47.16l.28.73a2.67,2.67,0,0,1-.76,2.74c0,.23,0,.45,0,.68a177.94,177.94,0,0,1,63.47,136.25c0,74.33-45.74,138.17-110.54,164.89a31.93,31.93,0,0,1,1.72,3.53c66.1-27.37,112.73-92.55,112.73-168.42A181.9,181.9,0,0,0,395.09,139.76Z"/><path class="cls-2" d="M1.5,315.13l41.68-4.19,2.13-.22-.21-2.1-2-19.86,6.65-.67,2.88,28.72L2.18,321.88Z"/><path class="cls-2" d="M52.85,239.51l-.61,7.24-8.65,3-.91,10.75-.91,10.72,8,4.45-.61,7.24L0,256.88ZM37.24,260.07,38,251.8q-4.94,1.66-10.58,3.25t-10.61,3.23q4.6,2.48,9.9,5t9.88,5Z"/><path class="cls-2" d="M16.13,185l39,15.17,2,.78.76-2,7.23-18.6,6.24,2.43L60.94,209.73,13.67,191.36Z"/><path class="cls-2" d="M46.25,127.86a27.5,27.5,0,0,1,19.3-4.74,26.56,26.56,0,0,1,16.91,10.25,27.1,27.1,0,0,1,4.67,19.27A26.86,26.86,0,0,1,76.9,169.52a25,25,0,0,1-9.15,4.18,24.45,24.45,0,0,1-10.08.51,24.85,24.85,0,0,1-9.4-3.5A25.15,25.15,0,0,1,40.81,164,27,27,0,0,1,36,144.74a26.84,26.84,0,0,1,10.24-16.88ZM42.83,145.8a19.16,19.16,0,0,0,.41,7.35,18.81,18.81,0,0,0,3.06,6.72,19.15,19.15,0,0,0,5.48,4.92,18.81,18.81,0,0,0,6.89,2.58,18.1,18.1,0,0,0,7.38-.4,17.42,17.42,0,0,0,6.67-3.05,18.83,18.83,0,0,0,5-5.49,18.45,18.45,0,0,0,2.53-6.88,19.61,19.61,0,0,0-3.42-14.08,18.1,18.1,0,0,0-5.44-5A18.38,18.38,0,0,0,64.42,130a20.3,20.3,0,0,0-7.36.36,19.94,19.94,0,0,0-6.74,3.1,18.7,18.7,0,0,0-4.92,5.42A19,19,0,0,0,42.83,145.8Z"/><path class="cls-2" d="M71.27,93.19l2.62-2.78a13.11,13.11,0,0,1,4.23-3,13.84,13.84,0,0,1,9.95-.36,12.5,12.5,0,0,1,4.23,2.67,11.8,11.8,0,0,1,1.88,2.48,16.52,16.52,0,0,1,1.53,3.5l.69,2.2L98.55,97a21.92,21.92,0,0,1,2.29-.74,12.65,12.65,0,0,1,1.9-.28,15.8,15.8,0,0,1,5.82,1,15.24,15.24,0,0,1,9.76,13.66,14.65,14.65,0,0,1-4,10.8l-5,5.26-1.49,1.59-1.2,1.27-4.89,5.19L64.83,100Zm13.38,16.28,1.45-1.69c.53-.62,1.24-1.48,2.14-2.57.21-.24.39-.46.56-.64l.07-.13a8.32,8.32,0,0,0,1.26-2.23,7.8,7.8,0,0,0,.33-2.73,7.52,7.52,0,0,0-.63-2.61A7.06,7.06,0,0,0,86,93.24a8.15,8.15,0,0,0-2.65-.48,7.9,7.9,0,0,0-2.56.58,6.64,6.64,0,0,0-2.15,1.54L76,97.66l-.35.37-1.48,1.56L75.72,101,83,108Zm17,16,1.47-1.56,1.5-1.59,5-5.26a8.75,8.75,0,0,0,1.75-2.8,8,8,0,0,0,.53-3.3,8.58,8.58,0,0,0-.77-3.31,9.21,9.21,0,0,0-2-2.76,8.83,8.83,0,0,0-6.22-2.4,9.42,9.42,0,0,0-3.22.67,8.6,8.6,0,0,0-2.79,1.73c-.85.79-1.63,1.58-2.35,2.36l-2.15,2.35q-.54.57-1,1.14l-1,1.09-1.48,1.57,1.54,1.45,9.7,9.15Z"/><path class="cls-2" d="M163.56,81.54l-5.9,4.23-7.92-4.6L141,87.46l-8.75,6.27,1.82,9-5.9,4.23L116,52.63ZM137.79,83l6.75-4.84q-4.47-2.67-9.35-5.92t-9.34-6q1.11,5.11,2.6,10.8t2.62,10.76Z"/><path class="cls-2" d="M204.18,56.49a10.62,10.62,0,0,0,2.06-2.4,7.6,7.6,0,0,0,1.06-2.92A6.58,6.58,0,0,0,207,48a5.22,5.22,0,0,0-1.38-2.22,6.73,6.73,0,0,0-2.11-1.41,11.81,11.81,0,0,0-2.69-.71,21.61,21.61,0,0,0-2.86-.24q-1.33,0-2.88.09a26.54,26.54,0,0,1-6.45-.29A16.27,16.27,0,0,1,183,41.12a12.16,12.16,0,0,1-3.18-2.77,12.55,12.55,0,0,1-2.1-3.77,14.63,14.63,0,0,1,9-18.64,14.34,14.34,0,0,1,5.2-.82,14.79,14.79,0,0,1,5.06,1,14.24,14.24,0,0,1,6.57,5.2l-5.93,3.58A7.71,7.71,0,0,0,195,22.83,7.58,7.58,0,0,0,186.51,24a7.77,7.77,0,0,0-1.79,2.4,8,8,0,0,0-.77,2.91,7.25,7.25,0,0,0,.39,3,6.34,6.34,0,0,0,1,1.87,6.41,6.41,0,0,0,1.37,1.3,6.56,6.56,0,0,0,1.72.84,11.63,11.63,0,0,0,1.87.47,17.64,17.64,0,0,0,2,.2c.77,0,1.44,0,2,0l2-.06,1.72,0a25.53,25.53,0,0,1,3.85.31,19.68,19.68,0,0,1,3.73,1A16.71,16.71,0,0,1,209,39.86a12.13,12.13,0,0,1,2.76,2.52,11.43,11.43,0,0,1,1.89,3.42,13.18,13.18,0,0,1,.66,5.85,14.8,14.8,0,0,1-1.69,5.54,16.67,16.67,0,0,1-3.67,4.54,15.28,15.28,0,0,1-5.09,3,15.54,15.54,0,0,1-6.4.83,15.84,15.84,0,0,1-6.28-1.82,14.27,14.27,0,0,1-4.9-4.18l5.95-3.61a8,8,0,0,0,4.3,2.46,8.85,8.85,0,0,0,5-.21A10.22,10.22,0,0,0,204.18,56.49Z"/><path class="cls-2" d="M251.56,3.27a26.37,26.37,0,0,1,9.05,4.56,25.75,25.75,0,0,1,6.76,7.48,25.37,25.37,0,0,1,3.22,9.55A26.2,26.2,0,0,1,258,50.66a26.84,26.84,0,0,1-19.58,2.65,25,25,0,0,1-9-4.49,24.62,24.62,0,0,1-6.74-7.52,25.21,25.21,0,0,1-3.18-9.52,25.25,25.25,0,0,1,.54-10,25.9,25.9,0,0,1,4.48-9.08A25.88,25.88,0,0,1,232,5.92a26.91,26.91,0,0,1,19.58-2.65Zm-16.12,8.62A19.21,19.21,0,0,0,230,16.83a18.77,18.77,0,0,0-3.31,6.61,19,19,0,0,0-.38,7.35,18.63,18.63,0,0,0,2.32,7,18,18,0,0,0,4.95,5.49,17.52,17.52,0,0,0,6.57,3.28,18.85,18.85,0,0,0,7.39.41,19.16,19.16,0,0,0,15.74-13.87,18,18,0,0,0,.45-7.36,18.27,18.27,0,0,0-2.39-7,20.26,20.26,0,0,0-4.91-5.49,19.68,19.68,0,0,0-6.64-3.3,18.51,18.51,0,0,0-7.32-.42A18.89,18.89,0,0,0,235.44,11.89Z"/><path class="cls-2" d="M325.63,3.81l-1.9,20-1.06,11.06a20.16,20.16,0,0,1-2.16,7.54,20.2,20.2,0,0,1-5,6v0a20.15,20.15,0,0,1-6.9,3.77,19.82,19.82,0,0,1-7.78.73,20.39,20.39,0,0,1-7.57-2.16,19.06,19.06,0,0,1-6.06-5.07,19.66,19.66,0,0,1-3.8-6.87,20.12,20.12,0,0,1-.69-7.81L283.73,20l1.91-20,6.82.65-1.9,20-.95,9.88-.11,1.16a12.88,12.88,0,0,0,3,9.63,12.45,12.45,0,0,0,4,3.3A12.75,12.75,0,0,0,301.42,46a12.93,12.93,0,0,0,5.09-.51A12.79,12.79,0,0,0,311,43.05a12.62,12.62,0,0,0,4.82-8.89L316,33l.94-9.88,1.9-20Z"/><path class="cls-2" d="M350.31,9.74,338.76,50l-.6,2.07,2,.58,19.17,5.5-1.84,6.43-27.73-8,14-48.74Z"/><path class="cls-2" d="M403.19,79.33a10.75,10.75,0,0,0,3.15,0,7.57,7.57,0,0,0,2.93-1.06,6.61,6.61,0,0,0,2.21-2.25,5.2,5.2,0,0,0,.83-2.48,6.61,6.61,0,0,0-.27-2.52,11.69,11.69,0,0,0-1.17-2.52,20.21,20.21,0,0,0-1.65-2.36c-.56-.68-1.2-1.4-1.91-2.15a26.58,26.58,0,0,1-3.9-5.15,16.32,16.32,0,0,1-2-5.68,12.18,12.18,0,0,1,.1-4.21,12.34,12.34,0,0,1,1.55-4A14.49,14.49,0,0,1,407,40.7a14.74,14.74,0,0,1,20.19,2.76A14.84,14.84,0,0,1,429.61,48a14.17,14.17,0,0,1,.2,8.38l-6.54-2.26a7.74,7.74,0,0,0-.09-3.41A7.6,7.6,0,0,0,416.85,45a7.69,7.69,0,0,0-3,.16,8,8,0,0,0-2.74,1.26,7.38,7.38,0,0,0-2,2.23,6.07,6.07,0,0,0-.79,2,6.19,6.19,0,0,0-.13,1.89,6.65,6.65,0,0,0,.46,1.86,11.75,11.75,0,0,0,.83,1.74,16.43,16.43,0,0,0,1.15,1.68c.47.62.88,1.14,1.25,1.55l1.29,1.46c.5.56.87,1,1.13,1.3a27.28,27.28,0,0,1,2.22,3.15,20,20,0,0,1,1.65,3.49,15.66,15.66,0,0,1,.88,3.67,11.87,11.87,0,0,1-.17,3.74,11.19,11.19,0,0,1-1.41,3.64A13.32,13.32,0,0,1,413.37,84,14.79,14.79,0,0,1,408,86.23a16.8,16.8,0,0,1-5.84.09,15.38,15.38,0,0,1-5.56-2,15.83,15.83,0,0,1-4.73-4.39,16,16,0,0,1-2.62-6,14.32,14.32,0,0,1,.08-6.45l6.58,2.26a8,8,0,0,0,.86,4.88,8.87,8.87,0,0,0,3.37,3.73A10.43,10.43,0,0,0,403.19,79.33Z"/><path class="cls-2" d="M480,84.46l-13.32,15-7.39,8.31a19,19,0,0,1-13.81,6.71l0,0a20.15,20.15,0,0,1-7.79-1,19.85,19.85,0,0,1-6.72-4,20.42,20.42,0,0,1-4.83-6.22,19.07,19.07,0,0,1-1.91-7.66,19.68,19.68,0,0,1,1-7.8,20.19,20.19,0,0,1,4.05-6.71l7.39-8.31,13.32-15,5.13,4.56-13.33,15-6.59,7.42-.77.87A12.87,12.87,0,0,0,431.76,90a13.32,13.32,0,0,0-.67,5.11,12.39,12.39,0,0,0,1.29,5,12.82,12.82,0,0,0,3.12,4.1,13.12,13.12,0,0,0,4.4,2.59,14.33,14.33,0,0,0,10.17-.55,13.14,13.14,0,0,0,4.09-3.12l.77-.87,6.59-7.42,13.32-15Z"/><path class="cls-2" d="M463.65,120.68,479,109.07l13.66-10.33,5.37,7.1,5,6.58a16.78,16.78,0,0,1,3,6,18.38,18.38,0,0,1-1.76,13.11,17.57,17.57,0,0,1-4.51,5,17.24,17.24,0,0,1-6,3,17,17,0,0,1-18-6.39l-5-6.59-1.28-1.68-1.68,1.27-11.46,8.67-4.1-5.41Zm11.14.08,1.28,1.69,4.95,6.6a10.36,10.36,0,0,0,3,2.74,10.55,10.55,0,0,0,3.86,1.31,11.37,11.37,0,0,0,4.05-.24,9.72,9.72,0,0,0,3.66-1.79,9.5,9.5,0,0,0,2.68-3,11.08,11.08,0,0,0,1.34-3.83,10.44,10.44,0,0,0-.17-4.07,10.25,10.25,0,0,0-1.8-3.68l-5-6.59-1.27-1.68-1.69,1.27-6.61,5-6.61,5Z"/><path class="cls-2" d="M489.42,156.51l17.16-8.67,15.29-7.71,4,7.94,3.72,7.37a16.73,16.73,0,0,1,1.84,6.44,17.21,17.21,0,0,1-28.34,14.31,17.27,17.27,0,0,1-4.07-5.32l-3.72-7.36-.95-1.89-1.89.95L479.66,169,476.6,163Zm10.94,2.08.95,1.89,3.69,7.38a10.34,10.34,0,0,0,2.47,3.22,10.47,10.47,0,0,0,3.56,2,11.2,11.2,0,0,0,4,.48,9.59,9.59,0,0,0,3.91-1.09,9.74,9.74,0,0,0,3.18-2.49,10.85,10.85,0,0,0,2-3.53,10.48,10.48,0,0,0,.57-4,10.15,10.15,0,0,0-1.12-3.94l-3.72-7.37-1-1.89-1.89.95-7.4,3.74-7.39,3.74Z"/><path class="cls-2" d="M551.2,220a26.45,26.45,0,0,1-3.45,9.53A24.72,24.72,0,0,1,532,241.51a24.79,24.79,0,0,1-19.54-2.78,25.62,25.62,0,0,1-7.58-6.67,27,27,0,0,1-5-19.11,25.19,25.19,0,0,1,3.39-9.48,24.39,24.39,0,0,1,6.67-7.58,25,25,0,0,1,9.07-4.3,25.29,25.29,0,0,1,10-.66,26.89,26.89,0,0,1,17.15,10,27,27,0,0,1,5,19.11Zm-10.48-15a19.43,19.43,0,0,0-5.55-4.83,18,18,0,0,0-14.3-2,18.47,18.47,0,0,0-6.66,3.13,18.11,18.11,0,0,0-4.86,5.57,17.36,17.36,0,0,0-2.47,6.91,19.07,19.07,0,0,0,.47,7.38,19.15,19.15,0,0,0,15.65,14,18,18,0,0,0,7.36-.43,18.21,18.21,0,0,0,6.64-3.2,20.16,20.16,0,0,0,4.87-5.53,19.73,19.73,0,0,0,2.48-7,18.58,18.58,0,0,0-.45-7.32A19.19,19.19,0,0,0,540.72,205.07Z"/><path class="cls-2" d="M558.21,252.87l.63,15.81a19.33,19.33,0,0,1-1.05,7.21,17.68,17.68,0,0,1-3.41,5.87,16.8,16.8,0,0,1-4.87,3.81,14.81,14.81,0,0,1-5.92,1.33l-1.43.05a14.3,14.3,0,0,1-4.87-.58,19.33,19.33,0,0,1-4.48-2.15,11.47,11.47,0,0,1-2.79-2.41,13,13,0,0,1-1.76-3.07l-1-2.35-2.13,1.49-16.17,11.36-.33-8.45,17.29-12.26-.3-7.5-17.75.71-.27-6.81Zm-25.46,17.88,0,0a9.27,9.27,0,0,0,.83,3.62,10.71,10.71,0,0,0,2.26,2.81,9.24,9.24,0,0,0,3.36,2.05,9.87,9.87,0,0,0,3.81.5,10.11,10.11,0,0,0,3.65-.8,10.75,10.75,0,0,0,3-2.27h0a9.39,9.39,0,0,0,2-3.76,14.45,14.45,0,0,0,.53-4.66l-.24-6.2L551.8,260l-2.15.09-15.16.6-2.11.09.09,2.11.06,2.56.07,1.7Z"/><path class="cls-2" d="M556.52,318.5l-1.33,11.32-6.67-.79,1.33-11.32.25-2.13-2.1-.25-41.61-4.89.8-6.75,41.6,4.9,2.1.25.25-2.14,1.33-11.31,6.68.78-1.33,11.32Z"/><path class="cls-2" d="M60.69,389.61,52,394.22l-.93.49.49.93,4.26,8.05.49.93.93-.49,8.71-4.61,1.57,3L45.27,414.24l-1.57-3,8.72-4.61.93-.49-.49-.93-4.27-8.05-.49-.93-.92.49-8.72,4.61-1.56-3,22.22-11.76Z"/><path class="cls-2" d="M79.15,420.58l-2.8,1.84-5.42-8.28-.58-.88-.87.58-4.6,3-.89.59.57.87,3.92,6-2.8,1.83-3.92-6-.57-.88-.88.58-4.6,3-.89.58.57.88,5.43,8.27L58,434.43l-5.43-8.28-2.42-3.69,21.14-13.84Z"/><path class="cls-2" d="M75.94,457.43l-2.25-2.81,2.06-4-3.35-4.17-3.35-4.15-4.39,1.15-2.25-2.81,26.53-7.48ZM74.5,444.72l2.58,3.2q1.2-2.28,2.68-4.78c1-1.67,1.88-3.26,2.7-4.79q-2.5.69-5.28,1.59t-5.25,1.59Z"/><path class="cls-2" d="M102.16,448.63,87.31,463.12l-.77.74.73.75,6.91,7.08L91.81,474l-10-10.23,18-17.55Z"/><path class="cls-2" d="M115.07,488.4a3.57,3.57,0,0,1-.59-5.06,3.64,3.64,0,1,1,.62,5.08Z"/><path class="cls-2" d="M148.28,486.69l6.75,4a9.73,9.73,0,0,1,2.72,2.37,8.91,8.91,0,0,1,1.52,3,8.28,8.28,0,0,1,.28,3.05,7.32,7.32,0,0,1-1.05,2.82l-.36.61a7,7,0,0,1-1.56,1.87,8.75,8.75,0,0,1-2.1,1.29,6,6,0,0,1-1.75.52,6.5,6.5,0,0,1-1.75-.1l-1.26-.19,0,1.28.37,9.79-3.6-2.14-.45-10.5-3.2-1.89-4.49,7.58-2.91-1.72Zm.58,15.42v0a4.56,4.56,0,0,0,1.73.63,5.29,5.29,0,0,0,1.78-.18,4.52,4.52,0,0,0,1.76-.85,4.87,4.87,0,0,0,1.23-1.45,5,5,0,0,0,.66-1.74,5.66,5.66,0,0,0-.14-1.85h0a4.52,4.52,0,0,0-1-1.83,7.13,7.13,0,0,0-1.8-1.48l-2.65-1.57-.9-.53-.54.91-3.84,6.48-.53.9.9.53,1.08.67.73.43Z"/><path class="cls-2" d="M181.43,504.31l-1.44,3-8.92-4.25-.95-.45-.45.95-2.36,5-.46,1,1,.45,6.45,3.07-1.44,3L166.36,513l-1-.45-.45,1-2.36,5-.46,1,.94.45,8.93,4.25-1.44,3-8.93-4.25-4-1.9,10.86-22.8Z"/><path class="cls-2" d="M187,529.8a4.93,4.93,0,0,0,1.54-.26,3.84,3.84,0,0,0,1.34-.77,3.38,3.38,0,0,0,.88-1.29,2.6,2.6,0,0,0,.18-1.29,3.22,3.22,0,0,0-.36-1.2,5.69,5.69,0,0,0-.79-1.13,10.51,10.51,0,0,0-1-1c-.34-.29-.71-.58-1.13-.88a13,13,0,0,1-2.35-2.16,8,8,0,0,1-1.46-2.6,5.93,5.93,0,0,1-.33-2.06,6.07,6.07,0,0,1,.4-2.1,7.17,7.17,0,0,1,3.79-4,7.37,7.37,0,0,1,2.74-.64,7.29,7.29,0,0,1,2.83.47,7.46,7.46,0,0,1,2.24,1.34,7.36,7.36,0,0,1,1.59,2,7,7,0,0,1,.84,4.06l-3.39-.52a3.76,3.76,0,0,0-.34-1.65,3.7,3.7,0,0,0-2.12-2,3.74,3.74,0,0,0-1.48-.24,3.86,3.86,0,0,0-2.67,1.21,3.61,3.61,0,0,0-.8,1.26,2.94,2.94,0,0,0-.2,1,3.05,3.05,0,0,0,.1.93,3.43,3.43,0,0,0,.39.86,5.61,5.61,0,0,0,.56.78,9.43,9.43,0,0,0,.71.72c.28.26.53.47.74.64l.76.6.67.53a12.32,12.32,0,0,1,1.36,1.34,10,10,0,0,1,1.12,1.56,7.55,7.55,0,0,1,.75,1.71,5.79,5.79,0,0,1,.25,1.83,5.66,5.66,0,0,1-.36,1.9,6.75,6.75,0,0,1-1.61,2.44,7.29,7.29,0,0,1-2.41,1.56,8.12,8.12,0,0,1-2.84.57,7.85,7.85,0,0,1-7.39-4.89,7.18,7.18,0,0,1-.54-3.15l3.41.52a4,4,0,0,0,.86,2.3,4.36,4.36,0,0,0,2,1.51A5.07,5.07,0,0,0,187,529.8Z"/><path class="cls-2" d="M216.1,516.42l5.44,1.53-.9,3.21-5.44-1.53-1-.29-.29,1-5.61,20-3.24-.91,5.61-20,.29-1-1-.29-5.43-1.52.9-3.21,5.43,1.53Z"/><path class="cls-2" d="M240.35,522.36a13.17,13.17,0,0,1,3.58,3.53,12.38,12.38,0,0,1,2.11,9.56,12.66,12.66,0,0,1-1.81,4.65,12.37,12.37,0,0,1-3.51,3.56,12.69,12.69,0,0,1-4.57,2,13,13,0,0,1-5,0,12.68,12.68,0,0,1-4.66-1.79,12.3,12.3,0,0,1-3.56-3.49,12.14,12.14,0,0,1-2-4.57,12.42,12.42,0,0,1-.05-5,12.58,12.58,0,0,1,1.78-4.64,13.3,13.3,0,0,1,8.06-5.64,13.31,13.31,0,0,1,9.63,1.73ZM231.44,524a9.63,9.63,0,0,0-3.33,1.49,9.36,9.36,0,0,0-2.56,2.62,9.82,9.82,0,0,0-1.27,7,8.92,8.92,0,0,0,1.49,3.35,8.51,8.51,0,0,0,2.6,2.54,9.24,9.24,0,0,0,3.42,1.32,9,9,0,0,0,3.63-.05,9.68,9.68,0,0,0,5.91-4.09,9.44,9.44,0,0,0,1.27-7.05,9.64,9.64,0,0,0-4.1-5.91,9.25,9.25,0,0,0-3.39-1.31A9.43,9.43,0,0,0,231.44,524Z"/><path class="cls-2" d="M254.32,523.55l7.83.54a9.43,9.43,0,0,1,3.5.9,8.84,8.84,0,0,1,2.71,2,8.45,8.45,0,0,1,1.61,2.61,7.19,7.19,0,0,1,.34,3l-.05.7a6.87,6.87,0,0,1-.55,2.37,9.69,9.69,0,0,1-1.29,2.1,6,6,0,0,1-1.34,1.25,6.7,6.7,0,0,1-1.61.7l-1.21.39.61,1.13,4.74,8.57-4.19-.28-5.11-9.18-3.71-.26-.6,8.79-3.38-.23Zm7.45,13.51h0a4.41,4.41,0,0,0,1.82-.21,5.1,5.1,0,0,0,1.51-1,4.52,4.52,0,0,0,1.19-1.55,4.88,4.88,0,0,0,.45-1.85,4.81,4.81,0,0,0-.2-1.84,5.5,5.5,0,0,0-.95-1.59v0a4.72,4.72,0,0,0-1.75-1.17,7.53,7.53,0,0,0-2.27-.51l-3.07-.21-1-.07-.07,1.06-.52,7.5-.07,1.05,1.05.07,1.26.11.85,0Z"/><path class="cls-2" d="M291.9,524.39l.07,3.35-9.89.2L281,528l0,1,.12,5.49,0,1.07,1.05,0,7.15-.15.07,3.35-7.15.15-1.05,0,0,1.05.11,5.5,0,1.06,1,0,9.89-.21.08,3.35-9.89.21-4.42.09-.53-25.26Z"/><path class="cls-2" d="M318.8,542.45a3.58,3.58,0,0,1-4.1-3,3.63,3.63,0,1,1,7.18-1.12,3.58,3.58,0,0,1-3.05,4.14Z"/><path class="cls-2" d="M350,514.25l5.42-1.57.93,3.2-5.42,1.57-1,.29.3,1,5.76,19.94-3.23.93-5.77-19.93-.29-1-1,.29-5.42,1.57-.93-3.19,5.42-1.57Z"/><path class="cls-2" d="M361.3,510.67l7.3-2.86a9.52,9.52,0,0,1,3.54-.68,8.78,8.78,0,0,1,3.31.64,8.45,8.45,0,0,1,2.57,1.66A7.21,7.21,0,0,1,379.6,512l.26.67a7.08,7.08,0,0,1,.52,2.37,9.6,9.6,0,0,1-.28,2.45,5.77,5.77,0,0,1-.67,1.7,6.4,6.4,0,0,1-1.15,1.32l-.93.87,1,.76,7.94,5.72-3.9,1.53-8.54-6.1-3.46,1.35,3.21,8.2-3.14,1.23Zm12.51,9h0a4.48,4.48,0,0,0,1.56-1,5.23,5.23,0,0,0,.95-1.51,4.7,4.7,0,0,0,.41-1.91,5.55,5.55,0,0,0-1.35-3.44,5.41,5.41,0,0,0-1.55-1v0a4.55,4.55,0,0,0-2.08-.3,7.22,7.22,0,0,0-2.26.51l-2.87,1.12-1,.38.39,1,2.74,7,.39,1,1-.39,1.19-.44.78-.31Z"/><path class="cls-2" d="M412.61,514.79l-3.2,1.65-3.56-2.82-4.75,2.46-4.74,2.45.25,4.53-3.2,1.66-2.06-27.52Zm-12.75-1.12,3.65-1.89q-2-1.63-4.16-3.58t-4.16-3.6q.18,2.59.51,5.49c.22,1.93.39,3.75.51,5.47Z"/><path class="cls-2" d="M429.31,494.43l-1.66-2.5-7.79-11.71,2.8-1.86,14.2,21.35-23.35-5.47,1.07,1.6,8.4,12.64-2.8,1.86-14.1-21.19Z"/><path class="cls-2" d="M448.18,485.74a5.09,5.09,0,0,0,.55-1.46,3.63,3.63,0,0,0,0-1.54,3.29,3.29,0,0,0-.67-1.41,2.64,2.64,0,0,0-1-.8,3.36,3.36,0,0,0-1.22-.3,5.3,5.3,0,0,0-1.38.13,9.36,9.36,0,0,0-1.37.37c-.41.14-.85.32-1.33.53a13.32,13.32,0,0,1-3.05.95,8,8,0,0,1-3,0,5.8,5.8,0,0,1-2-.75,6.2,6.2,0,0,1-1.62-1.4,7.23,7.23,0,0,1-1.6-5.31,7.37,7.37,0,0,1,.82-2.69,7.19,7.19,0,0,1,1.83-2.21,7.16,7.16,0,0,1,4.81-1.64,7.1,7.1,0,0,1,3.95,1.31l-2.16,2.67a3.93,3.93,0,0,0-1.6-.53,3.68,3.68,0,0,0-2.8.83,3.54,3.54,0,0,0-.95,1.16A4,4,0,0,0,434,475a4.17,4.17,0,0,0,.13,1.49,3.58,3.58,0,0,0,.7,1.32,3,3,0,0,0,.78.7,3.38,3.38,0,0,0,.86.38,3.49,3.49,0,0,0,.94.09,5.38,5.38,0,0,0,.95-.09,8.53,8.53,0,0,0,1-.26c.37-.11.68-.22.93-.32l.9-.36c.35-.13.61-.24.8-.3a12.29,12.29,0,0,1,1.84-.51,9.87,9.87,0,0,1,1.9-.18,8,8,0,0,1,1.86.2,5.75,5.75,0,0,1,1.71.71,5.35,5.35,0,0,1,1.46,1.27,6.55,6.55,0,0,1,1.3,2.61,7.35,7.35,0,0,1,.15,2.87,8.34,8.34,0,0,1-.94,2.74,7.52,7.52,0,0,1-1.86,2.25,7.94,7.94,0,0,1-2.84,1.47,8,8,0,0,1-3.24.22,7.19,7.19,0,0,1-3-1.12l2.16-2.69a4,4,0,0,0,2.42.42,4.44,4.44,0,0,0,2.3-.95A5.14,5.14,0,0,0,448.18,485.74Z"/><path class="cls-2" d="M454.22,450.9l2.33,2.4-7.12,6.88-.75.73.73.75,3.82,3.95.74.77.75-.73,5.15-5,2.32,2.41-5.14,5-.76.73.73.75,3.81,3.94,3.08,3.19L461.49,479l-6.89-7.13L450.8,468l-6.87-7.11Z"/><path class="cls-2" d="M469,435.44a13.32,13.32,0,0,1,4.85-1.32,12.37,12.37,0,0,1,9.33,3,12.28,12.28,0,0,1,4.43,8.73,12.94,12.94,0,0,1-6.89,12.43,12.5,12.5,0,0,1-4.81,1.33,12.17,12.17,0,0,1-5-.55,13.35,13.35,0,0,1-7.44-6.33,13.4,13.4,0,0,1-.83-9.81,13.37,13.37,0,0,1,6.34-7.46ZM465.86,444a9.7,9.7,0,0,0-.38,3.63,8.93,8.93,0,0,0,3.27,6.37,8.9,8.9,0,0,0,6.81,2.2,8.68,8.68,0,0,0,3.51-1,9.37,9.37,0,0,0,2.86-2.3,9.12,9.12,0,0,0,1.78-3.16,9.69,9.69,0,0,0-.56-7.17,9.06,9.06,0,0,0-2.27-2.86,9.16,9.16,0,0,0-3.2-1.79,9.7,9.7,0,0,0-7.17.58,9.64,9.64,0,0,0-4.65,5.47Z"/><path class="cls-2" d="M477,424l4.4-6.49a9.71,9.71,0,0,1,2.54-2.57,8.68,8.68,0,0,1,3.09-1.33,8.51,8.51,0,0,1,3.07-.09,7.37,7.37,0,0,1,2.75,1.21l.59.4a7.45,7.45,0,0,1,1.77,1.67,9.67,9.67,0,0,1,1.16,2.18,5.93,5.93,0,0,1,.4,1.78,6.61,6.61,0,0,1-.2,1.74l-.28,1.25,1.29,0,9.79.23L505,427.48l-10.51-.2-2.09,3.08,7.29,4.94-1.89,2.8Zm15.42.37h0a4.51,4.51,0,0,0,.74-1.69,5.06,5.06,0,0,0-.08-1.79,4.6,4.6,0,0,0-.73-1.81,5.26,5.26,0,0,0-1.37-1.32,5,5,0,0,0-1.69-.75,5.55,5.55,0,0,0-1.86,0h0a4.63,4.63,0,0,0-1.89.93,7.17,7.17,0,0,0-1.58,1.7l-1.73,2.55-.59.86.88.6,6.23,4.23.87.58.58-.86.73-1,.47-.7Z"/><path class="cls-2" d="M511.94,402.57,501,382.93l22.48,11.84-1.56,3-12.64-6.65,8,14.28L501,406.89l12.64,6.65-1.56,3-22.49-11.84Z"/><circle class="cls-2" cx="36.69" cy="357.52" r="7.69"/><circle class="cls-2" cx="525.25" cy="357.52" r="7.69"/><path class="cls-2" d="M394.43,319.45h0Z"/><path class="cls-2" d="M114.53,223.52A102.55,102.55,0,0,0,150.9,254.2a185.75,185.75,0,0,0,26.18,10.3c6.26,2,12.3,4.28,18.81,5.54-1.86-.36-5.85,3.82-7.06,5a36.64,36.64,0,0,0-5.87,7.32c-.7,1.19-1.45,2.36-2.07,3.58A73.22,73.22,0,0,0,175,300.92,122.87,122.87,0,0,0,172,316c-1.47,10-2.11,19.58-3.82,28.8a85.15,85.15,0,0,1-3.46,13.46,56.3,56.3,0,0,1-2.68,6.29,48.3,48.3,0,0,1-3.53,5.89,42.36,42.36,0,0,1-4.37,5.37c-.78.86-1.65,1.63-2.5,2.43-.43.39-.89.74-1.34,1.11a16.18,16.18,0,0,1-1.4,1.07,31.84,31.84,0,0,1-6.13,3.35c-2.18,1-8.85,2.51-11.26,3a39.82,39.82,0,0,0,12-.84,30.72,30.72,0,0,0,7-2.71A42.36,42.36,0,0,0,163,374.18a56.52,56.52,0,0,0,5-6,57.44,57.44,0,0,0,4-6.72,67.72,67.72,0,0,0,3.17-7.08c.93-2.41,1.74-4.84,2.48-7.28,2.88-9.78,4.43-19.63,6.45-28.89a137.79,137.79,0,0,1,3.57-13.45c.2-.6.42-1.19.64-1.78l4.72,0c4.67,0,9.39.15,14.26.14l1.67,0-1.56.61c-.69.31-1.4.67-2.1,1a15.81,15.81,0,0,0-2.07,1.11,28.37,28.37,0,0,0-3.84,2.68c-.59.5-1.23,1-1.78,1.51L196,311.68a16.71,16.71,0,0,0-1.54,1.73l-1.47,1.79-1.31,1.88a20.82,20.82,0,0,0-1.21,1.94l-1.12,2c-.39.66-.67,1.36-1,2s-.67,1.35-.94,2l-.81,2.1A60.68,60.68,0,0,0,183,344.6c-.12,1.48-.09,3-.11,4.46s.1,3,.22,4.47a68.31,68.31,0,0,0,1.28,8.7,90.61,90.61,0,0,0,5.15,16.55c4.35,10.59,10.16,20.26,16.12,29.48,3.56,5.54,7.17,10.94,10.61,16.38-6.23,12.75-13.9,23.08-27.41,29a52.45,52.45,0,0,1-34.62,2.59c1.85.5,4.12,3,6,3.93a31.42,31.42,0,0,0,7.88,2.71c4.44.9,9.43.85,13.94.83,10.75-.06,22.76-7.16,30.57-14a59.53,59.53,0,0,0,10.13-11.58c.28-.4.53-.83.79-1.24a124.46,124.46,0,0,1,6.22,13.05A86.81,86.81,0,0,1,234.13,465a66.26,66.26,0,0,1,1.18,15.73,54.7,54.7,0,0,1-3.23,15.67l.8.4a47.89,47.89,0,0,0,6-15.62,55.29,55.29,0,0,0,1-8.42c.11-1.42.06-2.83.08-4.25s-.1-2.83-.19-4.25a80.72,80.72,0,0,0-3.14-16.72,116.12,116.12,0,0,0-6.1-15.79q-1-2.13-2.07-4.22c.45-1.06.88-2.12,1.26-3.2a72.64,72.64,0,0,0,3.46-14.83,101,101,0,0,0,.65-14.79c-.11-4.86-.51-9.64-1-14.35s-1.09-9.35-1.67-13.94a110.68,110.68,0,0,1,1.54-35.16c.18-.9.43-1.78.66-2.67s.43-1.78.7-2.66c.53-1.75,1-3.52,1.63-5.23a73.52,73.52,0,0,1,9.81-19.09,52.21,52.21,0,0,1,7-7.91c1.24-1.26,2.67-2.36,4-3.53s2.87-2.2,4.42-3.21c3-2.12,6.28-4,9.59-5.87s6.79-3.64,10.24-5.49a177.86,177.86,0,0,0,20.67-12.13c.84-.56,1.62-1.22,2.44-1.82s1.6-1.21,2.41-1.91a32.67,32.67,0,0,0,4.36-4.52c3.15-4,4-8.58,5.3-13.38a40.11,40.11,0,0,1-16.5,17.72c-13.47,7.56-31.76,7.39-46.4,3.8-13.36-3.29-26-8-39.65-3.07-2.46.89-4.87,2.06-7.48,2.34a22.55,22.55,0,0,1-6.73-.65c-17-3.4-33.33-7.67-48.24-16.83-2.29-1.41-4.53-2.88-6.73-4.43,11.64.88,22.16,1.26,33.72-1.1a114.34,114.34,0,0,0,16.14-4.52c5-1.78,9.59-4.77,14.53-6.42a111.79,111.79,0,0,1-68.63.59c3.05,0,6.12,0,9.22-.24a81.49,81.49,0,0,0,9.56-1.26c3.1-.61,6.16-1.34,9.2-2.15a153.12,153.12,0,0,0,17.87-6c20.68-8.37,39.39-20.72,56.71-34.23l1.43-.59-.17-.4q2.67-2.1,5.3-4.23a155.83,155.83,0,0,1,14.3-10.47,49.81,49.81,0,0,1,15-6.57,33.32,33.32,0,0,1,7.78-.87c2.74,0,5.69.15,8.85.28,1.58.06,3.22.1,4.91.08a44.43,44.43,0,0,0,5.34-.38l.14,0a9.58,9.58,0,0,1-.77.7,5,5,0,0,1-1.3.73,5.21,5.21,0,0,1-.66.24,6.52,6.52,0,0,1-.84.18,31.63,31.63,0,0,1-4.51.28,31.42,31.42,0,0,0-6,.55,15.7,15.7,0,0,0-3.42,1.16,13.5,13.5,0,0,0-3.1,2.09,15.38,15.38,0,0,0-4,5.71,23.31,23.31,0,0,0-1.56,6,37.25,37.25,0,0,0-.28,5.71c0,1.77.06,3.49.05,5.19,0,6.07-2.45,12.61-5.61,18.15-.79,1.37-1.62,2.68-2.46,3.9.71-1,5.27-2.89,6.65-4.23a19.12,19.12,0,0,0,4.83-6.58,32.66,32.66,0,0,0,1.81-5.66l.13,0c0-.16,0-.31,0-.47.26-1.17.47-2.34.65-3.51a6.87,6.87,0,0,1,2.67-2.42c2.37-1.38,5.42-2.33,8.55-3.86a18.17,18.17,0,0,0,4.81-3.24,13,13,0,0,0,1.13-1.29,9.6,9.6,0,0,0,.93-1.59,8.26,8.26,0,0,0,.75-2.51,12.84,12.84,0,0,1,.41,6.29,14.37,14.37,0,0,1-9.36,10.52l.2.88a17,17,0,0,0,13.34-10c2.43-5.5,1.36-11.78,4.13-17.16a36.88,36.88,0,0,1,11.78-13.24l.35-.22a87.27,87.27,0,0,0,7.84-5.91c2.45-2.05,4.79-4.1,7.07-6.13s4.66-4.23,6.92-6.41,4.64-4.7,6.79-7.21c.78-.92,1.15-2.24,2.21-2.79,1.28-.67,3.25,0,4.35.7,2.86,1.88,3.46,5.25,6.1,7.31a11.8,11.8,0,0,0,8.67,2.56c3.34-.5,4.41-2.5,6.7-4.46a2.32,2.32,0,0,0,1.05-2,2.71,2.71,0,0,0-.48-1,7,7,0,0,1-1.26-2.8,2.92,2.92,0,0,1,1-2.77c1.17-.85,2.9-.34,3.91.69a4.92,4.92,0,0,1,1.4,3.64,21,21,0,0,1-1,4c-.33,1.34-.27,3,.78,3.85,1.85,1.58,3,.61,3.56,3.26a83,83,0,0,1,1.2,8.45c.18,2.2.27,4.38.24,6.52a43.38,43.38,0,0,1-.6,6.29,34.51,34.51,0,0,1-1.62,6,35,35,0,0,1-2.69,5.6A106.79,106.79,0,0,1,379,183.18a120.54,120.54,0,0,1-18.78,18.66,47.39,47.39,0,0,0-9.85,7.28c-.59.57-1.15,1.17-1.71,1.76l-.94.76a77.11,77.11,0,0,0-5.68,5.23c-.93.93-1.74,1.89-2.61,2.84s-1.64,1.95-2.46,2.93a83,83,0,0,0-14.16,26.82,74.7,74.7,0,0,0-3.05,14.86c-.4,3.89-.5,7.81-.89,11.68-.43,4.27.44,8.64-.08,13a53.94,53.94,0,0,0-10.49-23.49c1.71,7.34.39,15.19-2.84,22-6,12.68-17.31,20.13-28.55,27.72q-4.15,2.81-8.36,5.83c-2.8,2-5.63,4.14-8.33,6.49a71.93,71.93,0,0,0-7.72,7.7l-1.73,2.16-1.64,2.25L247.59,342l-1.42,2.51a32.76,32.76,0,0,0-3.66,16.82,56.52,56.52,0,0,0,1.26,10.36c.62,2.62,2.9,6.15,3,8.7-.32-9.23.19-17.66,4.49-26A61.43,61.43,0,0,1,267,335.54q3.67-3,7.71-5.86l1.38-1c-.47,1.06-.92,2.13-1.34,3.21a85,85,0,0,0-3.67,12.59l-.1,0a62.4,62.4,0,0,0-1.69,13.34,120.53,120.53,0,0,0,.17,17.32c.31,3.63.71,7,1,10.5s.58,6.84.65,10.22c.14,7.41-.39,15.87-3.55,22.67-2.54,5.48-7.74,12.54-13.68,14.73a35.9,35.9,0,0,0,14.93-10.56,36.57,36.57,0,0,0,5.08-7.88c1.25-2.65,1.53-5.16,2.15-8a69.15,69.15,0,0,0,1.4-10.85c.09-1.41.13-2.81.15-4.2a62.43,62.43,0,0,0,3.95,6.35c3.54,5.06,7.39,9.54,11,13.89,1.81,2.19,3.56,4.36,5.13,6.57A65.25,65.25,0,0,1,302,425.4c.65,1.15,1.12,2.34,1.69,3.51.26.6.46,1.22.7,1.83a17.52,17.52,0,0,1,.63,1.85l.58,1.89.44,1.93.22,1,.16,1,.33,2a50.46,50.46,0,0,1-6.81,32.09A39.56,39.56,0,0,0,310.34,458c.64-1.39,1.12-2.84,1.63-4.29.27-.73.41-1.48.62-2.22s.4-1.5.52-2.26l.43-2.28c.13-.76.2-1.54.3-2.31a42.91,42.91,0,0,0,.29-4.68,45.54,45.54,0,0,0-3.8-18.52c-2.53-5.86-6.13-10.94-9.63-15.69s-7.15-9.15-10.12-13.69c-.39-.56-.73-1.13-1.09-1.7s-.7-1.13-1-1.71l-1-1.73-.92-1.76a58.25,58.25,0,0,1-3.11-7.32,68.75,68.75,0,0,1-3.38-31.59l-.11,0a71.69,71.69,0,0,1,13.35-27.77c2.06-2.65,4.29-5.27,6.56-8a83.58,83.58,0,0,0,6.44-8.69c2.23-3.54,3.33-7.19,4.66-11.14a38.71,38.71,0,0,1-2.28,25.62c6.45-6.69,11.86-13.13,14.22-22.24a57.08,57.08,0,0,0,1.35-7.37c.33-2.46.54-4.91.71-7.34.39-4.84.6-9.6,1.35-14.13a69.83,69.83,0,0,1,3.44-13.37c.35-1,.74-2,1.14-2.93A171.51,171.51,0,0,0,328.68,274l-.26,13.24c-.1,4.38-.22,8.67-.6,12.76a59.1,59.1,0,0,1-.91,5.95,39.53,39.53,0,0,1-1.67,5.54,30.93,30.93,0,0,1-2.61,5,33.79,33.79,0,0,1-3.58,4.44c-2.73,2.84-6.13,5.45-9.59,8.43a59.64,59.64,0,0,0-5.13,4.86,38.67,38.67,0,0,0-4.44,5.83,42.43,42.43,0,0,0-3.28,6.44,46.67,46.67,0,0,0-2.11,6.79,53.22,53.22,0,0,0-1.31,13.84,73.31,73.31,0,0,0,1.69,13.46,118.18,118.18,0,0,0,3.58,12.87l.87-.19c-1.1-8.76-2-17.53-1.21-26A55.4,55.4,0,0,1,300.64,355a40.15,40.15,0,0,1,2.39-5.63,34.64,34.64,0,0,1,3.11-5.11,31.37,31.37,0,0,1,3.92-4.38c1.46-1.35,3.06-2.63,4.75-3.92a122.49,122.49,0,0,0,10.71-8.48c.45-.41.88-.86,1.32-1.29l1.26-1.4a15.39,15.39,0,0,0,1.2-1.45c.38-.5.78-1,1.15-1.5a41.43,41.43,0,0,0,3.73-6.57,48.53,48.53,0,0,0,2.41-7,66.57,66.57,0,0,0,1.35-7.07c.31-2.33.53-4.63.68-6.9s.25-4.5.35-6.72l.55-13.18c.43-8.69,1-17.23,2.65-25.41a72.53,72.53,0,0,1,8.44-22.87,50.07,50.07,0,0,1,7.75-10c5.56,4.68,10.54,9.06,13.88,15.7A52.85,52.85,0,0,1,377.49,251c.11,1.33.24,2.63.3,4s0,2.79.15,4.29a29.8,29.8,0,0,0,.6,4.7,17.14,17.14,0,0,0,1.8,4.89,25.33,25.33,0,0,0,6.52,7.21c1.17.93,2.29,1.78,3.41,2.64l3.36,2.59,3.39,2.55,1.68,1.27c.54.4,1,.78,1.39,1.13a6.36,6.36,0,0,1,.9,1,2.9,2.9,0,0,1,.42.89,4.39,4.39,0,0,1-.07,2.37A7.1,7.1,0,0,1,400,293a13.4,13.4,0,0,1-2.66,2.09l-1.81,1.27a10,10,0,0,0-2.22,2.1,4.89,4.89,0,0,0-1,2.35c-.33,2.36,1.11,5.18,2.42,7,.55.77,1.31.78,1.9,1.47a2.26,2.26,0,0,1,.4,2.32c-.49,1.26-1.91,1.84-3,2.48s-2.17,1.24-3.29,1.8-2.27.88-3.35,1.47c-.11.07-.24.15-.26.29s.38.34.66.27a22.79,22.79,0,0,1,3-.73,4,4,0,0,1,3,.68,2.21,2.21,0,0,1,.61,2.79c-.45.7-1.32,1-2,1.49a5.07,5.07,0,0,0-1.57,4.55c.3,3.51,1.65,6.63,2.68,9.94a10.44,10.44,0,0,1,.29,5,10.92,10.92,0,0,1-.76,2.37,6.47,6.47,0,0,1-.56,1,6.35,6.35,0,0,1-.7.87,10.47,10.47,0,0,1-4.09,2.61c-4.9,1.81-11.51,1.82-16.69,2-17.61.52-36.53-1.28-52.32-9.85a50.08,50.08,0,0,0,26.76,14.76,54.87,54.87,0,0,0-5.59,5.07l-2.12,2.27c-.69.76-1.45,1.59-2.14,2.41a76.65,76.65,0,0,0-7.55,10.54,96.59,96.59,0,0,0-5.91,11.49,33.15,33.15,0,0,0-3,13.47A30.85,30.85,0,0,0,322.43,414c5.19,10.55,14.88,18.16,20.34,28.55,3,5.71,4.29,12.13,5.53,18.41,5.41-15.92-5.91-27.32-14.29-39.35a53.81,53.81,0,0,1-5.8-10.18,24.77,24.77,0,0,1-1.92-10.68,26.94,26.94,0,0,1,2.87-10.46A95.73,95.73,0,0,1,342,370.49c.63-.77,1.25-1.48,1.93-2.27s1.34-1.59,2-2.36c1.33-1.55,2.61-3.07,3.93-4.49.66-.71,1.32-1.39,2-2l.49-.46.4-.35a10.33,10.33,0,0,1,.87-.6c3.33-2,7.67-1.18,11.37-1.45,4.92-.36,9.84-.74,14.77-1,1,0,2.11-.11,3.21-.22a23.61,23.61,0,0,0,6.87-1.57,16.06,16.06,0,0,0,6-4.35,12.43,12.43,0,0,0,1.13-1.63,11.68,11.68,0,0,0,.82-1.78,16,16,0,0,0,.87-3.6,15.17,15.17,0,0,0-1-7.2c-.85-2.1-1.81-3.85-2.4-5.52a8.5,8.5,0,0,1-.51-2.48c0-.91,0-1.76,1-2.16a9.92,9.92,0,0,1,1.24-.38,4.83,4.83,0,0,0,3.12-3.15,4.77,4.77,0,0,0,0-2.75c-.06-.2-1-2.27-1.4-2a12.35,12.35,0,0,0,1.9-1.81,7.15,7.15,0,0,0,1.49-2.72,5.88,5.88,0,0,0,0-3.5,6.9,6.9,0,0,0-.64-1.49l-.52-1-2-3.68-.51-.91,0,0c.16-.12.36-.25.57-.38l1.74-1a16.8,16.8,0,0,0,4.1-3,13.47,13.47,0,0,0,2.84-4.78,10.89,10.89,0,0,0,.33-6,9.86,9.86,0,0,0-1.27-3,13.27,13.27,0,0,0-1.87-2.23c-.65-.61-1.29-1.12-1.87-1.58l-1.69-1.32-3.36-2.6-6.69-5.1a19.82,19.82,0,0,1-5-5.12,15.67,15.67,0,0,1-1.74-6.73l-.3-4.19c-1.08-12.15-5.43-23.76-5.84-36.1-.31-9.2,3.55-19.52,8.19-27.29.31-.36.63-.71.94-1.08,2-2.32,3.82-4.73,5.59-7.2a55.5,55.5,0,0,1,17.15,3.86l-9.06-18.4a45.81,45.81,0,0,0,1.64-5.79,56.45,56.45,0,0,0,1.05-8.11,68.2,68.2,0,0,0-.09-8c-.19-2.62-.5-5.19-.88-7.72l-.31-1.89c0-.32-.09-.59-.16-1l-.22-1.1a36.9,36.9,0,0,0-1.2-4.19c-1.2-3.49-3.58-6.72-5.17-10.06a51.84,51.84,0,0,1-4.2-11.94,15.1,15.1,0,0,0-1.34-4.56c-1.56-2.74-6.11-5.65-9.25-5.76a11.86,11.86,0,0,0-2.43.21c-.82.13-1.63.31-2.44.51s-1.61.46-2.4.74-1.57.63-2.33,1a22.34,22.34,0,0,0-4.4,2.78l-.1-.06-.59.41c-5.26,3.67-9.87,7.64-14.47,11.57s-9,7.92-13.41,11.93q-3.32,3-6.75,5.87c-2.36,2-4.65,3.92-6.94,5.75-4.58,3.65-9.17,6.85-14,8.82a32,32,0,0,1-7.31,2,31.21,31.21,0,0,1-3.81.33c-1.37,0-2.8,0-4.28,0-2.95-.07-6.13-.25-9.51-.13a46.52,46.52,0,0,0-10.4,1.49,59,59,0,0,0-18.25,8.71c-6,4.07-10.54,9.43-16.81,13A72.36,72.36,0,0,1,220.28,181c-9.07,2-17.32,5-26.74,6.21a198.53,198.53,0,0,1-23.95,1.55,155,155,0,0,1-23.67-1.63l-16.08-2.43,9.67,12.5a55.87,55.87,0,0,0,21.89,17,56.83,56.83,0,0,0,8.15,2.8c-1.24.4-2.48.8-3.73,1.17-7.63,2.26-16.09,2.9-24,3.66-6.65.64-13.32,1.06-20,1.41Zm282.08,96.4h0s0,0,0,.08h0ZM398,301a0,0,0,0,0,0,0,.64.64,0,0,1,0-.11S398,300.93,398,301ZM296.9,173c0,.09.06.19.08.28a3.25,3.25,0,0,1,.07.58,3.76,3.76,0,0,0,0,.4l.07.44c.05.29,0,.52.08.78s0,.45,0,.66a3,3,0,0,1-.95,2.1,14.36,14.36,0,0,1-3.1,2.36c-1.26.79-2.68,1.56-4.12,2.43a33.57,33.57,0,0,0-3.21,2.17,35.5,35.5,0,0,1,.65-4c.65-3,1.86-5.59,3.52-6.79a6.09,6.09,0,0,1,2.9-1.16A25.9,25.9,0,0,1,296.9,173ZM195.16,198.66q8.94-1.41,17.72-3.55A190.51,190.51,0,0,1,182.6,212c-1.18.52-2.36,1-3.55,1.49a48.21,48.21,0,0,1-13.69-6.56,47.35,47.35,0,0,1-6.83-5.75c3.78.1,7.54.1,11.3,0A210,210,0,0,0,195.16,198.66Zm14.05,113.28c.51-.29,1-.6,1.52-.9,1.17-.55,2.29-1.14,3.51-1.66,4.78-2.14,9.9-4,15-6-.26.46-.52.91-.77,1.37a81.48,81.48,0,0,0-5.17,11.59c-.71,2-1.31,4-1.92,6-.32,1-.55,2-.81,3s-.53,2-.73,3.05l-.61,3.08c-.19,1-.3,2.06-.46,3.09s-.3,2.07-.39,3.11-.2,2.07-.28,3.11c-1.15,18.35,4.38,35.93,4.15,54a86.15,86.15,0,0,1-1.94,18.06c-2-3.38-4-6.72-6-10-2.76-4.67-5.51-9.27-8-14a149.65,149.65,0,0,1-6.76-14.22A89.62,89.62,0,0,1,195,360l-.39-1.86-.31-1.87c-.24-1.24-.36-2.49-.52-3.74s-.21-2.46-.27-3.7-.08-2.49,0-3.73a53.24,53.24,0,0,1,2.42-14.66l.58-1.76c.19-.58.45-1.13.67-1.7s.44-1.15.71-1.69l.81-1.62a16,16,0,0,1,.88-1.58l.92-1.55,1-1.45a10.7,10.7,0,0,1,1.09-1.4l1.16-1.34c.38-.45.84-.8,1.26-1.22l.64-.6a5.18,5.18,0,0,1,.67-.57l1.39-1.06A10.84,10.84,0,0,1,209.21,311.94Zm19.65-40c2.16,0,4.41.14,6.71.35,7.89.66,16.29,2,25,2.28q-2.81,1.4-5.57,3c-13.69,7.92-22.17,19-39.61,15.81-7.54-1.37-15.42-3.48-22.71-1.12,7.35-13.13,19.82-20.1,34.57-20.28Z"/><path class="cls-2" d="M347.72,264.07a20.82,20.82,0,0,1,5.16-6.25,23.48,23.48,0,0,1,7.2-4.09,17.21,17.21,0,0,1,8.47-.84,11.71,11.71,0,0,1,7.31,4.1l-.51.73a19.92,19.92,0,0,0-7.1-1.07,24.79,24.79,0,0,0-6.75,1.29,42.18,42.18,0,0,0-6.59,2.87c-2.18,1.14-4.29,2.46-6.53,3.86Z"/><path class="cls-2" d="M374.91,268.92l.68,1.07a2.13,2.13,0,0,1-1,3.13,25.06,25.06,0,0,1-12,1.58,23.75,23.75,0,0,1-12.75-5.32l.51-.73a21.68,21.68,0,0,0,12.31,2.63,20.89,20.89,0,0,0,9.29-3A2.14,2.14,0,0,1,374.91,268.92Z"/><path class="cls-2" d="M86.55,390.33c7.8.35,15.09-4.29,20.21-10.18s8.57-13,12.61-19.71,9-13.2,15.94-16.74c3.58-1.83,15.16-2.17,16.44-7-1.83,6.89-7,11.57-11.64,16.67q-8.15,9-17.07,17.17c9-3.37,16.52-9.93,22.48-17.47s10.49-16.08,15-24.57c.73,3.28.22,8.52,0,12a34.55,34.55,0,0,1-3.35,12.43c-3.66,7.83-9.59,14.54-16.17,20.06C126.85,384.87,105.06,391.16,86.55,390.33Z"/><path class="cls-2" d="M324.82,451.88c1.36-7.54.76-15.24-.09-22.8,6.36,13.67,5.19,29.5,3.88,44.52a55.66,55.66,0,0,0-.53-41.87c12.92,19.43,13.78,46.45-.35,65.5-3.49-8.91-7-18.19-6.39-27.75C321.75,463.51,323.77,457.78,324.82,451.88Z"/><path class="cls-2" d="M295.63,447.87c-1.89,10.69-8.8,19.71-15.51,28.25,2.94-4.67,3.22-10.59,2.28-16s-3-10.62-4.42-16-2.21-11.05-.62-16.34c.73-2.39,1.8-5.75,3.39-7.69a1.42,1.42,0,0,1,1.71-.46,2.07,2.07,0,0,1,.79,1.32,161.12,161.12,0,0,1,5.13,25.26,58.74,58.74,0,0,0-3.85-29.52c2.77,1.56,4.51,4.73,6.17,7.32A33.83,33.83,0,0,1,295.63,447.87Z"/><path class="cls-2" d="M190.74,401.69c3.24,6.92,5,14.73,3.72,22.25-1.37,7.73-5.91,14.54-11.12,20.41-.6-8.22-8.69-13.63-12.51-20.93-4.6-8.8-2.63-19.45-.54-29.16l3.41-15.87A189.56,189.56,0,0,1,182.19,423c-.2-2.9.93-6.33,1.11-9.3a82.29,82.29,0,0,0-3.66-29.53C183.51,390,187.76,395.35,190.74,401.69Z"/><path class="cls-2" d="M210.22,497.15c1.87-4.78.39-10.13,0-15.26A35.51,35.51,0,0,1,212.67,466a48.07,48.07,0,0,1,3.82-7.15c.74-1.14,4.69-4.95,4.67-6.07a89.66,89.66,0,0,1-3.59,26.85,67.85,67.85,0,0,0,7.6-23.72,33.77,33.77,0,0,1-6.76,33.68C216.23,492,211.4,494.13,210.22,497.15Z"/><path class="cls-2" d="M256.21,405.76a31.42,31.42,0,0,1-11.43,19.92c.73-7.71-2.37-15.18-4.23-22.69s-2.18-16.34,3-22.06a55.74,55.74,0,0,1,4.54,28.43A54.32,54.32,0,0,0,250.31,394c0-4.19-1.67-8.88-1.31-12.89,2.3,1.23,3.94,5.57,4.94,7.91A31.39,31.39,0,0,1,256.21,405.76Z"/><path class="cls-2" d="M255.84,496.19c.76-6.66-1.22-13.31-3.52-19.61s-5-12.56-5.68-19.23.88-14,5.89-18.43a59,59,0,0,1,5.29,25.81c.11-4.74,1.28-9,.66-13.88-.39-3.06-2.73-7.37-2.33-10.22,4.93,2,6.39,10.86,7,15.29a68.16,68.16,0,0,1-1.71,26.18A65.49,65.49,0,0,1,255.84,496.19Z"/><path class="cls-2" d="M132.94,407.18a31.93,31.93,0,0,0-8.74,29.3c4.07-6.1,11.55-8.75,18.48-11.13s14.38-5.35,18-11.71a21.08,21.08,0,0,0,2.17-12.83A62.54,62.54,0,0,0,159.54,388a28.85,28.85,0,0,1-16.72,27.14,58.77,58.77,0,0,0,13.68-28.75c-.42,2.5-4.55,5.09-6.29,6.68C144.73,398.09,138.26,402,132.94,407.18Z"/><path class="cls-2" d="M362.36,447.7c-2.47-6.81-7.4-12.39-12.37-17.65-5.88-6.24-13.06-13.09-15.11-21.75-.93-3.91,0-7.41,1-11.18,3.21,12.46,17.13,19.49,21.63,31.54-.52-7.33-5.07-13.69-9.71-19.4s-9.68-11.47-11.5-18.6c5.4,10.22,16.12,13.53,23.57,21.77,6,6.6,6.48,15,5.65,23.48C365.26,438.27,361.76,446,362.36,447.7Z"/></g></g></svg>