<svg width="198" height="195" viewBox="0 0 198 195" fill="none" xmlns="http://www.w3.org/2000/svg">
<g clip-path="url(#clip0_105_893)">
<path d="M140.935 106.728C140.934 106.741 140.934 106.754 140.935 106.767C140.935 106.703 140.935 106.7 140.935 106.728Z" fill="white"/>
<path d="M47.5853 137.072L48.0881 137.037H48.2156C47.5569 136.151 46.9207 135.249 46.3069 134.332C45.8607 134.498 45.4146 134.658 44.9648 134.814C45.4925 135.619 46.0272 136.406 46.6079 137.182C46.9301 137.119 47.2595 137.094 47.5853 137.072Z" fill="white"/>
<path d="M131.562 44.5703C131.546 44.2892 131.546 44.0075 131.562 43.7264C121.667 37.8666 110.381 34.7803 98.8849 34.791C63.3111 34.791 34.3662 63.7707 34.3662 99.3951C34.3541 111.632 37.8321 123.617 44.3911 133.942L45.7261 133.459C39.2049 123.299 35.7465 111.473 35.765 99.3951C35.765 64.533 64.0937 36.1668 98.899 36.1668C110.396 36.1531 121.675 39.303 131.505 45.2724C131.527 45.0312 131.544 44.8079 131.562 44.5703Z" fill="white"/>
<path d="M139.905 49.5557C139.851 49.5793 139.795 49.5983 139.738 49.6124L139.837 49.8712C139.889 50.0421 139.89 50.224 139.843 50.3959C139.795 50.5678 139.7 50.7227 139.568 50.8428C139.568 50.9243 139.568 51.0023 139.568 51.0839C146.608 57.0068 152.268 64.4007 156.15 72.7466C160.033 81.0925 162.044 90.1881 162.044 99.3951C162.044 125.751 145.847 148.387 122.9 157.861C123.129 158.266 123.332 158.684 123.509 159.113C146.916 149.408 163.428 126.297 163.428 99.3951C163.429 89.8633 161.319 80.45 157.252 71.8322C153.184 63.2144 147.26 55.6064 139.905 49.5557Z" fill="white"/>
<path d="M0.53125 111.738L15.2905 110.252L16.0448 110.174L15.9704 109.43L15.2622 102.388L17.617 102.15L18.6368 112.334L0.772044 114.132L0.53125 111.738Z" fill="white"/>
<path d="M18.7147 84.9248L18.4986 87.4919L15.4356 88.5557L15.1134 92.3674L14.7911 96.1685L17.624 97.7463L17.408 100.313L0 91.0838L18.7147 84.9248ZM13.187 92.2149L13.4561 89.2826C12.2899 89.675 11.0411 90.0591 9.70967 90.4349C8.37822 90.8108 7.12585 91.1926 5.95257 91.5802C7.0385 92.1665 8.20706 92.7574 9.45825 93.3531C10.7094 93.9488 11.8756 94.5398 12.9568 95.126L13.187 92.2149Z" fill="white"/>
<path d="M5.71193 65.597L19.5222 70.976L20.2304 71.2525L20.4995 70.5434L23.0597 63.9482L25.2694 64.8099L21.5795 74.3657L4.84082 67.8521L5.71193 65.597Z" fill="white"/>
<path d="M16.3775 45.3363C18.3667 43.9426 20.8041 43.3432 23.2118 43.6556C25.6006 44.0502 27.7453 45.352 29.1998 47.29C30.5932 49.2766 31.184 51.7178 30.8535 54.1227C30.4483 56.5059 29.1533 58.6456 27.2309 60.108C26.2624 60.8168 25.16 61.321 23.9908 61.5901C22.8265 61.8983 21.6108 61.9599 20.4214 61.771C19.2392 61.5882 18.1066 61.1659 17.0928 60.5299C16.0616 59.9226 15.1632 59.1134 14.4511 58.1507C13.0379 56.1735 12.429 53.7319 12.7479 51.3216C13.1533 48.9376 14.4497 46.7976 16.374 45.3363H16.3775ZM15.1664 51.6974C15.0462 52.5674 15.0955 53.4524 15.3116 54.3036C15.5121 55.1617 15.8803 55.9716 16.3952 56.6863C16.9232 57.3881 17.5823 57.9805 18.3357 58.4308C19.0809 58.8936 19.9101 59.2045 20.7755 59.3457C21.6471 59.4789 22.5368 59.4306 23.3889 59.2038C24.2439 59.0153 25.049 58.6466 25.7508 58.1224C26.4641 57.5976 27.066 56.9359 27.5213 56.1757C27.9799 55.4307 28.2845 54.6012 28.4172 53.7362C28.6648 51.9783 28.2315 50.1921 27.2062 48.7438C26.6926 48.0265 26.0368 47.4229 25.2798 46.9709C24.5248 46.5145 23.6851 46.2166 22.8117 46.0951C21.9424 45.9781 21.0591 46.0213 20.2054 46.2227C19.3482 46.4364 18.5386 46.8093 17.8187 47.3219C17.1172 47.8414 16.5251 48.4945 16.0765 49.2437C15.6159 49.9942 15.3067 50.8278 15.1664 51.6974Z" fill="white"/>
<path d="M25.2375 33.0429L26.1653 32.0572C26.5888 31.6062 27.0981 31.2446 27.6631 30.9934C28.7811 30.5147 30.0369 30.4692 31.1865 30.8658C31.7444 31.0771 32.2539 31.3991 32.6844 31.8125C32.9441 32.0749 33.168 32.3706 33.3501 32.6918C33.578 33.0832 33.7598 33.4996 33.8919 33.9329L34.1362 34.7129L34.8976 34.3938C35.1629 34.2916 35.4336 34.204 35.7085 34.1314C35.9299 34.0813 36.1548 34.0481 36.3813 34.0322C37.0844 34.0196 37.7836 34.1399 38.4422 34.3867C39.4286 34.7665 40.282 35.428 40.8964 36.289C41.5108 37.15 41.8592 38.1728 41.8983 39.2303C41.9328 39.9313 41.8251 40.632 41.5817 41.2902C41.3382 41.9484 40.9641 42.5503 40.4819 43.0597L38.7113 44.9248L38.1837 45.4886L37.7588 45.9389L36.0272 47.7791L22.957 35.4576L25.2375 33.0429ZM29.9755 38.8154L30.4889 38.2162C30.6766 37.9963 30.928 37.6914 31.2467 37.3049C31.3211 37.2198 31.3848 37.1418 31.445 37.078L31.4698 37.0319C31.6584 36.793 31.8089 36.5262 31.916 36.2412C32.0119 35.928 32.0514 35.6002 32.0328 35.2732C32.0145 34.9538 31.939 34.6403 31.8098 34.3477C31.5408 33.7593 31.0547 33.298 30.4535 33.0606C30.1523 32.9522 29.8352 32.8946 29.5151 32.8904C29.2036 32.9079 28.8972 32.9774 28.6086 33.0961C28.3208 33.2251 28.0619 33.4108 27.8473 33.6421L26.9124 34.6278L26.7885 34.759L26.2644 35.3122L26.8133 35.8121L29.3912 38.2942L29.9755 38.8154ZM35.9953 44.4886L36.5159 43.9355L37.047 43.3717L38.8176 41.5066C39.0852 41.2181 39.2955 40.8812 39.4373 40.5138C39.5814 40.1414 39.6454 39.7426 39.6249 39.3437C39.6131 38.9382 39.5204 38.5392 39.3523 38.1701C39.1791 37.8026 38.9389 37.4707 38.6441 37.1914C38.0491 36.6305 37.2585 36.325 36.4415 36.3405C36.0504 36.3521 35.6645 36.4325 35.3013 36.578C34.9357 36.7171 34.6002 36.9253 34.3133 37.1914C34.0123 37.4716 33.7361 37.7517 33.4811 38.0282L32.7198 38.8615C32.5923 38.9962 32.4743 39.131 32.3657 39.2657L32.0116 39.6522L31.4875 40.2089L32.0328 40.723L35.4677 43.9674L35.9953 44.4886Z" fill="white"/>
<path d="M57.9176 28.9125L55.8284 30.4123L53.0238 28.7813L49.9289 31.0116L46.8304 33.2348L47.4749 36.426L45.3857 37.9258L41.0762 18.6616L57.9176 28.9125ZM48.7922 29.4301L51.1824 27.714C50.1272 27.0828 49.0236 26.3831 47.8715 25.6149C46.7195 24.8466 45.617 24.1375 44.5641 23.4874C44.8262 24.6953 45.1331 25.9718 45.4848 27.3169C45.8366 28.6619 46.1458 29.9336 46.4126 31.1321L48.7922 29.4301Z" fill="white"/>
<path d="M72.302 20.0303C72.5862 19.7847 72.8321 19.4978 73.0315 19.1793C73.2265 18.8637 73.3542 18.5112 73.4068 18.1439C73.4639 17.7662 73.4274 17.3802 73.3006 17.0199C73.207 16.7203 73.0389 16.4494 72.8119 16.2327C72.5968 16.0202 72.3432 15.8505 72.0648 15.7328C71.7583 15.6116 71.4385 15.5271 71.1122 15.481C70.7769 15.4302 70.4386 15.4018 70.0995 15.3959C69.7855 15.3959 69.4455 15.4066 69.0796 15.4279C68.317 15.4868 67.5499 15.4523 66.7956 15.325C66.0907 15.2029 65.4146 14.9504 64.802 14.5804C64.3724 14.3212 63.9913 13.9888 63.6759 13.5982C63.3528 13.199 63.1012 12.7467 62.9323 12.2615C62.7079 11.618 62.6123 10.9365 62.651 10.256C62.6897 9.57549 62.8619 8.90929 63.1579 8.29548C63.4539 7.68168 63.8678 7.13229 64.3759 6.67873C64.884 6.22517 65.4764 5.87633 66.1193 5.65215C66.7099 5.44228 67.3342 5.34371 67.9606 5.3614C68.574 5.37359 69.1805 5.49361 69.7524 5.71597C70.695 6.08304 71.5056 6.72546 72.0789 7.55978L69.9791 8.82917C69.7271 8.51958 69.4104 8.26905 69.0513 8.09519C68.5669 7.85253 68.0205 7.76229 67.4839 7.83633C66.9474 7.91038 66.4457 8.14523 66.0449 8.51005C65.7805 8.74988 65.5653 9.03891 65.4111 9.36103C65.2558 9.6846 65.1633 10.0347 65.1384 10.3929C65.1092 10.7532 65.1563 11.1157 65.2765 11.4566C65.3565 11.6959 65.4762 11.9201 65.6306 12.1196C65.7687 12.2964 65.9322 12.4518 66.1157 12.5806C66.3031 12.7092 66.5083 12.8095 66.7248 12.8784C66.9405 12.9523 67.162 13.008 67.387 13.0451C67.6215 13.0822 67.858 13.1059 68.0952 13.116C68.3679 13.116 68.6051 13.116 68.8034 13.116L69.5116 13.0947H70.1207C70.5773 13.0969 71.033 13.1336 71.484 13.2047C71.9348 13.2792 72.3773 13.398 72.8049 13.5592C73.2265 13.7047 73.6304 13.8974 74.0088 14.1336C74.3787 14.3791 74.7084 14.6806 74.9862 15.0272C75.2771 15.3899 75.5035 15.8001 75.6554 16.2398C75.8885 16.9048 75.9684 17.6139 75.8891 18.3141C75.8208 19.002 75.6174 19.6695 75.2907 20.2785C74.9554 20.8874 74.5155 21.4324 73.9911 21.8883C73.4651 22.3569 72.8529 22.7182 72.1887 22.952C71.4622 23.2078 70.6901 23.3081 69.9224 23.2463C69.1444 23.1884 68.387 22.9686 67.6986 22.601C67.015 22.2458 66.4215 21.7388 65.9635 21.1188L68.0704 19.8388C68.473 20.2836 69.0061 20.589 69.5931 20.7111C70.1781 20.8573 70.7929 20.8315 71.3636 20.6366C71.7059 20.4843 72.0224 20.2798 72.302 20.0303Z" fill="white"/>
<path d="M89.0793 1.15948C90.2419 1.4859 91.3302 2.035 92.284 2.77635C93.2486 3.49385 94.0621 4.3952 94.6777 5.42859C95.2801 6.46962 95.6679 7.62107 95.818 8.81481C96.0446 10.6087 95.7434 12.4297 94.9515 14.0547C94.1596 15.6797 92.9113 17.0379 91.3597 17.9629C89.252 19.1475 86.7727 19.4835 84.4263 18.9025C83.2672 18.5935 82.183 18.0519 81.2393 17.3105C80.2683 16.5964 79.4556 15.6885 78.8526 14.6441C78.2551 13.6058 77.8722 12.4579 77.7266 11.2685C77.5532 10.0856 77.6182 8.88 77.9178 7.72271C78.2299 6.55546 78.769 5.46137 79.5042 4.50314C80.2209 3.53546 81.121 2.71858 82.1529 2.09911C84.2615 0.916893 86.7398 0.581021 89.0864 1.15948H89.0793ZM83.371 4.21593C82.6224 4.67025 81.9683 5.265 81.4447 5.96755C80.9027 6.66328 80.5043 7.45998 80.2726 8.31131C80.0585 9.16294 80.0128 10.0483 80.138 10.9175C80.244 11.7913 80.5233 12.6352 80.9596 13.3995C81.4031 14.1628 81.9999 14.8257 82.7124 15.3461C83.3972 15.894 84.1901 16.2904 85.0389 16.5091C85.893 16.7303 86.7825 16.7797 87.6558 16.6545C88.9618 16.4662 90.1846 15.9007 91.1745 15.0273C92.1645 14.1538 92.8786 13.0102 93.2294 11.7365C93.4618 10.887 93.5161 9.99842 93.3888 9.12683C93.2786 8.25036 92.9906 7.4057 92.5425 6.64479C92.0866 5.89499 91.4973 5.23522 90.8038 4.69816C90.1012 4.16247 89.3032 3.76539 88.4525 3.52805C87.607 3.30584 86.7257 3.25521 85.8604 3.37913C84.9836 3.49063 84.1375 3.77505 83.371 4.21593Z" fill="white"/>
<path d="M115.308 1.35094L114.635 8.44249L114.26 12.3641C114.182 13.2968 113.922 14.2052 113.495 15.0376C113.049 15.8554 112.447 16.578 111.725 17.1651C111.006 17.767 110.175 18.2213 109.281 18.5019C108.389 18.7704 107.453 18.8583 106.526 18.7607C105.592 18.6822 104.681 18.422 103.846 17.9948C103.013 17.5522 102.282 16.9399 101.7 16.1971C101.092 15.484 100.635 14.6555 100.354 13.7612C100.092 12.8631 100.009 11.9221 100.11 10.9919L100.471 7.09155L101.147 0L103.562 0.230475L102.89 7.32203L102.553 10.8253L102.514 11.2366C102.453 11.848 102.515 12.4656 102.698 13.0523C102.88 13.639 103.179 14.1828 103.577 14.6511C103.961 15.1364 104.444 15.5351 104.993 15.8213C105.535 16.1004 106.127 16.2669 106.735 16.3106C107.342 16.3711 107.955 16.3096 108.538 16.1297C109.12 15.9514 109.661 15.6571 110.128 15.2646C110.614 14.8854 111.016 14.4096 111.31 13.8671C111.604 13.3247 111.782 12.7272 111.834 12.1124L111.898 11.7011L112.231 8.19784L112.904 1.10628L115.308 1.35094Z" fill="white"/>
<path d="M124.047 3.45348L119.957 17.7288L119.745 18.4628L120.453 18.6684L127.241 20.6186L126.59 22.8985L116.771 20.0619L121.728 2.77979L124.047 3.45348Z" fill="white"/>
<path d="M142.773 28.1286C143.143 28.1834 143.519 28.1834 143.889 28.1286C144.257 28.0767 144.61 27.9487 144.926 27.7527C145.248 27.5539 145.516 27.2802 145.709 26.9549C145.88 26.6917 145.981 26.389 146.003 26.0756C146.029 25.7743 145.996 25.4709 145.907 25.182C145.805 24.8688 145.666 24.5688 145.493 24.2885C145.318 23.996 145.123 23.7164 144.909 23.4517C144.71 23.2106 144.484 22.9553 144.232 22.6893C143.7 22.1391 143.236 21.5259 142.851 20.8633C142.493 20.2417 142.252 19.5588 142.143 18.8493C142.068 18.3534 142.08 17.8483 142.179 17.3565C142.277 16.8553 142.463 16.3752 142.727 15.9382C143.086 15.3469 143.561 14.8344 144.123 14.4312C145.211 13.6411 146.562 13.3019 147.893 13.4842C149.225 13.6665 150.436 14.3563 151.272 15.4099C151.649 15.8924 151.939 16.4372 152.129 17.0197C152.451 17.9803 152.476 19.0161 152.2 19.991L149.884 19.1897C149.963 18.7893 149.952 18.3762 149.852 17.9806C149.723 17.4574 149.441 16.9848 149.042 16.6239C148.642 16.263 148.144 16.0303 147.611 15.9559C147.256 15.9047 146.895 15.924 146.548 16.0127C146.2 16.0986 145.87 16.2502 145.578 16.4594C145.29 16.6717 145.049 16.9409 144.87 17.2501C144.735 17.468 144.64 17.7081 144.59 17.9593C144.54 18.179 144.525 18.405 144.544 18.6294C144.566 18.856 144.621 19.0781 144.707 19.2889C144.788 19.5023 144.886 19.7087 145.001 19.9059C145.124 20.1127 145.26 20.3117 145.408 20.5016C145.574 20.7214 145.72 20.9058 145.851 21.0512L146.307 21.5689C146.485 21.7674 146.616 21.9235 146.708 22.0298C146.996 22.3831 147.258 22.7564 147.494 23.1468C147.728 23.5394 147.924 23.9538 148.078 24.3842C148.234 24.8038 148.339 25.2408 148.39 25.6855C148.44 26.128 148.419 26.5756 148.329 27.0117C148.24 27.4678 148.071 27.9047 147.83 28.3023C147.462 28.8981 146.966 29.4043 146.378 29.7844C145.803 30.1714 145.157 30.4402 144.477 30.5752C143.795 30.7066 143.095 30.7174 142.409 30.6071C141.713 30.5003 141.044 30.2595 140.44 29.8979C139.781 29.4997 139.211 28.9698 138.765 28.3413C138.313 27.7038 137.997 26.9795 137.837 26.2139C137.673 25.4593 137.683 24.6771 137.866 23.9268L140.196 24.7282C140.112 25.3227 140.218 25.9285 140.5 26.4585C140.762 27.0054 141.177 27.4647 141.693 27.7811C142.033 27.9519 142.398 28.0691 142.773 28.1286Z" fill="white"/>
<path d="M169.973 29.9474L165.256 35.2661L162.639 38.2126C162.034 38.9281 161.287 39.5092 160.445 39.9189C159.603 40.3286 158.684 40.5578 157.749 40.5919C156.815 40.656 155.878 40.5355 154.99 40.2373C154.111 39.9272 153.302 39.4451 152.611 38.819C151.903 38.2019 151.322 37.4528 150.9 36.6135C150.488 35.7653 150.258 34.8401 150.224 33.8974C150.155 32.9611 150.275 32.0204 150.578 31.1317C150.896 30.2525 151.384 29.4442 152.012 28.7525L154.629 25.806L159.346 20.4873L161.162 22.1042L156.442 27.4228L154.109 30.0538L153.836 30.3623C153.42 30.8102 153.099 31.3371 152.89 31.9118C152.694 32.4945 152.614 33.11 152.653 33.7237C152.679 34.3402 152.835 34.9443 153.11 35.4966C153.376 36.051 153.752 36.5456 154.215 36.9503C154.669 37.3557 155.198 37.6677 155.773 37.8687C156.957 38.2475 158.238 38.1781 159.374 37.6737C159.925 37.4041 160.417 37.0281 160.822 36.5674L161.095 36.2589L163.429 33.628L168.145 28.3093L169.973 29.9474Z" fill="white"/>
<path d="M164.183 42.7907L169.619 38.674L174.456 35.0112L176.357 37.5287L178.128 39.8619C178.621 40.4922 178.983 41.2158 179.19 41.9893C179.566 43.5626 179.344 45.2195 178.567 46.6378C178.154 47.3264 177.611 47.9284 176.97 48.4107C176.338 48.9012 175.616 49.2626 174.845 49.4745C173.678 49.7795 172.447 49.7267 171.31 49.3227C170.174 48.9187 169.185 48.1822 168.471 47.2087L166.701 44.872L166.247 44.2763L165.653 44.7267L161.594 47.8008L160.143 45.8826L164.183 42.7907ZM168.128 42.819L168.581 43.4183L170.334 45.7585C170.62 46.1494 170.981 46.4796 171.396 46.73C171.817 46.9724 172.282 47.1301 172.763 47.1945C173.242 47.2525 173.728 47.2237 174.197 47.1094C174.669 46.9919 175.111 46.7756 175.493 46.4747C175.882 46.1921 176.205 45.8293 176.442 45.411C176.683 44.9914 176.843 44.531 176.917 44.053C176.991 43.5726 176.971 43.0822 176.857 42.6098C176.734 42.1364 176.517 41.6926 176.219 41.305L174.449 38.9683L173.999 38.3726L173.4 38.8229L171.06 40.5958L168.719 42.3687L168.128 42.819Z" fill="white"/>
<path d="M173.308 55.495L179.385 52.4208L184.799 49.687L186.215 52.5024L187.533 55.1156C187.901 55.825 188.123 56.6017 188.184 57.3991C188.27 58.5989 187.999 59.7971 187.406 60.8433C186.813 61.8894 185.925 62.7368 184.852 63.279C183.78 63.8212 182.572 64.0339 181.379 63.8905C180.186 63.7471 179.063 63.254 178.149 62.4731C177.55 61.9445 177.061 61.3037 176.708 60.5867L175.39 57.977L175.054 57.3069L174.385 57.6437L169.852 59.9237L168.769 57.7962L173.308 55.495ZM177.182 56.2325L177.519 56.9027L178.825 59.5194C179.039 59.9541 179.336 60.3422 179.7 60.6612C180.07 60.9781 180.498 61.2191 180.961 61.3703C181.419 61.5123 181.898 61.57 182.377 61.5405C182.861 61.5121 183.333 61.3803 183.762 61.1541C184.194 60.9418 184.578 60.641 184.888 60.2712C185.2 59.9022 185.44 59.4776 185.596 59.0195C185.754 58.5643 185.823 58.0826 185.798 57.6012C185.762 57.1134 185.627 56.638 185.401 56.2041L184.084 53.5909L183.73 52.9208L183.06 53.2576L180.44 54.5837L177.823 55.9098L177.182 56.2325Z" fill="white"/>
<path d="M195.184 78.0071C194.999 79.2018 194.584 80.3492 193.963 81.3862C193.375 82.4407 192.577 83.3623 191.617 84.0933C190.657 84.8243 189.557 85.3488 188.385 85.634C187.226 85.9529 186.014 86.03 184.824 85.8604C183.633 85.6908 182.491 85.2783 181.466 84.6483C180.424 84.046 179.511 83.2421 178.782 82.2833C177.358 80.3296 176.726 77.9088 177.012 75.5073C177.182 74.3173 177.59 73.1741 178.212 72.1459C178.803 71.0948 179.608 70.1793 180.574 69.4582C181.53 68.7378 182.623 68.2191 183.786 67.9335C184.939 67.6198 186.143 67.5402 187.327 67.6995C189.729 68.0625 191.901 69.331 193.4 71.2453C194.823 73.1989 195.456 75.6197 195.17 78.0212L195.184 78.0071ZM191.473 72.6884C190.933 71.9974 190.266 71.4161 189.508 70.9758C188.759 70.514 187.922 70.2125 187.05 70.0905C186.179 69.9685 185.291 70.0284 184.444 70.2666C183.592 70.4744 182.79 70.8519 182.086 71.3765C181.383 71.9093 180.797 72.5816 180.365 73.3515C179.902 74.0964 179.604 74.9318 179.49 75.8016C179.375 76.6764 179.431 77.5653 179.657 78.4184C179.997 79.6964 180.703 80.8469 181.688 81.7288C182.672 82.6107 183.892 83.1854 185.199 83.3825C186.068 83.5122 186.956 83.4603 187.805 83.23C188.658 83.0162 189.458 82.6301 190.156 82.0953C190.846 81.5534 191.431 80.8887 191.881 80.1345C192.328 79.3703 192.626 78.528 192.759 77.6525C192.878 76.7853 192.824 75.9029 192.599 75.057C192.378 74.2105 191.996 73.4147 191.473 72.7132V72.6884Z" fill="white"/>
<path d="M197.668 89.6621L197.891 95.268C197.93 96.136 197.803 97.0036 197.519 97.8245C197.254 98.5899 196.844 99.2967 196.311 99.9059C195.825 100.459 195.24 100.917 194.587 101.257C193.928 101.557 193.214 101.718 192.49 101.728L191.984 101.746C191.402 101.778 190.818 101.708 190.26 101.54C189.7 101.356 189.167 101.1 188.673 100.778C188.3 100.548 187.966 100.26 187.685 99.9236C187.429 99.5909 187.219 99.2246 187.062 98.835L186.708 98.0018L185.954 98.5301L180.228 102.558L180.111 99.5619L186.233 95.2148L186.127 92.5555L179.842 92.8072L179.746 90.3925L197.668 89.6621ZM188.652 96.002C188.662 96.4453 188.762 96.8819 188.946 97.2855C189.154 97.6606 189.425 97.9975 189.746 98.2819C190.086 98.6069 190.492 98.8549 190.936 99.0088C191.37 99.1558 191.828 99.2161 192.285 99.1861C192.73 99.1728 193.168 99.0766 193.578 98.9024C193.976 98.6987 194.336 98.4263 194.64 98.0975C194.975 97.7133 195.217 97.2572 195.348 96.7643C195.5 96.2274 195.564 95.6693 195.536 95.112L195.451 92.9136L195.398 92.1902L194.636 92.2222L189.268 92.4349L188.521 92.4668L188.553 93.215L188.574 94.1227L188.599 94.7255L188.652 96.002Z" fill="white"/>
<path d="M197.069 112.933L196.598 116.947L194.236 116.667L194.707 112.653L194.795 111.898L194.052 111.809L179.317 110.075L179.601 107.682L194.332 109.419L195.075 109.508L195.164 108.749L195.635 104.739L198 105.015L197.529 109.029L197.069 112.933Z" fill="white"/>
<path d="M21.4907 138.147L18.4135 139.782L18.0841 139.956L18.2576 140.285L19.7661 143.14L19.9397 143.469L20.269 143.296L23.3533 141.661L23.9092 142.725L16.0303 146.88L15.4743 145.817L18.5622 144.182L18.8915 144.008L18.718 143.679L17.2059 140.824L17.0324 140.495L16.7066 140.668L13.6188 142.303L13.0664 141.239L20.9347 137.069L21.4907 138.147Z" fill="white"/>
<path d="M28.0279 149.128L27.0364 149.781L25.1172 146.845L24.9118 146.533L24.6037 146.739L22.9748 147.802L22.6597 148.012L22.8615 148.32L24.2496 150.447L23.2581 151.096L21.87 148.969L21.6682 148.657L21.3565 148.863L19.7276 149.926L19.4125 150.132L19.6143 150.444L21.5371 153.376L20.5385 154.039L18.6157 151.103L17.7588 149.795L25.2447 144.888L28.0279 149.128Z" fill="white"/>
<path d="M26.8907 162.194L26.094 161.198L26.8234 159.78L25.6372 158.301L24.4509 156.83L22.8964 157.237L22.0996 156.241L31.4941 153.589L26.8907 162.194ZM26.3808 157.688L27.2944 158.822C27.5777 158.283 27.894 157.719 28.2434 157.128C28.5975 156.535 28.9091 155.972 29.1995 155.429C28.6093 155.592 27.9861 155.78 27.3298 155.993C26.6735 156.206 26.0538 156.394 25.4707 156.557L26.3808 157.688Z" fill="white"/>
<path d="M36.1758 159.074L30.9173 164.212L30.6447 164.474L30.9032 164.74L33.3501 167.251L32.5108 168.07L28.9697 164.443L35.3437 158.22L36.1758 159.074Z" fill="white"/>
<path d="M40.7476 173.176C40.615 173.073 40.5042 172.944 40.4217 172.798C40.3392 172.651 40.2867 172.49 40.2673 172.323C40.2478 172.156 40.2618 171.986 40.3084 171.825C40.355 171.663 40.4333 171.513 40.5387 171.382C40.695 171.179 40.9079 171.028 41.1503 170.947C41.3927 170.866 41.6538 170.859 41.9002 170.927C42.1466 170.994 42.3673 171.134 42.5343 171.328C42.7013 171.522 42.8069 171.761 42.8379 172.015C42.8689 172.269 42.8237 172.526 42.7082 172.754C42.5926 172.983 42.412 173.171 42.1891 173.297C41.9662 173.422 41.7111 173.478 41.4564 173.458C41.2016 173.437 40.9586 173.342 40.7582 173.183L40.7476 173.176Z" fill="white"/>
<path d="M52.5077 172.569L54.8979 173.988C55.2685 174.205 55.5952 174.49 55.8611 174.828C56.1063 175.145 56.289 175.506 56.3994 175.892C56.4993 176.243 56.5329 176.61 56.4985 176.973C56.4451 177.329 56.3184 177.669 56.1267 177.973L55.9992 178.189C55.8552 178.441 55.6682 178.665 55.4468 178.852C55.2217 179.039 54.9714 179.193 54.7032 179.31C54.5072 179.403 54.2982 179.465 54.0835 179.494C53.8763 179.51 53.6678 179.499 53.4638 179.459L53.0176 179.391V179.845L53.1486 183.317L51.8738 182.558L51.7145 178.835L50.5813 178.165L48.9914 180.852L47.9609 180.242L52.5077 172.569ZM52.7131 178.037C52.9 178.152 53.1084 178.228 53.3257 178.26C53.5379 178.275 53.751 178.253 53.956 178.196C54.1832 178.143 54.3959 178.04 54.5792 177.895C54.7567 177.754 54.9047 177.579 55.0148 177.381C55.1306 177.192 55.2098 176.982 55.2485 176.764C55.2681 176.544 55.2514 176.322 55.1989 176.108C55.133 175.867 55.0117 175.645 54.8448 175.459C54.6625 175.25 54.4472 175.073 54.2074 174.934L53.269 174.378L52.9503 174.19L52.7591 174.512L51.3993 176.81L51.2117 177.129L51.5304 177.317L51.9128 177.555L52.1713 177.707L52.7131 178.037Z" fill="white"/>
<path d="M64.2457 178.817L63.7358 179.881L60.5771 178.374L60.2407 178.214L60.0813 178.551L59.2456 180.324L59.0828 180.679L59.4369 180.838L61.7209 181.927L61.211 182.99L58.9092 181.898L58.5551 181.739L58.3958 182.093L57.5601 183.866L57.3972 184.221L57.7301 184.38L60.8923 185.887L60.3823 186.951L57.2201 185.444L55.8037 184.77L59.6493 176.686L64.2457 178.817Z" fill="white"/>
<path d="M66.2184 187.855C66.4039 187.854 66.588 187.823 66.7637 187.763C66.9387 187.705 67.1001 187.612 67.2382 187.49C67.3763 187.364 67.483 187.207 67.5498 187.033C67.6095 186.888 67.6314 186.731 67.6135 186.575C67.5993 186.426 67.556 186.282 67.4861 186.15C67.4094 186.005 67.3154 185.871 67.2063 185.749C67.0964 185.623 66.9781 185.505 66.8522 185.394C66.7318 185.292 66.6008 185.189 66.4521 185.082C66.1443 184.862 65.8648 184.605 65.6199 184.317C65.3914 184.044 65.216 183.732 65.1029 183.395C65.0212 183.16 64.9816 182.913 64.9861 182.664C64.9889 182.41 65.0369 182.157 65.1277 181.92C65.2469 181.606 65.4269 181.32 65.6572 181.076C65.8876 180.833 66.1637 180.637 66.4698 180.501C66.7756 180.364 67.1051 180.287 67.44 180.274C67.7818 180.263 68.1224 180.32 68.4422 180.441C68.7324 180.552 69.0009 180.712 69.2354 180.916C69.4629 181.118 69.6534 181.358 69.7984 181.625C70.0405 182.064 70.1441 182.566 70.0958 183.065L68.8954 182.881C68.9 182.679 68.8588 182.479 68.775 182.295C68.7044 182.133 68.6014 181.986 68.4723 181.864C68.3433 181.742 68.1909 181.647 68.0243 181.586C67.8571 181.523 67.6789 181.494 67.5002 181.501C67.141 181.514 66.8013 181.668 66.5548 181.93C66.4303 182.058 66.3338 182.21 66.2715 182.377C66.2274 182.49 66.2035 182.61 66.2007 182.732C66.1955 182.843 66.2074 182.954 66.2361 183.061C66.2678 183.169 66.3143 183.272 66.3742 183.366C66.4323 183.464 66.4986 183.557 66.5725 183.643C66.6517 183.732 66.7356 183.818 66.8239 183.898C66.923 183.99 67.0116 184.065 67.0859 184.125L67.3551 184.338L67.5923 184.526C67.7649 184.671 67.9259 184.83 68.0739 185.001C68.2235 185.172 68.3563 185.357 68.4705 185.554C68.5837 185.744 68.6729 185.948 68.7361 186.16C68.8001 186.371 68.83 186.59 68.8246 186.809C68.821 187.039 68.7779 187.267 68.6971 187.483C68.5725 187.81 68.3779 188.105 68.127 188.348C67.882 188.587 67.5919 188.775 67.2736 188.901C66.9532 189.028 66.6125 189.097 66.2679 189.103C65.7081 189.112 65.1587 188.951 64.6918 188.642C64.2249 188.332 63.8621 187.889 63.6511 187.369C63.5043 187.016 63.439 186.635 63.4599 186.253L64.6674 186.437C64.681 186.734 64.7875 187.019 64.9719 187.252C65.1506 187.496 65.3968 187.683 65.6801 187.788C65.8551 187.838 66.0366 187.86 66.2184 187.855Z" fill="white"/>
<path d="M76.5228 183.111L78.4492 183.654L78.1305 184.792L76.2041 184.249L75.85 184.147L75.7473 184.501L73.7608 191.593L72.6135 191.27L74.6 184.179L74.7027 183.824L74.3486 183.721L72.4258 183.182L72.7445 182.044L74.6673 182.586L76.5228 183.111Z" fill="white"/>
<path d="M85.1097 185.217C85.6086 185.549 86.039 185.974 86.3774 186.469C86.7255 186.953 86.9714 187.504 87.0998 188.087C87.2283 188.67 87.2367 189.272 87.1246 189.859C87.0223 190.445 86.8044 191.006 86.4836 191.507C86.1594 192.009 85.7365 192.438 85.2407 192.77C84.7534 193.111 84.2034 193.352 83.6224 193.479C83.0378 193.594 82.4365 193.594 81.8519 193.479C81.2653 193.379 80.7043 193.163 80.2017 192.844C79.7016 192.522 79.2725 192.101 78.9411 191.607C78.5955 191.122 78.3544 190.57 78.2329 189.986C78.107 189.403 78.101 188.799 78.2152 188.213C78.3139 187.629 78.5282 187.069 78.8455 186.568C79.5067 185.561 80.528 184.845 81.6996 184.568C82.8729 184.332 84.092 184.551 85.1097 185.182V185.217ZM81.9546 185.799C81.5315 185.898 81.1312 186.077 80.7754 186.327C80.4151 186.574 80.107 186.89 79.8689 187.256C79.4144 187.998 79.254 188.884 79.4191 189.738C79.511 190.166 79.6907 190.571 79.9468 190.926C80.1853 191.289 80.4994 191.596 80.8675 191.827C81.2359 192.062 81.6477 192.221 82.0785 192.295C82.5037 192.376 82.9411 192.37 83.3639 192.277C84.2215 192.08 84.9708 191.561 85.4567 190.827C85.9288 190.085 86.0903 189.187 85.9064 188.327C85.7106 187.467 85.1904 186.716 84.4546 186.231C84.089 185.999 83.681 185.841 83.2541 185.767C82.8231 185.692 82.3815 185.703 81.9546 185.799Z" fill="white"/>
<path d="M90.0571 185.639L92.8297 185.831C93.2595 185.856 93.6804 185.964 94.0691 186.15C94.4314 186.322 94.7572 186.563 95.0287 186.859C95.2736 187.13 95.4668 187.444 95.5989 187.784C95.7137 188.126 95.7548 188.489 95.7193 188.848L95.7016 189.096C95.6871 189.386 95.6211 189.67 95.5068 189.937C95.3868 190.203 95.2333 190.454 95.05 190.681C94.9154 190.852 94.7554 191.002 94.5755 191.124C94.3971 191.232 94.2055 191.315 94.0054 191.373L93.5769 191.511L93.7929 191.912L95.4714 194.95L93.9877 194.851L92.1782 191.596L90.8644 191.504L90.652 194.621L89.4551 194.539L90.0571 185.639ZM92.6952 190.43C92.9128 190.45 93.1324 190.425 93.3397 190.355C93.5376 190.27 93.7187 190.15 93.8744 190C94.0532 189.85 94.197 189.663 94.2958 189.451C94.3914 189.245 94.4455 189.022 94.4551 188.795C94.4739 188.575 94.4498 188.353 94.3843 188.142C94.3048 187.937 94.191 187.746 94.0479 187.579C93.8751 187.395 93.6633 187.254 93.4282 187.164C93.1712 187.062 92.9 187.001 92.6244 186.983L91.5372 186.909L91.1831 186.884L91.1583 187.26L90.9742 189.919L90.9494 190.291L91.3212 190.316L91.7674 190.355H92.0684L92.6952 190.43Z" fill="white"/>
<path d="M103.364 185.937L103.389 187.125L99.8868 187.196L99.5044 187.217V187.572L99.5469 189.518V189.898H99.9187L102.451 189.844L102.475 191.032L99.9435 191.085H99.5717V191.458L99.6106 193.408V193.784H99.9647L103.467 193.709L103.495 194.897L99.9931 194.972L98.4279 195.004L98.2402 186.047L103.364 185.937Z" fill="white"/>
<path d="M112.89 192.341C112.725 192.367 112.556 192.36 112.394 192.321C112.231 192.281 112.078 192.21 111.943 192.111C111.808 192.012 111.694 191.888 111.607 191.745C111.521 191.601 111.463 191.442 111.438 191.277C111.386 190.939 111.469 190.595 111.67 190.319C111.872 190.043 112.174 189.858 112.511 189.805C112.848 189.753 113.193 189.836 113.468 190.038C113.744 190.239 113.928 190.542 113.981 190.88C114.009 191.048 114.003 191.219 113.964 191.385C113.924 191.55 113.852 191.706 113.751 191.843C113.65 191.98 113.523 192.095 113.377 192.182C113.231 192.268 113.069 192.325 112.901 192.348L112.89 192.341Z" fill="white"/>
<path d="M123.938 182.341L125.858 181.785L126.187 182.919L124.268 183.476L123.913 183.579L124.02 183.933L126.059 191.004L124.916 191.333L122.872 184.267L122.77 183.912L122.416 184.015L120.496 184.572L120.167 183.441L122.086 182.884L123.938 182.341Z" fill="white"/>
<path d="M127.939 181.072L130.524 180.058C130.923 179.898 131.349 179.817 131.778 179.817C132.18 179.816 132.578 179.893 132.95 180.044C133.287 180.183 133.595 180.382 133.86 180.632C134.109 180.893 134.299 181.204 134.42 181.544L134.512 181.781C134.621 182.049 134.683 182.333 134.696 182.622C134.7 182.914 134.667 183.206 134.597 183.49C134.55 183.703 134.47 183.906 134.359 184.093C134.246 184.267 134.109 184.425 133.952 184.561L133.623 184.87L133.977 185.139L136.789 187.167L135.408 187.71L132.384 185.547L131.158 186.026L132.295 188.933L131.183 189.369L127.939 181.072ZM132.369 184.263C132.576 184.185 132.764 184.064 132.922 183.909C133.064 183.751 133.177 183.57 133.258 183.373C133.353 183.16 133.403 182.93 133.403 182.696C133.388 182.247 133.219 181.816 132.925 181.476C132.764 181.328 132.578 181.208 132.376 181.122C132.143 181.029 131.89 180.993 131.64 181.015C131.365 181.032 131.095 181.093 130.84 181.196L129.823 181.593L129.469 181.728L129.607 182.083L130.578 184.565L130.716 184.919L131.07 184.781L131.491 184.625L131.767 184.515L132.369 184.263Z" fill="white"/>
<path d="M146.108 182.533L144.975 183.118L143.715 182.118L142.033 182.99L140.354 183.859L140.443 185.465L139.31 186.054L138.58 176.296L146.108 182.533ZM141.594 182.136L142.886 181.466C142.414 181.08 141.923 180.657 141.413 180.196C140.903 179.735 140.412 179.31 139.94 178.92C139.982 179.532 140.043 180.181 140.12 180.866C140.198 181.551 140.259 182.196 140.301 182.806L141.594 182.136Z" fill="white"/>
<path d="M152.023 175.314L151.435 174.427L148.676 170.275L149.668 169.616L154.696 177.186L146.428 175.246L146.807 175.814L149.781 180.296L148.79 180.955L143.797 173.442L152.023 175.314Z" fill="white"/>
<path d="M158.705 172.232C158.796 172.071 158.862 171.896 158.9 171.715C158.939 171.535 158.939 171.349 158.9 171.169C158.862 170.985 158.78 170.814 158.662 170.669C158.569 170.546 158.448 170.449 158.308 170.385C158.172 170.323 158.026 170.287 157.876 170.279C157.712 170.273 157.548 170.288 157.388 170.325C157.223 170.356 157.061 170.4 156.903 170.456C156.757 170.506 156.602 170.569 156.432 170.644C156.086 170.799 155.724 170.912 155.352 170.981C155.001 171.048 154.64 171.048 154.289 170.981C154.039 170.937 153.799 170.847 153.581 170.715C153.362 170.584 153.168 170.416 153.007 170.218C152.794 169.957 152.634 169.657 152.537 169.334C152.439 169.01 152.407 168.671 152.441 168.336C152.476 168.002 152.574 167.678 152.731 167.382C152.892 167.08 153.113 166.813 153.379 166.598C153.857 166.202 154.463 165.995 155.082 166.017C155.585 166.028 156.072 166.19 156.481 166.481L155.716 167.428C155.543 167.325 155.35 167.261 155.15 167.24C154.973 167.219 154.794 167.234 154.624 167.284C154.453 167.335 154.295 167.42 154.158 167.534C154.018 167.646 153.903 167.786 153.822 167.946C153.748 168.096 153.701 168.258 153.684 168.424C153.667 168.602 153.683 168.781 153.73 168.953C153.779 169.124 153.863 169.284 153.978 169.421C154.054 169.519 154.148 169.603 154.254 169.669C154.349 169.728 154.451 169.773 154.558 169.804C154.667 169.829 154.779 169.84 154.891 169.835C155.004 169.835 155.117 169.824 155.228 169.804C155.347 169.78 155.466 169.749 155.582 169.711C155.713 169.672 155.823 169.633 155.911 169.598L156.23 169.47C156.354 169.424 156.446 169.385 156.513 169.364C156.725 169.287 156.943 169.226 157.165 169.183C157.386 169.14 157.612 169.119 157.837 169.119C158.059 169.117 158.28 169.141 158.496 169.19C158.71 169.241 158.915 169.326 159.102 169.442C159.3 169.559 159.475 169.712 159.619 169.892C159.84 170.162 159.997 170.478 160.079 170.818C160.163 171.15 160.181 171.496 160.132 171.835C160.079 172.176 159.966 172.505 159.799 172.807C159.634 173.113 159.41 173.384 159.141 173.605C158.844 173.845 158.502 174.022 158.135 174.126C157.762 174.23 157.371 174.257 156.988 174.204C156.608 174.153 156.245 174.017 155.925 173.807L156.69 172.853C156.953 172.991 157.253 173.043 157.547 173.002C157.845 172.97 158.128 172.853 158.361 172.665C158.497 172.539 158.613 172.393 158.705 172.232Z" fill="white"/>
<path d="M160.843 159.879L161.668 160.73L159.147 163.169L158.881 163.428L159.14 163.694L160.492 165.095L160.754 165.368L161.02 165.109L162.844 163.336L163.665 164.191L161.845 165.963L161.576 166.222L161.835 166.488L163.184 167.885L164.274 169.016L163.417 169.843L160.978 167.314L159.632 165.942L157.199 163.421L160.843 159.879Z" fill="white"/>
<path d="M166.077 154.398C166.614 154.134 167.197 153.975 167.794 153.929C168.388 153.872 168.988 153.937 169.556 154.12C170.124 154.303 170.649 154.6 171.098 154.993C171.557 155.374 171.934 155.845 172.204 156.378C172.474 156.91 172.631 157.493 172.667 158.089C172.734 158.982 172.539 159.875 172.105 160.658C171.672 161.441 171.019 162.08 170.227 162.496C169.697 162.766 169.117 162.927 168.524 162.968C167.926 163.027 167.323 162.96 166.753 162.773C165.623 162.385 164.682 161.583 164.118 160.528C163.583 159.448 163.478 158.205 163.825 157.05C164.212 155.916 165.014 154.97 166.07 154.405L166.077 154.398ZM164.965 157.433C164.839 157.849 164.793 158.286 164.83 158.72C164.857 159.156 164.974 159.582 165.173 159.97C165.372 160.359 165.65 160.702 165.988 160.978C166.314 161.269 166.697 161.488 167.112 161.622C167.527 161.756 167.966 161.803 168.4 161.759C168.834 161.73 169.258 161.609 169.643 161.404C170.031 161.202 170.375 160.924 170.655 160.588C170.938 160.261 171.153 159.88 171.286 159.468C171.548 158.626 171.477 157.716 171.087 156.926C170.891 156.536 170.617 156.191 170.283 155.912C169.952 155.626 169.567 155.41 169.15 155.277C168.309 155.017 167.4 155.091 166.611 155.483C165.834 155.893 165.244 156.587 164.965 157.422V157.433Z" fill="white"/>
<path d="M168.91 150.341L170.468 148.04C170.708 147.683 171.014 147.373 171.368 147.129C171.698 146.902 172.07 146.741 172.462 146.657C172.819 146.581 173.188 146.57 173.549 146.625C173.9 146.7 174.231 146.846 174.523 147.054L174.732 147.196C174.972 147.358 175.183 147.558 175.358 147.788C175.528 148.027 175.666 148.287 175.769 148.561C175.849 148.763 175.896 148.976 175.911 149.192C175.915 149.4 175.891 149.608 175.84 149.809L175.741 150.253H176.198L179.664 150.334L178.825 151.575L175.104 151.504L174.363 152.596L176.945 154.348L176.276 155.341L168.91 150.341ZM174.371 150.472C174.498 150.293 174.587 150.089 174.633 149.873C174.661 149.662 174.651 149.447 174.604 149.238C174.565 149.008 174.477 148.79 174.346 148.597C174.214 148.412 174.049 148.254 173.861 148.129C173.679 148.003 173.476 147.913 173.262 147.863C173.044 147.826 172.821 147.826 172.604 147.863C172.358 147.92 172.129 148.032 171.934 148.192C171.716 148.362 171.527 148.565 171.375 148.795L170.762 149.699L170.553 150.004L170.865 150.217L173.071 151.717L173.379 151.923L173.584 151.618L173.843 151.263L174.009 151.015L174.371 150.472Z" fill="white"/>
<path d="M181.283 142.742L177.409 135.778L185.369 139.977L184.816 141.04L180.341 138.682L183.173 143.746L177.409 144.274L181.884 146.632L181.332 147.696L173.368 143.497L181.283 142.742Z" fill="white"/>
<path d="M12.9926 129.495C14.4966 129.495 15.7157 128.275 15.7157 126.769C15.7157 125.263 14.4966 124.042 12.9926 124.042C11.4887 124.042 10.2695 125.263 10.2695 126.769C10.2695 128.275 11.4887 129.495 12.9926 129.495Z" fill="white"/>
<path d="M185.996 129.495C187.499 129.495 188.719 128.275 188.719 126.769C188.719 125.263 187.499 124.042 185.996 124.042C184.492 124.042 183.272 125.263 183.272 126.769C183.272 128.275 184.492 129.495 185.996 129.495Z" fill="white"/>
<path d="M40.5557 79.255C43.9375 83.842 48.3492 87.5685 53.4346 90.1334C56.4281 91.5837 59.5272 92.8046 62.7052 93.7856C64.9219 94.4947 67.0607 95.3032 69.366 95.7499C68.7073 95.6223 67.2944 97.1044 66.866 97.5228C66.0649 98.2952 65.3663 99.1675 64.7873 100.118C64.5395 100.54 64.2739 100.955 64.0543 101.388C63.1663 103.076 62.4668 104.857 61.9686 106.699C61.5034 108.458 61.1486 110.244 60.9063 112.046C60.3858 115.592 60.1591 118.989 59.5536 122.258C59.2758 123.88 58.866 125.476 58.3284 127.031C58.0575 127.793 57.7405 128.538 57.3794 129.261C57.0127 129.986 56.595 130.684 56.1294 131.35C55.6663 132.025 55.1488 132.662 54.5819 133.254C54.3057 133.559 53.9976 133.832 53.6966 134.115C53.5444 134.254 53.3815 134.378 53.2221 134.509C53.0639 134.644 52.8984 134.771 52.7264 134.888C52.0485 135.363 51.3206 135.761 50.5557 136.076C49.7837 136.431 47.4218 136.966 46.5684 137.14C47.9918 137.257 49.4245 137.156 50.8177 136.842C51.6801 136.624 52.5126 136.302 53.2965 135.881C54.9542 135.092 56.4533 134.006 57.7193 132.676C58.3578 132.008 58.9494 131.297 59.4899 130.548C60.0155 129.787 60.4888 128.991 60.9063 128.165C61.3281 127.351 61.7029 126.513 62.0288 125.655C62.3581 124.8 62.645 123.939 62.907 123.074C63.9268 119.606 64.4757 116.113 65.191 112.83C65.5319 111.22 65.9538 109.628 66.4552 108.061C66.526 107.848 66.6039 107.639 66.6818 107.43H68.3532C70.0069 107.43 71.6783 107.483 73.4028 107.479H73.9942L73.4418 107.696C73.1974 107.806 72.946 107.933 72.6981 108.05C72.4444 108.163 72.1994 108.295 71.9651 108.444C71.4865 108.722 71.0317 109.04 70.6053 109.394C70.3964 109.571 70.1698 109.749 69.975 109.929L69.4049 110.515C69.2092 110.706 69.027 110.911 68.8596 111.128L68.3391 111.763L67.8752 112.429C67.7199 112.651 67.5768 112.88 67.4467 113.117L67.0501 113.826C66.912 114.06 66.8128 114.309 66.696 114.535C66.5791 114.762 66.4587 115.014 66.3631 115.245L66.0763 115.989C65.3486 117.981 64.919 120.07 64.8015 122.187C64.759 122.712 64.7696 123.251 64.7625 123.769C64.7555 124.286 64.798 124.832 64.8405 125.354C64.9252 126.391 65.0766 127.421 65.2937 128.438C65.7129 130.448 66.3236 132.413 67.1174 134.307C68.6577 138.062 70.7151 141.49 72.8256 144.76C74.0862 146.724 75.3646 148.639 76.5827 150.568C74.3766 155.088 71.6606 158.751 66.8766 160.85C63.0127 162.541 58.6894 162.865 54.6173 161.769C55.2724 161.946 56.0763 162.832 56.742 163.162C57.6254 163.605 58.5638 163.928 59.5324 164.123C61.1046 164.442 62.8716 164.425 64.4686 164.417C68.2753 164.396 72.5282 161.879 75.2938 159.453C76.6618 158.246 77.8676 156.866 78.8809 155.347C78.98 155.205 79.0686 155.053 79.1606 154.908C79.9837 156.406 80.7191 157.951 81.3632 159.535C82.0378 161.266 82.5546 163.054 82.9071 164.878C83.2677 166.714 83.4079 168.587 83.3249 170.456C83.2177 172.354 82.8323 174.226 82.1812 176.012L82.4645 176.154C83.4918 174.447 84.211 172.572 84.5891 170.615C84.7833 169.631 84.9017 168.633 84.9432 167.63C84.9822 167.126 84.9645 166.626 84.9715 166.123C84.9786 165.619 84.9361 165.119 84.9043 164.616C84.7432 162.606 84.3705 160.619 83.7924 158.687C83.2093 156.771 82.4874 154.9 81.6323 153.089C81.3962 152.585 81.1519 152.086 80.8993 151.592C81.0586 151.216 81.2109 150.841 81.3455 150.458C81.9367 148.753 82.3474 146.99 82.5707 145.199C82.7754 143.459 82.8524 141.706 82.8009 139.955C82.7619 138.232 82.6203 136.537 82.4467 134.867C82.2732 133.197 82.0608 131.552 81.8554 129.924C81.3719 125.766 81.556 121.557 82.4007 117.457C82.4645 117.138 82.553 116.826 82.6344 116.51C82.7159 116.195 82.7867 115.879 82.8823 115.567C83.07 114.947 83.2364 114.319 83.4595 113.713C84.2805 111.299 85.4509 109.018 86.9333 106.944C87.6628 105.928 88.4933 104.988 89.4121 104.139C89.8512 103.692 90.3575 103.302 90.8285 102.888C91.2995 102.473 91.8448 102.107 92.3937 101.749C93.456 100.998 94.6175 100.331 95.7896 99.668C96.9617 99.0049 98.194 98.3773 99.4156 97.7214C101.949 96.4541 104.395 95.0172 106.735 93.4203C107.033 93.2218 107.309 92.9878 107.599 92.775C107.889 92.5623 108.166 92.346 108.452 92.0978C109.017 91.6144 109.534 91.0777 109.996 90.4951C111.112 89.0768 111.413 87.4528 111.873 85.7508C110.618 88.3979 108.578 90.5922 106.03 92.0339C101.261 94.7146 94.7839 94.6543 89.5997 93.3813C84.8689 92.2148 80.3929 90.5447 75.5593 92.2928C74.6882 92.6084 73.8348 93.0232 72.9106 93.1225C72.1092 93.166 71.3057 93.0883 70.5274 92.892C64.5076 91.6865 58.725 90.1724 53.4452 86.9245C52.6343 86.4245 51.8411 85.9033 51.0621 85.3537C55.1839 85.6657 58.9091 85.8005 63.0026 84.9637C64.9443 84.5702 66.8546 84.0345 68.7179 83.361C70.4885 82.7298 72.1138 81.6696 73.8631 81.0846C65.9846 83.7042 57.483 83.7774 49.5607 81.2938C50.6407 81.2938 51.7278 81.2938 52.8255 81.2087C53.9618 81.1268 55.0922 80.9776 56.2108 80.7619C57.3086 80.5456 58.3921 80.2868 59.4686 79.9996C61.6196 79.4212 63.7329 78.7107 65.7965 77.8721C73.1195 74.9043 79.7449 70.5253 85.8781 65.7349L86.3844 65.5257L86.3242 65.3839C86.9546 64.8875 87.5801 64.3875 88.201 63.884C89.8172 62.5514 91.5079 61.3119 93.2648 60.1716C94.8948 59.107 96.6896 58.3198 98.5764 57.842C99.4794 57.6312 100.404 57.5276 101.331 57.5335C102.302 57.5335 103.346 57.5867 104.465 57.6328C105.025 57.6541 105.605 57.6683 106.204 57.6612C106.836 57.6544 107.468 57.6094 108.095 57.5264H108.144C108.058 57.6141 107.967 57.6969 107.872 57.7746C107.732 57.8835 107.577 57.9707 107.411 58.0335C107.336 58.0671 107.257 58.0955 107.178 58.1186C107.08 58.1464 106.981 58.1677 106.88 58.1824C106.351 58.2536 105.817 58.2868 105.283 58.2817C104.57 58.2784 103.859 58.3437 103.159 58.4767C102.74 58.5667 102.334 58.7047 101.948 58.888C101.549 59.0829 101.18 59.3323 100.85 59.6291C100.229 60.1865 99.7445 60.8792 99.4333 61.6537C99.1554 62.3351 98.9697 63.0506 98.8809 63.7812C98.7961 64.4525 98.763 65.1294 98.7818 65.8058C98.7818 66.4334 98.803 67.0433 98.7995 67.6461C98.7995 69.7984 97.9319 72.1173 96.8129 74.0817C96.5332 74.5674 96.2393 75.0319 95.9418 75.4645C96.1933 75.11 97.808 74.4398 98.2967 73.9647C99.0278 73.3193 99.6113 72.5235 100.007 71.6315C100.281 70.9835 100.496 70.3117 100.648 69.6246H100.694C100.694 69.5679 100.694 69.5147 100.694 69.458C100.786 69.0431 100.86 68.6283 100.924 68.2134C101.157 67.8482 101.484 67.552 101.87 67.3553C102.709 66.866 103.789 66.5292 104.897 65.9867C105.523 65.6975 106.098 65.3096 106.601 64.8378C106.744 64.6944 106.877 64.5416 107.001 64.3804C107.128 64.2035 107.239 64.0147 107.33 63.8166C107.465 63.536 107.555 63.2356 107.596 62.9267C107.828 63.6465 107.878 64.413 107.741 65.157C107.554 66.0112 107.152 66.8031 106.571 67.4564C105.991 68.1097 105.252 68.6024 104.426 68.8871L104.497 69.1991C105.522 69.0641 106.496 68.667 107.323 68.0459C108.15 67.4249 108.804 66.6009 109.221 65.6534C110.081 63.7032 109.703 61.4764 110.683 59.5688C111.672 57.6877 113.104 56.0763 114.855 54.8742L114.979 54.7962C115.943 54.1504 116.87 53.4508 117.755 52.7006C118.623 51.9738 119.451 51.2469 120.258 50.5271C121.066 49.8073 121.909 49.0272 122.709 48.2542C123.509 47.4813 124.352 46.5877 125.113 45.6977C125.39 45.3715 125.521 44.9035 125.896 44.7085C126.349 44.4709 127.047 44.7085 127.436 44.9567C128.449 45.6233 128.662 46.8182 129.596 47.5486C130.023 47.8946 130.514 48.1528 131.041 48.3086C131.568 48.4643 132.12 48.5145 132.666 48.4563C133.849 48.2791 134.228 47.5699 135.039 46.8749C135.156 46.7982 135.252 46.6928 135.317 46.5687C135.382 46.4446 135.414 46.3059 135.411 46.1658C135.379 46.0371 135.321 45.9164 135.241 45.8112C135.021 45.5174 134.868 45.1783 134.795 44.8184C134.761 44.6379 134.777 44.4519 134.839 44.2793C134.901 44.1067 135.008 43.9538 135.149 43.8362C135.563 43.5348 136.176 43.7156 136.533 44.0809C136.699 44.2508 136.829 44.453 136.914 44.6749C137 44.8969 137.039 45.1339 137.029 45.3715C136.958 45.8548 136.839 46.3298 136.675 46.7898C136.558 47.265 136.579 47.8536 136.951 48.155C137.606 48.7152 138.014 48.3713 138.212 49.3109C138.405 50.3017 138.547 51.3017 138.637 52.3071C138.7 53.0871 138.732 53.8601 138.722 54.6189C138.705 55.3665 138.634 56.1119 138.509 56.8492C138.382 57.5742 138.19 58.2862 137.936 58.9767C137.678 59.6655 137.359 60.33 136.983 60.9623C136.144 62.3501 135.217 63.6826 134.207 64.9513C132.239 67.3946 130.009 69.6134 127.557 71.5677C126.287 72.2735 125.115 73.1411 124.069 74.149C123.86 74.3512 123.661 74.5639 123.463 74.7731L123.13 75.0426C122.429 75.6267 121.758 76.2456 121.119 76.897C120.79 77.2268 120.503 77.5672 120.195 77.904C119.887 78.2409 119.614 78.5954 119.324 78.9429C117.083 81.7776 115.383 85.0013 114.309 88.4527C113.772 90.1678 113.41 91.9332 113.229 93.7217C113.088 95.101 113.052 96.491 112.914 97.8632C112.762 99.3772 113.07 100.927 112.886 102.473C112.337 99.437 111.062 96.5794 109.171 94.1437C109.777 96.7463 109.309 99.5297 108.166 101.944C106.041 106.44 102.036 109.082 98.0559 111.773C97.0762 112.438 96.0894 113.127 95.0955 113.84C94.104 114.55 93.1019 115.308 92.1458 116.142C91.1669 116.981 90.253 117.894 89.4121 118.872L88.7995 119.638L88.2187 120.436L87.6734 121.265L87.1706 122.155C86.2153 123.992 85.7679 126.051 85.8745 128.119C85.9098 129.355 86.0592 130.585 86.3207 131.793C86.5402 132.722 87.3476 133.973 87.383 134.878C87.2697 131.605 87.4503 128.616 88.973 125.659C90.3627 123.078 92.2584 120.804 94.5466 118.975C95.413 118.266 96.3231 117.573 97.2768 116.897L97.7655 116.542C97.5991 116.918 97.4397 117.298 97.291 117.681C96.7436 119.133 96.3091 120.625 95.9914 122.145H95.956C95.587 123.695 95.3863 125.281 95.3576 126.875C95.2305 128.921 95.2506 130.973 95.4178 133.016C95.5275 134.303 95.6692 135.498 95.7719 136.739C95.8746 137.98 95.9772 139.164 96.002 140.363C96.0516 142.99 95.8639 145.99 94.7449 148.401C93.8455 150.344 92.0041 152.848 89.9007 153.624C91.9563 152.854 93.7776 151.564 95.1876 149.88C95.9044 149.03 96.509 148.09 96.9865 147.086C97.4291 146.146 97.5282 145.256 97.7478 144.249C98.0143 142.982 98.18 141.695 98.2435 140.402C98.2754 139.902 98.2896 139.406 98.2967 138.913C98.7176 139.69 99.1846 140.442 99.6954 141.164C100.949 142.958 102.312 144.547 103.591 146.089C104.232 146.866 104.851 147.635 105.407 148.419C105.968 149.192 106.48 150 106.94 150.837C107.171 151.245 107.337 151.667 107.539 152.082C107.631 152.294 107.702 152.514 107.787 152.731C107.873 152.945 107.948 153.164 108.01 153.387L108.215 154.057L108.371 154.741L108.449 155.096L108.506 155.45L108.622 156.159C109.107 160.115 108.258 164.12 106.211 167.538C107.814 166.127 109.073 164.369 109.894 162.396C110.12 161.903 110.29 161.389 110.471 160.875C110.567 160.616 110.616 160.35 110.69 160.088C110.765 159.826 110.832 159.556 110.875 159.287L111.027 158.478C111.073 158.209 111.098 157.932 111.133 157.659C111.198 157.108 111.232 156.554 111.236 156C111.251 153.741 110.793 151.504 109.89 149.433C108.994 147.355 107.72 145.554 106.48 143.87C105.241 142.185 103.948 140.625 102.897 139.015C102.758 138.817 102.638 138.615 102.511 138.413C102.383 138.211 102.263 138.012 102.156 137.806L101.802 137.193L101.477 136.569C101.051 135.73 100.683 134.863 100.375 133.973C99.1084 130.384 98.6985 126.548 99.1784 122.772H99.1394C99.9839 119.186 101.597 115.826 103.867 112.926C104.596 111.986 105.386 111.057 106.19 110.089C107.016 109.112 107.777 108.083 108.47 107.008C109.26 105.753 109.649 104.458 110.12 103.058C110.893 106.089 110.608 109.295 109.313 112.142C111.597 109.77 113.513 107.486 114.348 104.256C114.565 103.397 114.724 102.524 114.826 101.643C114.943 100.771 115.018 99.902 115.078 99.0404C115.216 97.3242 115.29 95.6365 115.556 94.0302C115.805 92.4136 116.213 90.8256 116.774 89.2895C116.898 88.9349 117.036 88.5804 117.178 88.2506C116.697 91.195 116.433 94.1709 116.388 97.154L116.296 101.849C116.261 103.402 116.218 104.923 116.084 106.373C116.012 107.081 115.904 107.785 115.761 108.483C115.612 109.151 115.415 109.808 115.17 110.447C114.916 111.065 114.607 111.659 114.246 112.22C113.868 112.78 113.444 113.306 112.978 113.794C112.011 114.801 110.807 115.727 109.582 116.783C108.943 117.321 108.337 117.897 107.766 118.507C107.177 119.144 106.651 119.837 106.193 120.574C105.742 121.301 105.353 122.065 105.032 122.857C104.722 123.64 104.472 124.445 104.285 125.265C103.916 126.873 103.76 128.523 103.821 130.172C103.873 131.778 104.073 133.376 104.419 134.945C104.756 136.489 105.179 138.012 105.687 139.508L105.995 139.441C105.605 136.335 105.287 133.225 105.567 130.222C105.699 128.744 105.998 127.285 106.459 125.875C106.69 125.189 106.973 124.521 107.305 123.879C107.619 123.244 107.988 122.638 108.406 122.067C108.82 121.507 109.284 120.987 109.795 120.514C110.312 120.035 110.878 119.581 111.477 119.124C112.796 118.193 114.062 117.189 115.269 116.117C115.428 115.971 115.581 115.812 115.737 115.659L116.183 115.163C116.335 115.001 116.477 114.829 116.608 114.649C116.742 114.472 116.884 114.294 117.015 114.117C117.525 113.382 117.967 112.603 118.336 111.787C118.683 110.983 118.968 110.153 119.189 109.305C119.393 108.479 119.553 107.642 119.667 106.799C119.777 105.972 119.855 105.157 119.908 104.352C119.961 103.547 119.996 102.756 120.032 101.969L120.227 97.2959C120.379 94.2146 120.581 91.1865 121.165 88.2861C121.697 85.4335 122.708 82.6917 124.154 80.1769C124.915 78.8835 125.837 77.6921 126.898 76.6311C128.867 78.2905 130.63 79.8436 131.813 82.198C132.857 84.3267 133.488 86.6345 133.672 88.9988C133.711 89.4703 133.757 89.9313 133.778 90.4171C133.8 90.9028 133.778 91.4063 133.831 91.9382C133.858 92.4985 133.929 93.0557 134.044 93.6047C134.167 94.2118 134.382 94.7966 134.681 95.3386C135.279 96.332 136.063 97.2002 136.99 97.8951C137.404 98.2249 137.801 98.5263 138.198 98.8312L139.387 99.7496L140.588 100.654L141.183 101.104C141.374 101.246 141.537 101.381 141.675 101.505C141.793 101.611 141.9 101.73 141.994 101.859C142.061 101.955 142.111 102.062 142.142 102.175C142.211 102.452 142.203 102.743 142.118 103.015C142.019 103.336 141.858 103.634 141.643 103.891C141.362 104.177 141.045 104.426 140.701 104.632L140.06 105.082C139.762 105.289 139.497 105.54 139.274 105.827C139.084 106.068 138.962 106.356 138.92 106.66C138.803 107.497 139.313 108.497 139.777 109.142C139.972 109.415 140.241 109.419 140.45 109.664C140.547 109.774 140.611 109.91 140.636 110.055C140.661 110.2 140.646 110.349 140.591 110.486C140.418 110.933 139.915 111.139 139.529 111.366C139.143 111.592 138.761 111.805 138.364 112.004C137.967 112.202 137.56 112.316 137.178 112.525C137.139 112.55 137.093 112.578 137.086 112.628C137.079 112.677 137.22 112.748 137.319 112.724C137.667 112.613 138.022 112.527 138.382 112.465C138.566 112.433 138.755 112.438 138.937 112.479C139.119 112.52 139.292 112.597 139.444 112.706C139.591 112.818 139.694 112.98 139.733 113.161C139.773 113.342 139.747 113.531 139.66 113.695C139.501 113.943 139.193 114.05 138.952 114.223C138.733 114.425 138.568 114.678 138.471 114.96C138.374 115.241 138.348 115.543 138.396 115.837C138.502 117.081 138.98 118.188 139.345 119.361C139.522 119.935 139.558 120.544 139.448 121.134C139.39 121.424 139.3 121.706 139.179 121.974C139.123 122.098 139.057 122.217 138.98 122.329C138.907 122.439 138.824 122.542 138.732 122.638C138.329 123.055 137.833 123.372 137.284 123.563C135.549 124.205 133.208 124.208 131.374 124.272C125.138 124.457 118.438 123.818 112.847 120.78C115.384 123.47 118.697 125.3 122.323 126.013C121.623 126.566 120.961 127.167 120.343 127.811L119.593 128.616C119.348 128.885 119.079 129.18 118.835 129.47C117.84 130.638 116.946 131.888 116.161 133.207C115.374 134.517 114.675 135.878 114.069 137.282C113.384 138.781 113.022 140.409 113.006 142.058C113.035 143.705 113.434 145.324 114.175 146.795C116.013 150.536 119.444 153.234 121.377 156.918C122.44 158.943 122.897 161.219 123.336 163.446C125.251 157.801 121.243 153.759 118.275 149.493C117.462 148.368 116.773 147.158 116.222 145.884C115.718 144.687 115.486 143.394 115.542 142.097C115.626 140.804 115.972 139.542 116.558 138.388C117.779 135.869 119.306 133.511 121.105 131.367C121.328 131.094 121.547 130.842 121.788 130.562C122.029 130.282 122.263 129.999 122.496 129.726C122.967 129.176 123.421 128.637 123.888 128.133C124.122 127.882 124.356 127.641 124.596 127.424L124.77 127.261L124.911 127.137C125.01 127.061 125.113 126.99 125.22 126.924C126.399 126.215 127.936 126.506 129.246 126.41C130.988 126.283 132.73 126.148 134.476 126.056C134.83 126.056 135.223 126.017 135.613 125.978C136.447 125.915 137.267 125.727 138.045 125.421C138.864 125.08 139.592 124.552 140.17 123.879C140.319 123.697 140.452 123.504 140.57 123.301C140.684 123.099 140.782 122.888 140.861 122.669C141.012 122.257 141.116 121.829 141.169 121.393C141.259 120.526 141.137 119.65 140.815 118.84C140.514 118.095 140.174 117.475 139.965 116.883C139.861 116.6 139.8 116.304 139.784 116.003C139.784 115.681 139.784 115.379 140.138 115.238C140.281 115.183 140.428 115.138 140.577 115.103C140.837 115.018 141.073 114.873 141.265 114.679C141.457 114.484 141.6 114.247 141.682 113.986C141.778 113.668 141.778 113.329 141.682 113.011C141.661 112.94 141.328 112.206 141.186 112.302C141.433 112.112 141.658 111.897 141.859 111.66C142.103 111.381 142.283 111.052 142.387 110.695C142.513 110.291 142.513 109.858 142.387 109.454C142.332 109.27 142.256 109.093 142.16 108.926L141.976 108.571L141.268 107.267L141.087 106.944C141.144 106.901 141.215 106.855 141.289 106.809L141.905 106.455C142.44 106.176 142.93 105.817 143.357 105.391C143.806 104.902 144.149 104.325 144.363 103.696C144.6 103.012 144.641 102.275 144.48 101.569C144.39 101.191 144.238 100.832 144.03 100.505C143.839 100.218 143.617 99.9526 143.368 99.7141C143.137 99.4978 142.911 99.317 142.705 99.1539L142.107 98.6858L140.917 97.7639L138.548 95.9556C137.853 95.463 137.253 94.8478 136.778 94.1401C136.396 93.4009 136.186 92.5854 136.162 91.7538L136.055 90.2681C135.673 85.96 134.132 81.8434 133.987 77.4679C133.878 74.2058 135.244 70.5465 136.887 67.7915C136.997 67.6638 137.111 67.5397 137.22 67.4085C137.929 66.5859 138.573 65.7314 139.2 64.8556C141.284 64.9858 143.334 65.4479 145.273 66.2242L142.065 59.7C142.303 59.0292 142.497 58.3433 142.645 57.647C142.838 56.6987 142.963 55.7377 143.017 54.7714C143.062 53.826 143.051 52.8789 142.985 51.9348C142.918 51.0058 142.808 50.0945 142.674 49.1974L142.564 48.5273C142.564 48.4138 142.532 48.3181 142.507 48.1727L142.429 47.7826C142.317 47.2795 142.175 46.7834 142.004 46.297C141.579 45.0595 140.737 43.9142 140.174 42.7299C139.507 41.3848 139.008 39.963 138.686 38.4963C138.614 37.9356 138.454 37.3899 138.212 36.8794C137.659 35.9078 136.048 34.876 134.936 34.837C134.648 34.8322 134.359 34.8571 134.076 34.9115C133.785 34.9576 133.499 35.0214 133.212 35.0923C132.925 35.1632 132.642 35.2554 132.362 35.3547C132.082 35.454 131.806 35.5781 131.537 35.7093C130.981 35.9759 130.458 36.3068 129.979 36.695L129.943 36.6737L129.734 36.8191C127.872 38.1204 126.239 39.5281 124.61 40.9216C122.982 42.3151 121.424 43.7298 119.862 45.1517C119.078 45.8608 118.281 46.5546 117.472 47.2331C116.636 47.9422 115.825 48.623 115.014 49.2719C113.392 50.5661 111.767 51.7007 110.057 52.3993C109.225 52.7375 108.356 52.9755 107.468 53.1084C107.021 53.175 106.571 53.2141 106.119 53.2254C105.634 53.2254 105.127 53.2254 104.603 53.2254C103.559 53.2006 102.433 53.1368 101.236 53.1793C99.9922 53.2156 98.7567 53.3929 97.553 53.7076C95.2374 54.357 93.0512 55.4018 91.0905 56.796C88.9659 58.2391 87.3582 60.1397 85.138 61.4055C82.9116 62.6823 80.5063 63.617 78.0027 64.1783C74.7909 64.8875 71.8695 65.9512 68.5338 66.3802C65.7205 66.7345 62.8883 66.9181 60.0529 66.9298C57.2483 66.9519 54.4462 66.7587 51.6711 66.3519L45.9771 65.4903L49.4013 69.9225C51.4385 72.5518 54.1043 74.6248 57.1527 75.9503C58.0883 76.3539 59.053 76.6858 60.0387 76.9431C59.5996 77.0849 59.1605 77.2268 58.7179 77.358C56.0161 78.1593 53.0203 78.3862 50.2193 78.6557C47.8645 78.8827 45.5026 79.0316 43.1371 79.1557L40.5557 79.255ZM140.443 113.436C140.443 113.436 140.443 113.436 140.443 113.465V113.436ZM140.935 106.728C140.934 106.715 140.934 106.702 140.935 106.689C140.935 106.689 140.935 106.703 140.935 106.728ZM105.134 61.3417C105.134 61.3736 105.156 61.4091 105.163 61.441C105.177 61.5086 105.186 61.5775 105.188 61.6466C105.185 61.6939 105.185 61.7412 105.188 61.7885L105.212 61.9445C105.23 62.0473 105.212 62.1289 105.241 62.2211C105.269 62.3132 105.241 62.3806 105.241 62.4551C105.236 62.5953 105.205 62.7332 105.147 62.861C105.089 62.9888 105.007 63.1039 104.904 63.1997C104.578 63.5273 104.209 63.8088 103.807 64.0365C103.36 64.3166 102.858 64.5896 102.348 64.8981C101.954 65.1325 101.575 65.3894 101.211 65.6675C101.261 65.1908 101.338 64.7172 101.441 64.2492C101.671 63.1855 102.1 62.2671 102.688 61.8417C102.988 61.6175 103.342 61.4757 103.715 61.4303C104.185 61.364 104.66 61.3344 105.134 61.3417ZM69.1075 70.4402C71.218 70.1069 73.3096 69.6873 75.3823 69.1814C71.9974 71.4999 68.4084 73.5045 64.6599 75.1702C64.242 75.3546 63.8242 75.5248 63.4028 75.6986C61.6743 75.1844 60.0381 74.3993 58.555 73.3725C57.6865 72.7707 56.8767 72.0881 56.1365 71.3337C57.475 71.3692 58.8064 71.3692 60.1379 71.3337C63.143 71.2177 66.1384 70.9193 69.1075 70.4402ZM74.0827 110.607C74.2633 110.504 74.4368 110.394 74.6209 110.288C75.0352 110.093 75.4319 109.883 75.8639 109.699C77.5565 108.94 79.3695 108.281 81.1755 107.572C81.0834 107.735 80.9914 107.894 80.9028 108.057C80.1868 109.377 79.5747 110.751 79.0721 112.167C78.8207 112.876 78.6082 113.585 78.3922 114.294C78.2789 114.649 78.1974 115.003 78.1054 115.358C78.0133 115.713 77.9177 116.067 77.8469 116.44L77.6309 117.532C77.5636 117.886 77.5246 118.262 77.468 118.627C77.4113 118.992 77.3617 119.361 77.3299 119.73C77.298 120.099 77.2591 120.464 77.2307 120.833C76.8235 127.339 78.7817 133.573 78.7003 139.98C78.6973 142.133 78.467 144.279 78.0133 146.384C77.3051 145.185 76.5969 144.001 75.8886 142.838C74.9113 141.182 73.9375 139.551 73.0558 137.874C72.17 136.236 71.371 134.553 70.662 132.832C69.9782 131.153 69.4392 129.419 69.0508 127.648L68.9127 126.988L68.8029 126.325C68.7179 125.885 68.6755 125.442 68.6188 124.999C68.5621 124.556 68.5444 124.127 68.5232 123.687C68.5019 123.247 68.4949 122.804 68.5232 122.365C68.5648 120.6 68.8532 118.85 69.3801 117.166L69.5855 116.542C69.6528 116.337 69.7449 116.142 69.8228 115.94C69.9007 115.737 69.9786 115.532 70.0742 115.34L70.361 114.766C70.4543 114.573 70.5583 114.386 70.6726 114.206L70.9984 113.656L71.3525 113.142C71.4672 112.966 71.5963 112.8 71.7385 112.646L72.1493 112.17C72.2838 112.011 72.4467 111.887 72.5954 111.738L72.8221 111.525C72.8953 111.451 72.9747 111.383 73.0593 111.323L73.5515 110.947C73.719 110.819 73.8966 110.705 74.0827 110.607ZM81.0409 96.4236C81.8058 96.4236 82.6026 96.4733 83.417 96.5477C86.2109 96.7817 89.1854 97.2569 92.2697 97.3562C91.6064 97.6871 90.9489 98.0417 90.2973 98.4199C85.4496 101.228 82.4467 105.157 76.2711 104.026C73.6011 103.54 70.8107 102.792 68.2293 103.629C70.832 98.973 75.2477 96.5016 80.4708 96.4378L81.0409 96.4236Z" fill="white"/>
<path d="M123.131 93.6333C123.589 92.7818 124.21 92.0289 124.958 91.4171C125.715 90.7863 126.579 90.2953 127.508 89.9669C128.467 89.6177 129.498 89.5153 130.507 89.6691C131.519 89.8173 132.441 90.3351 133.095 91.1228L132.915 91.3817C132.107 91.1038 131.255 90.9752 130.401 91.0023C129.587 91.0429 128.782 91.1968 128.01 91.4597C127.205 91.7318 126.424 92.0722 125.677 92.4773C124.905 92.8815 124.158 93.3496 123.365 93.846L123.131 93.6333Z" fill="white"/>
<path d="M132.759 95.3531L133 95.7325C133.06 95.8261 133.099 95.9319 133.114 96.0423C133.128 96.1526 133.118 96.2649 133.084 96.3709C133.05 96.477 132.994 96.5742 132.918 96.6557C132.842 96.7372 132.749 96.8009 132.646 96.8423C131.297 97.3739 129.838 97.5662 128.397 97.4025C126.738 97.2356 125.167 96.579 123.882 95.5162L124.062 95.2573C125.391 95.993 126.908 96.3175 128.422 96.1899C129.587 96.1004 130.714 95.7359 131.711 95.1261C131.795 95.0721 131.888 95.035 131.986 95.0172C132.084 94.9993 132.185 95.0009 132.282 95.022C132.38 95.0431 132.472 95.0832 132.554 95.14C132.636 95.1968 132.705 95.2692 132.759 95.3531Z" fill="white"/>
<path d="M30.6484 138.403C33.4105 138.527 35.9919 136.881 37.805 134.793C39.618 132.704 40.8397 130.183 42.2703 127.804C43.7009 125.425 45.4573 123.124 47.9148 121.869C49.1825 121.22 53.2831 121.099 53.7363 119.387C53.0883 121.83 51.2576 123.489 49.6145 125.297C47.6905 127.425 45.6756 129.454 43.5699 131.385C46.7569 130.191 49.4198 127.864 51.5302 125.191C53.6407 122.517 55.2448 119.489 56.8419 116.479C57.1004 117.642 56.9198 119.5 56.8419 120.734C56.7257 122.265 56.3233 123.76 55.6556 125.141C54.3596 127.918 52.2597 130.297 49.9297 132.254C44.919 136.467 37.203 138.697 30.6484 138.403Z" fill="white"/>
<path d="M115.022 160.226C115.503 157.553 115.291 154.823 114.99 152.142C117.242 156.989 116.828 162.602 116.364 167.928C118.233 163.143 118.166 157.817 116.176 153.082C120.751 159.971 121.056 169.552 116.052 176.307C114.816 173.147 113.573 169.857 113.789 166.467C113.934 164.35 114.65 162.318 115.022 160.226Z" fill="white"/>
<path d="M104.685 158.805C104.016 162.595 101.569 165.793 99.1926 168.822C100.234 167.166 100.333 165.067 100 163.148C99.6671 161.23 98.9376 159.383 98.4348 157.475C97.932 155.567 97.6522 153.557 98.2152 151.681C98.4737 150.834 98.8526 149.642 99.4157 148.955C99.4832 148.863 99.5799 148.797 99.6899 148.767C99.7999 148.737 99.9167 148.746 100.021 148.791C100.171 148.906 100.271 149.073 100.301 149.26C101.144 152.192 101.752 155.187 102.118 158.216C102.568 154.668 102.099 151.063 100.754 147.749C101.735 148.302 102.351 149.426 102.939 150.345C104.55 152.85 105.172 155.865 104.685 158.805Z" fill="white"/>
<path d="M67.5431 142.43C68.6904 144.884 69.3137 147.653 68.8604 150.319C68.3753 153.06 66.7676 155.475 64.9227 157.556C64.7103 154.642 61.8455 152.724 60.4928 150.135C58.8639 147.015 59.5615 143.239 60.3016 139.796L61.5091 134.168C63.1406 139.301 64.15 144.612 64.5155 149.986C64.4447 148.958 64.8448 147.742 64.9086 146.689C65.1156 143.149 64.6764 139.6 63.6125 136.218C64.9829 138.285 66.4879 140.182 67.5431 142.43Z" fill="white"/>
<path d="M74.441 176.279C75.1032 174.584 74.5791 172.687 74.441 170.868C74.2962 168.948 74.593 167.02 75.3086 165.233C75.6874 164.352 76.1399 163.504 76.6613 162.698C76.9233 162.294 78.322 160.943 78.3149 160.546C78.3752 163.766 77.9465 166.976 77.0437 170.066C78.4514 167.453 79.3638 164.602 79.7349 161.656C80.4393 163.679 80.5888 165.854 80.1678 167.954C79.7467 170.055 78.7706 172.004 77.3411 173.598C76.5692 174.452 74.8588 175.208 74.441 176.279Z" fill="white"/>
<path d="M90.7264 143.874C90.3157 146.655 88.8699 149.178 86.6789 150.937C86.9374 148.203 85.8397 145.554 85.1811 142.891C84.5224 140.228 84.4091 137.098 86.2434 135.069C87.6516 138.231 88.206 141.707 87.851 145.15C88.3721 143.382 88.6368 141.547 88.6372 139.704C88.6372 138.218 88.0458 136.555 88.1733 135.133C88.9877 135.569 89.5685 137.108 89.9226 137.938C90.7272 139.806 91.0052 141.859 90.7264 143.874Z" fill="white"/>
<path d="M90.5954 175.938C90.8645 173.577 90.1634 171.219 89.3489 168.985C88.5345 166.751 87.5784 164.531 87.3376 162.166C87.0968 159.801 87.6492 157.202 89.4233 155.631C90.7286 158.502 91.369 161.63 91.2965 164.783C91.3355 163.102 91.7498 161.592 91.5302 159.861C91.3921 158.776 90.5635 157.248 90.7052 156.238C92.4509 156.947 92.9679 160.088 93.1839 161.659C93.5843 164.764 93.3787 167.916 92.5784 170.942C92.1128 172.679 91.4473 174.355 90.5954 175.938Z" fill="white"/>
<path d="M47.0753 144.377C45.7327 145.711 44.7459 147.361 44.2052 149.177C43.6645 150.992 43.5872 152.913 43.9804 154.766C45.4216 152.603 48.0703 151.664 50.5243 150.82C52.9783 149.976 55.6164 148.923 56.8983 146.668C57.6271 145.27 57.896 143.678 57.6667 142.118C57.4375 140.567 57.0446 139.045 56.4946 137.576C56.5611 139.585 56.0351 141.57 54.9821 143.281C53.9291 144.992 52.3959 146.355 50.5739 147.199C53.0946 144.312 54.7708 140.785 55.4181 137.005C55.2694 137.892 53.8069 138.81 53.1907 139.374C51.2502 141.154 48.9591 142.54 47.0753 144.377Z" fill="white"/>
<path d="M128.315 158.745C127.44 156.33 125.695 154.351 123.935 152.486C121.852 150.274 119.31 147.845 118.584 144.774C118.255 143.388 118.584 142.147 118.938 140.81C120.075 145.228 125.004 147.721 126.598 151.993C126.413 149.394 124.802 147.139 123.159 145.115C121.516 143.09 119.731 141.048 119.087 138.52C120.999 142.143 124.795 143.317 127.433 146.239C129.558 148.579 129.728 151.557 129.434 154.564C129.342 155.401 128.102 158.142 128.315 158.745Z" fill="white"/>
</g>
<defs>
<clipPath id="clip0_105_893">
<rect width="198" height="195" fill="white"/>
</clipPath>
</defs>
</svg>
