<svg width="578" height="605" viewBox="0 0 578 605" fill="none" xmlns="http://www.w3.org/2000/svg">
<path d="M479.431 312.487C479.427 312.544 479.427 312.6 479.431 312.656C479.431 312.38 479.431 312.364 479.431 312.487Z" fill="#7C6E5F"/>
<path d="M74.4425 443.981L76.624 443.828H77.1771C74.3196 439.987 71.5595 436.079 68.8966 432.104C66.961 432.826 65.0253 433.518 63.0742 434.194C65.3632 437.682 67.683 441.093 70.2025 444.458C71.6005 444.181 73.0292 444.074 74.4425 443.981Z" fill="#7C6E5F"/>
<path d="M438.767 43.1384C438.697 41.9204 438.697 40.6994 438.767 39.4815C395.84 14.0889 346.873 0.714894 297 0.761597C142.668 0.761597 17.0939 126.34 17.0939 280.713C17.0412 333.737 32.13 385.674 60.5854 430.414L66.3771 428.324C38.086 384.297 23.0821 333.048 23.1621 280.713C23.1621 129.644 146.063 6.72323 297.062 6.72323C346.939 6.66399 395.873 20.3133 438.521 46.1806C438.613 45.1358 438.69 44.1678 438.767 43.1384Z" fill="#7C6E5F"/>
<path d="M474.961 64.7417C474.727 64.8441 474.486 64.9264 474.239 64.9875L474.669 66.1092C474.89 66.8497 474.898 67.6377 474.692 68.3826C474.485 69.1274 474.073 69.7988 473.501 70.3192C473.501 70.6726 473.501 71.0107 473.501 71.364C504.042 97.03 528.596 129.07 545.441 165.236C562.285 201.401 571.012 240.816 571.008 280.713C571.008 394.921 500.739 493.011 401.189 534.067C402.181 535.819 403.063 537.63 403.832 539.49C505.379 497.436 577.014 397.287 577.014 280.713C577.017 239.408 567.866 198.617 550.219 161.273C532.573 123.929 506.871 90.9616 474.961 64.7417Z" fill="#7C6E5F"/>
<path d="M43.9473 193.439C58.6191 213.316 77.7588 229.464 99.821 240.579C112.808 246.864 126.253 252.154 140.04 256.405C149.657 259.478 158.936 262.981 168.937 264.917C166.08 264.364 159.95 270.787 158.091 272.6C154.616 275.947 151.585 279.727 149.074 283.847C147.998 285.675 146.846 287.473 145.894 289.348C142.041 296.664 139.006 304.383 136.845 312.364C134.827 319.984 133.287 327.723 132.236 335.535C129.978 350.9 128.995 365.62 126.368 379.786C125.162 386.813 123.384 393.73 121.052 400.468C119.877 403.77 118.502 406.997 116.935 410.132C115.344 413.274 113.532 416.298 111.512 419.182C109.503 422.111 107.258 424.871 104.799 427.433C103.6 428.755 102.264 429.938 100.958 431.167C100.297 431.766 99.5906 432.304 98.8993 432.872C98.2128 433.459 97.4948 434.008 96.7485 434.516C93.8077 436.572 90.6496 438.299 87.3313 439.664C83.9822 441.2 73.7353 443.52 70.033 444.273C76.2079 444.779 82.4238 444.344 88.4681 442.983C92.2094 442.039 95.821 440.641 99.2219 438.819C106.414 435.402 112.917 430.694 118.41 424.929C121.18 422.036 123.746 418.956 126.091 415.71C128.372 412.411 130.425 408.962 132.236 405.384C134.066 401.854 135.692 398.222 137.106 394.506C138.535 390.803 139.779 387.069 140.916 383.32C145.34 368.293 147.722 353.159 150.825 338.931C152.304 331.954 154.134 325.056 156.309 318.265C156.617 317.343 156.955 316.436 157.293 315.53H164.544C171.718 315.53 178.969 315.76 186.451 315.745H189.016L186.62 316.682C185.56 317.158 184.469 317.711 183.394 318.219C182.293 318.707 181.23 319.277 180.214 319.924C178.137 321.132 176.164 322.509 174.314 324.042C173.408 324.81 172.425 325.578 171.58 326.362L169.106 328.897C168.257 329.727 167.467 330.616 166.741 331.555L164.482 334.306L162.47 337.194C161.796 338.153 161.175 339.148 160.611 340.175L158.89 343.248C158.291 344.262 157.861 345.338 157.354 346.321C156.847 347.304 156.325 348.395 155.91 349.394L154.666 352.621C151.509 361.252 149.645 370.302 149.135 379.479C148.951 381.753 148.997 384.088 148.966 386.332C148.935 388.575 149.12 390.941 149.304 393.2C149.672 397.693 150.329 402.158 151.27 406.567C153.089 415.277 155.739 423.793 159.182 431.997C165.865 448.268 174.791 463.126 183.947 477.293C189.416 485.805 194.962 494.102 200.246 502.461C190.676 522.051 178.892 537.923 158.138 547.019C141.375 554.346 122.618 555.749 104.952 550.999C107.794 551.767 111.282 555.608 114.17 557.037C118.002 558.957 122.073 560.357 126.275 561.201C133.096 562.584 140.762 562.507 147.691 562.476C164.206 562.384 182.656 551.475 194.654 540.965C200.59 535.733 205.821 529.752 210.217 523.173C210.647 522.558 211.031 521.897 211.43 521.267C215.001 527.76 218.192 534.455 220.986 541.319C223.913 548.819 226.155 556.569 227.684 564.474C229.248 572.429 229.857 580.543 229.497 588.643C229.032 596.869 227.36 604.981 224.535 612.72L225.764 613.335C230.221 605.938 233.341 597.814 234.981 589.334C235.824 585.068 236.337 580.743 236.518 576.397C236.687 574.215 236.61 572.049 236.64 569.867C236.671 567.685 236.487 565.519 236.349 563.337C235.65 554.627 234.033 546.016 231.525 537.647C228.995 529.342 225.863 521.233 222.153 513.385C221.129 511.203 220.069 509.042 218.973 506.901C219.665 505.272 220.325 503.644 220.909 501.984C223.474 494.596 225.256 486.959 226.225 479.198C227.113 471.658 227.447 464.062 227.223 456.473C227.054 449.006 226.44 441.661 225.687 434.424C224.934 427.187 224.012 420.058 223.121 413.005C221.024 394.987 221.823 376.748 225.487 358.982C225.764 357.599 226.148 356.247 226.501 354.879C226.854 353.512 227.162 352.144 227.576 350.792C228.391 348.103 229.113 345.384 230.081 342.756C233.642 332.294 238.72 322.412 245.151 313.425C248.316 309.02 251.919 304.948 255.905 301.271C257.81 299.335 260.007 297.645 262.05 295.847C264.093 294.049 266.459 292.467 268.84 290.915C273.449 287.657 278.488 284.769 283.573 281.896C288.658 279.022 294.004 276.303 299.304 273.46C310.296 267.969 320.905 261.742 331.059 254.822C332.349 253.962 333.548 252.948 334.807 252.026C336.067 251.104 337.265 250.167 338.51 249.091C340.96 246.997 343.203 244.671 345.208 242.146C350.047 236 351.353 228.963 353.35 221.588C347.907 233.058 339.054 242.567 328.002 248.815C307.308 260.431 279.21 260.169 256.719 254.653C236.195 249.598 216.777 242.361 195.807 249.936C192.027 251.304 188.325 253.102 184.315 253.532C180.838 253.72 177.353 253.384 173.976 252.533C147.86 247.309 122.773 240.748 99.8671 226.674C96.3491 224.507 92.9079 222.249 89.5281 219.867C107.41 221.219 123.572 221.803 141.331 218.177C149.755 216.472 158.042 214.15 166.126 211.232C173.807 208.497 180.859 203.903 188.448 201.367C154.268 212.719 117.385 213.036 83.0144 202.274C87.7 202.274 92.4163 202.274 97.1787 201.905C102.108 201.55 107.012 200.904 111.865 199.969C116.628 199.032 121.329 197.91 125.999 196.666C135.331 194.16 144.499 191.081 153.452 187.447C185.222 174.586 213.965 155.61 240.573 134.852L242.77 133.946L242.509 133.331C245.243 131.18 247.958 129.013 250.651 126.832C257.663 121.057 264.998 115.686 272.62 110.744C279.691 106.131 287.478 102.72 295.664 100.65C299.581 99.7359 303.593 99.2872 307.616 99.3129C311.825 99.3129 316.357 99.5433 321.212 99.7431C323.639 99.8353 326.158 99.8967 328.755 99.866C331.498 99.8365 334.238 99.6415 336.958 99.2822H337.173C336.799 99.6618 336.404 100.021 335.99 100.358C335.384 100.829 334.711 101.207 333.993 101.479C333.664 101.625 333.325 101.748 332.979 101.848C332.556 101.969 332.125 102.061 331.689 102.125C329.393 102.433 327.077 102.577 324.76 102.555C321.668 102.541 318.581 102.824 315.543 103.4C313.729 103.79 311.966 104.388 310.289 105.182C308.56 106.027 306.957 107.107 305.526 108.394C302.833 110.809 300.731 113.811 299.381 117.167C298.176 120.12 297.37 123.22 296.985 126.386C296.617 129.295 296.473 132.228 296.555 135.159C296.555 137.879 296.647 140.522 296.631 143.134C296.631 152.461 292.868 162.509 288.013 171.021C286.799 173.126 285.524 175.139 284.234 177.014C285.324 175.477 292.33 172.573 294.45 170.514C297.622 167.718 300.153 164.269 301.87 160.404C303.059 157.596 303.99 154.685 304.651 151.708H304.85C304.85 151.462 304.85 151.231 304.85 150.985C305.25 149.188 305.572 147.39 305.849 145.592C306.861 144.01 308.277 142.726 309.951 141.874C313.592 139.754 318.277 138.294 323.086 135.943C325.8 134.69 328.294 133.009 330.475 130.965C331.097 130.343 331.677 129.681 332.211 128.983C332.765 128.216 333.243 127.398 333.64 126.54C334.227 125.324 334.616 124.022 334.792 122.683C335.802 125.802 336.018 129.124 335.422 132.348C334.613 136.05 332.866 139.481 330.347 142.312C327.829 145.143 324.625 147.278 321.043 148.512L321.35 149.864C325.798 149.279 330.02 147.558 333.609 144.867C337.199 142.175 340.035 138.605 341.844 134.499C345.577 126.048 343.933 116.399 348.188 108.132C352.478 99.981 358.689 92.9983 366.285 87.7891L366.823 87.4511C371.005 84.6526 375.026 81.6209 378.867 78.3704C382.631 75.2205 386.226 72.0707 389.729 68.9516C393.231 65.8325 396.888 62.4522 400.36 59.1026C403.832 55.753 407.488 51.881 410.791 48.0244C411.989 46.6108 412.558 44.5826 414.186 43.7376C416.152 42.7081 419.179 43.7376 420.869 44.8131C425.262 47.7017 426.184 52.8798 430.24 56.045C432.093 57.544 434.223 58.663 436.508 59.338C438.794 60.0129 441.19 60.2305 443.559 59.9784C448.69 59.2102 450.334 56.1371 453.852 53.1256C454.361 52.7933 454.776 52.3365 455.058 51.7987C455.34 51.2609 455.48 50.6598 455.465 50.0526C455.328 49.495 455.077 48.9719 454.728 48.5161C453.772 47.243 453.111 45.7736 452.792 44.2139C452.648 43.4319 452.715 42.6258 452.985 41.8779C453.255 41.1301 453.718 40.4674 454.328 39.9578C456.126 38.6517 458.784 39.4354 460.335 41.018C461.056 41.7544 461.619 42.6304 461.988 43.5921C462.358 44.5539 462.528 45.5812 462.486 46.6108C462.177 48.7049 461.662 50.7635 460.95 52.7568C460.443 54.8158 460.535 57.3663 462.148 58.6724C464.99 61.1 466.757 59.6096 467.617 63.6814C468.454 67.9747 469.069 72.3083 469.461 76.6648C469.737 80.0451 469.875 83.3947 469.829 86.6828C469.757 89.9225 469.449 93.1526 468.908 96.3474C468.357 99.4891 467.524 102.575 466.419 105.566C465.299 108.551 463.916 111.431 462.286 114.171C458.646 120.185 454.623 125.959 450.242 131.457C441.707 142.044 432.031 151.659 421.391 160.128C415.884 163.186 410.798 166.946 406.259 171.313C405.353 172.189 404.492 173.111 403.632 174.018L402.188 175.185C399.147 177.717 396.235 180.399 393.462 183.221C392.033 184.65 390.789 186.125 389.452 187.585C388.116 189.045 386.933 190.581 385.673 192.087C375.953 204.37 368.579 218.34 363.92 233.296C361.587 240.728 360.017 248.378 359.234 256.128C358.62 262.105 358.466 268.129 357.867 274.075C357.206 280.636 358.543 287.35 357.744 294.049C355.361 280.895 349.832 268.512 341.628 257.957C344.255 269.235 342.228 281.296 337.265 291.76C328.048 311.243 310.673 322.69 293.405 334.352C289.155 337.23 284.874 340.216 280.562 343.31C276.261 346.383 271.913 349.671 267.765 353.281C263.518 356.919 259.553 360.874 255.905 365.113L253.247 368.431L250.728 371.889L248.362 375.484L246.181 379.341C242.036 387.3 240.095 396.223 240.558 405.185C240.711 410.539 241.359 415.868 242.494 421.103C243.446 425.128 246.949 430.552 247.102 434.47C246.611 420.288 247.394 407.336 254 394.521C260.029 383.338 268.254 373.486 278.181 365.558C281.94 362.485 285.888 359.484 290.025 356.554L292.145 355.018C291.423 356.646 290.732 358.291 290.087 359.95C287.712 366.243 285.827 372.711 284.449 379.295H284.295C282.694 386.013 281.824 392.886 281.699 399.791C281.148 408.657 281.235 417.551 281.96 426.404C282.436 431.981 283.051 437.159 283.496 442.537C283.942 447.915 284.387 453.047 284.495 458.24C284.71 469.625 283.896 482.624 279.041 493.073C275.139 501.493 267.151 512.34 258.025 515.705C266.943 512.368 274.845 506.778 280.962 499.48C284.072 495.796 286.695 491.726 288.766 487.372C290.686 483.3 291.116 479.444 292.069 475.08C293.225 469.589 293.944 464.014 294.219 458.409C294.358 456.243 294.419 454.091 294.45 451.956C296.276 455.326 298.302 458.584 300.518 461.713C305.956 469.487 311.871 476.371 317.417 483.055C320.198 486.42 322.886 489.754 325.298 493.149C327.73 496.502 329.951 500.001 331.95 503.628C332.949 505.395 333.671 507.224 334.546 509.021C334.946 509.943 335.253 510.896 335.622 511.833C335.997 512.762 336.32 513.711 336.589 514.676L337.481 517.58L338.156 520.545L338.494 522.082L338.74 523.618L339.247 526.691C341.348 543.833 337.666 561.186 328.785 575.998C335.738 569.885 341.203 562.265 344.762 553.718C345.746 551.583 346.483 549.355 347.267 547.127C347.681 546.005 347.896 544.853 348.219 543.716C348.542 542.579 348.833 541.411 349.018 540.243L349.678 536.74C349.878 535.572 349.986 534.374 350.139 533.191C350.419 530.804 350.568 528.403 350.585 526C350.651 516.21 348.662 506.516 344.747 497.544C340.86 488.54 335.33 480.734 329.953 473.436C324.576 466.138 318.969 459.377 314.406 452.401C313.807 451.541 313.284 450.665 312.731 449.789C312.178 448.913 311.656 448.053 311.195 447.162L309.659 444.504L308.246 441.799C306.399 438.164 304.802 434.406 303.468 430.552C297.972 415 296.193 398.377 298.275 382.014H298.106C301.77 366.473 308.768 351.913 318.615 339.345C321.78 335.274 325.206 331.248 328.693 327.053C332.276 322.821 335.581 318.361 338.587 313.701C342.013 308.262 343.702 302.654 345.746 296.585C349.098 309.722 347.863 323.611 342.243 335.95C352.152 325.671 360.463 315.775 364.089 301.778C365.027 298.053 365.72 294.27 366.163 290.454C366.669 286.674 366.992 282.91 367.253 279.176C367.852 271.739 368.175 264.426 369.327 257.465C370.406 250.46 372.176 243.578 374.612 236.922C375.15 235.386 375.749 233.849 376.363 232.42C374.277 245.179 373.132 258.075 372.937 271.002L372.538 291.345C372.384 298.075 372.2 304.667 371.616 310.951C371.306 314.02 370.839 317.071 370.218 320.093C369.572 322.989 368.715 325.834 367.653 328.605C366.553 331.283 365.211 333.854 363.643 336.288C362.005 338.713 360.165 340.995 358.143 343.11C353.949 347.474 348.726 351.484 343.41 356.063C340.638 358.394 338.007 360.887 335.529 363.53C332.977 366.293 330.694 369.293 328.709 372.488C326.751 375.637 325.065 378.947 323.67 382.383C322.325 385.773 321.242 389.261 320.428 392.816C318.83 399.786 318.154 406.935 318.416 414.081C318.64 421.04 319.509 427.964 321.012 434.762C322.471 441.452 324.307 448.054 326.512 454.537L327.848 454.245C326.158 440.785 324.776 427.31 325.989 414.296C326.564 407.891 327.863 401.571 329.861 395.459C330.863 392.486 332.09 389.594 333.532 386.808C334.896 384.058 336.494 381.431 338.31 378.956C340.103 376.53 342.119 374.276 344.332 372.227C346.575 370.152 349.033 368.186 351.629 366.203C357.352 362.17 362.845 357.82 368.083 353.174C368.774 352.544 369.435 351.853 370.111 351.192L372.046 349.041C372.706 348.336 373.321 347.592 373.89 346.813C374.474 346.045 375.088 345.276 375.657 344.508C377.87 341.325 379.788 337.946 381.387 334.413C382.893 330.928 384.131 327.332 385.089 323.658C385.976 320.077 386.668 316.45 387.163 312.795C387.639 309.215 387.977 305.681 388.208 302.193C388.438 298.705 388.592 295.278 388.746 291.867L389.59 271.616C390.251 258.264 391.127 245.142 393.662 232.574C395.97 220.213 400.354 208.332 406.628 197.434C409.931 191.829 413.931 186.667 418.534 182.069C427.075 189.26 434.726 195.99 439.857 206.192C444.386 215.417 447.122 225.417 447.922 235.662C448.091 237.706 448.291 239.703 448.383 241.808C448.475 243.913 448.383 246.095 448.614 248.4C448.729 250.828 449.037 253.242 449.535 255.621C450.069 258.252 451.001 260.786 452.301 263.135C454.893 267.44 458.294 271.202 462.317 274.213C464.114 275.642 465.835 276.948 467.556 278.269L472.718 282.249L477.925 286.167L480.506 288.118C481.336 288.733 482.043 289.317 482.642 289.855C483.156 290.316 483.619 290.832 484.024 291.391C484.316 291.807 484.534 292.269 484.67 292.759C484.968 293.959 484.931 295.219 484.562 296.4C484.136 297.79 483.436 299.08 482.504 300.195C481.282 301.434 479.909 302.513 478.417 303.407L475.636 305.358C474.341 306.252 473.191 307.341 472.226 308.585C471.403 309.631 470.873 310.877 470.69 312.195C470.183 315.822 472.395 320.154 474.407 322.951C475.252 324.134 476.42 324.149 477.326 325.21C477.746 325.69 478.026 326.277 478.134 326.906C478.243 327.534 478.176 328.181 477.941 328.774C477.188 330.71 475.007 331.601 473.332 332.585C471.658 333.568 469.998 334.49 468.278 335.351C466.557 336.211 464.79 336.703 463.131 337.609C462.962 337.717 462.763 337.84 462.732 338.055C462.701 338.27 463.316 338.577 463.746 338.47C465.255 337.992 466.795 337.617 468.355 337.348C469.154 337.209 469.972 337.23 470.763 337.41C471.554 337.589 472.302 337.923 472.963 338.393C473.601 338.881 474.046 339.58 474.217 340.364C474.389 341.149 474.277 341.97 473.9 342.68C473.209 343.755 471.873 344.216 470.828 344.969C469.878 345.843 469.161 346.94 468.74 348.16C468.319 349.38 468.207 350.686 468.416 351.96C468.877 357.353 470.951 362.147 472.533 367.233C473.303 369.72 473.456 372.356 472.979 374.915C472.73 376.17 472.338 377.392 471.811 378.557C471.57 379.094 471.283 379.608 470.951 380.093C470.632 380.57 470.272 381.017 469.875 381.43C468.124 383.241 465.972 384.614 463.592 385.441C456.064 388.222 445.91 388.237 437.952 388.514C410.898 389.313 381.832 386.547 357.575 373.379C368.581 385.038 382.954 392.967 398.685 396.058C395.647 398.454 392.778 401.057 390.097 403.848L386.841 407.336C385.781 408.503 384.613 409.779 383.553 411.039C379.236 416.1 375.356 421.517 371.954 427.233C368.537 432.909 365.504 438.807 362.875 444.888C359.904 451.387 358.334 458.439 358.266 465.585C358.389 472.722 360.122 479.739 363.336 486.112C371.309 502.322 386.195 514.015 394.583 529.979C399.192 538.753 401.174 548.617 403.079 558.266C411.39 533.805 394 516.289 381.126 497.805C377.595 492.931 374.607 487.686 372.215 482.163C370.032 476.979 369.024 471.374 369.266 465.754C369.631 460.153 371.131 454.685 373.675 449.682C378.97 438.766 385.596 428.547 393.4 419.259C394.368 418.076 395.321 416.985 396.365 415.771C397.41 414.557 398.424 413.328 399.438 412.145C401.481 409.763 403.448 407.428 405.475 405.246C406.489 404.155 407.503 403.11 408.548 402.173L409.301 401.466L409.915 400.928C410.345 400.599 410.791 400.291 411.252 400.007C416.367 396.934 423.035 398.194 428.719 397.779C436.277 397.225 443.836 396.642 451.41 396.242C452.946 396.242 454.651 396.073 456.341 395.904C459.96 395.633 463.518 394.819 466.895 393.492C470.447 392.013 473.603 389.724 476.113 386.808C476.757 386.021 477.338 385.183 477.849 384.303C478.344 383.429 478.766 382.514 479.108 381.569C479.766 379.783 480.215 377.926 480.445 376.037C480.837 372.279 480.31 368.483 478.909 364.974C477.603 361.748 476.128 359.059 475.222 356.493C474.772 355.269 474.508 353.984 474.438 352.682C474.438 351.284 474.438 349.978 475.974 349.363C476.596 349.127 477.232 348.932 477.879 348.78C479.007 348.414 480.03 347.784 480.864 346.942C481.698 346.1 482.318 345.07 482.672 343.94C483.087 342.562 483.087 341.092 482.672 339.714C482.58 339.407 481.136 336.226 480.522 336.641C481.591 335.82 482.569 334.888 483.441 333.86C484.5 332.651 485.282 331.225 485.73 329.681C486.275 327.93 486.275 326.054 485.73 324.303C485.493 323.504 485.163 322.736 484.746 322.014L483.948 320.477L480.875 314.823L480.092 313.425C480.337 313.24 480.645 313.04 480.967 312.841L483.64 311.304C485.961 310.096 488.085 308.542 489.939 306.695C491.888 304.577 493.374 302.075 494.302 299.35C495.332 296.386 495.508 293.191 494.809 290.131C494.419 288.497 493.759 286.939 492.858 285.522C492.029 284.278 491.065 283.129 489.985 282.095C488.987 281.158 488.003 280.374 487.112 279.668L484.516 277.639L479.354 273.645L469.077 265.808C466.06 263.674 463.457 261.008 461.395 257.941C459.741 254.738 458.828 251.204 458.722 247.601L458.261 241.163C456.602 222.494 449.919 204.656 449.29 185.695C448.813 171.559 454.743 155.703 461.872 143.764C462.348 143.211 462.839 142.673 463.316 142.104C466.388 138.54 469.184 134.837 471.903 131.042C480.945 131.606 489.839 133.608 498.25 136.973L484.332 108.701C485.366 105.794 486.207 102.822 486.851 99.8046C487.689 95.6954 488.228 91.5307 488.464 87.3435C488.659 83.247 488.612 79.1426 488.326 75.0515C488.034 71.0259 487.558 67.077 486.974 63.1897L486.498 60.2857C486.498 59.794 486.36 59.3792 486.252 58.7492L485.914 57.059C485.427 54.8786 484.811 52.7289 484.07 50.6211C482.227 45.2587 478.571 40.2958 476.128 35.1639C473.236 29.3351 471.069 23.1739 469.676 16.818C469.364 14.3885 468.669 12.0237 467.617 9.81157C465.221 5.60156 458.231 1.13033 453.407 0.961313C452.155 0.940267 450.904 1.04839 449.674 1.28398C448.414 1.48372 447.17 1.7603 445.925 2.0676C444.681 2.3749 443.452 2.77439 442.238 3.20461C441.025 3.63483 439.826 4.1726 438.659 4.74111C436.247 5.89667 433.978 7.33022 431.899 9.01259L431.745 8.9204L430.839 9.55036C422.758 15.1893 415.676 21.2893 408.609 27.3277C401.543 33.3662 394.783 39.4968 388.008 45.6582C384.608 48.7312 381.151 51.7376 377.638 54.6775C374.013 57.7505 370.495 60.7006 366.977 63.5124C359.941 69.1206 352.889 74.0374 345.469 77.0643C341.861 78.5299 338.091 79.5615 334.239 80.1373C332.3 80.4258 330.345 80.5952 328.386 80.6444C326.281 80.6444 324.084 80.6444 321.811 80.6444C317.279 80.5368 312.393 80.2602 307.201 80.4446C301.806 80.6019 296.446 81.3699 291.224 82.734C281.178 85.548 271.693 90.0754 263.187 96.1169C253.969 102.371 246.995 110.606 237.362 116.091C227.704 121.624 217.269 125.674 206.407 128.107C192.473 131.18 179.799 135.789 165.327 137.649C153.122 139.184 140.835 139.979 128.534 140.03C116.366 140.126 104.21 139.289 92.1705 137.526L67.4674 133.792L82.323 152.998C91.1611 164.392 102.727 173.375 115.952 179.119C120.01 180.868 124.196 182.306 128.472 183.421C126.567 184.036 124.662 184.65 122.742 185.219C111.02 188.691 98.0236 189.675 85.8718 190.842C75.6557 191.826 65.4088 192.471 55.1466 193.009L43.9473 193.439ZM477.296 341.558C477.296 341.558 477.296 341.558 477.296 341.681V341.558ZM479.431 312.487C479.426 312.431 479.426 312.375 479.431 312.318C479.431 312.318 479.431 312.38 479.431 312.487ZM324.115 115.815C324.115 115.953 324.207 116.107 324.238 116.245C324.301 116.538 324.336 116.837 324.345 117.136C324.335 117.341 324.335 117.546 324.345 117.751L324.453 118.427C324.53 118.873 324.453 119.226 324.576 119.625C324.699 120.025 324.576 120.317 324.576 120.64C324.557 121.247 324.419 121.845 324.168 122.399C323.918 122.952 323.56 123.451 323.117 123.866C321.701 125.286 320.099 126.506 318.354 127.492C316.418 128.706 314.237 129.889 312.025 131.226C310.318 132.242 308.672 133.355 307.093 134.56C307.309 132.494 307.642 130.442 308.092 128.414C309.09 123.805 310.949 119.825 313.499 117.981C314.804 117.01 316.34 116.396 317.955 116.199C319.995 115.912 322.055 115.783 324.115 115.815ZM167.816 155.242C176.972 153.797 186.046 151.979 195.038 149.787C180.353 159.834 164.783 168.52 148.521 175.739C146.708 176.538 144.895 177.275 143.067 178.028C135.568 175.8 128.47 172.398 122.035 167.948C118.267 165.341 114.754 162.382 111.543 159.114C117.35 159.267 123.126 159.267 128.902 159.114C141.94 158.611 154.935 157.318 167.816 155.242ZM189.4 329.297C190.184 328.851 190.937 328.375 191.736 327.914C193.533 327.069 195.254 326.162 197.128 325.363C204.471 322.075 212.337 319.217 220.172 316.144C219.772 316.851 219.373 317.542 218.989 318.249C215.882 323.97 213.227 329.924 211.046 336.057C209.956 339.13 209.034 342.203 208.097 345.276C207.605 346.813 207.252 348.349 206.852 349.886C206.453 351.422 206.038 352.959 205.731 354.572L204.794 359.305C204.502 360.841 204.333 362.47 204.087 364.052C203.841 365.635 203.626 367.233 203.488 368.831C203.35 370.429 203.181 372.011 203.058 373.609C201.291 401.804 209.787 428.816 209.433 456.581C209.42 465.91 208.421 475.211 206.453 484.33C203.38 479.136 200.308 474.005 197.235 468.965C192.995 461.789 188.771 454.721 184.945 447.454C181.103 440.358 177.636 433.065 174.56 425.605C171.594 418.33 169.255 410.815 167.57 403.141L166.971 400.283L166.495 397.41C166.126 395.505 165.942 393.584 165.696 391.663C165.45 389.743 165.373 387.884 165.281 385.978C165.189 384.073 165.158 382.152 165.281 380.247C165.462 372.602 166.713 365.02 168.999 357.722L169.89 355.018C170.182 354.127 170.581 353.282 170.919 352.406C171.257 351.53 171.595 350.639 172.01 349.809L173.254 347.32C173.659 346.486 174.11 345.675 174.606 344.892L176.02 342.511L177.556 340.283C178.053 339.521 178.614 338.801 179.23 338.132L181.012 336.073C181.596 335.381 182.303 334.843 182.948 334.198L183.931 333.276C184.249 332.956 184.593 332.663 184.961 332.4L187.096 330.772C187.822 330.218 188.593 329.724 189.4 329.297ZM219.588 267.837C222.906 267.837 226.363 268.052 229.896 268.374C242.017 269.388 254.922 271.447 268.303 271.878C265.425 273.312 262.572 274.848 259.746 276.487C238.714 288.656 225.687 305.681 198.894 300.779C187.311 298.674 175.205 295.432 164.006 299.058C175.298 278.884 194.455 268.175 217.115 267.898L219.588 267.837Z" fill="#7C6E5F"/>
<path d="M402.188 255.744C404.175 252.055 406.869 248.792 410.115 246.141C413.4 243.408 417.146 241.28 421.176 239.857C425.337 238.344 429.811 237.9 434.188 238.566C438.58 239.208 442.58 241.452 445.418 244.866L444.634 245.987C441.128 244.783 437.432 244.226 433.727 244.343C430.195 244.519 426.705 245.186 423.357 246.325C419.863 247.505 416.476 248.98 413.233 250.735C409.884 252.487 406.643 254.515 403.201 256.666L402.188 255.744Z" fill="#7C6E5F"/>
<path d="M443.959 263.196L445.004 264.84C445.265 265.246 445.433 265.705 445.496 266.183C445.559 266.661 445.516 267.148 445.369 267.607C445.222 268.067 444.976 268.488 444.647 268.841C444.318 269.194 443.916 269.47 443.468 269.65C437.613 271.953 431.284 272.787 425.033 272.077C417.838 271.354 411.02 268.509 405.445 263.903L406.229 262.781C411.994 265.969 418.576 267.376 425.14 266.822C430.195 266.435 435.086 264.855 439.412 262.213C439.775 261.979 440.181 261.818 440.606 261.741C441.031 261.663 441.467 261.67 441.89 261.762C442.312 261.853 442.712 262.027 443.067 262.273C443.422 262.519 443.726 262.833 443.959 263.196Z" fill="#7C6E5F"/>
<path d="M0.962891 449.743C12.9457 450.281 24.1451 443.152 32.0107 434.102C39.8764 425.052 45.1765 414.127 51.3829 403.817C57.5894 393.507 65.2093 383.535 75.8709 378.096C81.3707 375.284 99.1606 374.762 101.127 367.341C98.3157 377.927 90.3732 385.118 83.245 392.954C74.898 402.173 66.1567 410.967 57.021 419.336C70.8474 414.158 82.4 404.078 91.5562 392.493C100.712 380.908 107.672 367.786 114.6 354.741C115.722 359.781 114.938 367.832 114.6 373.179C114.096 379.812 112.35 386.29 109.454 392.278C103.831 404.309 94.7208 414.619 84.6123 423.1C62.8742 441.354 29.3991 451.018 0.962891 449.743Z" fill="#7C6E5F"/>
<path d="M367.008 544.315C369.097 532.73 368.175 520.899 366.869 509.283C376.64 530.287 374.843 554.61 372.83 577.688C380.942 556.955 380.649 533.875 372.016 513.354C391.864 543.209 393.186 584.725 371.478 613.995C366.117 600.305 360.724 586.046 361.661 571.357C362.291 562.185 365.395 553.38 367.008 544.315Z" fill="#7C6E5F"/>
<path d="M322.165 538.154C319.261 554.579 308.645 568.438 298.337 581.56C302.854 574.384 303.284 565.288 301.84 556.976C300.396 548.663 297.231 540.658 295.05 532.392C292.868 524.125 291.654 515.413 294.097 507.285C295.219 503.613 296.862 498.45 299.305 495.469C299.598 495.071 300.018 494.785 300.495 494.656C300.972 494.528 301.479 494.565 301.932 494.763C302.582 495.258 303.017 495.984 303.146 496.791C306.805 509.497 309.44 522.476 311.027 535.603C312.982 520.227 310.945 504.606 305.112 490.245C309.367 492.642 312.041 497.513 314.591 501.493C321.58 512.348 324.28 525.417 322.165 538.154Z" fill="#7C6E5F"/>
<path d="M161.025 467.198C166.003 477.831 168.707 489.831 166.74 501.385C164.636 513.262 157.661 523.726 149.657 532.745C148.735 520.115 136.307 511.803 130.438 500.586C123.372 487.065 126.398 470.701 129.609 455.782L134.848 431.397C141.926 453.64 146.305 476.653 147.89 499.941C147.583 495.485 149.319 490.215 149.596 485.651C150.494 470.311 148.588 454.935 143.973 440.278C149.918 449.236 156.447 457.457 161.025 467.198Z" fill="#7C6E5F"/>
<path d="M190.952 613.872C193.825 606.528 191.551 598.308 190.952 590.425C190.324 582.106 191.611 573.754 194.716 566.01C196.359 562.19 198.322 558.515 200.584 555.024C201.721 553.273 207.789 547.419 207.759 545.698C208.02 559.649 206.16 573.56 202.243 586.953C208.35 575.629 212.309 563.272 213.919 550.507C216.975 559.273 217.623 568.699 215.797 577.801C213.97 586.903 209.735 595.349 203.534 602.256C200.185 605.959 192.765 609.232 190.952 613.872Z" fill="#7C6E5F"/>
<path d="M261.604 473.451C259.823 485.504 253.55 496.438 244.045 504.059C245.166 492.212 240.404 480.734 237.547 469.195C234.689 457.656 234.198 444.089 242.155 435.3C248.265 448.999 250.67 464.062 249.13 478.983C251.39 471.32 252.539 463.372 252.54 455.382C252.54 448.944 249.975 441.738 250.528 435.577C254.061 437.467 256.581 444.135 258.117 447.73C261.608 455.824 262.814 464.72 261.604 473.451Z" fill="#7C6E5F"/>
<path d="M261.036 612.397C262.204 602.164 259.162 591.946 255.629 582.267C252.095 572.587 247.947 562.968 246.903 552.72C245.858 542.471 248.255 531.209 255.951 524.402C261.614 536.839 264.392 550.396 264.078 564.059C264.247 556.776 266.044 550.23 265.092 542.732C264.493 538.031 260.898 531.408 261.512 527.029C269.086 530.102 271.329 543.716 272.266 550.522C274.003 563.975 273.111 577.636 269.639 590.748C267.619 598.273 264.732 605.538 261.036 612.397Z" fill="#7C6E5F"/>
<path d="M72.2298 475.633C66.4052 481.415 62.1239 488.566 59.7782 496.431C57.4324 504.296 57.0971 512.625 58.8029 520.653C65.0554 511.28 76.5467 507.208 87.1929 503.552C97.8392 499.895 109.284 495.331 114.846 485.559C118.008 479.504 119.174 472.604 118.179 465.846C117.185 459.124 115.48 452.526 113.094 446.163C113.383 454.869 111.101 463.467 106.533 470.884C101.964 478.3 95.3125 484.206 87.408 487.864C98.3439 475.354 105.616 460.068 108.424 443.689C107.779 447.531 101.434 451.51 98.761 453.953C90.3423 461.667 80.4027 467.674 72.2298 475.633Z" fill="#7C6E5F"/>
<path d="M424.679 537.892C420.884 527.429 413.31 518.855 405.675 510.773C396.642 501.185 385.612 490.66 382.462 477.354C381.033 471.346 382.462 465.969 383.998 460.176C388.93 479.321 410.315 490.123 417.228 508.637C416.429 497.375 409.439 487.603 402.311 478.829C395.182 470.056 387.44 461.206 384.644 450.25C392.939 465.953 409.408 471.039 420.853 483.7C430.071 493.841 430.808 506.747 429.533 519.777C429.134 523.403 423.757 535.28 424.679 537.892Z" fill="#7C6E5F"/>
</svg>
